<svg width="2432" height="1512" viewBox="0 0 2432 1512" fill="none" xmlns="http://www.w3.org/2000/svg">
<rect x="943.988" width="205" height="1335" rx="90" transform="rotate(45 943.988 0)" fill="#2D3748"/>
<rect x="1343.78" y="14" width="205" height="1857.96" rx="90" transform="rotate(45 1343.78 14)" fill="#2D3748"/>
<circle cx="1964.09" cy="1494.08" r="15" transform="rotate(-89.6476 1964.09 1494.08)" fill="#A0AEC0"/>
<circle cx="2164.09" cy="1495.31" r="15" transform="rotate(-89.6476 2164.09 1495.31)" fill="#A0AEC0"/>
<circle cx="2064.09" cy="1494.7" r="15" transform="rotate(-89.6476 2064.09 1494.7)" fill="#A0AEC0"/>
<circle cx="2264.09" cy="1495.93" r="15" transform="rotate(-89.6476 2264.09 1495.93)" fill="#A0AEC0"/>
<circle cx="2364.09" cy="1496.54" r="15" transform="rotate(-89.6476 2364.09 1496.54)" fill="#A0AEC0"/>
<circle cx="2014.09" cy="1494.39" r="15" transform="rotate(-89.6476 2014.09 1494.39)" fill="#A0AEC0"/>
<circle cx="2214.09" cy="1495.62" r="15" transform="rotate(-89.6476 2214.09 1495.62)" fill="#A0AEC0"/>
<circle cx="2114.09" cy="1495.01" r="15" transform="rotate(-89.6476 2114.09 1495.01)" fill="#A0AEC0"/>
<circle cx="2314.09" cy="1496.24" r="15" transform="rotate(-89.6476 2314.09 1496.24)" fill="#A0AEC0"/>
<circle cx="2414.09" cy="1496.85" r="15" transform="rotate(-89.6476 2414.09 1496.85)" fill="#A0AEC0"/>
<circle cx="2165.01" cy="1345.32" r="15" transform="rotate(-89.6476 2165.01 1345.32)" fill="#A0AEC0"/>
<circle cx="2265.01" cy="1345.93" r="15" transform="rotate(-89.6476 2265.01 1345.93)" fill="#A0AEC0"/>
<circle cx="2365.01" cy="1346.55" r="15" transform="rotate(-89.6476 2365.01 1346.55)" fill="#A0AEC0"/>
<circle cx="2215.01" cy="1345.62" r="15" transform="rotate(-89.6476 2215.01 1345.62)" fill="#A0AEC0"/>
<circle cx="2115.01" cy="1345.01" r="15" transform="rotate(-89.6476 2115.01 1345.01)" fill="#A0AEC0"/>
<circle cx="2315.01" cy="1346.24" r="15" transform="rotate(-89.6476 2315.01 1346.24)" fill="#A0AEC0"/>
<circle cx="2415.01" cy="1346.85" r="15" transform="rotate(-89.6476 2415.01 1346.85)" fill="#A0AEC0"/>
<circle cx="2366.24" cy="1146.55" r="15" transform="rotate(-89.6476 2366.24 1146.55)" fill="#A0AEC0"/>
<circle cx="2316.24" cy="1146.24" r="15" transform="rotate(-89.6476 2316.24 1146.24)" fill="#A0AEC0"/>
<circle cx="2416.24" cy="1146.86" r="15" transform="rotate(-89.6476 2416.24 1146.86)" fill="#A0AEC0"/>
<circle cx="2164.71" cy="1395.32" r="15" transform="rotate(-89.6476 2164.71 1395.32)" fill="#A0AEC0"/>
<circle cx="2064.71" cy="1394.7" r="15" transform="rotate(-89.6476 2064.71 1394.7)" fill="#A0AEC0"/>
<circle cx="2264.7" cy="1395.93" r="15" transform="rotate(-89.6476 2264.7 1395.93)" fill="#A0AEC0"/>
<circle cx="2364.7" cy="1396.55" r="15" transform="rotate(-89.6476 2364.7 1396.55)" fill="#A0AEC0"/>
<circle cx="2214.7" cy="1395.62" r="15" transform="rotate(-89.6476 2214.7 1395.62)" fill="#A0AEC0"/>
<circle cx="2114.71" cy="1395.01" r="15" transform="rotate(-89.6476 2114.71 1395.01)" fill="#A0AEC0"/>
<circle cx="2314.7" cy="1396.24" r="15" transform="rotate(-89.6476 2314.7 1396.24)" fill="#A0AEC0"/>
<circle cx="2414.7" cy="1396.85" r="15" transform="rotate(-89.6476 2414.7 1396.85)" fill="#A0AEC0"/>
<circle cx="2265.93" cy="1195.93" r="15" transform="rotate(-89.6476 2265.93 1195.93)" fill="#A0AEC0"/>
<circle cx="2365.93" cy="1196.55" r="15" transform="rotate(-89.6476 2365.93 1196.55)" fill="#A0AEC0"/>
<circle cx="2315.93" cy="1196.24" r="15" transform="rotate(-89.6476 2315.93 1196.24)" fill="#A0AEC0"/>
<circle cx="2415.93" cy="1196.86" r="15" transform="rotate(-89.6476 2415.93 1196.86)" fill="#A0AEC0"/>
<circle cx="2265.63" cy="1245.93" r="15" transform="rotate(-89.6476 2265.63 1245.93)" fill="#A0AEC0"/>
<circle cx="2365.62" cy="1246.55" r="15" transform="rotate(-89.6476 2365.62 1246.55)" fill="#A0AEC0"/>
<circle cx="2215.63" cy="1245.63" r="15" transform="rotate(-89.6476 2215.63 1245.63)" fill="#A0AEC0"/>
<circle cx="2315.62" cy="1246.24" r="15" transform="rotate(-89.6476 2315.62 1246.24)" fill="#A0AEC0"/>
<circle cx="2415.62" cy="1246.86" r="15" transform="rotate(-89.6476 2415.62 1246.86)" fill="#A0AEC0"/>
<circle cx="2416.85" cy="1046.86" r="15" transform="rotate(-89.6476 2416.85 1046.86)" fill="#A0AEC0"/>
<circle cx="2164.4" cy="1445.31" r="15" transform="rotate(-89.6476 2164.4 1445.31)" fill="#A0AEC0"/>
<circle cx="2064.4" cy="1444.7" r="15" transform="rotate(-89.6476 2064.4 1444.7)" fill="#A0AEC0"/>
<circle cx="2264.4" cy="1445.93" r="15" transform="rotate(-89.6476 2264.4 1445.93)" fill="#A0AEC0"/>
<circle cx="2364.39" cy="1446.54" r="15" transform="rotate(-89.6476 2364.39 1446.54)" fill="#A0AEC0"/>
<circle cx="2014.4" cy="1444.39" r="15" transform="rotate(-89.6476 2014.4 1444.39)" fill="#A0AEC0"/>
<circle cx="2214.4" cy="1445.62" r="15" transform="rotate(-89.6476 2214.4 1445.62)" fill="#A0AEC0"/>
<circle cx="2114.4" cy="1445.01" r="15" transform="rotate(-89.6476 2114.4 1445.01)" fill="#A0AEC0"/>
<circle cx="2314.39" cy="1446.24" r="15" transform="rotate(-89.6476 2314.39 1446.24)" fill="#A0AEC0"/>
<circle cx="2414.39" cy="1446.85" r="15" transform="rotate(-89.6476 2414.39 1446.85)" fill="#A0AEC0"/>
<circle cx="2165.32" cy="1295.32" r="15" transform="rotate(-89.6476 2165.32 1295.32)" fill="#A0AEC0"/>
<circle cx="2265.32" cy="1295.93" r="15" transform="rotate(-89.6476 2265.32 1295.93)" fill="#A0AEC0"/>
<circle cx="2365.32" cy="1296.55" r="15" transform="rotate(-89.6476 2365.32 1296.55)" fill="#A0AEC0"/>
<circle cx="2215.32" cy="1295.62" r="15" transform="rotate(-89.6476 2215.32 1295.62)" fill="#A0AEC0"/>
<circle cx="2315.32" cy="1296.24" r="15" transform="rotate(-89.6476 2315.32 1296.24)" fill="#A0AEC0"/>
<circle cx="2415.32" cy="1296.85" r="15" transform="rotate(-89.6476 2415.32 1296.85)" fill="#A0AEC0"/>
<circle cx="2366.55" cy="1096.55" r="15" transform="rotate(-89.6476 2366.55 1096.55)" fill="#A0AEC0"/>
<circle cx="2416.55" cy="1096.86" r="15" transform="rotate(-89.6476 2416.55 1096.86)" fill="#A0AEC0"/>
<g filter="url(#filter0_d)">
<rect x="374.001" y="288" width="1920" height="1080" rx="20" fill="#EDF2F7"/>
<rect x="373.501" y="287.5" width="1921" height="1081" rx="20.5" stroke="black"/>
</g>
<g filter="url(#filter1_dd)">
<path d="M564 517C564 494.909 581.909 477 604 477H2064C2086.09 477 2104 494.909 2104 517V1368H564V517Z" fill="white"/>
</g>
<rect x="454.001" y="317" width="261" height="111" rx="40" fill="#C53030"/>
<rect x="743.001" y="350" width="308" height="45" rx="20" fill="#A0AEC0"/>
<rect x="641" y="511" width="674" height="61" rx="30" fill="#EDF2F7"/>
<rect x="1262" y="526" width="32" height="32" rx="16" fill="#C53030"/>
<rect x="664" y="526" width="32" height="32" rx="16" fill="#A0AEC0"/>
<rect x="722" y="526" width="367" height="32" rx="16" fill="#A0AEC0"/>
<rect x="1327" y="567" width="700" height="5" fill="#A0AEC0"/>
<rect x="1344" y="521" width="125" height="32" rx="16" fill="#A0AEC0"/>
<rect x="1519" y="521" width="125" height="32" rx="16" fill="#C53030"/>
<rect x="1694" y="521" width="125" height="32" rx="16" fill="#C53030"/>
<rect x="1869" y="521" width="125" height="32" rx="16" fill="#A0AEC0"/>
<g filter="url(#filter2_dd)">
<rect x="649" y="655" width="409" height="376" rx="40" fill="#F7FAFC"/>
</g>
<path d="M649 695C649 672.909 666.908 655 689 655H1018C1040.09 655 1058 672.909 1058 695V853H649V695Z" fill="#63B3ED"/>
<rect x="740" y="866" width="228" height="29" rx="14.5" fill="#C53030"/>
<rect x="686" y="907" width="336" height="58" rx="29" fill="#4A5568"/>
<path d="M774 977L778.49 990.82H793.021L781.265 999.361L785.756 1013.18L774 1004.64L762.244 1013.18L766.734 999.361L754.979 990.82H769.51L774 977Z" fill="#F6E05E"/>
<path d="M814 978L818.49 991.82H833.021L821.265 1000.36L825.756 1014.18L814 1005.64L802.244 1014.18L806.734 1000.36L794.979 991.82H809.51L814 978Z" fill="#F6E05E"/>
<path d="M854 978L858.49 991.82H873.021L861.265 1000.36L865.756 1014.18L854 1005.64L842.244 1014.18L846.734 1000.36L834.979 991.82H849.51L854 978Z" fill="#F6E05E"/>
<path d="M894 977L898.49 990.82H913.021L901.265 999.361L905.756 1013.18L894 1004.64L882.244 1013.18L886.734 999.361L874.979 990.82H889.51L894 977Z" fill="#F6E05E"/>
<path d="M934 978L938.49 991.82H953.021L941.265 1000.36L945.756 1014.18L934 1005.64L922.244 1014.18L926.734 1000.36L914.979 991.82H929.51L934 978Z" fill="#A0AEC0"/>
<g filter="url(#filter3_dd)">
<rect x="1129" y="655" width="409" height="376" rx="40" fill="#F7FAFC"/>
</g>
<path d="M1129 695C1129 672.909 1146.91 655 1169 655H1498C1520.09 655 1538 672.909 1538 695V853H1129V695Z" fill="#4FD1C5"/>
<rect x="1166" y="866" width="336" height="29" rx="14.5" fill="#C53030"/>
<rect x="1166" y="907" width="336" height="37" rx="18.5" fill="#4A5568"/>
<path d="M1254 977L1258.49 990.82H1273.02L1261.27 999.361L1265.76 1013.18L1254 1004.64L1242.25 1013.18L1246.74 999.361L1234.98 990.82H1249.51L1254 977Z" fill="#F6E05E"/>
<path d="M1294 978L1298.49 991.82H1313.02L1301.27 1000.36L1305.76 1014.18L1294 1005.64L1282.25 1014.18L1286.74 1000.36L1274.98 991.82H1289.51L1294 978Z" fill="#F6E05E"/>
<path d="M1334 978L1338.49 991.82H1353.02L1341.27 1000.36L1345.76 1014.18L1334 1005.64L1322.25 1014.18L1326.74 1000.36L1314.98 991.82H1329.51L1334 978Z" fill="#F6E05E"/>
<path d="M1374 977L1378.49 990.82H1393.02L1381.27 999.361L1385.76 1013.18L1374 1004.64L1362.25 1013.18L1366.74 999.361L1354.98 990.82H1369.51L1374 977Z" fill="#F6E05E"/>
<path d="M1414 978L1418.49 991.82H1433.02L1421.27 1000.36L1425.76 1014.18L1414 1005.64L1402.25 1014.18L1406.74 1000.36L1394.98 991.82H1409.51L1414 978Z" fill="#A0AEC0"/>
<g filter="url(#filter4_dd)">
<rect x="1609" y="655" width="409" height="376" rx="40" fill="#F7FAFC"/>
</g>
<path d="M1609 695C1609 672.909 1626.91 655 1649 655H1978C2000.09 655 2018 672.909 2018 695V853H1609V695Z" fill="#7F9CF5"/>
<rect x="1763" y="866" width="102" height="29" rx="14.5" fill="#C53030"/>
<rect x="1646" y="907" width="336" height="70" rx="35" fill="#4A5568"/>
<path d="M1734 977L1738.49 990.82H1753.02L1741.27 999.361L1745.76 1013.18L1734 1004.64L1722.25 1013.18L1726.74 999.361L1714.98 990.82H1729.51L1734 977Z" fill="#F6E05E"/>
<path d="M1774 978L1778.49 991.82H1793.02L1781.27 1000.36L1785.76 1014.18L1774 1005.64L1762.25 1014.18L1766.74 1000.36L1754.98 991.82H1769.51L1774 978Z" fill="#F6E05E"/>
<path d="M1814 978L1818.49 991.82H1833.02L1821.27 1000.36L1825.76 1014.18L1814 1005.64L1802.25 1014.18L1806.74 1000.36L1794.98 991.82H1809.51L1814 978Z" fill="#F6E05E"/>
<path d="M1854 977L1858.49 990.82H1873.02L1861.27 999.361L1865.76 1013.18L1854 1004.64L1842.25 1013.18L1846.74 999.361L1834.98 990.82H1849.51L1854 977Z" fill="#A0AEC0"/>
<path d="M1894 978L1898.49 991.82H1913.02L1901.27 1000.36L1905.76 1014.18L1894 1005.64L1882.25 1014.18L1886.74 1000.36L1874.98 991.82H1889.51L1894 978Z" fill="#A0AEC0"/>
<g filter="url(#filter5_dd)">
<path d="M649 1128C649 1105.91 666.908 1088 689 1088H1018C1040.09 1088 1058 1105.91 1058 1128V1368H649V1128Z" fill="#F7FAFC"/>
</g>
<path d="M649 1128C649 1105.91 666.908 1088 689 1088H1018C1040.09 1088 1058 1105.91 1058 1128V1286H649V1128Z" fill="#F687B3"/>
<rect x="708" y="1299" width="292" height="29" rx="14.5" fill="#C53030"/>
<path d="M686 1368C686 1352.54 698.536 1340 714 1340H994C1009.46 1340 1022 1352.54 1022 1368H686Z" fill="#4A5568"/>
<g filter="url(#filter6_dd)">
<path d="M1609 1128C1609 1105.91 1626.91 1088 1649 1088H1978C2000.09 1088 2018 1105.91 2018 1128V1368H1609V1128Z" fill="#F7FAFC"/>
</g>
<path d="M1609 1128C1609 1105.91 1626.91 1088 1649 1088H1978C2000.09 1088 2018 1105.91 2018 1128V1286H1609V1128Z" fill="#63B3ED"/>
<rect x="1742" y="1299" width="144" height="29" rx="14.5" fill="#C53030"/>
<path d="M1646 1368C1646 1352.54 1658.54 1340 1674 1340H1954C1969.47 1340 1982 1352.54 1982 1368H1646Z" fill="#4A5568"/>
<g filter="url(#filter7_dd)">
<path d="M1129 1128C1129 1105.91 1146.91 1088 1169 1088H1498C1520.09 1088 1538 1105.91 1538 1128V1368H1129V1128Z" fill="#F7FAFC"/>
</g>
<path d="M1129 1128C1129 1105.91 1146.91 1088 1169 1088H1498C1520.09 1088 1538 1105.91 1538 1128V1286H1129V1128Z" fill="#4A5568"/>
<rect x="1199" y="1299" width="270" height="29" rx="14.5" fill="#C53030"/>
<path d="M1166 1368C1166 1352.54 1178.54 1340 1194 1340H1474C1489.47 1340 1502 1352.54 1502 1368H1166Z" fill="#4A5568"/>
<defs>
<filter id="filter0_d" x="323.001" y="262" width="2022" height="1182" filterUnits="userSpaceOnUse" color-interpolation-filters="sRGB">
<feFlood flood-opacity="0" result="BackgroundImageFix"/>
<feColorMatrix in="SourceAlpha" type="matrix" values="0 0 0 0 0 0 0 0 0 0 0 0 0 0 0 0 0 0 127 0"/>
<feOffset dy="25"/>
<feGaussianBlur stdDeviation="25"/>
<feColorMatrix type="matrix" values="0 0 0 0 0 0 0 0 0 0 0 0 0 0 0 0 0 0 0.25 0"/>
<feBlend mode="normal" in2="BackgroundImageFix" result="effect1_dropShadow"/>
<feBlend mode="normal" in="SourceGraphic" in2="effect1_dropShadow" result="shape"/>
</filter>
<filter id="filter1_dd" x="549" y="472" width="1570" height="921" filterUnits="userSpaceOnUse" color-interpolation-filters="sRGB">
<feFlood flood-opacity="0" result="BackgroundImageFix"/>
<feColorMatrix in="SourceAlpha" type="matrix" values="0 0 0 0 0 0 0 0 0 0 0 0 0 0 0 0 0 0 127 0"/>
<feOffset dy="4"/>
<feGaussianBlur stdDeviation="3"/>
<feColorMatrix type="matrix" values="0 0 0 0 0 0 0 0 0 0 0 0 0 0 0 0 0 0 0.05 0"/>
<feBlend mode="normal" in2="BackgroundImageFix" result="effect1_dropShadow"/>
<feColorMatrix in="SourceAlpha" type="matrix" values="0 0 0 0 0 0 0 0 0 0 0 0 0 0 0 0 0 0 127 0"/>
<feOffset dy="10"/>
<feGaussianBlur stdDeviation="7.5"/>
<feColorMatrix type="matrix" values="0 0 0 0 0 0 0 0 0 0 0 0 0 0 0 0 0 0 0.1 0"/>
<feBlend mode="normal" in2="effect1_dropShadow" result="effect2_dropShadow"/>
<feBlend mode="normal" in="SourceGraphic" in2="effect2_dropShadow" result="shape"/>
</filter>
<filter id="filter2_dd" x="634" y="650" width="439" height="406" filterUnits="userSpaceOnUse" color-interpolation-filters="sRGB">
<feFlood flood-opacity="0" result="BackgroundImageFix"/>
<feColorMatrix in="SourceAlpha" type="matrix" values="0 0 0 0 0 0 0 0 0 0 0 0 0 0 0 0 0 0 127 0"/>
<feOffset dy="4"/>
<feGaussianBlur stdDeviation="3"/>
<feColorMatrix type="matrix" values="0 0 0 0 0 0 0 0 0 0 0 0 0 0 0 0 0 0 0.05 0"/>
<feBlend mode="normal" in2="BackgroundImageFix" result="effect1_dropShadow"/>
<feColorMatrix in="SourceAlpha" type="matrix" values="0 0 0 0 0 0 0 0 0 0 0 0 0 0 0 0 0 0 127 0"/>
<feOffset dy="10"/>
<feGaussianBlur stdDeviation="7.5"/>
<feColorMatrix type="matrix" values="0 0 0 0 0 0 0 0 0 0 0 0 0 0 0 0 0 0 0.1 0"/>
<feBlend mode="normal" in2="effect1_dropShadow" result="effect2_dropShadow"/>
<feBlend mode="normal" in="SourceGraphic" in2="effect2_dropShadow" result="shape"/>
</filter>
<filter id="filter3_dd" x="1114" y="650" width="439" height="406" filterUnits="userSpaceOnUse" color-interpolation-filters="sRGB">
<feFlood flood-opacity="0" result="BackgroundImageFix"/>
<feColorMatrix in="SourceAlpha" type="matrix" values="0 0 0 0 0 0 0 0 0 0 0 0 0 0 0 0 0 0 127 0"/>
<feOffset dy="4"/>
<feGaussianBlur stdDeviation="3"/>
<feColorMatrix type="matrix" values="0 0 0 0 0 0 0 0 0 0 0 0 0 0 0 0 0 0 0.05 0"/>
<feBlend mode="normal" in2="BackgroundImageFix" result="effect1_dropShadow"/>
<feColorMatrix in="SourceAlpha" type="matrix" values="0 0 0 0 0 0 0 0 0 0 0 0 0 0 0 0 0 0 127 0"/>
<feOffset dy="10"/>
<feGaussianBlur stdDeviation="7.5"/>
<feColorMatrix type="matrix" values="0 0 0 0 0 0 0 0 0 0 0 0 0 0 0 0 0 0 0.1 0"/>
<feBlend mode="normal" in2="effect1_dropShadow" result="effect2_dropShadow"/>
<feBlend mode="normal" in="SourceGraphic" in2="effect2_dropShadow" result="shape"/>
</filter>
<filter id="filter4_dd" x="1594" y="650" width="439" height="406" filterUnits="userSpaceOnUse" color-interpolation-filters="sRGB">
<feFlood flood-opacity="0" result="BackgroundImageFix"/>
<feColorMatrix in="SourceAlpha" type="matrix" values="0 0 0 0 0 0 0 0 0 0 0 0 0 0 0 0 0 0 127 0"/>
<feOffset dy="4"/>
<feGaussianBlur stdDeviation="3"/>
<feColorMatrix type="matrix" values="0 0 0 0 0 0 0 0 0 0 0 0 0 0 0 0 0 0 0.05 0"/>
<feBlend mode="normal" in2="BackgroundImageFix" result="effect1_dropShadow"/>
<feColorMatrix in="SourceAlpha" type="matrix" values="0 0 0 0 0 0 0 0 0 0 0 0 0 0 0 0 0 0 127 0"/>
<feOffset dy="10"/>
<feGaussianBlur stdDeviation="7.5"/>
<feColorMatrix type="matrix" values="0 0 0 0 0 0 0 0 0 0 0 0 0 0 0 0 0 0 0.1 0"/>
<feBlend mode="normal" in2="effect1_dropShadow" result="effect2_dropShadow"/>
<feBlend mode="normal" in="SourceGraphic" in2="effect2_dropShadow" result="shape"/>
</filter>
<filter id="filter5_dd" x="634" y="1083" width="439" height="310" filterUnits="userSpaceOnUse" color-interpolation-filters="sRGB">
<feFlood flood-opacity="0" result="BackgroundImageFix"/>
<feColorMatrix in="SourceAlpha" type="matrix" values="0 0 0 0 0 0 0 0 0 0 0 0 0 0 0 0 0 0 127 0"/>
<feOffset dy="4"/>
<feGaussianBlur stdDeviation="3"/>
<feColorMatrix type="matrix" values="0 0 0 0 0 0 0 0 0 0 0 0 0 0 0 0 0 0 0.05 0"/>
<feBlend mode="normal" in2="BackgroundImageFix" result="effect1_dropShadow"/>
<feColorMatrix in="SourceAlpha" type="matrix" values="0 0 0 0 0 0 0 0 0 0 0 0 0 0 0 0 0 0 127 0"/>
<feOffset dy="10"/>
<feGaussianBlur stdDeviation="7.5"/>
<feColorMatrix type="matrix" values="0 0 0 0 0 0 0 0 0 0 0 0 0 0 0 0 0 0 0.1 0"/>
<feBlend mode="normal" in2="effect1_dropShadow" result="effect2_dropShadow"/>
<feBlend mode="normal" in="SourceGraphic" in2="effect2_dropShadow" result="shape"/>
</filter>
<filter id="filter6_dd" x="1594" y="1083" width="439" height="310" filterUnits="userSpaceOnUse" color-interpolation-filters="sRGB">
<feFlood flood-opacity="0" result="BackgroundImageFix"/>
<feColorMatrix in="SourceAlpha" type="matrix" values="0 0 0 0 0 0 0 0 0 0 0 0 0 0 0 0 0 0 127 0"/>
<feOffset dy="4"/>
<feGaussianBlur stdDeviation="3"/>
<feColorMatrix type="matrix" values="0 0 0 0 0 0 0 0 0 0 0 0 0 0 0 0 0 0 0.05 0"/>
<feBlend mode="normal" in2="BackgroundImageFix" result="effect1_dropShadow"/>
<feColorMatrix in="SourceAlpha" type="matrix" values="0 0 0 0 0 0 0 0 0 0 0 0 0 0 0 0 0 0 127 0"/>
<feOffset dy="10"/>
<feGaussianBlur stdDeviation="7.5"/>
<feColorMatrix type="matrix" values="0 0 0 0 0 0 0 0 0 0 0 0 0 0 0 0 0 0 0.1 0"/>
<feBlend mode="normal" in2="effect1_dropShadow" result="effect2_dropShadow"/>
<feBlend mode="normal" in="SourceGraphic" in2="effect2_dropShadow" result="shape"/>
</filter>
<filter id="filter7_dd" x="1114" y="1083" width="439" height="310" filterUnits="userSpaceOnUse" color-interpolation-filters="sRGB">
<feFlood flood-opacity="0" result="BackgroundImageFix"/>
<feColorMatrix in="SourceAlpha" type="matrix" values="0 0 0 0 0 0 0 0 0 0 0 0 0 0 0 0 0 0 127 0"/>
<feOffset dy="4"/>
<feGaussianBlur stdDeviation="3"/>
<feColorMatrix type="matrix" values="0 0 0 0 0 0 0 0 0 0 0 0 0 0 0 0 0 0 0.05 0"/>
<feBlend mode="normal" in2="BackgroundImageFix" result="effect1_dropShadow"/>
<feColorMatrix in="SourceAlpha" type="matrix" values="0 0 0 0 0 0 0 0 0 0 0 0 0 0 0 0 0 0 127 0"/>
<feOffset dy="10"/>
<feGaussianBlur stdDeviation="7.5"/>
<feColorMatrix type="matrix" values="0 0 0 0 0 0 0 0 0 0 0 0 0 0 0 0 0 0 0.1 0"/>
<feBlend mode="normal" in2="effect1_dropShadow" result="effect2_dropShadow"/>
<feBlend mode="normal" in="SourceGraphic" in2="effect2_dropShadow" result="shape"/>
</filter>
</defs>
</svg>
