<svg width="2255" height="1612" viewBox="0 0 2255 1612" fill="none" xmlns="http://www.w3.org/2000/svg">
<circle cx="1787.09" cy="1559.08" r="15" transform="rotate(-89.6476 1787.09 1559.08)" fill="#A0AEC0"/>
<circle cx="1987.09" cy="1560.31" r="15" transform="rotate(-89.6476 1987.09 1560.31)" fill="#A0AEC0"/>
<circle cx="1887.09" cy="1559.7" r="15" transform="rotate(-89.6476 1887.09 1559.7)" fill="#A0AEC0"/>
<circle cx="2087.09" cy="1560.93" r="15" transform="rotate(-89.6476 2087.09 1560.93)" fill="#A0AEC0"/>
<circle cx="2187.08" cy="1561.54" r="15" transform="rotate(-89.6476 2187.08 1561.54)" fill="#A0AEC0"/>
<circle cx="1837.09" cy="1559.39" r="15" transform="rotate(-89.6476 1837.09 1559.39)" fill="#A0AEC0"/>
<circle cx="2037.09" cy="1560.62" r="15" transform="rotate(-89.6476 2037.09 1560.62)" fill="#A0AEC0"/>
<circle cx="1937.09" cy="1560.01" r="15" transform="rotate(-89.6476 1937.09 1560.01)" fill="#A0AEC0"/>
<circle cx="2137.09" cy="1561.24" r="15" transform="rotate(-89.6476 2137.09 1561.24)" fill="#A0AEC0"/>
<circle cx="2237.08" cy="1561.85" r="15" transform="rotate(-89.6476 2237.08 1561.85)" fill="#A0AEC0"/>
<circle cx="1988.01" cy="1410.32" r="15" transform="rotate(-89.6476 1988.01 1410.32)" fill="#A0AEC0"/>
<circle cx="2088.01" cy="1410.93" r="15" transform="rotate(-89.6476 2088.01 1410.93)" fill="#A0AEC0"/>
<circle cx="2188.01" cy="1411.55" r="15" transform="rotate(-89.6476 2188.01 1411.55)" fill="#A0AEC0"/>
<circle cx="2038.01" cy="1410.62" r="15" transform="rotate(-89.6476 2038.01 1410.62)" fill="#A0AEC0"/>
<circle cx="1938.01" cy="1410.01" r="15" transform="rotate(-89.6476 1938.01 1410.01)" fill="#A0AEC0"/>
<circle cx="2138.01" cy="1411.24" r="15" transform="rotate(-89.6476 2138.01 1411.24)" fill="#A0AEC0"/>
<circle cx="2238.01" cy="1411.85" r="15" transform="rotate(-89.6476 2238.01 1411.85)" fill="#A0AEC0"/>
<circle cx="2189.24" cy="1211.55" r="15" transform="rotate(-89.6476 2189.24 1211.55)" fill="#A0AEC0"/>
<circle cx="2139.24" cy="1211.24" r="15" transform="rotate(-89.6476 2139.24 1211.24)" fill="#A0AEC0"/>
<circle cx="2239.24" cy="1211.86" r="15" transform="rotate(-89.6476 2239.24 1211.86)" fill="#A0AEC0"/>
<circle cx="1987.7" cy="1460.32" r="15" transform="rotate(-89.6476 1987.7 1460.32)" fill="#A0AEC0"/>
<circle cx="1887.71" cy="1459.7" r="15" transform="rotate(-89.6476 1887.71 1459.7)" fill="#A0AEC0"/>
<circle cx="2087.7" cy="1460.93" r="15" transform="rotate(-89.6476 2087.7 1460.93)" fill="#A0AEC0"/>
<circle cx="2187.7" cy="1461.55" r="15" transform="rotate(-89.6476 2187.7 1461.55)" fill="#A0AEC0"/>
<circle cx="2037.7" cy="1460.62" r="15" transform="rotate(-89.6476 2037.7 1460.62)" fill="#A0AEC0"/>
<circle cx="1937.7" cy="1460.01" r="15" transform="rotate(-89.6476 1937.7 1460.01)" fill="#A0AEC0"/>
<circle cx="2137.7" cy="1461.24" r="15" transform="rotate(-89.6476 2137.7 1461.24)" fill="#A0AEC0"/>
<circle cx="2237.7" cy="1461.85" r="15" transform="rotate(-89.6476 2237.7 1461.85)" fill="#A0AEC0"/>
<circle cx="2088.93" cy="1260.93" r="15" transform="rotate(-89.6476 2088.93 1260.93)" fill="#A0AEC0"/>
<circle cx="2188.93" cy="1261.55" r="15" transform="rotate(-89.6476 2188.93 1261.55)" fill="#A0AEC0"/>
<circle cx="2138.93" cy="1261.24" r="15" transform="rotate(-89.6476 2138.93 1261.24)" fill="#A0AEC0"/>
<circle cx="2238.93" cy="1261.86" r="15" transform="rotate(-89.6476 2238.93 1261.86)" fill="#A0AEC0"/>
<circle cx="2088.62" cy="1310.93" r="15" transform="rotate(-89.6476 2088.62 1310.93)" fill="#A0AEC0"/>
<circle cx="2188.62" cy="1311.55" r="15" transform="rotate(-89.6476 2188.62 1311.55)" fill="#A0AEC0"/>
<circle cx="2038.62" cy="1310.63" r="15" transform="rotate(-89.6476 2038.62 1310.63)" fill="#A0AEC0"/>
<circle cx="2138.62" cy="1311.24" r="15" transform="rotate(-89.6476 2138.62 1311.24)" fill="#A0AEC0"/>
<circle cx="2238.62" cy="1311.86" r="15" transform="rotate(-89.6476 2238.62 1311.86)" fill="#A0AEC0"/>
<circle cx="2239.85" cy="1111.86" r="15" transform="rotate(-89.6476 2239.85 1111.86)" fill="#A0AEC0"/>
<circle cx="1987.4" cy="1510.31" r="15" transform="rotate(-89.6476 1987.4 1510.31)" fill="#A0AEC0"/>
<circle cx="1887.4" cy="1509.7" r="15" transform="rotate(-89.6476 1887.4 1509.7)" fill="#A0AEC0"/>
<circle cx="2087.39" cy="1510.93" r="15" transform="rotate(-89.6476 2087.39 1510.93)" fill="#A0AEC0"/>
<circle cx="2187.39" cy="1511.54" r="15" transform="rotate(-89.6476 2187.39 1511.54)" fill="#A0AEC0"/>
<circle cx="1837.4" cy="1509.39" r="15" transform="rotate(-89.6476 1837.4 1509.39)" fill="#A0AEC0"/>
<circle cx="2037.39" cy="1510.62" r="15" transform="rotate(-89.6476 2037.39 1510.62)" fill="#A0AEC0"/>
<circle cx="1937.4" cy="1510.01" r="15" transform="rotate(-89.6476 1937.4 1510.01)" fill="#A0AEC0"/>
<circle cx="2137.39" cy="1511.24" r="15" transform="rotate(-89.6476 2137.39 1511.24)" fill="#A0AEC0"/>
<circle cx="2237.39" cy="1511.85" r="15" transform="rotate(-89.6476 2237.39 1511.85)" fill="#A0AEC0"/>
<circle cx="1988.32" cy="1360.32" r="15" transform="rotate(-89.6476 1988.32 1360.32)" fill="#A0AEC0"/>
<circle cx="2088.32" cy="1360.93" r="15" transform="rotate(-89.6476 2088.32 1360.93)" fill="#A0AEC0"/>
<circle cx="2188.31" cy="1361.55" r="15" transform="rotate(-89.6476 2188.31 1361.55)" fill="#A0AEC0"/>
<circle cx="2038.32" cy="1360.62" r="15" transform="rotate(-89.6476 2038.32 1360.62)" fill="#A0AEC0"/>
<circle cx="2138.32" cy="1361.24" r="15" transform="rotate(-89.6476 2138.32 1361.24)" fill="#A0AEC0"/>
<circle cx="2238.31" cy="1361.85" r="15" transform="rotate(-89.6476 2238.31 1361.85)" fill="#A0AEC0"/>
<circle cx="2189.54" cy="1161.55" r="15" transform="rotate(-89.6476 2189.54 1161.55)" fill="#A0AEC0"/>
<circle cx="2239.54" cy="1161.86" r="15" transform="rotate(-89.6476 2239.54 1161.86)" fill="#A0AEC0"/>
<g filter="url(#filter0_dd)">
<circle cx="806" cy="802" r="800" fill="#2D3748"/>
</g>
<g filter="url(#filter1_d)">
<rect x="194" y="357" width="1920" height="1080" rx="20" fill="#2D3748"/>
<rect x="193.5" y="356.5" width="1921" height="1081" rx="20.5" stroke="black"/>
</g>
<g filter="url(#filter2_dd)">
<path d="M194 377C194 365.954 202.954 357 214 357H2094C2105.05 357 2114 365.954 2114 377V449H194V377Z" fill="#6B46C1"/>
<g filter="url(#filter3_dd)">
<ellipse cx="2064" cy="402.5" rx="23" ry="20.5" fill="white"/>
</g>
<g filter="url(#filter4_dd)">
<ellipse cx="236" cy="402.5" rx="23" ry="20.5" fill="white"/>
</g>
<g filter="url(#filter5_dd)">
<ellipse cx="1951" cy="402.5" rx="23" ry="20.5" fill="white"/>
</g>
<g filter="url(#filter6_dd)">
<ellipse cx="1882" cy="402.5" rx="23" ry="20.5" fill="white"/>
</g>
<g filter="url(#filter7_dd)">
<ellipse cx="418" cy="402.5" rx="23" ry="20.5" fill="white"/>
</g>
<g filter="url(#filter8_dd)">
<ellipse cx="349" cy="402.5" rx="23" ry="20.5" fill="white"/>
</g>
<g filter="url(#filter9_dd)">
<ellipse cx="1813" cy="402.5" rx="23" ry="20.5" fill="#ED8936"/>
</g>
<g filter="url(#filter10_dd)">
<ellipse cx="1744" cy="402.5" rx="23" ry="20.5" fill="white"/>
</g>
<ellipse cx="366.5" cy="387.5" rx="17.5" ry="15.5" fill="#C53030"/>
<g filter="url(#filter11_dd)">
<rect x="212" y="381" width="47" height="42" fill="#F7FAFC"/>
</g>
<g filter="url(#filter12_dd)">
<rect x="395" y="381" width="47" height="42" fill="#F7FAFC"/>
</g>
</g>
<g filter="url(#filter13_dd)">
<rect x="1631" y="508" width="453" height="398" rx="10" fill="#1A202C"/>
<rect x="1630.5" y="507.5" width="454" height="399" rx="10.5" stroke="#1A202C"/>
</g>
<path d="M1631 517C1631 511.477 1635.48 507 1641 507H2074C2079.52 507 2084 511.477 2084 517V594H1631V517Z" fill="#ED8936"/>
<rect x="1630.5" y="656.5" width="454" height="63" fill="#FBD38D" stroke="#1A202C"/>
<rect x="1630.5" y="781.5" width="454" height="63" fill="#4A5568" stroke="#1A202C"/>
<rect x="1630.5" y="718.5" width="454" height="63" fill="#718096" stroke="#1A202C"/>
<rect x="1630.5" y="594.5" width="454" height="63" fill="#718096" stroke="#1A202C"/>
<rect x="1648" y="536" width="291" height="27" rx="13.5" fill="#1A202C"/>
<rect x="1698" y="612" width="117" height="25" fill="#F7FAFC"/>
<ellipse cx="1662.5" cy="624.5" rx="14.5" ry="12.5" fill="#F7FAFC"/>
<rect x="1698" y="805" width="136" height="25" fill="#F7FAFC"/>
<ellipse cx="1662.5" cy="817.5" rx="14.5" ry="12.5" fill="#F7FAFC"/>
<rect x="1698" y="736" width="59" height="25" fill="#F7FAFC"/>
<ellipse cx="1662.5" cy="748.5" rx="14.5" ry="12.5" fill="#F7FAFC"/>
<rect x="1698" y="674" width="241" height="25" fill="#F7FAFC"/>
<ellipse cx="1662.5" cy="686.5" rx="14.5" ry="12.5" fill="#F7FAFC"/>
<path d="M1631 843.5H1630.5V844V906V906.5H1631H2074C2079.8 906.5 2084.5 901.799 2084.5 896V844V843.5H2084H1631Z" fill="#718096" stroke="#1A202C"/>
<ellipse cx="1662.5" cy="873.5" rx="14.5" ry="12.5" fill="#F7FAFC"/>
<rect x="1698" y="861" width="271" height="25" fill="#F7FAFC"/>
<g filter="url(#filter14_dd)">
<rect x="1112" y="507" width="453" height="274" rx="10" fill="#1A202C"/>
<rect x="1111.5" y="506.5" width="454" height="275" rx="10.5" stroke="#1A202C"/>
</g>
<path d="M1112 517C1112 511.477 1116.48 507 1122 507H1555C1560.52 507 1565 511.477 1565 517V594H1112V517Z" fill="#ED8936"/>
<path d="M1112 718.5H1111.5V719V771C1111.5 776.799 1116.2 781.5 1122 781.5H1555C1560.8 781.5 1565.5 776.799 1565.5 771V719V718.5H1565H1112Z" fill="#FBD38D" stroke="#1A202C"/>
<rect x="1111.5" y="655.5" width="454" height="63" fill="#4A5568" stroke="#1A202C"/>
<rect x="1111.5" y="593.5" width="454" height="63" fill="#718096" stroke="#1A202C"/>
<rect x="1129" y="536" width="210" height="27" rx="13.5" fill="#1A202C"/>
<rect x="1179" y="612" width="300" height="25" fill="#F7FAFC"/>
<ellipse cx="1143.5" cy="624.5" rx="14.5" ry="12.5" fill="#F7FAFC"/>
<rect x="1179" y="736" width="200" height="25" fill="#F7FAFC"/>
<ellipse cx="1143.5" cy="748.5" rx="14.5" ry="12.5" fill="#F7FAFC"/>
<rect x="1179" y="674" width="90" height="25" fill="#F7FAFC"/>
<ellipse cx="1143.5" cy="686.5" rx="14.5" ry="12.5" fill="#F7FAFC"/>
<g filter="url(#filter15_dd)">
<rect x="593" y="507" width="453" height="337" rx="10" fill="#1A202C"/>
<rect x="592.5" y="506.5" width="454" height="338" rx="10.5" stroke="#1A202C"/>
</g>
<rect x="592.5" y="593.5" width="454" height="63" fill="#FBD38D" stroke="#1A202C"/>
<path d="M593 781.5H592.5V782V834C592.5 839.799 597.201 844.5 603 844.5H1036C1041.8 844.5 1046.5 839.799 1046.5 834V782V781.5H1046H593Z" fill="#4A5568" stroke="#1A202C"/>
<rect x="592.5" y="655.5" width="454" height="63" fill="#4A5568" stroke="#1A202C"/>
<rect x="592.5" y="718.5" width="454" height="63" fill="#718096" stroke="#1A202C"/>
<path d="M593 517C593 511.477 597.477 507 603 507H1036C1041.52 507 1046 511.477 1046 517V594H593V517Z" fill="#ED8936"/>
<rect x="610" y="536" width="135" height="27" rx="13.5" fill="#1A202C"/>
<rect x="660" y="612" width="98" height="25" fill="#F7FAFC"/>
<ellipse cx="624.5" cy="624.5" rx="14.5" ry="12.5" fill="#F7FAFC"/>
<rect x="660" y="805" width="145" height="25" fill="#F7FAFC"/>
<ellipse cx="624.5" cy="817.5" rx="14.5" ry="12.5" fill="#F7FAFC"/>
<rect x="660" y="736" width="291" height="25" fill="#F7FAFC"/>
<ellipse cx="624.5" cy="748.5" rx="14.5" ry="12.5" fill="#F7FAFC"/>
<rect x="660" y="674" width="236" height="25" fill="#F7FAFC"/>
<ellipse cx="624.5" cy="686.5" rx="14.5" ry="12.5" fill="#F7FAFC"/>
<g filter="url(#filter16_dd)">
<path d="M593 985C593 979.477 597.477 975 603 975H2074C2079.52 975 2084 979.477 2084 985V1436H593V985Z" fill="#A0AEC0"/>
<path d="M593.5 985C593.5 979.753 597.753 975.5 603 975.5H2074C2079.25 975.5 2083.5 979.753 2083.5 985V1435.5H593.5V985Z" stroke="#1A202C"/>
</g>
<path d="M593 985C593 979.477 597.477 975 603 975H2074C2079.52 975 2084 979.477 2084 985V1062H593V985Z" fill="#ED8936"/>
<rect x="630" y="1005" width="215" height="27" rx="13.5" fill="#1A202C"/>
<rect x="1356" y="1005" width="222" height="27" rx="13.5" fill="#1A202C"/>
<rect x="1653" y="1005" width="195" height="27" rx="13.5" fill="#1A202C"/>
<rect x="1926" y="1005" width="101" height="27" rx="13.5" fill="#1A202C"/>
<rect x="942" y="1005" width="139" height="27" rx="13.5" fill="#1A202C"/>
<rect x="1179" y="1005" width="109" height="27" rx="13.5" fill="#1A202C"/>
<rect x="592.5" y="1061.5" width="1492" height="63" fill="#718096" stroke="#1A202C"/>
<rect x="630" y="1078" width="215" height="25" rx="12.5" fill="#F7FAFC"/>
<rect x="1927" y="1078" width="77" height="25" rx="12.5" fill="#F7FAFC"/>
<rect x="1221" y="1076" width="25" height="25" rx="5" fill="#6B46C1"/>
<rect x="957" y="1084" width="109" height="17" fill="#6B46C1"/>
<rect x="1380" y="1084" width="174" height="17" fill="#6B46C1"/>
<rect x="1653" y="1078" width="119" height="16" fill="#6B46C1"/>
<rect x="1653" y="1103" width="192" height="6" fill="#F7FAFC"/>
<rect x="1810" y="1078" width="35" height="31" fill="#F7FAFC"/>
<rect x="592.5" y="1183.5" width="1492" height="63" fill="#718096" stroke="#1A202C"/>
<rect x="632" y="1200" width="200" height="25" rx="12.5" fill="#F7FAFC"/>
<rect x="1928" y="1200" width="95" height="25" rx="12.5" fill="#F7FAFC"/>
<rect x="1221" y="1198" width="25" height="25" rx="5" fill="#C53030"/>
<rect x="957" y="1206" width="109" height="17" fill="#C53030"/>
<rect x="1380" y="1206" width="174" height="17" fill="#C53030"/>
<rect x="1653" y="1200" width="119" height="16" fill="#C53030"/>
<rect x="1653" y="1225" width="192" height="6" fill="#F7FAFC"/>
<rect x="1810" y="1200" width="35" height="31" fill="#F7FAFC"/>
<rect x="592.5" y="1311.5" width="1492" height="63" fill="#718096" stroke="#1A202C"/>
<rect x="630" y="1328" width="246" height="25" rx="12.5" fill="#F7FAFC"/>
<rect x="1926" y="1328" width="140" height="25" rx="12.5" fill="#F7FAFC"/>
<rect x="1221" y="1326" width="25" height="25" rx="5" fill="#C53030"/>
<rect x="957" y="1334" width="109" height="17" fill="#C53030"/>
<rect x="1380" y="1334" width="174" height="17" fill="#C53030"/>
<rect x="1653" y="1328" width="119" height="16" fill="#C53030"/>
<rect x="1653" y="1353" width="192" height="6" fill="#F7FAFC"/>
<rect x="1810" y="1328" width="35" height="31" fill="#F7FAFC"/>
<rect x="592.5" y="1123.5" width="1492" height="63" fill="#4A5568" stroke="#1A202C"/>
<rect x="630" y="1140" width="151" height="25" rx="12.5" fill="#F7FAFC"/>
<rect x="1926" y="1140" width="100" height="25" rx="12.5" fill="#F7FAFC"/>
<rect x="1221" y="1137" width="25" height="25" rx="5" fill="#38A169"/>
<rect x="957" y="1146" width="109" height="17" fill="#38A169"/>
<rect x="1380" y="1146" width="174" height="17" fill="#38A169"/>
<rect x="1653" y="1140" width="119" height="16" fill="#38A169"/>
<rect x="1653" y="1165" width="192" height="6" fill="#F7FAFC"/>
<rect x="1810" y="1140" width="35" height="31" fill="#F7FAFC"/>
<rect x="592.5" y="1247.5" width="1492" height="63" fill="#4A5568" stroke="#1A202C"/>
<rect x="630" y="1264" width="175" height="25" rx="12.5" fill="#F7FAFC"/>
<rect x="1926" y="1264" width="80" height="25" rx="12.5" fill="#F7FAFC"/>
<rect x="1221" y="1261" width="25" height="25" rx="5" fill="#38A169"/>
<rect x="957" y="1270" width="109" height="17" fill="#38A169"/>
<rect x="1380" y="1270" width="174" height="17" fill="#38A169"/>
<rect x="1653" y="1264" width="119" height="16" fill="#38A169"/>
<rect x="1653" y="1289" width="192" height="6" fill="#F7FAFC"/>
<rect x="1810" y="1264" width="35" height="31" fill="#F7FAFC"/>
<rect x="592.5" y="1373.5" width="1492" height="63" fill="#4A5568" stroke="#1A202C"/>
<rect x="630" y="1392" width="164" height="25" rx="12.5" fill="#F7FAFC"/>
<rect x="1926" y="1392" width="107" height="25" rx="12.5" fill="#F7FAFC"/>
<rect x="1221" y="1390" width="25" height="25" rx="5" fill="#6B46C1"/>
<rect x="957" y="1398" width="109" height="17" fill="#6B46C1"/>
<rect x="1380" y="1398" width="174" height="17" fill="#6B46C1"/>
<rect x="1653" y="1392" width="119" height="16" fill="#6B46C1"/>
<rect x="1653" y="1417" width="192" height="6" fill="#F7FAFC"/>
<rect x="1810" y="1392" width="35" height="31" fill="#F7FAFC"/>
<rect x="665" y="934" width="80" height="18" fill="#ED8936"/>
<rect x="606" y="960" width="200" height="4" fill="#ED8936"/>
<rect x="868" y="934" width="120" height="18" fill="#E2E8F0"/>
<rect x="828" y="960" width="200" height="4" fill="#E2E8F0"/>
<g filter="url(#filter17_i)">
<path d="M194 449H547V1437H214C202.954 1437 194 1428.05 194 1417V449Z" fill="#718096"/>
</g>
<path d="M194.5 449.5H546.5V1436.5H214C203.23 1436.5 194.5 1427.77 194.5 1417V449.5Z" stroke="#1A202C"/>
<rect x="251" y="471" width="65" height="15" fill="#ED8936"/>
<rect x="206" y="496" width="151" height="4" fill="#ED8936"/>
<rect x="423" y="471" width="61" height="15" fill="#E2E8F0"/>
<rect x="378" y="496" width="151" height="4" fill="#E2E8F0"/>
<g filter="url(#filter18_dd)">
<rect x="206" y="529" width="131" height="34" fill="#4A5568"/>
</g>
<rect x="221" y="646" width="213" height="35" fill="#E2E8F0"/>
<path d="M507.268 680.987L493.204 656.415L521.012 656.235L507.268 680.987Z" fill="#E2E8F0"/>
<rect x="221" y="775" width="157" height="35" fill="#E2E8F0"/>
<path d="M507.268 807.987L493.204 783.415L521.012 783.235L507.268 807.987Z" fill="#E2E8F0"/>
<rect x="221" y="712" width="241" height="35" fill="#E2E8F0"/>
<path d="M507.261 743.917L493.203 720.147L521.011 719.967L507.261 743.917Z" fill="#E2E8F0"/>
<rect x="221" y="841" width="118" height="35" fill="#E2E8F0"/>
<path d="M507.268 873.987L493.204 849.415L521.012 849.235L507.268 873.987Z" fill="#E2E8F0"/>
<rect x="221" y="974" width="213" height="35" fill="#E2E8F0"/>
<path d="M510.268 1006.99L496.204 982.415L524.012 982.235L510.268 1006.99Z" fill="#E2E8F0"/>
<rect x="221" y="907" width="243" height="35" fill="#E2E8F0"/>
<path d="M507.268 939.987L493.204 915.415L521.012 915.235L507.268 939.987Z" fill="#E2E8F0"/>
<defs>
<filter id="filter0_dd" x="0" y="0" width="1612" height="1612" filterUnits="userSpaceOnUse" color-interpolation-filters="sRGB">
<feFlood flood-opacity="0" result="BackgroundImageFix"/>
<feColorMatrix in="SourceAlpha" type="matrix" values="0 0 0 0 0 0 0 0 0 0 0 0 0 0 0 0 0 0 127 0"/>
<feOffset dy="4"/>
<feGaussianBlur stdDeviation="3"/>
<feColorMatrix type="matrix" values="0 0 0 0 0 0 0 0 0 0 0 0 0 0 0 0 0 0 0.1 0"/>
<feBlend mode="normal" in2="BackgroundImageFix" result="effect1_dropShadow"/>
<feColorMatrix in="SourceAlpha" type="matrix" values="0 0 0 0 0 0 0 0 0 0 0 0 0 0 0 0 0 0 127 0"/>
<feOffset dy="2"/>
<feGaussianBlur stdDeviation="2"/>
<feColorMatrix type="matrix" values="0 0 0 0 0 0 0 0 0 0 0 0 0 0 0 0 0 0 0.06 0"/>
<feBlend mode="normal" in2="effect1_dropShadow" result="effect2_dropShadow"/>
<feBlend mode="normal" in="SourceGraphic" in2="effect2_dropShadow" result="shape"/>
</filter>
<filter id="filter1_d" x="143" y="331" width="2022" height="1182" filterUnits="userSpaceOnUse" color-interpolation-filters="sRGB">
<feFlood flood-opacity="0" result="BackgroundImageFix"/>
<feColorMatrix in="SourceAlpha" type="matrix" values="0 0 0 0 0 0 0 0 0 0 0 0 0 0 0 0 0 0 127 0"/>
<feOffset dy="25"/>
<feGaussianBlur stdDeviation="25"/>
<feColorMatrix type="matrix" values="0 0 0 0 0 0 0 0 0 0 0 0 0 0 0 0 0 0 0.25 0"/>
<feBlend mode="normal" in2="BackgroundImageFix" result="effect1_dropShadow"/>
<feBlend mode="normal" in="SourceGraphic" in2="effect1_dropShadow" result="shape"/>
</filter>
<filter id="filter2_dd" x="191" y="355" width="1926" height="98" filterUnits="userSpaceOnUse" color-interpolation-filters="sRGB">
<feFlood flood-opacity="0" result="BackgroundImageFix"/>
<feColorMatrix in="SourceAlpha" type="matrix" values="0 0 0 0 0 0 0 0 0 0 0 0 0 0 0 0 0 0 127 0"/>
<feOffset dy="1"/>
<feGaussianBlur stdDeviation="1.5"/>
<feColorMatrix type="matrix" values="0 0 0 0 0 0 0 0 0 0 0 0 0 0 0 0 0 0 0.1 0"/>
<feBlend mode="normal" in2="BackgroundImageFix" result="effect1_dropShadow"/>
<feColorMatrix in="SourceAlpha" type="matrix" values="0 0 0 0 0 0 0 0 0 0 0 0 0 0 0 0 0 0 127 0"/>
<feOffset dy="1"/>
<feGaussianBlur stdDeviation="1"/>
<feColorMatrix type="matrix" values="0 0 0 0 0 0 0 0 0 0 0 0 0 0 0 0 0 0 0.06 0"/>
<feBlend mode="normal" in2="effect1_dropShadow" result="effect2_dropShadow"/>
<feBlend mode="normal" in="SourceGraphic" in2="effect2_dropShadow" result="shape"/>
</filter>
<filter id="filter3_dd" x="2026" y="377" width="76" height="71" filterUnits="userSpaceOnUse" color-interpolation-filters="sRGB">
<feFlood flood-opacity="0" result="BackgroundImageFix"/>
<feColorMatrix in="SourceAlpha" type="matrix" values="0 0 0 0 0 0 0 0 0 0 0 0 0 0 0 0 0 0 127 0"/>
<feOffset dy="4"/>
<feGaussianBlur stdDeviation="3"/>
<feColorMatrix type="matrix" values="0 0 0 0 0 0 0 0 0 0 0 0 0 0 0 0 0 0 0.05 0"/>
<feBlend mode="normal" in2="BackgroundImageFix" result="effect1_dropShadow"/>
<feColorMatrix in="SourceAlpha" type="matrix" values="0 0 0 0 0 0 0 0 0 0 0 0 0 0 0 0 0 0 127 0"/>
<feOffset dy="10"/>
<feGaussianBlur stdDeviation="7.5"/>
<feColorMatrix type="matrix" values="0 0 0 0 0 0 0 0 0 0 0 0 0 0 0 0 0 0 0.1 0"/>
<feBlend mode="normal" in2="effect1_dropShadow" result="effect2_dropShadow"/>
<feBlend mode="normal" in="SourceGraphic" in2="effect2_dropShadow" result="shape"/>
</filter>
<filter id="filter4_dd" x="198" y="377" width="76" height="71" filterUnits="userSpaceOnUse" color-interpolation-filters="sRGB">
<feFlood flood-opacity="0" result="BackgroundImageFix"/>
<feColorMatrix in="SourceAlpha" type="matrix" values="0 0 0 0 0 0 0 0 0 0 0 0 0 0 0 0 0 0 127 0"/>
<feOffset dy="4"/>
<feGaussianBlur stdDeviation="3"/>
<feColorMatrix type="matrix" values="0 0 0 0 0 0 0 0 0 0 0 0 0 0 0 0 0 0 0.05 0"/>
<feBlend mode="normal" in2="BackgroundImageFix" result="effect1_dropShadow"/>
<feColorMatrix in="SourceAlpha" type="matrix" values="0 0 0 0 0 0 0 0 0 0 0 0 0 0 0 0 0 0 127 0"/>
<feOffset dy="10"/>
<feGaussianBlur stdDeviation="7.5"/>
<feColorMatrix type="matrix" values="0 0 0 0 0 0 0 0 0 0 0 0 0 0 0 0 0 0 0.1 0"/>
<feBlend mode="normal" in2="effect1_dropShadow" result="effect2_dropShadow"/>
<feBlend mode="normal" in="SourceGraphic" in2="effect2_dropShadow" result="shape"/>
</filter>
<filter id="filter5_dd" x="1913" y="377" width="76" height="71" filterUnits="userSpaceOnUse" color-interpolation-filters="sRGB">
<feFlood flood-opacity="0" result="BackgroundImageFix"/>
<feColorMatrix in="SourceAlpha" type="matrix" values="0 0 0 0 0 0 0 0 0 0 0 0 0 0 0 0 0 0 127 0"/>
<feOffset dy="4"/>
<feGaussianBlur stdDeviation="3"/>
<feColorMatrix type="matrix" values="0 0 0 0 0 0 0 0 0 0 0 0 0 0 0 0 0 0 0.05 0"/>
<feBlend mode="normal" in2="BackgroundImageFix" result="effect1_dropShadow"/>
<feColorMatrix in="SourceAlpha" type="matrix" values="0 0 0 0 0 0 0 0 0 0 0 0 0 0 0 0 0 0 127 0"/>
<feOffset dy="10"/>
<feGaussianBlur stdDeviation="7.5"/>
<feColorMatrix type="matrix" values="0 0 0 0 0 0 0 0 0 0 0 0 0 0 0 0 0 0 0.1 0"/>
<feBlend mode="normal" in2="effect1_dropShadow" result="effect2_dropShadow"/>
<feBlend mode="normal" in="SourceGraphic" in2="effect2_dropShadow" result="shape"/>
</filter>
<filter id="filter6_dd" x="1844" y="377" width="76" height="71" filterUnits="userSpaceOnUse" color-interpolation-filters="sRGB">
<feFlood flood-opacity="0" result="BackgroundImageFix"/>
<feColorMatrix in="SourceAlpha" type="matrix" values="0 0 0 0 0 0 0 0 0 0 0 0 0 0 0 0 0 0 127 0"/>
<feOffset dy="4"/>
<feGaussianBlur stdDeviation="3"/>
<feColorMatrix type="matrix" values="0 0 0 0 0 0 0 0 0 0 0 0 0 0 0 0 0 0 0.05 0"/>
<feBlend mode="normal" in2="BackgroundImageFix" result="effect1_dropShadow"/>
<feColorMatrix in="SourceAlpha" type="matrix" values="0 0 0 0 0 0 0 0 0 0 0 0 0 0 0 0 0 0 127 0"/>
<feOffset dy="10"/>
<feGaussianBlur stdDeviation="7.5"/>
<feColorMatrix type="matrix" values="0 0 0 0 0 0 0 0 0 0 0 0 0 0 0 0 0 0 0.1 0"/>
<feBlend mode="normal" in2="effect1_dropShadow" result="effect2_dropShadow"/>
<feBlend mode="normal" in="SourceGraphic" in2="effect2_dropShadow" result="shape"/>
</filter>
<filter id="filter7_dd" x="380" y="377" width="76" height="71" filterUnits="userSpaceOnUse" color-interpolation-filters="sRGB">
<feFlood flood-opacity="0" result="BackgroundImageFix"/>
<feColorMatrix in="SourceAlpha" type="matrix" values="0 0 0 0 0 0 0 0 0 0 0 0 0 0 0 0 0 0 127 0"/>
<feOffset dy="4"/>
<feGaussianBlur stdDeviation="3"/>
<feColorMatrix type="matrix" values="0 0 0 0 0 0 0 0 0 0 0 0 0 0 0 0 0 0 0.05 0"/>
<feBlend mode="normal" in2="BackgroundImageFix" result="effect1_dropShadow"/>
<feColorMatrix in="SourceAlpha" type="matrix" values="0 0 0 0 0 0 0 0 0 0 0 0 0 0 0 0 0 0 127 0"/>
<feOffset dy="10"/>
<feGaussianBlur stdDeviation="7.5"/>
<feColorMatrix type="matrix" values="0 0 0 0 0 0 0 0 0 0 0 0 0 0 0 0 0 0 0.1 0"/>
<feBlend mode="normal" in2="effect1_dropShadow" result="effect2_dropShadow"/>
<feBlend mode="normal" in="SourceGraphic" in2="effect2_dropShadow" result="shape"/>
</filter>
<filter id="filter8_dd" x="311" y="377" width="76" height="71" filterUnits="userSpaceOnUse" color-interpolation-filters="sRGB">
<feFlood flood-opacity="0" result="BackgroundImageFix"/>
<feColorMatrix in="SourceAlpha" type="matrix" values="0 0 0 0 0 0 0 0 0 0 0 0 0 0 0 0 0 0 127 0"/>
<feOffset dy="4"/>
<feGaussianBlur stdDeviation="3"/>
<feColorMatrix type="matrix" values="0 0 0 0 0 0 0 0 0 0 0 0 0 0 0 0 0 0 0.05 0"/>
<feBlend mode="normal" in2="BackgroundImageFix" result="effect1_dropShadow"/>
<feColorMatrix in="SourceAlpha" type="matrix" values="0 0 0 0 0 0 0 0 0 0 0 0 0 0 0 0 0 0 127 0"/>
<feOffset dy="10"/>
<feGaussianBlur stdDeviation="7.5"/>
<feColorMatrix type="matrix" values="0 0 0 0 0 0 0 0 0 0 0 0 0 0 0 0 0 0 0.1 0"/>
<feBlend mode="normal" in2="effect1_dropShadow" result="effect2_dropShadow"/>
<feBlend mode="normal" in="SourceGraphic" in2="effect2_dropShadow" result="shape"/>
</filter>
<filter id="filter9_dd" x="1775" y="377" width="76" height="71" filterUnits="userSpaceOnUse" color-interpolation-filters="sRGB">
<feFlood flood-opacity="0" result="BackgroundImageFix"/>
<feColorMatrix in="SourceAlpha" type="matrix" values="0 0 0 0 0 0 0 0 0 0 0 0 0 0 0 0 0 0 127 0"/>
<feOffset dy="4"/>
<feGaussianBlur stdDeviation="3"/>
<feColorMatrix type="matrix" values="0 0 0 0 0 0 0 0 0 0 0 0 0 0 0 0 0 0 0.05 0"/>
<feBlend mode="normal" in2="BackgroundImageFix" result="effect1_dropShadow"/>
<feColorMatrix in="SourceAlpha" type="matrix" values="0 0 0 0 0 0 0 0 0 0 0 0 0 0 0 0 0 0 127 0"/>
<feOffset dy="10"/>
<feGaussianBlur stdDeviation="7.5"/>
<feColorMatrix type="matrix" values="0 0 0 0 0 0 0 0 0 0 0 0 0 0 0 0 0 0 0.1 0"/>
<feBlend mode="normal" in2="effect1_dropShadow" result="effect2_dropShadow"/>
<feBlend mode="normal" in="SourceGraphic" in2="effect2_dropShadow" result="shape"/>
</filter>
<filter id="filter10_dd" x="1706" y="377" width="76" height="71" filterUnits="userSpaceOnUse" color-interpolation-filters="sRGB">
<feFlood flood-opacity="0" result="BackgroundImageFix"/>
<feColorMatrix in="SourceAlpha" type="matrix" values="0 0 0 0 0 0 0 0 0 0 0 0 0 0 0 0 0 0 127 0"/>
<feOffset dy="4"/>
<feGaussianBlur stdDeviation="3"/>
<feColorMatrix type="matrix" values="0 0 0 0 0 0 0 0 0 0 0 0 0 0 0 0 0 0 0.05 0"/>
<feBlend mode="normal" in2="BackgroundImageFix" result="effect1_dropShadow"/>
<feColorMatrix in="SourceAlpha" type="matrix" values="0 0 0 0 0 0 0 0 0 0 0 0 0 0 0 0 0 0 127 0"/>
<feOffset dy="10"/>
<feGaussianBlur stdDeviation="7.5"/>
<feColorMatrix type="matrix" values="0 0 0 0 0 0 0 0 0 0 0 0 0 0 0 0 0 0 0.1 0"/>
<feBlend mode="normal" in2="effect1_dropShadow" result="effect2_dropShadow"/>
<feBlend mode="normal" in="SourceGraphic" in2="effect2_dropShadow" result="shape"/>
</filter>
<filter id="filter11_dd" x="197" y="376" width="77" height="72" filterUnits="userSpaceOnUse" color-interpolation-filters="sRGB">
<feFlood flood-opacity="0" result="BackgroundImageFix"/>
<feColorMatrix in="SourceAlpha" type="matrix" values="0 0 0 0 0 0 0 0 0 0 0 0 0 0 0 0 0 0 127 0"/>
<feOffset dy="4"/>
<feGaussianBlur stdDeviation="3"/>
<feColorMatrix type="matrix" values="0 0 0 0 0 0 0 0 0 0 0 0 0 0 0 0 0 0 0.05 0"/>
<feBlend mode="normal" in2="BackgroundImageFix" result="effect1_dropShadow"/>
<feColorMatrix in="SourceAlpha" type="matrix" values="0 0 0 0 0 0 0 0 0 0 0 0 0 0 0 0 0 0 127 0"/>
<feOffset dy="10"/>
<feGaussianBlur stdDeviation="7.5"/>
<feColorMatrix type="matrix" values="0 0 0 0 0 0 0 0 0 0 0 0 0 0 0 0 0 0 0.1 0"/>
<feBlend mode="normal" in2="effect1_dropShadow" result="effect2_dropShadow"/>
<feBlend mode="normal" in="SourceGraphic" in2="effect2_dropShadow" result="shape"/>
</filter>
<filter id="filter12_dd" x="380" y="376" width="77" height="72" filterUnits="userSpaceOnUse" color-interpolation-filters="sRGB">
<feFlood flood-opacity="0" result="BackgroundImageFix"/>
<feColorMatrix in="SourceAlpha" type="matrix" values="0 0 0 0 0 0 0 0 0 0 0 0 0 0 0 0 0 0 127 0"/>
<feOffset dy="4"/>
<feGaussianBlur stdDeviation="3"/>
<feColorMatrix type="matrix" values="0 0 0 0 0 0 0 0 0 0 0 0 0 0 0 0 0 0 0.05 0"/>
<feBlend mode="normal" in2="BackgroundImageFix" result="effect1_dropShadow"/>
<feColorMatrix in="SourceAlpha" type="matrix" values="0 0 0 0 0 0 0 0 0 0 0 0 0 0 0 0 0 0 127 0"/>
<feOffset dy="10"/>
<feGaussianBlur stdDeviation="7.5"/>
<feColorMatrix type="matrix" values="0 0 0 0 0 0 0 0 0 0 0 0 0 0 0 0 0 0 0.1 0"/>
<feBlend mode="normal" in2="effect1_dropShadow" result="effect2_dropShadow"/>
<feBlend mode="normal" in="SourceGraphic" in2="effect2_dropShadow" result="shape"/>
</filter>
<filter id="filter13_dd" x="1615" y="502" width="485" height="430" filterUnits="userSpaceOnUse" color-interpolation-filters="sRGB">
<feFlood flood-opacity="0" result="BackgroundImageFix"/>
<feColorMatrix in="SourceAlpha" type="matrix" values="0 0 0 0 0 0 0 0 0 0 0 0 0 0 0 0 0 0 127 0"/>
<feOffset dy="4"/>
<feGaussianBlur stdDeviation="3"/>
<feColorMatrix type="matrix" values="0 0 0 0 0 0 0 0 0 0 0 0 0 0 0 0 0 0 0.05 0"/>
<feBlend mode="normal" in2="BackgroundImageFix" result="effect1_dropShadow"/>
<feColorMatrix in="SourceAlpha" type="matrix" values="0 0 0 0 0 0 0 0 0 0 0 0 0 0 0 0 0 0 127 0"/>
<feOffset dy="10"/>
<feGaussianBlur stdDeviation="7.5"/>
<feColorMatrix type="matrix" values="0 0 0 0 0 0 0 0 0 0 0 0 0 0 0 0 0 0 0.1 0"/>
<feBlend mode="normal" in2="effect1_dropShadow" result="effect2_dropShadow"/>
<feBlend mode="normal" in="SourceGraphic" in2="effect2_dropShadow" result="shape"/>
</filter>
<filter id="filter14_dd" x="1096" y="501" width="485" height="306" filterUnits="userSpaceOnUse" color-interpolation-filters="sRGB">
<feFlood flood-opacity="0" result="BackgroundImageFix"/>
<feColorMatrix in="SourceAlpha" type="matrix" values="0 0 0 0 0 0 0 0 0 0 0 0 0 0 0 0 0 0 127 0"/>
<feOffset dy="4"/>
<feGaussianBlur stdDeviation="3"/>
<feColorMatrix type="matrix" values="0 0 0 0 0 0 0 0 0 0 0 0 0 0 0 0 0 0 0.05 0"/>
<feBlend mode="normal" in2="BackgroundImageFix" result="effect1_dropShadow"/>
<feColorMatrix in="SourceAlpha" type="matrix" values="0 0 0 0 0 0 0 0 0 0 0 0 0 0 0 0 0 0 127 0"/>
<feOffset dy="10"/>
<feGaussianBlur stdDeviation="7.5"/>
<feColorMatrix type="matrix" values="0 0 0 0 0 0 0 0 0 0 0 0 0 0 0 0 0 0 0.1 0"/>
<feBlend mode="normal" in2="effect1_dropShadow" result="effect2_dropShadow"/>
<feBlend mode="normal" in="SourceGraphic" in2="effect2_dropShadow" result="shape"/>
</filter>
<filter id="filter15_dd" x="577" y="501" width="485" height="369" filterUnits="userSpaceOnUse" color-interpolation-filters="sRGB">
<feFlood flood-opacity="0" result="BackgroundImageFix"/>
<feColorMatrix in="SourceAlpha" type="matrix" values="0 0 0 0 0 0 0 0 0 0 0 0 0 0 0 0 0 0 127 0"/>
<feOffset dy="4"/>
<feGaussianBlur stdDeviation="3"/>
<feColorMatrix type="matrix" values="0 0 0 0 0 0 0 0 0 0 0 0 0 0 0 0 0 0 0.05 0"/>
<feBlend mode="normal" in2="BackgroundImageFix" result="effect1_dropShadow"/>
<feColorMatrix in="SourceAlpha" type="matrix" values="0 0 0 0 0 0 0 0 0 0 0 0 0 0 0 0 0 0 127 0"/>
<feOffset dy="10"/>
<feGaussianBlur stdDeviation="7.5"/>
<feColorMatrix type="matrix" values="0 0 0 0 0 0 0 0 0 0 0 0 0 0 0 0 0 0 0.1 0"/>
<feBlend mode="normal" in2="effect1_dropShadow" result="effect2_dropShadow"/>
<feBlend mode="normal" in="SourceGraphic" in2="effect2_dropShadow" result="shape"/>
</filter>
<filter id="filter16_dd" x="578" y="970" width="1521" height="491" filterUnits="userSpaceOnUse" color-interpolation-filters="sRGB">
<feFlood flood-opacity="0" result="BackgroundImageFix"/>
<feColorMatrix in="SourceAlpha" type="matrix" values="0 0 0 0 0 0 0 0 0 0 0 0 0 0 0 0 0 0 127 0"/>
<feOffset dy="4"/>
<feGaussianBlur stdDeviation="3"/>
<feColorMatrix type="matrix" values="0 0 0 0 0 0 0 0 0 0 0 0 0 0 0 0 0 0 0.05 0"/>
<feBlend mode="normal" in2="BackgroundImageFix" result="effect1_dropShadow"/>
<feColorMatrix in="SourceAlpha" type="matrix" values="0 0 0 0 0 0 0 0 0 0 0 0 0 0 0 0 0 0 127 0"/>
<feOffset dy="10"/>
<feGaussianBlur stdDeviation="7.5"/>
<feColorMatrix type="matrix" values="0 0 0 0 0 0 0 0 0 0 0 0 0 0 0 0 0 0 0.1 0"/>
<feBlend mode="normal" in2="effect1_dropShadow" result="effect2_dropShadow"/>
<feBlend mode="normal" in="SourceGraphic" in2="effect2_dropShadow" result="shape"/>
</filter>
<filter id="filter17_i" x="194" y="449" width="353" height="990" filterUnits="userSpaceOnUse" color-interpolation-filters="sRGB">
<feFlood flood-opacity="0" result="BackgroundImageFix"/>
<feBlend mode="normal" in="SourceGraphic" in2="BackgroundImageFix" result="shape"/>
<feColorMatrix in="SourceAlpha" type="matrix" values="0 0 0 0 0 0 0 0 0 0 0 0 0 0 0 0 0 0 127 0" result="hardAlpha"/>
<feOffset dy="2"/>
<feGaussianBlur stdDeviation="2"/>
<feComposite in2="hardAlpha" operator="arithmetic" k2="-1" k3="1"/>
<feColorMatrix type="matrix" values="0 0 0 0 0 0 0 0 0 0 0 0 0 0 0 0 0 0 0.06 0"/>
<feBlend mode="normal" in2="shape" result="effect1_innerShadow"/>
</filter>
<filter id="filter18_dd" x="191" y="524" width="161" height="64" filterUnits="userSpaceOnUse" color-interpolation-filters="sRGB">
<feFlood flood-opacity="0" result="BackgroundImageFix"/>
<feColorMatrix in="SourceAlpha" type="matrix" values="0 0 0 0 0 0 0 0 0 0 0 0 0 0 0 0 0 0 127 0"/>
<feOffset dy="4"/>
<feGaussianBlur stdDeviation="3"/>
<feColorMatrix type="matrix" values="0 0 0 0 0 0 0 0 0 0 0 0 0 0 0 0 0 0 0.05 0"/>
<feBlend mode="normal" in2="BackgroundImageFix" result="effect1_dropShadow"/>
<feColorMatrix in="SourceAlpha" type="matrix" values="0 0 0 0 0 0 0 0 0 0 0 0 0 0 0 0 0 0 127 0"/>
<feOffset dy="10"/>
<feGaussianBlur stdDeviation="7.5"/>
<feColorMatrix type="matrix" values="0 0 0 0 0 0 0 0 0 0 0 0 0 0 0 0 0 0 0.1 0"/>
<feBlend mode="normal" in2="effect1_dropShadow" result="effect2_dropShadow"/>
<feBlend mode="normal" in="SourceGraphic" in2="effect2_dropShadow" result="shape"/>
</filter>
</defs>
</svg>
