<svg width="2205" height="1373" viewBox="0 0 2205 1373" fill="none" xmlns="http://www.w3.org/2000/svg">
<circle cx="1737.09" cy="1355.08" r="15" transform="rotate(-89.6476 1737.09 1355.08)" fill="#A0AEC0"/>
<circle cx="1937.09" cy="1356.31" r="15" transform="rotate(-89.6476 1937.09 1356.31)" fill="#A0AEC0"/>
<circle cx="1837.09" cy="1355.7" r="15" transform="rotate(-89.6476 1837.09 1355.7)" fill="#A0AEC0"/>
<circle cx="2037.09" cy="1356.93" r="15" transform="rotate(-89.6476 2037.09 1356.93)" fill="#A0AEC0"/>
<circle cx="2137.08" cy="1357.54" r="15" transform="rotate(-89.6476 2137.08 1357.54)" fill="#A0AEC0"/>
<circle cx="1787.09" cy="1355.39" r="15" transform="rotate(-89.6476 1787.09 1355.39)" fill="#A0AEC0"/>
<circle cx="1987.09" cy="1356.62" r="15" transform="rotate(-89.6476 1987.09 1356.62)" fill="#A0AEC0"/>
<circle cx="1887.09" cy="1356.01" r="15" transform="rotate(-89.6476 1887.09 1356.01)" fill="#A0AEC0"/>
<circle cx="2087.08" cy="1357.24" r="15" transform="rotate(-89.6476 2087.08 1357.24)" fill="#A0AEC0"/>
<circle cx="2187.08" cy="1357.85" r="15" transform="rotate(-89.6476 2187.08 1357.85)" fill="#A0AEC0"/>
<circle cx="1938.01" cy="1206.32" r="15" transform="rotate(-89.6476 1938.01 1206.32)" fill="#A0AEC0"/>
<circle cx="2038.01" cy="1206.93" r="15" transform="rotate(-89.6476 2038.01 1206.93)" fill="#A0AEC0"/>
<circle cx="2138.01" cy="1207.55" r="15" transform="rotate(-89.6476 2138.01 1207.55)" fill="#A0AEC0"/>
<circle cx="1988.01" cy="1206.62" r="15" transform="rotate(-89.6476 1988.01 1206.62)" fill="#A0AEC0"/>
<circle cx="1888.01" cy="1206.01" r="15" transform="rotate(-89.6476 1888.01 1206.01)" fill="#A0AEC0"/>
<circle cx="2088.01" cy="1207.24" r="15" transform="rotate(-89.6476 2088.01 1207.24)" fill="#A0AEC0"/>
<circle cx="2188.01" cy="1207.85" r="15" transform="rotate(-89.6476 2188.01 1207.85)" fill="#A0AEC0"/>
<circle cx="2139.24" cy="1007.55" r="15" transform="rotate(-89.6476 2139.24 1007.55)" fill="#A0AEC0"/>
<circle cx="2089.24" cy="1007.24" r="15" transform="rotate(-89.6476 2089.24 1007.24)" fill="#A0AEC0"/>
<circle cx="2189.24" cy="1007.86" r="15" transform="rotate(-89.6476 2189.24 1007.86)" fill="#A0AEC0"/>
<circle cx="1937.7" cy="1256.32" r="15" transform="rotate(-89.6476 1937.7 1256.32)" fill="#A0AEC0"/>
<circle cx="1837.7" cy="1255.7" r="15" transform="rotate(-89.6476 1837.7 1255.7)" fill="#A0AEC0"/>
<circle cx="2037.7" cy="1256.93" r="15" transform="rotate(-89.6476 2037.7 1256.93)" fill="#A0AEC0"/>
<circle cx="2137.7" cy="1257.55" r="15" transform="rotate(-89.6476 2137.7 1257.55)" fill="#A0AEC0"/>
<circle cx="1987.7" cy="1256.62" r="15" transform="rotate(-89.6476 1987.7 1256.62)" fill="#A0AEC0"/>
<circle cx="1887.7" cy="1256.01" r="15" transform="rotate(-89.6476 1887.7 1256.01)" fill="#A0AEC0"/>
<circle cx="2087.7" cy="1257.24" r="15" transform="rotate(-89.6476 2087.7 1257.24)" fill="#A0AEC0"/>
<circle cx="2187.7" cy="1257.85" r="15" transform="rotate(-89.6476 2187.7 1257.85)" fill="#A0AEC0"/>
<circle cx="2038.93" cy="1056.93" r="15" transform="rotate(-89.6476 2038.93 1056.93)" fill="#A0AEC0"/>
<circle cx="2138.93" cy="1057.55" r="15" transform="rotate(-89.6476 2138.93 1057.55)" fill="#A0AEC0"/>
<circle cx="2088.93" cy="1057.24" r="15" transform="rotate(-89.6476 2088.93 1057.24)" fill="#A0AEC0"/>
<circle cx="2188.93" cy="1057.86" r="15" transform="rotate(-89.6476 2188.93 1057.86)" fill="#A0AEC0"/>
<circle cx="2038.62" cy="1106.93" r="15" transform="rotate(-89.6476 2038.62 1106.93)" fill="#A0AEC0"/>
<circle cx="2138.62" cy="1107.55" r="15" transform="rotate(-89.6476 2138.62 1107.55)" fill="#A0AEC0"/>
<circle cx="1988.62" cy="1106.63" r="15" transform="rotate(-89.6476 1988.62 1106.63)" fill="#A0AEC0"/>
<circle cx="2088.62" cy="1107.24" r="15" transform="rotate(-89.6476 2088.62 1107.24)" fill="#A0AEC0"/>
<circle cx="2188.62" cy="1107.86" r="15" transform="rotate(-89.6476 2188.62 1107.86)" fill="#A0AEC0"/>
<circle cx="2189.85" cy="907.86" r="15" transform="rotate(-89.6476 2189.85 907.86)" fill="#A0AEC0"/>
<circle cx="1937.39" cy="1306.31" r="15" transform="rotate(-89.6476 1937.39 1306.31)" fill="#A0AEC0"/>
<circle cx="1837.4" cy="1305.7" r="15" transform="rotate(-89.6476 1837.4 1305.7)" fill="#A0AEC0"/>
<circle cx="2037.39" cy="1306.93" r="15" transform="rotate(-89.6476 2037.39 1306.93)" fill="#A0AEC0"/>
<circle cx="2137.39" cy="1307.54" r="15" transform="rotate(-89.6476 2137.39 1307.54)" fill="#A0AEC0"/>
<circle cx="1787.4" cy="1305.39" r="15" transform="rotate(-89.6476 1787.4 1305.39)" fill="#A0AEC0"/>
<circle cx="1987.39" cy="1306.62" r="15" transform="rotate(-89.6476 1987.39 1306.62)" fill="#A0AEC0"/>
<circle cx="1887.4" cy="1306.01" r="15" transform="rotate(-89.6476 1887.4 1306.01)" fill="#A0AEC0"/>
<circle cx="2087.39" cy="1307.24" r="15" transform="rotate(-89.6476 2087.39 1307.24)" fill="#A0AEC0"/>
<circle cx="2187.39" cy="1307.85" r="15" transform="rotate(-89.6476 2187.39 1307.85)" fill="#A0AEC0"/>
<circle cx="1938.32" cy="1156.32" r="15" transform="rotate(-89.6476 1938.32 1156.32)" fill="#A0AEC0"/>
<circle cx="2038.32" cy="1156.93" r="15" transform="rotate(-89.6476 2038.32 1156.93)" fill="#A0AEC0"/>
<circle cx="2138.31" cy="1157.55" r="15" transform="rotate(-89.6476 2138.31 1157.55)" fill="#A0AEC0"/>
<circle cx="1988.32" cy="1156.62" r="15" transform="rotate(-89.6476 1988.32 1156.62)" fill="#A0AEC0"/>
<circle cx="2088.31" cy="1157.24" r="15" transform="rotate(-89.6476 2088.31 1157.24)" fill="#A0AEC0"/>
<circle cx="2188.31" cy="1157.86" r="15" transform="rotate(-89.6476 2188.31 1157.86)" fill="#A0AEC0"/>
<circle cx="2139.54" cy="957.551" r="15" transform="rotate(-89.6476 2139.54 957.551)" fill="#A0AEC0"/>
<circle cx="2189.54" cy="957.859" r="15" transform="rotate(-89.6476 2189.54 957.859)" fill="#A0AEC0"/>
<circle cx="265" cy="15" r="15" transform="rotate(90 265 15)" fill="#718096"/>
<circle cx="365" cy="15" r="15" transform="rotate(90 365 15)" fill="#718096"/>
<circle cx="165" cy="15" r="15" transform="rotate(90 165 15)" fill="#718096"/>
<circle cx="215" cy="15" r="15" transform="rotate(90 215 15)" fill="#718096"/>
<circle cx="315" cy="15" r="15" transform="rotate(90 315 15)" fill="#718096"/>
<circle cx="115" cy="15" r="15" transform="rotate(90 115 15)" fill="#718096"/>
<circle cx="265" cy="165" r="15" transform="rotate(90 265 165)" fill="#718096"/>
<circle cx="165" cy="165" r="15" transform="rotate(90 165 165)" fill="#718096"/>
<circle cx="65" cy="165" r="15" transform="rotate(90 65 165)" fill="#718096"/>
<circle cx="215" cy="165" r="15" transform="rotate(90 215 165)" fill="#718096"/>
<circle cx="315" cy="165" r="15" transform="rotate(90 315 165)" fill="#718096"/>
<circle cx="115" cy="165" r="15" transform="rotate(90 115 165)" fill="#718096"/>
<circle cx="15" cy="165" r="15" transform="rotate(90 15 165)" fill="#718096"/>
<circle cx="65" cy="365" r="15" transform="rotate(90 65 365)" fill="#718096"/>
<circle cx="115" cy="365" r="15" transform="rotate(90 115 365)" fill="#718096"/>
<circle cx="15" cy="365" r="15" transform="rotate(90 15 365)" fill="#718096"/>
<circle cx="265" cy="115" r="15" transform="rotate(90 265 115)" fill="#718096"/>
<circle cx="365" cy="115" r="15" transform="rotate(90 365 115)" fill="#718096"/>
<circle cx="165" cy="115" r="15" transform="rotate(90 165 115)" fill="#718096"/>
<circle cx="65" cy="115" r="15" transform="rotate(90 65 115)" fill="#718096"/>
<circle cx="215" cy="115" r="15" transform="rotate(90 215 115)" fill="#718096"/>
<circle cx="315" cy="115" r="15" transform="rotate(90 315 115)" fill="#718096"/>
<circle cx="115" cy="115" r="15" transform="rotate(90 115 115)" fill="#718096"/>
<circle cx="15" cy="115" r="15" transform="rotate(90 15 115)" fill="#718096"/>
<circle cx="165" cy="315" r="15" transform="rotate(90 165 315)" fill="#718096"/>
<circle cx="65" cy="315" r="15" transform="rotate(90 65 315)" fill="#718096"/>
<circle cx="115" cy="315" r="15" transform="rotate(90 115 315)" fill="#718096"/>
<circle cx="15" cy="315" r="15" transform="rotate(90 15 315)" fill="#718096"/>
<circle cx="165" cy="265" r="15" transform="rotate(90 165 265)" fill="#718096"/>
<circle cx="65" cy="265" r="15" transform="rotate(90 65 265)" fill="#718096"/>
<circle cx="215" cy="265" r="15" transform="rotate(90 215 265)" fill="#718096"/>
<circle cx="115" cy="265" r="15" transform="rotate(90 115 265)" fill="#718096"/>
<circle cx="15" cy="265" r="15" transform="rotate(90 15 265)" fill="#718096"/>
<circle cx="265" cy="65" r="15" transform="rotate(90 265 65)" fill="#718096"/>
<circle cx="365" cy="65" r="15" transform="rotate(90 365 65)" fill="#718096"/>
<circle cx="165" cy="65" r="15" transform="rotate(90 165 65)" fill="#718096"/>
<circle cx="65" cy="65" r="15" transform="rotate(90 65 65)" fill="#718096"/>
<circle cx="415" cy="65" r="15" transform="rotate(90 415 65)" fill="#718096"/>
<circle cx="215" cy="65" r="15" transform="rotate(90 215 65)" fill="#718096"/>
<circle cx="315" cy="65" r="15" transform="rotate(90 315 65)" fill="#718096"/>
<circle cx="115" cy="65" r="15" transform="rotate(90 115 65)" fill="#718096"/>
<circle cx="265" cy="215" r="15" transform="rotate(90 265 215)" fill="#718096"/>
<circle cx="165" cy="215" r="15" transform="rotate(90 165 215)" fill="#718096"/>
<circle cx="65" cy="215" r="15" transform="rotate(90 65 215)" fill="#718096"/>
<circle cx="215" cy="215" r="15" transform="rotate(90 215 215)" fill="#718096"/>
<circle cx="115" cy="215" r="15" transform="rotate(90 115 215)" fill="#718096"/>
<circle cx="15" cy="215" r="15" transform="rotate(90 15 215)" fill="#718096"/>
<circle cx="65" cy="415" r="15" transform="rotate(90 65 415)" fill="#718096"/>
<circle cx="15" cy="415" r="15" transform="rotate(90 15 415)" fill="#718096"/>
<circle cx="215" cy="517" r="15" transform="rotate(-90 215 517)" fill="#718096"/>
<circle cx="115" cy="517" r="15" transform="rotate(-90 115 517)" fill="#718096"/>
<circle cx="315" cy="517" r="15" transform="rotate(-90 315 517)" fill="#718096"/>
<circle cx="415" cy="517" r="15" transform="rotate(-90 415 517)" fill="#718096"/>
<circle cx="265" cy="517" r="15" transform="rotate(-90 265 517)" fill="#718096"/>
<circle cx="165" cy="517" r="15" transform="rotate(-90 165 517)" fill="#718096"/>
<circle cx="365" cy="517" r="15" transform="rotate(-90 365 517)" fill="#718096"/>
<circle cx="465" cy="517" r="15" transform="rotate(-90 465 517)" fill="#718096"/>
<circle cx="215" cy="367" r="15" transform="rotate(-90 215 367)" fill="#718096"/>
<circle cx="315" cy="367" r="15" transform="rotate(-90 315 367)" fill="#718096"/>
<circle cx="415" cy="367" r="15" transform="rotate(-90 415 367)" fill="#718096"/>
<circle cx="265" cy="367" r="15" transform="rotate(-90 265 367)" fill="#718096"/>
<circle cx="165" cy="367" r="15" transform="rotate(-90 165 367)" fill="#718096"/>
<circle cx="365" cy="367" r="15" transform="rotate(-90 365 367)" fill="#718096"/>
<circle cx="465" cy="367" r="15" transform="rotate(-90 465 367)" fill="#718096"/>
<circle cx="415" cy="167" r="15" transform="rotate(-90 415 167)" fill="#718096"/>
<circle cx="365" cy="167" r="15" transform="rotate(-90 365 167)" fill="#718096"/>
<circle cx="465" cy="167" r="15" transform="rotate(-90 465 167)" fill="#718096"/>
<circle cx="215" cy="417" r="15" transform="rotate(-90 215 417)" fill="#718096"/>
<circle cx="115" cy="417" r="15" transform="rotate(-90 115 417)" fill="#718096"/>
<circle cx="315" cy="417" r="15" transform="rotate(-90 315 417)" fill="#718096"/>
<circle cx="415" cy="417" r="15" transform="rotate(-90 415 417)" fill="#718096"/>
<circle cx="265" cy="417" r="15" transform="rotate(-90 265 417)" fill="#718096"/>
<circle cx="165" cy="417" r="15" transform="rotate(-90 165 417)" fill="#718096"/>
<circle cx="365" cy="417" r="15" transform="rotate(-90 365 417)" fill="#718096"/>
<circle cx="465" cy="417" r="15" transform="rotate(-90 465 417)" fill="#718096"/>
<circle cx="315" cy="217" r="15" transform="rotate(-90 315 217)" fill="#718096"/>
<circle cx="415" cy="217" r="15" transform="rotate(-90 415 217)" fill="#718096"/>
<circle cx="365" cy="217" r="15" transform="rotate(-90 365 217)" fill="#718096"/>
<circle cx="465" cy="217" r="15" transform="rotate(-90 465 217)" fill="#718096"/>
<circle cx="315" cy="267" r="15" transform="rotate(-90 315 267)" fill="#718096"/>
<circle cx="415" cy="267" r="15" transform="rotate(-90 415 267)" fill="#718096"/>
<circle cx="265" cy="267" r="15" transform="rotate(-90 265 267)" fill="#718096"/>
<circle cx="365" cy="267" r="15" transform="rotate(-90 365 267)" fill="#718096"/>
<circle cx="465" cy="267" r="15" transform="rotate(-90 465 267)" fill="#718096"/>
<circle cx="215" cy="467" r="15" transform="rotate(-90 215 467)" fill="#718096"/>
<circle cx="115" cy="467" r="15" transform="rotate(-90 115 467)" fill="#718096"/>
<circle cx="315" cy="467" r="15" transform="rotate(-90 315 467)" fill="#718096"/>
<circle cx="415" cy="467" r="15" transform="rotate(-90 415 467)" fill="#718096"/>
<circle cx="65" cy="467" r="15" transform="rotate(-90 65 467)" fill="#718096"/>
<circle cx="265" cy="467" r="15" transform="rotate(-90 265 467)" fill="#718096"/>
<circle cx="165" cy="467" r="15" transform="rotate(-90 165 467)" fill="#718096"/>
<circle cx="365" cy="467" r="15" transform="rotate(-90 365 467)" fill="#718096"/>
<circle cx="465" cy="467" r="15" transform="rotate(-90 465 467)" fill="#718096"/>
<circle cx="215" cy="317" r="15" transform="rotate(-90 215 317)" fill="#718096"/>
<circle cx="315" cy="317" r="15" transform="rotate(-90 315 317)" fill="#718096"/>
<circle cx="415" cy="317" r="15" transform="rotate(-90 415 317)" fill="#718096"/>
<circle cx="265" cy="317" r="15" transform="rotate(-90 265 317)" fill="#718096"/>
<circle cx="365" cy="317" r="15" transform="rotate(-90 365 317)" fill="#718096"/>
<circle cx="465" cy="317" r="15" transform="rotate(-90 465 317)" fill="#718096"/>
<circle cx="415" cy="117" r="15" transform="rotate(-90 415 117)" fill="#718096"/>
<circle cx="465" cy="117" r="15" transform="rotate(-90 465 117)" fill="#718096"/>
<g filter="url(#filter0_d)">
<rect x="146.999" y="135" width="1920" height="1080" rx="20" fill="#4A5568"/>
</g>
<rect x="251.999" y="180" width="400" height="97" rx="48.5" fill="white"/>
<rect x="1840.5" y="199.5" width="153" height="75" rx="7.5" stroke="#CBD5E0" stroke-width="5"/>
<rect x="1016.5" y="991.5" width="181" height="96" rx="7.5" stroke="#CBD5E0" stroke-width="5"/>
<rect x="1867" y="222" width="100" height="30" rx="15" fill="#CBD5E0"/>
<rect x="1701" y="220" width="100" height="30" rx="15" fill="#CBD5E0"/>
<rect x="1573" y="220" width="100" height="30" rx="15" fill="#CBD5E0"/>
<rect x="1445" y="220" width="100" height="30" rx="15" fill="#CBD5E0"/>
<rect x="1479.05" y="511.774" width="13.1052" height="11.0804" rx="5.5402" fill="#CBD5E0"/>
<rect x="1548.95" y="511.405" width="13.1052" height="11.0804" rx="5.5402" fill="#CBD5E0"/>
<rect x="1723.68" y="512.143" width="13.1052" height="11.0804" rx="5.5402" fill="#CBD5E0"/>
<rect x="1496.53" y="511.774" width="13.1052" height="11.0804" rx="5.5402" fill="#CBD5E0"/>
<rect x="1706.21" y="511.774" width="13.1052" height="11.0804" rx="5.5402" fill="#CBD5E0"/>
<rect x="1531.47" y="512.143" width="13.1052" height="11.0804" rx="5.5402" fill="#CBD5E0"/>
<rect x="1479.05" y="807.251" width="13.1052" height="11.0804" rx="5.5402" fill="#CBD5E0"/>
<rect x="1758.63" y="807.621" width="13.1052" height="11.0804" rx="5.5402" fill="#CBD5E0"/>
<rect x="1339.26" y="807.251" width="13.1052" height="11.0804" rx="5.5402" fill="#CBD5E0"/>
<rect x="1898.42" y="807.621" width="13.1052" height="11.0804" rx="5.5402" fill="#CBD5E0"/>
<rect x="1618.84" y="807.621" width="13.1052" height="11.0804" rx="5.5402" fill="#CBD5E0"/>
<rect x="1548.95" y="806.882" width="13.1052" height="11.0804" rx="5.5402" fill="#CBD5E0"/>
<rect x="1269.37" y="806.882" width="13.1052" height="11.0804" rx="5.5402" fill="#CBD5E0"/>
<rect x="1828.53" y="807.251" width="13.1052" height="11.0804" rx="5.5402" fill="#CBD5E0"/>
<rect x="1409.16" y="806.882" width="13.1052" height="11.0804" rx="5.5402" fill="#CBD5E0"/>
<rect x="1688.74" y="807.251" width="13.1052" height="11.0804" rx="5.5402" fill="#CBD5E0"/>
<rect x="1514" y="807.621" width="13.1052" height="11.0804" rx="5.5402" fill="#CBD5E0"/>
<rect x="1234.42" y="807.621" width="13.1052" height="11.0804" rx="5.5402" fill="#CBD5E0"/>
<rect x="1793.58" y="807.99" width="13.1052" height="11.0804" rx="5.5402" fill="#CBD5E0"/>
<rect x="1374.21" y="807.621" width="13.1052" height="11.0804" rx="5.5402" fill="#CBD5E0"/>
<rect x="1653.79" y="807.99" width="13.1052" height="11.0804" rx="5.5402" fill="#CBD5E0"/>
<rect x="1583.89" y="807.251" width="13.1052" height="11.0804" rx="5.5402" fill="#CBD5E0"/>
<rect x="1304.32" y="807.251" width="13.1052" height="11.0804" rx="5.5402" fill="#CBD5E0"/>
<rect x="1863.47" y="807.621" width="13.1052" height="11.0804" rx="5.5402" fill="#CBD5E0"/>
<rect x="1444.11" y="807.251" width="13.1052" height="11.0804" rx="5.5402" fill="#CBD5E0"/>
<rect x="1723.68" y="807.621" width="13.1052" height="11.0804" rx="5.5402" fill="#CBD5E0"/>
<rect x="1496.53" y="807.251" width="13.1052" height="11.0804" rx="5.5402" fill="#CBD5E0"/>
<rect x="1216.95" y="807.251" width="13.1052" height="11.0804" rx="5.5402" fill="#CBD5E0"/>
<rect x="1776.1" y="807.621" width="13.1052" height="11.0804" rx="5.5402" fill="#CBD5E0"/>
<rect x="1356.74" y="807.251" width="13.1052" height="11.0804" rx="5.5402" fill="#CBD5E0"/>
<rect x="1915.89" y="807.621" width="13.1052" height="11.0804" rx="5.5402" fill="#CBD5E0"/>
<rect x="1636.32" y="807.621" width="13.1052" height="11.0804" rx="5.5402" fill="#CBD5E0"/>
<rect x="1566.42" y="806.882" width="13.1052" height="11.0804" rx="5.5402" fill="#CBD5E0"/>
<rect x="1286.84" y="806.882" width="13.1052" height="11.0804" rx="5.5402" fill="#CBD5E0"/>
<rect x="1846" y="807.251" width="13.1052" height="11.0804" rx="5.5402" fill="#CBD5E0"/>
<rect x="1426.63" y="806.882" width="13.1052" height="11.0804" rx="5.5402" fill="#CBD5E0"/>
<rect x="1706.21" y="807.251" width="13.1052" height="11.0804" rx="5.5402" fill="#CBD5E0"/>
<rect x="1531.47" y="807.621" width="13.1052" height="11.0804" rx="5.5402" fill="#CBD5E0"/>
<rect x="1251.89" y="807.621" width="13.1052" height="11.0804" rx="5.5402" fill="#CBD5E0"/>
<rect x="1811.05" y="807.99" width="13.1052" height="11.0804" rx="5.5402" fill="#CBD5E0"/>
<rect x="1391.68" y="807.621" width="13.1052" height="11.0804" rx="5.5402" fill="#CBD5E0"/>
<rect x="1671.26" y="807.99" width="13.1052" height="11.0804" rx="5.5402" fill="#CBD5E0"/>
<rect x="1601.37" y="807.251" width="13.1052" height="11.0804" rx="5.5402" fill="#CBD5E0"/>
<rect x="1321.79" y="807.251" width="13.1052" height="11.0804" rx="5.5402" fill="#CBD5E0"/>
<rect x="1880.95" y="807.621" width="13.1052" height="11.0804" rx="5.5402" fill="#CBD5E0"/>
<rect x="1461.58" y="807.251" width="13.1052" height="11.0804" rx="5.5402" fill="#CBD5E0"/>
<rect x="1741.16" y="807.621" width="13.1052" height="11.0804" rx="5.5402" fill="#CBD5E0"/>
<rect x="1479.05" y="748.156" width="13.1052" height="11.0804" rx="5.5402" fill="#CBD5E0"/>
<rect x="1199.47" y="748.156" width="13.1052" height="11.0804" rx="5.5402" fill="#CBD5E0"/>
<rect x="1182" y="748.525" width="13.1052" height="11.0804" rx="5.5402" fill="#CBD5E0"/>
<rect x="1758.63" y="748.525" width="13.1052" height="11.0804" rx="5.5402" fill="#CBD5E0"/>
<rect x="1339.26" y="748.156" width="13.1052" height="11.0804" rx="5.5402" fill="#CBD5E0"/>
<rect x="1898.42" y="748.525" width="13.1052" height="11.0804" rx="5.5402" fill="#CBD5E0"/>
<rect x="1618.84" y="748.525" width="13.1052" height="11.0804" rx="5.5402" fill="#CBD5E0"/>
<rect x="1548.95" y="747.786" width="13.1052" height="11.0804" rx="5.5402" fill="#CBD5E0"/>
<rect x="1269.37" y="747.786" width="13.1052" height="11.0804" rx="5.5402" fill="#CBD5E0"/>
<rect x="1828.53" y="748.156" width="13.1052" height="11.0804" rx="5.5402" fill="#CBD5E0"/>
<rect x="1409.16" y="747.786" width="13.1052" height="11.0804" rx="5.5402" fill="#CBD5E0"/>
<rect x="1688.74" y="748.156" width="13.1052" height="11.0804" rx="5.5402" fill="#CBD5E0"/>
<rect x="1514" y="748.525" width="13.1052" height="11.0804" rx="5.5402" fill="#CBD5E0"/>
<rect x="1234.42" y="748.525" width="13.1052" height="11.0804" rx="5.5402" fill="#CBD5E0"/>
<rect x="1793.58" y="748.894" width="13.1052" height="11.0804" rx="5.5402" fill="#CBD5E0"/>
<rect x="1374.21" y="748.525" width="13.1052" height="11.0804" rx="5.5402" fill="#CBD5E0"/>
<rect x="1653.79" y="748.894" width="13.1052" height="11.0804" rx="5.5402" fill="#CBD5E0"/>
<rect x="1583.89" y="748.156" width="13.1052" height="11.0804" rx="5.5402" fill="#CBD5E0"/>
<rect x="1304.32" y="748.156" width="13.1052" height="11.0804" rx="5.5402" fill="#CBD5E0"/>
<rect x="1863.47" y="748.525" width="13.1052" height="11.0804" rx="5.5402" fill="#CBD5E0"/>
<rect x="1444.11" y="748.156" width="13.1052" height="11.0804" rx="5.5402" fill="#CBD5E0"/>
<rect x="1723.68" y="748.525" width="13.1052" height="11.0804" rx="5.5402" fill="#CBD5E0"/>
<rect x="1496.53" y="748.156" width="13.1052" height="11.0804" rx="5.5402" fill="#CBD5E0"/>
<rect x="1216.95" y="748.156" width="13.1052" height="11.0804" rx="5.5402" fill="#CBD5E0"/>
<rect x="1776.1" y="748.525" width="13.1052" height="11.0804" rx="5.5402" fill="#CBD5E0"/>
<rect x="1356.74" y="748.156" width="13.1052" height="11.0804" rx="5.5402" fill="#CBD5E0"/>
<rect x="1636.32" y="748.525" width="13.1052" height="11.0804" rx="5.5402" fill="#CBD5E0"/>
<rect x="1566.42" y="747.786" width="13.1052" height="11.0804" rx="5.5402" fill="#CBD5E0"/>
<rect x="1286.84" y="747.786" width="13.1052" height="11.0804" rx="5.5402" fill="#CBD5E0"/>
<rect x="1846" y="748.156" width="13.1052" height="11.0804" rx="5.5402" fill="#CBD5E0"/>
<rect x="1426.63" y="747.786" width="13.1052" height="11.0804" rx="5.5402" fill="#CBD5E0"/>
<rect x="1706.21" y="748.156" width="13.1052" height="11.0804" rx="5.5402" fill="#CBD5E0"/>
<rect x="1531.47" y="748.525" width="13.1052" height="11.0804" rx="5.5402" fill="#CBD5E0"/>
<rect x="1251.89" y="748.525" width="13.1052" height="11.0804" rx="5.5402" fill="#CBD5E0"/>
<rect x="1811.05" y="748.894" width="13.1052" height="11.0804" rx="5.5402" fill="#CBD5E0"/>
<rect x="1391.68" y="748.525" width="13.1052" height="11.0804" rx="5.5402" fill="#CBD5E0"/>
<rect x="1671.26" y="748.894" width="13.1052" height="11.0804" rx="5.5402" fill="#CBD5E0"/>
<rect x="1601.37" y="748.156" width="13.1052" height="11.0804" rx="5.5402" fill="#CBD5E0"/>
<rect x="1321.79" y="748.156" width="13.1052" height="11.0804" rx="5.5402" fill="#CBD5E0"/>
<rect x="1880.95" y="748.525" width="13.1052" height="11.0804" rx="5.5402" fill="#CBD5E0"/>
<rect x="1461.58" y="748.156" width="13.1052" height="11.0804" rx="5.5402" fill="#CBD5E0"/>
<rect x="1741.16" y="748.525" width="13.1052" height="11.0804" rx="5.5402" fill="#CBD5E0"/>
<rect x="1479.05" y="629.965" width="13.1052" height="11.0804" rx="5.5402" fill="#CBD5E0"/>
<rect x="1758.63" y="630.334" width="13.1052" height="11.0804" rx="5.5402" fill="#CBD5E0"/>
<rect x="1339.26" y="629.965" width="13.1052" height="11.0804" rx="5.5402" fill="#CBD5E0"/>
<rect x="1618.84" y="630.334" width="13.1052" height="11.0804" rx="5.5402" fill="#CBD5E0"/>
<rect x="1548.95" y="629.595" width="13.1052" height="11.0804" rx="5.5402" fill="#CBD5E0"/>
<rect x="1409.16" y="629.595" width="13.1052" height="11.0804" rx="5.5402" fill="#CBD5E0"/>
<rect x="1688.74" y="629.965" width="13.1052" height="11.0804" rx="5.5402" fill="#CBD5E0"/>
<rect x="1514" y="630.334" width="13.1052" height="11.0804" rx="5.5402" fill="#CBD5E0"/>
<rect x="1793.58" y="630.704" width="13.1052" height="11.0804" rx="5.5402" fill="#CBD5E0"/>
<rect x="1374.21" y="630.334" width="13.1052" height="11.0804" rx="5.5402" fill="#CBD5E0"/>
<rect x="1653.79" y="630.704" width="13.1052" height="11.0804" rx="5.5402" fill="#CBD5E0"/>
<rect x="1583.89" y="629.965" width="13.1052" height="11.0804" rx="5.5402" fill="#CBD5E0"/>
<rect x="1444.11" y="629.965" width="13.1052" height="11.0804" rx="5.5402" fill="#CBD5E0"/>
<rect x="1723.68" y="630.334" width="13.1052" height="11.0804" rx="5.5402" fill="#CBD5E0"/>
<rect x="1496.53" y="629.965" width="13.1052" height="11.0804" rx="5.5402" fill="#CBD5E0"/>
<rect x="1776.1" y="630.334" width="13.1052" height="11.0804" rx="5.5402" fill="#CBD5E0"/>
<rect x="1356.74" y="629.965" width="13.1052" height="11.0804" rx="5.5402" fill="#CBD5E0"/>
<rect x="1636.32" y="630.334" width="13.1052" height="11.0804" rx="5.5402" fill="#CBD5E0"/>
<rect x="1566.42" y="629.595" width="13.1052" height="11.0804" rx="5.5402" fill="#CBD5E0"/>
<rect x="1426.63" y="629.595" width="13.1052" height="11.0804" rx="5.5402" fill="#CBD5E0"/>
<rect x="1706.21" y="629.965" width="13.1052" height="11.0804" rx="5.5402" fill="#CBD5E0"/>
<rect x="1531.47" y="630.334" width="13.1052" height="11.0804" rx="5.5402" fill="#CBD5E0"/>
<rect x="1391.68" y="630.334" width="13.1052" height="11.0804" rx="5.5402" fill="#CBD5E0"/>
<rect x="1671.26" y="630.704" width="13.1052" height="11.0804" rx="5.5402" fill="#CBD5E0"/>
<rect x="1601.37" y="629.965" width="13.1052" height="11.0804" rx="5.5402" fill="#CBD5E0"/>
<rect x="1461.58" y="629.965" width="13.1052" height="11.0804" rx="5.5402" fill="#CBD5E0"/>
<rect x="1741.16" y="630.334" width="13.1052" height="11.0804" rx="5.5402" fill="#CBD5E0"/>
<rect x="1758.63" y="925.812" width="13.1052" height="11.0804" rx="5.5402" fill="#CBD5E0"/>
<rect x="1618.84" y="925.812" width="13.1052" height="11.0804" rx="5.5402" fill="#CBD5E0"/>
<rect x="1828.53" y="925.442" width="13.1052" height="11.0804" rx="5.5402" fill="#CBD5E0"/>
<rect x="1688.74" y="925.442" width="13.1052" height="11.0804" rx="5.5402" fill="#CBD5E0"/>
<rect x="1793.58" y="926.181" width="13.1052" height="11.0804" rx="5.5402" fill="#CBD5E0"/>
<rect x="1653.79" y="926.181" width="13.1052" height="11.0804" rx="5.5402" fill="#CBD5E0"/>
<rect x="1863.47" y="925.812" width="13.1052" height="11.0804" rx="5.5402" fill="#CBD5E0"/>
<rect x="1723.68" y="925.812" width="13.1052" height="11.0804" rx="5.5402" fill="#CBD5E0"/>
<rect x="1776.1" y="925.812" width="13.1052" height="11.0804" rx="5.5402" fill="#CBD5E0"/>
<rect x="1846" y="925.442" width="13.1052" height="11.0804" rx="5.5402" fill="#CBD5E0"/>
<rect x="1706.21" y="925.442" width="13.1052" height="11.0804" rx="5.5402" fill="#CBD5E0"/>
<rect x="1811.05" y="926.181" width="13.1052" height="11.0804" rx="5.5402" fill="#CBD5E0"/>
<rect x="1671.26" y="926.181" width="13.1052" height="11.0804" rx="5.5402" fill="#CBD5E0"/>
<rect x="1741.16" y="925.812" width="13.1052" height="11.0804" rx="5.5402" fill="#CBD5E0"/>
<rect x="1479.05" y="570.869" width="13.1052" height="11.0804" rx="5.5402" fill="#CBD5E0"/>
<rect x="1758.63" y="571.239" width="13.1052" height="11.0804" rx="5.5402" fill="#CBD5E0"/>
<rect x="1548.95" y="570.5" width="13.1052" height="11.0804" rx="5.5402" fill="#CBD5E0"/>
<rect x="1409.16" y="570.5" width="13.1052" height="11.0804" rx="5.5402" fill="#CBD5E0"/>
<rect x="1514" y="571.239" width="13.1052" height="11.0804" rx="5.5402" fill="#CBD5E0"/>
<rect x="1583.89" y="570.869" width="13.1052" height="11.0804" rx="5.5402" fill="#CBD5E0"/>
<rect x="1444.11" y="570.869" width="13.1052" height="11.0804" rx="5.5402" fill="#CBD5E0"/>
<rect x="1723.68" y="571.239" width="13.1052" height="11.0804" rx="5.5402" fill="#CBD5E0"/>
<rect x="1496.53" y="570.869" width="13.1052" height="11.0804" rx="5.5402" fill="#CBD5E0"/>
<rect x="1566.42" y="570.5" width="13.1052" height="11.0804" rx="5.5402" fill="#CBD5E0"/>
<rect x="1426.63" y="570.5" width="13.1052" height="11.0804" rx="5.5402" fill="#CBD5E0"/>
<rect x="1706.21" y="570.869" width="13.1052" height="11.0804" rx="5.5402" fill="#CBD5E0"/>
<rect x="1531.47" y="571.239" width="13.1052" height="11.0804" rx="5.5402" fill="#CBD5E0"/>
<rect x="1391.68" y="571.239" width="13.1052" height="11.0804" rx="5.5402" fill="#CBD5E0"/>
<rect x="1601.37" y="570.869" width="13.1052" height="11.0804" rx="5.5402" fill="#CBD5E0"/>
<rect x="1461.58" y="570.869" width="13.1052" height="11.0804" rx="5.5402" fill="#CBD5E0"/>
<rect x="1741.16" y="571.239" width="13.1052" height="11.0804" rx="5.5402" fill="#CBD5E0"/>
<rect x="1758.63" y="866.716" width="13.1052" height="11.0804" rx="5.5402" fill="#CBD5E0"/>
<rect x="1339.26" y="866.347" width="13.1052" height="11.0804" rx="5.5402" fill="#CBD5E0"/>
<rect x="1898.42" y="866.716" width="13.1052" height="11.0804" rx="5.5402" fill="#CBD5E0"/>
<rect x="1618.84" y="866.716" width="13.1052" height="11.0804" rx="5.5402" fill="#CBD5E0"/>
<rect x="1269.37" y="865.977" width="13.1052" height="11.0804" rx="5.5402" fill="#CBD5E0"/>
<rect x="1828.53" y="866.347" width="13.1052" height="11.0804" rx="5.5402" fill="#CBD5E0"/>
<rect x="1688.74" y="866.347" width="13.1052" height="11.0804" rx="5.5402" fill="#CBD5E0"/>
<rect x="1234.42" y="866.716" width="13.1052" height="11.0804" rx="5.5402" fill="#CBD5E0"/>
<rect x="1793.58" y="867.085" width="13.1052" height="11.0804" rx="5.5402" fill="#CBD5E0"/>
<rect x="1374.21" y="866.716" width="13.1052" height="11.0804" rx="5.5402" fill="#CBD5E0"/>
<rect x="1653.79" y="867.085" width="13.1052" height="11.0804" rx="5.5402" fill="#CBD5E0"/>
<rect x="1583.89" y="866.347" width="13.1052" height="11.0804" rx="5.5402" fill="#CBD5E0"/>
<rect x="1304.32" y="866.347" width="13.1052" height="11.0804" rx="5.5402" fill="#CBD5E0"/>
<rect x="1863.47" y="866.716" width="13.1052" height="11.0804" rx="5.5402" fill="#CBD5E0"/>
<rect x="1723.68" y="866.716" width="13.1052" height="11.0804" rx="5.5402" fill="#CBD5E0"/>
<rect x="1776.1" y="866.716" width="13.1052" height="11.0804" rx="5.5402" fill="#CBD5E0"/>
<rect x="1356.74" y="866.347" width="13.1052" height="11.0804" rx="5.5402" fill="#CBD5E0"/>
<rect x="1636.32" y="866.716" width="13.1052" height="11.0804" rx="5.5402" fill="#CBD5E0"/>
<rect x="1566.42" y="865.977" width="13.1052" height="11.0804" rx="5.5402" fill="#CBD5E0"/>
<rect x="1286.84" y="865.977" width="13.1052" height="11.0804" rx="5.5402" fill="#CBD5E0"/>
<rect x="1846" y="866.347" width="13.1052" height="11.0804" rx="5.5402" fill="#CBD5E0"/>
<rect x="1706.21" y="866.347" width="13.1052" height="11.0804" rx="5.5402" fill="#CBD5E0"/>
<rect x="1251.89" y="866.716" width="13.1052" height="11.0804" rx="5.5402" fill="#CBD5E0"/>
<rect x="1811.05" y="867.085" width="13.1052" height="11.0804" rx="5.5402" fill="#CBD5E0"/>
<rect x="1391.68" y="866.716" width="13.1052" height="11.0804" rx="5.5402" fill="#CBD5E0"/>
<rect x="1671.26" y="867.085" width="13.1052" height="11.0804" rx="5.5402" fill="#CBD5E0"/>
<rect x="1601.37" y="866.347" width="13.1052" height="11.0804" rx="5.5402" fill="#CBD5E0"/>
<rect x="1321.79" y="866.347" width="13.1052" height="11.0804" rx="5.5402" fill="#CBD5E0"/>
<rect x="1880.95" y="866.716" width="13.1052" height="11.0804" rx="5.5402" fill="#CBD5E0"/>
<rect x="1741.16" y="866.716" width="13.1052" height="11.0804" rx="5.5402" fill="#CBD5E0"/>
<rect x="1479.05" y="689.06" width="13.1052" height="11.0804" rx="5.5402" fill="#CBD5E0"/>
<rect x="1199.47" y="689.06" width="13.1052" height="11.0804" rx="5.5402" fill="#CBD5E0"/>
<rect x="1199.47" y="674.286" width="13.1052" height="11.0804" rx="5.5402" fill="#CBD5E0"/>
<rect x="1758.63" y="689.43" width="13.1052" height="11.0804" rx="5.5402" fill="#CBD5E0"/>
<rect x="1339.26" y="689.06" width="13.1052" height="11.0804" rx="5.5402" fill="#CBD5E0"/>
<rect x="1618.84" y="689.43" width="13.1052" height="11.0804" rx="5.5402" fill="#CBD5E0"/>
<rect x="1548.95" y="688.691" width="13.1052" height="11.0804" rx="5.5402" fill="#CBD5E0"/>
<rect x="1269.37" y="688.691" width="13.1052" height="11.0804" rx="5.5402" fill="#CBD5E0"/>
<rect x="1828.53" y="689.06" width="13.1052" height="11.0804" rx="5.5402" fill="#CBD5E0"/>
<rect x="1409.16" y="688.691" width="13.1052" height="11.0804" rx="5.5402" fill="#CBD5E0"/>
<rect x="1688.74" y="689.06" width="13.1052" height="11.0804" rx="5.5402" fill="#CBD5E0"/>
<rect x="1514" y="689.43" width="13.1052" height="11.0804" rx="5.5402" fill="#CBD5E0"/>
<rect x="1234.42" y="689.43" width="13.1052" height="11.0804" rx="5.5402" fill="#CBD5E0"/>
<rect x="1793.58" y="689.799" width="13.1052" height="11.0804" rx="5.5402" fill="#CBD5E0"/>
<rect x="1374.21" y="689.43" width="13.1052" height="11.0804" rx="5.5402" fill="#CBD5E0"/>
<rect x="1653.79" y="689.799" width="13.1052" height="11.0804" rx="5.5402" fill="#CBD5E0"/>
<rect x="1583.89" y="689.06" width="13.1052" height="11.0804" rx="5.5402" fill="#CBD5E0"/>
<rect x="1304.32" y="689.06" width="13.1052" height="11.0804" rx="5.5402" fill="#CBD5E0"/>
<rect x="1863.47" y="689.43" width="13.1052" height="11.0804" rx="5.5402" fill="#CBD5E0"/>
<rect x="1444.11" y="689.06" width="13.1052" height="11.0804" rx="5.5402" fill="#CBD5E0"/>
<rect x="1723.68" y="689.43" width="13.1052" height="11.0804" rx="5.5402" fill="#CBD5E0"/>
<rect x="1496.53" y="689.06" width="13.1052" height="11.0804" rx="5.5402" fill="#CBD5E0"/>
<rect x="1216.95" y="689.06" width="13.1052" height="11.0804" rx="5.5402" fill="#CBD5E0"/>
<rect x="1776.1" y="689.43" width="13.1052" height="11.0804" rx="5.5402" fill="#CBD5E0"/>
<rect x="1356.74" y="689.06" width="13.1052" height="11.0804" rx="5.5402" fill="#CBD5E0"/>
<rect x="1636.32" y="689.43" width="13.1052" height="11.0804" rx="5.5402" fill="#CBD5E0"/>
<rect x="1566.42" y="688.691" width="13.1052" height="11.0804" rx="5.5402" fill="#CBD5E0"/>
<rect x="1286.84" y="688.691" width="13.1052" height="11.0804" rx="5.5402" fill="#CBD5E0"/>
<rect x="1846" y="689.06" width="13.1052" height="11.0804" rx="5.5402" fill="#CBD5E0"/>
<rect x="1426.63" y="688.691" width="13.1052" height="11.0804" rx="5.5402" fill="#CBD5E0"/>
<rect x="1706.21" y="689.06" width="13.1052" height="11.0804" rx="5.5402" fill="#CBD5E0"/>
<rect x="1531.47" y="689.43" width="13.1052" height="11.0804" rx="5.5402" fill="#CBD5E0"/>
<rect x="1251.89" y="689.43" width="13.1052" height="11.0804" rx="5.5402" fill="#CBD5E0"/>
<rect x="1811.05" y="689.799" width="13.1052" height="11.0804" rx="5.5402" fill="#CBD5E0"/>
<rect x="1391.68" y="689.43" width="13.1052" height="11.0804" rx="5.5402" fill="#CBD5E0"/>
<rect x="1671.26" y="689.799" width="13.1052" height="11.0804" rx="5.5402" fill="#CBD5E0"/>
<rect x="1601.37" y="689.06" width="13.1052" height="11.0804" rx="5.5402" fill="#CBD5E0"/>
<rect x="1321.79" y="689.06" width="13.1052" height="11.0804" rx="5.5402" fill="#CBD5E0"/>
<rect x="1461.58" y="689.06" width="13.1052" height="11.0804" rx="5.5402" fill="#CBD5E0"/>
<rect x="1182" y="689.06" width="13.1052" height="11.0804" rx="5.5402" fill="#CBD5E0"/>
<rect x="1741.16" y="689.43" width="13.1052" height="11.0804" rx="5.5402" fill="#CBD5E0"/>
<rect x="1723.68" y="984.907" width="13.1052" height="11.0804" rx="5.5402" fill="#CBD5E0"/>
<rect x="1776.1" y="984.907" width="13.1052" height="11.0804" rx="5.5402" fill="#CBD5E0"/>
<rect x="1741.16" y="984.907" width="13.1052" height="11.0804" rx="5.5402" fill="#CBD5E0"/>
<rect x="1479.05" y="541.322" width="13.1052" height="11.0804" rx="5.5402" fill="#CBD5E0"/>
<rect x="1548.95" y="540.952" width="13.1052" height="11.0804" rx="5.5402" fill="#CBD5E0"/>
<rect x="1514" y="541.691" width="13.1052" height="11.0804" rx="5.5402" fill="#CBD5E0"/>
<rect x="1583.89" y="541.322" width="13.1052" height="11.0804" rx="5.5402" fill="#CBD5E0"/>
<rect x="1723.68" y="541.691" width="13.1052" height="11.0804" rx="5.5402" fill="#CBD5E0"/>
<rect x="1496.53" y="541.322" width="13.1052" height="11.0804" rx="5.5402" fill="#CBD5E0"/>
<rect x="1566.42" y="540.952" width="13.1052" height="11.0804" rx="5.5402" fill="#CBD5E0"/>
<rect x="1706.21" y="541.322" width="13.1052" height="11.0804" rx="5.5402" fill="#CBD5E0"/>
<rect x="1531.47" y="541.691" width="13.1052" height="11.0804" rx="5.5402" fill="#CBD5E0"/>
<rect x="1601.37" y="541.322" width="13.1052" height="11.0804" rx="5.5402" fill="#CBD5E0"/>
<rect x="1479.05" y="836.799" width="13.1052" height="11.0804" rx="5.5402" fill="#CBD5E0"/>
<rect x="1758.63" y="837.168" width="13.1052" height="11.0804" rx="5.5402" fill="#CBD5E0"/>
<rect x="1339.26" y="836.799" width="13.1052" height="11.0804" rx="5.5402" fill="#CBD5E0"/>
<rect x="1898.42" y="837.168" width="13.1052" height="11.0804" rx="5.5402" fill="#CBD5E0"/>
<rect x="1618.84" y="837.168" width="13.1052" height="11.0804" rx="5.5402" fill="#CBD5E0"/>
<rect x="1548.95" y="836.43" width="13.1052" height="11.0804" rx="5.5402" fill="#CBD5E0"/>
<rect x="1269.37" y="836.43" width="13.1052" height="11.0804" rx="5.5402" fill="#CBD5E0"/>
<rect x="1828.53" y="836.799" width="13.1052" height="11.0804" rx="5.5402" fill="#CBD5E0"/>
<rect x="1409.16" y="836.43" width="13.1052" height="11.0804" rx="5.5402" fill="#CBD5E0"/>
<rect x="1688.74" y="836.799" width="13.1052" height="11.0804" rx="5.5402" fill="#CBD5E0"/>
<rect x="1514" y="837.168" width="13.1052" height="11.0804" rx="5.5402" fill="#CBD5E0"/>
<rect x="1234.42" y="837.168" width="13.1052" height="11.0804" rx="5.5402" fill="#CBD5E0"/>
<rect x="1793.58" y="837.538" width="13.1052" height="11.0804" rx="5.5402" fill="#CBD5E0"/>
<rect x="1374.21" y="837.168" width="13.1052" height="11.0804" rx="5.5402" fill="#CBD5E0"/>
<rect x="1653.79" y="837.538" width="13.1052" height="11.0804" rx="5.5402" fill="#CBD5E0"/>
<rect x="1583.89" y="836.799" width="13.1052" height="11.0804" rx="5.5402" fill="#CBD5E0"/>
<rect x="1304.32" y="836.799" width="13.1052" height="11.0804" rx="5.5402" fill="#CBD5E0"/>
<rect x="1863.47" y="837.168" width="13.1052" height="11.0804" rx="5.5402" fill="#CBD5E0"/>
<rect x="1444.11" y="836.799" width="13.1052" height="11.0804" rx="5.5402" fill="#CBD5E0"/>
<rect x="1723.68" y="837.168" width="13.1052" height="11.0804" rx="5.5402" fill="#CBD5E0"/>
<rect x="1496.53" y="836.799" width="13.1052" height="11.0804" rx="5.5402" fill="#CBD5E0"/>
<rect x="1216.95" y="836.799" width="13.1052" height="11.0804" rx="5.5402" fill="#CBD5E0"/>
<rect x="1776.1" y="837.168" width="13.1052" height="11.0804" rx="5.5402" fill="#CBD5E0"/>
<rect x="1356.74" y="836.799" width="13.1052" height="11.0804" rx="5.5402" fill="#CBD5E0"/>
<rect x="1636.32" y="837.168" width="13.1052" height="11.0804" rx="5.5402" fill="#CBD5E0"/>
<rect x="1566.42" y="836.43" width="13.1052" height="11.0804" rx="5.5402" fill="#CBD5E0"/>
<rect x="1286.84" y="836.43" width="13.1052" height="11.0804" rx="5.5402" fill="#CBD5E0"/>
<rect x="1846" y="836.799" width="13.1052" height="11.0804" rx="5.5402" fill="#CBD5E0"/>
<rect x="1426.63" y="836.43" width="13.1052" height="11.0804" rx="5.5402" fill="#CBD5E0"/>
<rect x="1706.21" y="836.799" width="13.1052" height="11.0804" rx="5.5402" fill="#CBD5E0"/>
<rect x="1531.47" y="837.168" width="13.1052" height="11.0804" rx="5.5402" fill="#CBD5E0"/>
<rect x="1251.89" y="837.168" width="13.1052" height="11.0804" rx="5.5402" fill="#CBD5E0"/>
<rect x="1811.05" y="837.538" width="13.1052" height="11.0804" rx="5.5402" fill="#CBD5E0"/>
<rect x="1391.68" y="837.168" width="13.1052" height="11.0804" rx="5.5402" fill="#CBD5E0"/>
<rect x="1671.26" y="837.538" width="13.1052" height="11.0804" rx="5.5402" fill="#CBD5E0"/>
<rect x="1601.37" y="836.799" width="13.1052" height="11.0804" rx="5.5402" fill="#CBD5E0"/>
<rect x="1321.79" y="836.799" width="13.1052" height="11.0804" rx="5.5402" fill="#CBD5E0"/>
<rect x="1880.95" y="837.168" width="13.1052" height="11.0804" rx="5.5402" fill="#CBD5E0"/>
<rect x="1461.58" y="836.799" width="13.1052" height="11.0804" rx="5.5402" fill="#CBD5E0"/>
<rect x="1741.16" y="837.168" width="13.1052" height="11.0804" rx="5.5402" fill="#CBD5E0"/>
<rect x="1479.05" y="777.704" width="13.1052" height="11.0804" rx="5.5402" fill="#CBD5E0"/>
<rect x="1199.47" y="777.704" width="13.1052" height="11.0804" rx="5.5402" fill="#CBD5E0"/>
<rect x="1758.63" y="778.073" width="13.1052" height="11.0804" rx="5.5402" fill="#CBD5E0"/>
<rect x="1339.26" y="777.704" width="13.1052" height="11.0804" rx="5.5402" fill="#CBD5E0"/>
<rect x="1898.42" y="778.073" width="13.1052" height="11.0804" rx="5.5402" fill="#CBD5E0"/>
<rect x="1618.84" y="778.073" width="13.1052" height="11.0804" rx="5.5402" fill="#CBD5E0"/>
<rect x="1548.95" y="777.334" width="13.1052" height="11.0804" rx="5.5402" fill="#CBD5E0"/>
<rect x="1269.37" y="777.334" width="13.1052" height="11.0804" rx="5.5402" fill="#CBD5E0"/>
<rect x="1828.53" y="777.704" width="13.1052" height="11.0804" rx="5.5402" fill="#CBD5E0"/>
<rect x="1409.16" y="777.334" width="13.1052" height="11.0804" rx="5.5402" fill="#CBD5E0"/>
<rect x="1688.74" y="777.704" width="13.1052" height="11.0804" rx="5.5402" fill="#CBD5E0"/>
<rect x="1514" y="778.073" width="13.1052" height="11.0804" rx="5.5402" fill="#CBD5E0"/>
<rect x="1234.42" y="778.073" width="13.1052" height="11.0804" rx="5.5402" fill="#CBD5E0"/>
<rect x="1793.58" y="778.442" width="13.1052" height="11.0804" rx="5.5402" fill="#CBD5E0"/>
<rect x="1374.21" y="778.073" width="13.1052" height="11.0804" rx="5.5402" fill="#CBD5E0"/>
<rect x="1653.79" y="778.442" width="13.1052" height="11.0804" rx="5.5402" fill="#CBD5E0"/>
<rect x="1583.89" y="777.704" width="13.1052" height="11.0804" rx="5.5402" fill="#CBD5E0"/>
<rect x="1304.32" y="777.704" width="13.1052" height="11.0804" rx="5.5402" fill="#CBD5E0"/>
<rect x="1863.47" y="778.073" width="13.1052" height="11.0804" rx="5.5402" fill="#CBD5E0"/>
<rect x="1444.11" y="777.704" width="13.1052" height="11.0804" rx="5.5402" fill="#CBD5E0"/>
<rect x="1723.68" y="778.073" width="13.1052" height="11.0804" rx="5.5402" fill="#CBD5E0"/>
<rect x="1496.53" y="777.704" width="13.1052" height="11.0804" rx="5.5402" fill="#CBD5E0"/>
<rect x="1216.95" y="777.704" width="13.1052" height="11.0804" rx="5.5402" fill="#CBD5E0"/>
<rect x="1776.1" y="778.073" width="13.1052" height="11.0804" rx="5.5402" fill="#CBD5E0"/>
<rect x="1356.74" y="777.704" width="13.1052" height="11.0804" rx="5.5402" fill="#CBD5E0"/>
<rect x="1915.89" y="778.073" width="13.1052" height="11.0804" rx="5.5402" fill="#4299E1"/>
<rect x="1636.32" y="778.073" width="13.1052" height="11.0804" rx="5.5402" fill="#CBD5E0"/>
<rect x="1566.42" y="777.334" width="13.1052" height="11.0804" rx="5.5402" fill="#CBD5E0"/>
<rect x="1286.84" y="777.334" width="13.1052" height="11.0804" rx="5.5402" fill="#CBD5E0"/>
<rect x="1846" y="777.704" width="13.1052" height="11.0804" rx="5.5402" fill="#CBD5E0"/>
<rect x="1426.63" y="777.334" width="13.1052" height="11.0804" rx="5.5402" fill="#CBD5E0"/>
<rect x="1706.21" y="777.704" width="13.1052" height="11.0804" rx="5.5402" fill="#CBD5E0"/>
<rect x="1531.47" y="778.073" width="13.1052" height="11.0804" rx="5.5402" fill="#CBD5E0"/>
<rect x="1251.89" y="778.073" width="13.1052" height="11.0804" rx="5.5402" fill="#CBD5E0"/>
<rect x="1811.05" y="778.442" width="13.1052" height="11.0804" rx="5.5402" fill="#CBD5E0"/>
<rect x="1391.68" y="778.073" width="13.1052" height="11.0804" rx="5.5402" fill="#CBD5E0"/>
<rect x="1671.26" y="778.442" width="13.1052" height="11.0804" rx="5.5402" fill="#CBD5E0"/>
<rect x="1601.37" y="777.704" width="13.1052" height="11.0804" rx="5.5402" fill="#CBD5E0"/>
<rect x="1321.79" y="777.704" width="13.1052" height="11.0804" rx="5.5402" fill="#CBD5E0"/>
<rect x="1880.95" y="778.073" width="13.1052" height="11.0804" rx="5.5402" fill="#CBD5E0"/>
<rect x="1461.58" y="777.704" width="13.1052" height="11.0804" rx="5.5402" fill="#CBD5E0"/>
<rect x="1741.16" y="778.073" width="13.1052" height="11.0804" rx="5.5402" fill="#CBD5E0"/>
<rect x="1479.05" y="659.512" width="13.1052" height="11.0804" rx="5.5402" fill="#CBD5E0"/>
<rect x="1758.63" y="659.882" width="13.1052" height="11.0804" rx="5.5402" fill="#CBD5E0"/>
<rect x="1339.26" y="659.512" width="13.1052" height="11.0804" rx="5.5402" fill="#CBD5E0"/>
<rect x="1618.84" y="659.882" width="13.1052" height="11.0804" rx="5.5402" fill="#CBD5E0"/>
<rect x="1548.95" y="659.143" width="13.1052" height="11.0804" rx="5.5402" fill="#CBD5E0"/>
<rect x="1269.37" y="659.143" width="13.1052" height="11.0804" rx="5.5402" fill="#CBD5E0"/>
<rect x="1828.53" y="659.512" width="13.1052" height="11.0804" rx="5.5402" fill="#CBD5E0"/>
<rect x="1409.16" y="659.143" width="13.1052" height="11.0804" rx="5.5402" fill="#CBD5E0"/>
<rect x="1688.74" y="659.512" width="13.1052" height="11.0804" rx="5.5402" fill="#CBD5E0"/>
<rect x="1514" y="659.882" width="13.1052" height="11.0804" rx="5.5402" fill="#CBD5E0"/>
<rect x="1234.42" y="659.882" width="13.1052" height="11.0804" rx="5.5402" fill="#CBD5E0"/>
<rect x="1793.58" y="660.251" width="13.1052" height="11.0804" rx="5.5402" fill="#CBD5E0"/>
<rect x="1374.21" y="659.882" width="13.1052" height="11.0804" rx="5.5402" fill="#CBD5E0"/>
<rect x="1653.79" y="660.251" width="13.1052" height="11.0804" rx="5.5402" fill="#CBD5E0"/>
<rect x="1583.89" y="659.512" width="13.1052" height="11.0804" rx="5.5402" fill="#CBD5E0"/>
<rect x="1304.32" y="659.512" width="13.1052" height="11.0804" rx="5.5402" fill="#CBD5E0"/>
<rect x="1444.11" y="659.512" width="13.1052" height="11.0804" rx="5.5402" fill="#CBD5E0"/>
<rect x="1723.68" y="659.882" width="13.1052" height="11.0804" rx="5.5402" fill="#CBD5E0"/>
<rect x="1496.53" y="659.512" width="13.1052" height="11.0804" rx="5.5402" fill="#CBD5E0"/>
<rect x="1776.1" y="659.882" width="13.1052" height="11.0804" rx="5.5402" fill="#CBD5E0"/>
<rect x="1356.74" y="659.512" width="13.1052" height="11.0804" rx="5.5402" fill="#CBD5E0"/>
<rect x="1636.32" y="659.882" width="13.1052" height="11.0804" rx="5.5402" fill="#CBD5E0"/>
<rect x="1566.42" y="659.143" width="13.1052" height="11.0804" rx="5.5402" fill="#CBD5E0"/>
<rect x="1286.84" y="659.143" width="13.1052" height="11.0804" rx="5.5402" fill="#CBD5E0"/>
<rect x="1426.63" y="659.143" width="13.1052" height="11.0804" rx="5.5402" fill="#CBD5E0"/>
<rect x="1706.21" y="659.512" width="13.1052" height="11.0804" rx="5.5402" fill="#CBD5E0"/>
<rect x="1531.47" y="659.882" width="13.1052" height="11.0804" rx="5.5402" fill="#CBD5E0"/>
<rect x="1251.89" y="659.882" width="13.1052" height="11.0804" rx="5.5402" fill="#CBD5E0"/>
<rect x="1811.05" y="660.251" width="13.1052" height="11.0804" rx="5.5402" fill="#CBD5E0"/>
<rect x="1391.68" y="659.882" width="13.1052" height="11.0804" rx="5.5402" fill="#CBD5E0"/>
<rect x="1671.26" y="660.251" width="13.1052" height="11.0804" rx="5.5402" fill="#CBD5E0"/>
<rect x="1601.37" y="659.512" width="13.1052" height="11.0804" rx="5.5402" fill="#CBD5E0"/>
<rect x="1321.79" y="659.512" width="13.1052" height="11.0804" rx="5.5402" fill="#CBD5E0"/>
<rect x="1461.58" y="659.512" width="13.1052" height="11.0804" rx="5.5402" fill="#CBD5E0"/>
<rect x="1741.16" y="659.882" width="13.1052" height="11.0804" rx="5.5402" fill="#CBD5E0"/>
<rect x="1758.63" y="955.359" width="13.1052" height="11.0804" rx="5.5402" fill="#CBD5E0"/>
<rect x="1758.63" y="970.133" width="13.1052" height="11.0804" rx="5.5402" fill="#4299E1"/>
<rect x="1828.53" y="954.99" width="13.1052" height="11.0804" rx="5.5402" fill="#CBD5E0"/>
<rect x="1688.74" y="954.99" width="13.1052" height="11.0804" rx="5.5402" fill="#CBD5E0"/>
<rect x="1793.58" y="955.729" width="13.1052" height="11.0804" rx="5.5402" fill="#CBD5E0"/>
<rect x="1723.68" y="955.359" width="13.1052" height="11.0804" rx="5.5402" fill="#CBD5E0"/>
<rect x="1776.1" y="955.359" width="13.1052" height="11.0804" rx="5.5402" fill="#CBD5E0"/>
<rect x="1846" y="954.99" width="13.1052" height="11.0804" rx="5.5402" fill="#CBD5E0"/>
<rect x="1706.21" y="954.99" width="13.1052" height="11.0804" rx="5.5402" fill="#CBD5E0"/>
<rect x="1811.05" y="955.729" width="13.1052" height="11.0804" rx="5.5402" fill="#CBD5E0"/>
<rect x="1671.26" y="955.729" width="13.1052" height="11.0804" rx="5.5402" fill="#CBD5E0"/>
<rect x="1741.16" y="955.359" width="13.1052" height="11.0804" rx="5.5402" fill="#CBD5E0"/>
<rect x="1793.58" y="1059.15" width="13.1052" height="11.0804" rx="5.5402" fill="#CBD5E0"/>
<rect x="1776.1" y="1058.78" width="13.1052" height="11.0804" rx="5.5402" fill="#CBD5E0"/>
<rect x="1811.05" y="1059.15" width="13.1052" height="11.0804" rx="5.5402" fill="#CBD5E0"/>
<rect x="1479.05" y="600.417" width="13.1052" height="11.0804" rx="5.5402" fill="#CBD5E0"/>
<rect x="1758.63" y="600.786" width="13.1052" height="11.0804" rx="5.5402" fill="#CBD5E0"/>
<rect x="1339.26" y="600.417" width="13.1052" height="11.0804" rx="5.5402" fill="#CBD5E0"/>
<rect x="1618.84" y="600.786" width="13.1052" height="11.0804" rx="5.5402" fill="#CBD5E0"/>
<rect x="1548.95" y="600.048" width="13.1052" height="11.0804" rx="5.5402" fill="#CBD5E0"/>
<rect x="1409.16" y="600.048" width="13.1052" height="11.0804" rx="5.5402" fill="#CBD5E0"/>
<rect x="1688.74" y="600.417" width="13.1052" height="11.0804" rx="5.5402" fill="#CBD5E0"/>
<rect x="1514" y="600.786" width="13.1052" height="11.0804" rx="5.5402" fill="#CBD5E0"/>
<rect x="1374.21" y="600.786" width="13.1052" height="11.0804" rx="5.5402" fill="#CBD5E0"/>
<rect x="1653.79" y="601.156" width="13.1052" height="11.0804" rx="5.5402" fill="#CBD5E0"/>
<rect x="1583.89" y="600.417" width="13.1052" height="11.0804" rx="5.5402" fill="#CBD5E0"/>
<rect x="1444.11" y="600.417" width="13.1052" height="11.0804" rx="5.5402" fill="#CBD5E0"/>
<rect x="1723.68" y="600.786" width="13.1052" height="11.0804" rx="5.5402" fill="#CBD5E0"/>
<rect x="1496.53" y="600.417" width="13.1052" height="11.0804" rx="5.5402" fill="#CBD5E0"/>
<rect x="1776.1" y="600.786" width="13.1052" height="11.0804" rx="5.5402" fill="#CBD5E0"/>
<rect x="1356.74" y="600.417" width="13.1052" height="11.0804" rx="5.5402" fill="#CBD5E0"/>
<rect x="1636.32" y="600.786" width="13.1052" height="11.0804" rx="5.5402" fill="#CBD5E0"/>
<rect x="1566.42" y="600.048" width="13.1052" height="11.0804" rx="5.5402" fill="#CBD5E0"/>
<rect x="1426.63" y="600.048" width="13.1052" height="11.0804" rx="5.5402" fill="#CBD5E0"/>
<rect x="1706.21" y="600.417" width="13.1052" height="11.0804" rx="5.5402" fill="#CBD5E0"/>
<rect x="1531.47" y="600.786" width="13.1052" height="11.0804" rx="5.5402" fill="#CBD5E0"/>
<rect x="1391.68" y="600.786" width="13.1052" height="11.0804" rx="5.5402" fill="#CBD5E0"/>
<rect x="1601.37" y="600.417" width="13.1052" height="11.0804" rx="5.5402" fill="#CBD5E0"/>
<rect x="1461.58" y="600.417" width="13.1052" height="11.0804" rx="5.5402" fill="#CBD5E0"/>
<rect x="1741.16" y="600.786" width="13.1052" height="11.0804" rx="5.5402" fill="#CBD5E0"/>
<rect x="1758.63" y="896.264" width="13.1052" height="11.0804" rx="5.5402" fill="#CBD5E0"/>
<rect x="1269.37" y="895.525" width="13.1052" height="11.0804" rx="5.5402" fill="#CBD5E0"/>
<rect x="1269.37" y="910.299" width="13.1052" height="11.0804" rx="5.5402" fill="#CBD5E0"/>
<rect x="1828.53" y="895.894" width="13.1052" height="11.0804" rx="5.5402" fill="#CBD5E0"/>
<rect x="1688.74" y="895.894" width="13.1052" height="11.0804" rx="5.5402" fill="#CBD5E0"/>
<rect x="1234.42" y="896.264" width="13.1052" height="11.0804" rx="5.5402" fill="#CBD5E0"/>
<rect x="1793.58" y="896.633" width="13.1052" height="11.0804" rx="5.5402" fill="#CBD5E0"/>
<rect x="1653.79" y="896.633" width="13.1052" height="11.0804" rx="5.5402" fill="#CBD5E0"/>
<rect x="1583.89" y="895.894" width="13.1052" height="11.0804" rx="5.5402" fill="#CBD5E0"/>
<rect x="1583.89" y="910.668" width="13.1052" height="11.0804" rx="5.5402" fill="#CBD5E0"/>
<rect x="1863.47" y="896.264" width="13.1052" height="11.0804" rx="5.5402" fill="#CBD5E0"/>
<rect x="1723.68" y="896.264" width="13.1052" height="11.0804" rx="5.5402" fill="#CBD5E0"/>
<rect x="1216.95" y="895.894" width="13.1052" height="11.0804" rx="5.5402" fill="#CBD5E0"/>
<rect x="1776.1" y="896.264" width="13.1052" height="11.0804" rx="5.5402" fill="#CBD5E0"/>
<rect x="1636.32" y="896.264" width="13.1052" height="11.0804" rx="5.5402" fill="#CBD5E0"/>
<rect x="1618.84" y="896.633" width="13.1052" height="11.0804" rx="5.5402" fill="#CBD5E0"/>
<rect x="1286.84" y="895.525" width="13.1052" height="11.0804" rx="5.5402" fill="#CBD5E0"/>
<rect x="1846" y="895.894" width="13.1052" height="11.0804" rx="5.5402" fill="#CBD5E0"/>
<rect x="1706.21" y="895.894" width="13.1052" height="11.0804" rx="5.5402" fill="#CBD5E0"/>
<rect x="1251.89" y="896.264" width="13.1052" height="11.0804" rx="5.5402" fill="#CBD5E0"/>
<rect x="1811.05" y="896.633" width="13.1052" height="11.0804" rx="5.5402" fill="#CBD5E0"/>
<rect x="1671.26" y="896.633" width="13.1052" height="11.0804" rx="5.5402" fill="#CBD5E0"/>
<rect x="1741.16" y="896.264" width="13.1052" height="11.0804" rx="5.5402" fill="#CBD5E0"/>
<rect x="1479.05" y="718.608" width="13.1052" height="11.0804" rx="5.5402" fill="#CBD5E0"/>
<rect x="1199.47" y="718.608" width="13.1052" height="11.0804" rx="5.5402" fill="#CBD5E0"/>
<rect x="1758.63" y="718.977" width="13.1052" height="11.0804" rx="5.5402" fill="#CBD5E0"/>
<rect x="1339.26" y="718.608" width="13.1052" height="11.0804" rx="5.5402" fill="#CBD5E0"/>
<rect x="1618.84" y="718.977" width="13.1052" height="11.0804" rx="5.5402" fill="#CBD5E0"/>
<rect x="1548.95" y="718.239" width="13.1052" height="11.0804" rx="5.5402" fill="#CBD5E0"/>
<rect x="1269.37" y="718.239" width="13.1052" height="11.0804" rx="5.5402" fill="#CBD5E0"/>
<rect x="1828.53" y="718.608" width="13.1052" height="11.0804" rx="5.5402" fill="#CBD5E0"/>
<rect x="1409.16" y="718.239" width="13.1052" height="11.0804" rx="5.5402" fill="#CBD5E0"/>
<rect x="1688.74" y="718.608" width="13.1052" height="11.0804" rx="5.5402" fill="#CBD5E0"/>
<rect x="1514" y="718.977" width="13.1052" height="11.0804" rx="5.5402" fill="#CBD5E0"/>
<rect x="1234.42" y="718.977" width="13.1052" height="11.0804" rx="5.5402" fill="#CBD5E0"/>
<rect x="1793.58" y="719.347" width="13.1052" height="11.0804" rx="5.5402" fill="#CBD5E0"/>
<rect x="1374.21" y="718.977" width="13.1052" height="11.0804" rx="5.5402" fill="#CBD5E0"/>
<rect x="1653.79" y="719.347" width="13.1052" height="11.0804" rx="5.5402" fill="#CBD5E0"/>
<rect x="1583.89" y="718.608" width="13.1052" height="11.0804" rx="5.5402" fill="#CBD5E0"/>
<rect x="1304.32" y="718.608" width="13.1052" height="11.0804" rx="5.5402" fill="#CBD5E0"/>
<rect x="1863.47" y="718.977" width="13.1052" height="11.0804" rx="5.5402" fill="#CBD5E0"/>
<rect x="1444.11" y="718.608" width="13.1052" height="11.0804" rx="5.5402" fill="#CBD5E0"/>
<rect x="1723.68" y="718.977" width="13.1052" height="11.0804" rx="5.5402" fill="#CBD5E0"/>
<rect x="1496.53" y="718.608" width="13.1052" height="11.0804" rx="5.5402" fill="#CBD5E0"/>
<rect x="1216.95" y="718.608" width="13.1052" height="11.0804" rx="5.5402" fill="#CBD5E0"/>
<rect x="1776.1" y="718.977" width="13.1052" height="11.0804" rx="5.5402" fill="#CBD5E0"/>
<rect x="1356.74" y="718.608" width="13.1052" height="11.0804" rx="5.5402" fill="#CBD5E0"/>
<rect x="1636.32" y="718.977" width="13.1052" height="11.0804" rx="5.5402" fill="#CBD5E0"/>
<rect x="1566.42" y="718.239" width="13.1052" height="11.0804" rx="5.5402" fill="#CBD5E0"/>
<rect x="1286.84" y="718.239" width="13.1052" height="11.0804" rx="5.5402" fill="#CBD5E0"/>
<rect x="1846" y="718.608" width="13.1052" height="11.0804" rx="5.5402" fill="#CBD5E0"/>
<rect x="1426.63" y="718.239" width="13.1052" height="11.0804" rx="5.5402" fill="#CBD5E0"/>
<rect x="1706.21" y="718.608" width="13.1052" height="11.0804" rx="5.5402" fill="#CBD5E0"/>
<rect x="1531.47" y="718.977" width="13.1052" height="11.0804" rx="5.5402" fill="#CBD5E0"/>
<rect x="1251.89" y="718.977" width="13.1052" height="11.0804" rx="5.5402" fill="#CBD5E0"/>
<rect x="1811.05" y="719.347" width="13.1052" height="11.0804" rx="5.5402" fill="#CBD5E0"/>
<rect x="1391.68" y="718.977" width="13.1052" height="11.0804" rx="5.5402" fill="#CBD5E0"/>
<rect x="1671.26" y="719.347" width="13.1052" height="11.0804" rx="5.5402" fill="#CBD5E0"/>
<rect x="1601.37" y="718.608" width="13.1052" height="11.0804" rx="5.5402" fill="#CBD5E0"/>
<rect x="1321.79" y="718.608" width="13.1052" height="11.0804" rx="5.5402" fill="#CBD5E0"/>
<rect x="1880.95" y="718.977" width="13.1052" height="11.0804" rx="5.5402" fill="#CBD5E0"/>
<rect x="1461.58" y="718.608" width="13.1052" height="11.0804" rx="5.5402" fill="#CBD5E0"/>
<rect x="1182" y="718.608" width="13.1052" height="11.0804" rx="5.5402" fill="#CBD5E0"/>
<rect x="1741.16" y="718.977" width="13.1052" height="11.0804" rx="5.5402" fill="#CBD5E0"/>
<rect x="1548.95" y="526.178" width="13.1052" height="11.0804" rx="5.5402" fill="#CBD5E0"/>
<rect x="1514" y="526.917" width="13.1052" height="11.0804" rx="5.5402" fill="#CBD5E0"/>
<rect x="1583.89" y="526.548" width="13.1052" height="11.0804" rx="5.5402" fill="#CBD5E0"/>
<rect x="1723.68" y="526.917" width="13.1052" height="11.0804" rx="5.5402" fill="#CBD5E0"/>
<rect x="1496.53" y="526.548" width="13.1052" height="11.0804" rx="5.5402" fill="#4299E1"/>
<rect x="1566.42" y="526.178" width="13.1052" height="11.0804" rx="5.5402" fill="#CBD5E0"/>
<rect x="1706.21" y="526.548" width="13.1052" height="11.0804" rx="5.5402" fill="#CBD5E0"/>
<rect x="1531.47" y="526.917" width="13.1052" height="11.0804" rx="5.5402" fill="#CBD5E0"/>
<rect x="1601.37" y="526.548" width="13.1052" height="11.0804" rx="5.5402" fill="#CBD5E0"/>
<rect x="1479.05" y="822.025" width="13.1052" height="11.0804" rx="5.5402" fill="#CBD5E0"/>
<rect x="1758.63" y="822.394" width="13.1052" height="11.0804" rx="5.5402" fill="#CBD5E0"/>
<rect x="1339.26" y="822.025" width="13.1052" height="11.0804" rx="5.5402" fill="#CBD5E0"/>
<rect x="1898.42" y="822.394" width="13.1052" height="11.0804" rx="5.5402" fill="#CBD5E0"/>
<rect x="1618.84" y="822.394" width="13.1052" height="11.0804" rx="5.5402" fill="#CBD5E0"/>
<rect x="1548.95" y="821.656" width="13.1052" height="11.0804" rx="5.5402" fill="#CBD5E0"/>
<rect x="1269.37" y="821.656" width="13.1052" height="11.0804" rx="5.5402" fill="#CBD5E0"/>
<rect x="1828.53" y="822.025" width="13.1052" height="11.0804" rx="5.5402" fill="#CBD5E0"/>
<rect x="1409.16" y="821.656" width="13.1052" height="11.0804" rx="5.5402" fill="#CBD5E0"/>
<rect x="1688.74" y="822.025" width="13.1052" height="11.0804" rx="5.5402" fill="#CBD5E0"/>
<rect x="1514" y="822.394" width="13.1052" height="11.0804" rx="5.5402" fill="#CBD5E0"/>
<rect x="1234.42" y="822.394" width="13.1052" height="11.0804" rx="5.5402" fill="#CBD5E0"/>
<rect x="1793.58" y="822.764" width="13.1052" height="11.0804" rx="5.5402" fill="#CBD5E0"/>
<rect x="1374.21" y="822.394" width="13.1052" height="11.0804" rx="5.5402" fill="#CBD5E0"/>
<rect x="1653.79" y="822.764" width="13.1052" height="11.0804" rx="5.5402" fill="#CBD5E0"/>
<rect x="1583.89" y="822.025" width="13.1052" height="11.0804" rx="5.5402" fill="#CBD5E0"/>
<rect x="1304.32" y="822.025" width="13.1052" height="11.0804" rx="5.5402" fill="#CBD5E0"/>
<rect x="1863.47" y="822.394" width="13.1052" height="11.0804" rx="5.5402" fill="#CBD5E0"/>
<rect x="1444.11" y="822.025" width="13.1052" height="11.0804" rx="5.5402" fill="#CBD5E0"/>
<rect x="1723.68" y="822.394" width="13.1052" height="11.0804" rx="5.5402" fill="#CBD5E0"/>
<rect x="1496.53" y="822.025" width="13.1052" height="11.0804" rx="5.5402" fill="#CBD5E0"/>
<rect x="1216.95" y="822.025" width="13.1052" height="11.0804" rx="5.5402" fill="#CBD5E0"/>
<rect x="1776.1" y="822.394" width="13.1052" height="11.0804" rx="5.5402" fill="#CBD5E0"/>
<rect x="1356.74" y="822.025" width="13.1052" height="11.0804" rx="5.5402" fill="#CBD5E0"/>
<rect x="1636.32" y="822.394" width="13.1052" height="11.0804" rx="5.5402" fill="#CBD5E0"/>
<rect x="1566.42" y="821.656" width="13.1052" height="11.0804" rx="5.5402" fill="#CBD5E0"/>
<rect x="1286.84" y="821.656" width="13.1052" height="11.0804" rx="5.5402" fill="#CBD5E0"/>
<rect x="1846" y="822.025" width="13.1052" height="11.0804" rx="5.5402" fill="#CBD5E0"/>
<rect x="1426.63" y="821.656" width="13.1052" height="11.0804" rx="5.5402" fill="#CBD5E0"/>
<rect x="1706.21" y="822.025" width="13.1052" height="11.0804" rx="5.5402" fill="#CBD5E0"/>
<rect x="1531.47" y="822.394" width="13.1052" height="11.0804" rx="5.5402" fill="#CBD5E0"/>
<rect x="1251.89" y="822.394" width="13.1052" height="11.0804" rx="5.5402" fill="#CBD5E0"/>
<rect x="1811.05" y="822.764" width="13.1052" height="11.0804" rx="5.5402" fill="#CBD5E0"/>
<rect x="1391.68" y="822.394" width="13.1052" height="11.0804" rx="5.5402" fill="#CBD5E0"/>
<rect x="1671.26" y="822.764" width="13.1052" height="11.0804" rx="5.5402" fill="#CBD5E0"/>
<rect x="1601.37" y="822.025" width="13.1052" height="11.0804" rx="5.5402" fill="#CBD5E0"/>
<rect x="1321.79" y="822.025" width="13.1052" height="11.0804" rx="5.5402" fill="#CBD5E0"/>
<rect x="1880.95" y="822.394" width="13.1052" height="11.0804" rx="5.5402" fill="#CBD5E0"/>
<rect x="1461.58" y="822.025" width="13.1052" height="11.0804" rx="5.5402" fill="#CBD5E0"/>
<rect x="1741.16" y="822.394" width="13.1052" height="11.0804" rx="5.5402" fill="#CBD5E0"/>
<rect x="1479.05" y="762.93" width="13.1052" height="11.0804" rx="5.5402" fill="#CBD5E0"/>
<rect x="1199.47" y="762.93" width="13.1052" height="11.0804" rx="5.5402" fill="#CBD5E0"/>
<rect x="1758.63" y="763.299" width="13.1052" height="11.0804" rx="5.5402" fill="#CBD5E0"/>
<rect x="1339.26" y="762.93" width="13.1052" height="11.0804" rx="5.5402" fill="#CBD5E0"/>
<rect x="1898.42" y="763.299" width="13.1052" height="11.0804" rx="5.5402" fill="#CBD5E0"/>
<rect x="1618.84" y="763.299" width="13.1052" height="11.0804" rx="5.5402" fill="#CBD5E0"/>
<rect x="1548.95" y="762.56" width="13.1052" height="11.0804" rx="5.5402" fill="#CBD5E0"/>
<rect x="1269.37" y="762.56" width="13.1052" height="11.0804" rx="5.5402" fill="#CBD5E0"/>
<rect x="1828.53" y="762.93" width="13.1052" height="11.0804" rx="5.5402" fill="#CBD5E0"/>
<rect x="1409.16" y="762.56" width="13.1052" height="11.0804" rx="5.5402" fill="#CBD5E0"/>
<rect x="1688.74" y="762.93" width="13.1052" height="11.0804" rx="5.5402" fill="#CBD5E0"/>
<rect x="1514" y="763.299" width="13.1052" height="11.0804" rx="5.5402" fill="#CBD5E0"/>
<rect x="1234.42" y="763.299" width="13.1052" height="11.0804" rx="5.5402" fill="#CBD5E0"/>
<rect x="1793.58" y="763.668" width="13.1052" height="11.0804" rx="5.5402" fill="#CBD5E0"/>
<rect x="1374.21" y="763.299" width="13.1052" height="11.0804" rx="5.5402" fill="#CBD5E0"/>
<rect x="1653.79" y="763.668" width="13.1052" height="11.0804" rx="5.5402" fill="#CBD5E0"/>
<rect x="1583.89" y="762.93" width="13.1052" height="11.0804" rx="5.5402" fill="#CBD5E0"/>
<rect x="1304.32" y="762.93" width="13.1052" height="11.0804" rx="5.5402" fill="#CBD5E0"/>
<rect x="1863.47" y="763.299" width="13.1052" height="11.0804" rx="5.5402" fill="#CBD5E0"/>
<rect x="1444.11" y="762.93" width="13.1052" height="11.0804" rx="5.5402" fill="#CBD5E0"/>
<rect x="1723.68" y="763.299" width="13.1052" height="11.0804" rx="5.5402" fill="#CBD5E0"/>
<rect x="1496.53" y="762.93" width="13.1052" height="11.0804" rx="5.5402" fill="#CBD5E0"/>
<rect x="1216.95" y="762.93" width="13.1052" height="11.0804" rx="5.5402" fill="#CBD5E0"/>
<rect x="1776.1" y="763.299" width="13.1052" height="11.0804" rx="5.5402" fill="#CBD5E0"/>
<rect x="1356.74" y="762.93" width="13.1052" height="11.0804" rx="5.5402" fill="#CBD5E0"/>
<rect x="1915.89" y="763.299" width="13.1052" height="11.0804" rx="5.5402" fill="#CBD5E0"/>
<rect x="1636.32" y="763.299" width="13.1052" height="11.0804" rx="5.5402" fill="#CBD5E0"/>
<rect x="1566.42" y="762.56" width="13.1052" height="11.0804" rx="5.5402" fill="#CBD5E0"/>
<rect x="1286.84" y="762.56" width="13.1052" height="11.0804" rx="5.5402" fill="#CBD5E0"/>
<rect x="1846" y="762.93" width="13.1052" height="11.0804" rx="5.5402" fill="#CBD5E0"/>
<rect x="1426.63" y="762.56" width="13.1052" height="11.0804" rx="5.5402" fill="#CBD5E0"/>
<rect x="1706.21" y="762.93" width="13.1052" height="11.0804" rx="5.5402" fill="#CBD5E0"/>
<rect x="1531.47" y="763.299" width="13.1052" height="11.0804" rx="5.5402" fill="#CBD5E0"/>
<rect x="1251.89" y="763.299" width="13.1052" height="11.0804" rx="5.5402" fill="#CBD5E0"/>
<rect x="1811.05" y="763.668" width="13.1052" height="11.0804" rx="5.5402" fill="#CBD5E0"/>
<rect x="1391.68" y="763.299" width="13.1052" height="11.0804" rx="5.5402" fill="#CBD5E0"/>
<rect x="1671.26" y="763.668" width="13.1052" height="11.0804" rx="5.5402" fill="#CBD5E0"/>
<rect x="1601.37" y="762.93" width="13.1052" height="11.0804" rx="5.5402" fill="#CBD5E0"/>
<rect x="1321.79" y="762.93" width="13.1052" height="11.0804" rx="5.5402" fill="#CBD5E0"/>
<rect x="1880.95" y="763.299" width="13.1052" height="11.0804" rx="5.5402" fill="#CBD5E0"/>
<rect x="1461.58" y="762.93" width="13.1052" height="11.0804" rx="5.5402" fill="#CBD5E0"/>
<rect x="1182" y="762.93" width="13.1052" height="11.0804" rx="5.5402" fill="#CBD5E0"/>
<rect x="1741.16" y="763.299" width="13.1052" height="11.0804" rx="5.5402" fill="#CBD5E0"/>
<rect x="1479.05" y="644.739" width="13.1052" height="11.0804" rx="5.5402" fill="#CBD5E0"/>
<rect x="1758.63" y="645.108" width="13.1052" height="11.0804" rx="5.5402" fill="#CBD5E0"/>
<rect x="1339.26" y="644.739" width="13.1052" height="11.0804" rx="5.5402" fill="#CBD5E0"/>
<rect x="1618.84" y="645.108" width="13.1052" height="11.0804" rx="5.5402" fill="#CBD5E0"/>
<rect x="1548.95" y="644.369" width="13.1052" height="11.0804" rx="5.5402" fill="#CBD5E0"/>
<rect x="1409.16" y="644.369" width="13.1052" height="11.0804" rx="5.5402" fill="#CBD5E0"/>
<rect x="1688.74" y="644.739" width="13.1052" height="11.0804" rx="5.5402" fill="#CBD5E0"/>
<rect x="1514" y="645.108" width="13.1052" height="11.0804" rx="5.5402" fill="#CBD5E0"/>
<rect x="1793.58" y="645.477" width="13.1052" height="11.0804" rx="5.5402" fill="#CBD5E0"/>
<rect x="1374.21" y="645.108" width="13.1052" height="11.0804" rx="5.5402" fill="#CBD5E0"/>
<rect x="1653.79" y="645.477" width="13.1052" height="11.0804" rx="5.5402" fill="#CBD5E0"/>
<rect x="1583.89" y="644.739" width="13.1052" height="11.0804" rx="5.5402" fill="#CBD5E0"/>
<rect x="1304.32" y="644.739" width="13.1052" height="11.0804" rx="5.5402" fill="#CBD5E0"/>
<rect x="1444.11" y="644.739" width="13.1052" height="11.0804" rx="5.5402" fill="#CBD5E0"/>
<rect x="1723.68" y="645.108" width="13.1052" height="11.0804" rx="5.5402" fill="#CBD5E0"/>
<rect x="1496.53" y="644.739" width="13.1052" height="11.0804" rx="5.5402" fill="#CBD5E0"/>
<rect x="1776.1" y="645.108" width="13.1052" height="11.0804" rx="5.5402" fill="#CBD5E0"/>
<rect x="1356.74" y="644.739" width="13.1052" height="11.0804" rx="5.5402" fill="#CBD5E0"/>
<rect x="1636.32" y="645.108" width="13.1052" height="11.0804" rx="5.5402" fill="#CBD5E0"/>
<rect x="1566.42" y="644.369" width="13.1052" height="11.0804" rx="5.5402" fill="#CBD5E0"/>
<rect x="1426.63" y="644.369" width="13.1052" height="11.0804" rx="5.5402" fill="#CBD5E0"/>
<rect x="1706.21" y="644.739" width="13.1052" height="11.0804" rx="5.5402" fill="#CBD5E0"/>
<rect x="1531.47" y="645.108" width="13.1052" height="11.0804" rx="5.5402" fill="#CBD5E0"/>
<rect x="1811.05" y="645.477" width="13.1052" height="11.0804" rx="5.5402" fill="#CBD5E0"/>
<rect x="1391.68" y="645.108" width="13.1052" height="11.0804" rx="5.5402" fill="#CBD5E0"/>
<rect x="1671.26" y="645.477" width="13.1052" height="11.0804" rx="5.5402" fill="#CBD5E0"/>
<rect x="1601.37" y="644.739" width="13.1052" height="11.0804" rx="5.5402" fill="#CBD5E0"/>
<rect x="1321.79" y="644.739" width="13.1052" height="11.0804" rx="5.5402" fill="#CBD5E0"/>
<rect x="1461.58" y="644.739" width="13.1052" height="11.0804" rx="5.5402" fill="#CBD5E0"/>
<rect x="1741.16" y="645.108" width="13.1052" height="11.0804" rx="5.5402" fill="#CBD5E0"/>
<rect x="1758.63" y="940.585" width="13.1052" height="11.0804" rx="5.5402" fill="#CBD5E0"/>
<rect x="1828.53" y="940.216" width="13.1052" height="11.0804" rx="5.5402" fill="#CBD5E0"/>
<rect x="1688.74" y="940.216" width="13.1052" height="11.0804" rx="5.5402" fill="#CBD5E0"/>
<rect x="1793.58" y="940.955" width="13.1052" height="11.0804" rx="5.5402" fill="#CBD5E0"/>
<rect x="1723.68" y="940.585" width="13.1052" height="11.0804" rx="5.5402" fill="#CBD5E0"/>
<rect x="1776.1" y="940.585" width="13.1052" height="11.0804" rx="5.5402" fill="#CBD5E0"/>
<rect x="1846" y="940.216" width="13.1052" height="11.0804" rx="5.5402" fill="#CBD5E0"/>
<rect x="1706.21" y="940.216" width="13.1052" height="11.0804" rx="5.5402" fill="#CBD5E0"/>
<rect x="1811.05" y="940.955" width="13.1052" height="11.0804" rx="5.5402" fill="#CBD5E0"/>
<rect x="1671.26" y="940.955" width="13.1052" height="11.0804" rx="5.5402" fill="#CBD5E0"/>
<rect x="1741.16" y="940.585" width="13.1052" height="11.0804" rx="5.5402" fill="#CBD5E0"/>
<rect x="1758.63" y="1044" width="13.1052" height="11.0804" rx="5.5402" fill="#CBD5E0"/>
<rect x="1793.58" y="1044.37" width="13.1052" height="11.0804" rx="5.5402" fill="#CBD5E0"/>
<rect x="1776.1" y="1044" width="13.1052" height="11.0804" rx="5.5402" fill="#CBD5E0"/>
<rect x="1811.05" y="1044.37" width="13.1052" height="11.0804" rx="5.5402" fill="#CBD5E0"/>
<rect x="1479.05" y="585.643" width="13.1052" height="11.0804" rx="5.5402" fill="#CBD5E0"/>
<rect x="1758.63" y="586.012" width="13.1052" height="11.0804" rx="5.5402" fill="#CBD5E0"/>
<rect x="1618.84" y="586.012" width="13.1052" height="11.0804" rx="5.5402" fill="#CBD5E0"/>
<rect x="1548.95" y="585.274" width="13.1052" height="11.0804" rx="5.5402" fill="#CBD5E0"/>
<rect x="1409.16" y="585.274" width="13.1052" height="11.0804" rx="5.5402" fill="#CBD5E0"/>
<rect x="1514" y="586.012" width="13.1052" height="11.0804" rx="5.5402" fill="#CBD5E0"/>
<rect x="1374.21" y="586.012" width="13.1052" height="11.0804" rx="5.5402" fill="#CBD5E0"/>
<rect x="1583.89" y="585.643" width="13.1052" height="11.0804" rx="5.5402" fill="#CBD5E0"/>
<rect x="1444.11" y="585.643" width="13.1052" height="11.0804" rx="5.5402" fill="#CBD5E0"/>
<rect x="1723.68" y="586.012" width="13.1052" height="11.0804" rx="5.5402" fill="#CBD5E0"/>
<rect x="1496.53" y="585.643" width="13.1052" height="11.0804" rx="5.5402" fill="#CBD5E0"/>
<rect x="1776.1" y="586.012" width="13.1052" height="11.0804" rx="5.5402" fill="#CBD5E0"/>
<rect x="1566.42" y="585.274" width="13.1052" height="11.0804" rx="5.5402" fill="#CBD5E0"/>
<rect x="1426.63" y="585.274" width="13.1052" height="11.0804" rx="5.5402" fill="#CBD5E0"/>
<rect x="1706.21" y="585.643" width="13.1052" height="11.0804" rx="5.5402" fill="#CBD5E0"/>
<rect x="1531.47" y="586.012" width="13.1052" height="11.0804" rx="5.5402" fill="#CBD5E0"/>
<rect x="1391.68" y="586.012" width="13.1052" height="11.0804" rx="5.5402" fill="#CBD5E0"/>
<rect x="1601.37" y="585.643" width="13.1052" height="11.0804" rx="5.5402" fill="#CBD5E0"/>
<rect x="1461.58" y="585.643" width="13.1052" height="11.0804" rx="5.5402" fill="#CBD5E0"/>
<rect x="1741.16" y="586.012" width="13.1052" height="11.0804" rx="5.5402" fill="#CBD5E0"/>
<rect x="1758.63" y="881.49" width="13.1052" height="11.0804" rx="5.5402" fill="#CBD5E0"/>
<rect x="1339.26" y="881.121" width="13.1052" height="11.0804" rx="5.5402" fill="#CBD5E0"/>
<rect x="1618.84" y="881.49" width="13.1052" height="11.0804" rx="5.5402" fill="#CBD5E0"/>
<rect x="1269.37" y="880.751" width="13.1052" height="11.0804" rx="5.5402" fill="#CBD5E0"/>
<rect x="1828.53" y="881.121" width="13.1052" height="11.0804" rx="5.5402" fill="#CBD5E0"/>
<rect x="1688.74" y="881.121" width="13.1052" height="11.0804" rx="5.5402" fill="#CBD5E0"/>
<rect x="1234.42" y="881.49" width="13.1052" height="11.0804" rx="5.5402" fill="#CBD5E0"/>
<rect x="1793.58" y="881.859" width="13.1052" height="11.0804" rx="5.5402" fill="#CBD5E0"/>
<rect x="1374.21" y="881.49" width="13.1052" height="11.0804" rx="5.5402" fill="#CBD5E0"/>
<rect x="1653.79" y="881.859" width="13.1052" height="11.0804" rx="5.5402" fill="#CBD5E0"/>
<rect x="1583.89" y="881.121" width="13.1052" height="11.0804" rx="5.5402" fill="#CBD5E0"/>
<rect x="1304.32" y="881.121" width="13.1052" height="11.0804" rx="5.5402" fill="#CBD5E0"/>
<rect x="1863.47" y="881.49" width="13.1052" height="11.0804" rx="5.5402" fill="#CBD5E0"/>
<rect x="1723.68" y="881.49" width="13.1052" height="11.0804" rx="5.5402" fill="#CBD5E0"/>
<rect x="1216.95" y="881.121" width="13.1052" height="11.0804" rx="5.5402" fill="#CBD5E0"/>
<rect x="1776.1" y="881.49" width="13.1052" height="11.0804" rx="5.5402" fill="#CBD5E0"/>
<rect x="1356.74" y="881.121" width="13.1052" height="11.0804" rx="5.5402" fill="#CBD5E0"/>
<rect x="1636.32" y="881.49" width="13.1052" height="11.0804" rx="5.5402" fill="#CBD5E0"/>
<rect x="1566.42" y="880.751" width="13.1052" height="11.0804" rx="5.5402" fill="#CBD5E0"/>
<rect x="1286.84" y="880.751" width="13.1052" height="11.0804" rx="5.5402" fill="#CBD5E0"/>
<rect x="1846" y="881.121" width="13.1052" height="11.0804" rx="5.5402" fill="#CBD5E0"/>
<rect x="1706.21" y="881.121" width="13.1052" height="11.0804" rx="5.5402" fill="#CBD5E0"/>
<rect x="1251.89" y="881.49" width="13.1052" height="11.0804" rx="5.5402" fill="#CBD5E0"/>
<rect x="1811.05" y="881.859" width="13.1052" height="11.0804" rx="5.5402" fill="#CBD5E0"/>
<rect x="1671.26" y="881.859" width="13.1052" height="11.0804" rx="5.5402" fill="#CBD5E0"/>
<rect x="1601.37" y="881.121" width="13.1052" height="11.0804" rx="5.5402" fill="#CBD5E0"/>
<rect x="1601.37" y="895.894" width="13.1052" height="11.0804" rx="5.5402" fill="#CBD5E0"/>
<rect x="1321.79" y="881.121" width="13.1052" height="11.0804" rx="5.5402" fill="#CBD5E0"/>
<rect x="1880.95" y="881.49" width="13.1052" height="11.0804" rx="5.5402" fill="#4299E1"/>
<rect x="1741.16" y="881.49" width="13.1052" height="11.0804" rx="5.5402" fill="#CBD5E0"/>
<rect x="1479.05" y="703.834" width="13.1052" height="11.0804" rx="5.5402" fill="#CBD5E0"/>
<rect x="1199.47" y="703.834" width="13.1052" height="11.0804" rx="5.5402" fill="#CBD5E0"/>
<rect x="1758.63" y="704.204" width="13.1052" height="11.0804" rx="5.5402" fill="#CBD5E0"/>
<rect x="1339.26" y="703.834" width="13.1052" height="11.0804" rx="5.5402" fill="#CBD5E0"/>
<rect x="1618.84" y="704.204" width="13.1052" height="11.0804" rx="5.5402" fill="#CBD5E0"/>
<rect x="1548.95" y="703.465" width="13.1052" height="11.0804" rx="5.5402" fill="#CBD5E0"/>
<rect x="1269.37" y="703.465" width="13.1052" height="11.0804" rx="5.5402" fill="#CBD5E0"/>
<rect x="1828.53" y="703.834" width="13.1052" height="11.0804" rx="5.5402" fill="#CBD5E0"/>
<rect x="1409.16" y="703.465" width="13.1052" height="11.0804" rx="5.5402" fill="#CBD5E0"/>
<rect x="1688.74" y="703.834" width="13.1052" height="11.0804" rx="5.5402" fill="#CBD5E0"/>
<rect x="1514" y="704.204" width="13.1052" height="11.0804" rx="5.5402" fill="#CBD5E0"/>
<rect x="1234.42" y="704.204" width="13.1052" height="11.0804" rx="5.5402" fill="#CBD5E0"/>
<rect x="1793.58" y="704.573" width="13.1052" height="11.0804" rx="5.5402" fill="#CBD5E0"/>
<rect x="1374.21" y="704.204" width="13.1052" height="11.0804" rx="5.5402" fill="#CBD5E0"/>
<rect x="1653.79" y="704.573" width="13.1052" height="11.0804" rx="5.5402" fill="#CBD5E0"/>
<rect x="1583.89" y="703.834" width="13.1052" height="11.0804" rx="5.5402" fill="#CBD5E0"/>
<rect x="1304.32" y="703.834" width="13.1052" height="11.0804" rx="5.5402" fill="#CBD5E0"/>
<rect x="1863.47" y="704.204" width="13.1052" height="11.0804" rx="5.5402" fill="#CBD5E0"/>
<rect x="1444.11" y="703.834" width="13.1052" height="11.0804" rx="5.5402" fill="#CBD5E0"/>
<rect x="1723.68" y="704.204" width="13.1052" height="11.0804" rx="5.5402" fill="#CBD5E0"/>
<rect x="1496.53" y="703.834" width="13.1052" height="11.0804" rx="5.5402" fill="#CBD5E0"/>
<rect x="1216.95" y="703.834" width="13.1052" height="11.0804" rx="5.5402" fill="#CBD5E0"/>
<rect x="1776.1" y="704.204" width="13.1052" height="11.0804" rx="5.5402" fill="#CBD5E0"/>
<rect x="1356.74" y="703.834" width="13.1052" height="11.0804" rx="5.5402" fill="#CBD5E0"/>
<rect x="1636.32" y="704.204" width="13.1052" height="11.0804" rx="5.5402" fill="#CBD5E0"/>
<rect x="1566.42" y="703.465" width="13.1052" height="11.0804" rx="5.5402" fill="#CBD5E0"/>
<rect x="1286.84" y="703.465" width="13.1052" height="11.0804" rx="5.5402" fill="#CBD5E0"/>
<rect x="1846" y="703.834" width="13.1052" height="11.0804" rx="5.5402" fill="#CBD5E0"/>
<rect x="1426.63" y="703.465" width="13.1052" height="11.0804" rx="5.5402" fill="#CBD5E0"/>
<rect x="1706.21" y="703.834" width="13.1052" height="11.0804" rx="5.5402" fill="#CBD5E0"/>
<rect x="1531.47" y="704.204" width="13.1052" height="11.0804" rx="5.5402" fill="#CBD5E0"/>
<rect x="1251.89" y="704.204" width="13.1052" height="11.0804" rx="5.5402" fill="#CBD5E0"/>
<rect x="1811.05" y="704.573" width="13.1052" height="11.0804" rx="5.5402" fill="#CBD5E0"/>
<rect x="1391.68" y="704.204" width="13.1052" height="11.0804" rx="5.5402" fill="#CBD5E0"/>
<rect x="1671.26" y="704.573" width="13.1052" height="11.0804" rx="5.5402" fill="#CBD5E0"/>
<rect x="1601.37" y="703.834" width="13.1052" height="11.0804" rx="5.5402" fill="#CBD5E0"/>
<rect x="1321.79" y="703.834" width="13.1052" height="11.0804" rx="5.5402" fill="#CBD5E0"/>
<rect x="1461.58" y="703.834" width="13.1052" height="11.0804" rx="5.5402" fill="#CBD5E0"/>
<rect x="1182" y="703.834" width="13.1052" height="11.0804" rx="5.5402" fill="#CBD5E0"/>
<rect x="1741.16" y="704.204" width="13.1052" height="11.0804" rx="5.5402" fill="#CBD5E0"/>
<rect x="1811.05" y="1000.05" width="13.1052" height="11.0804" rx="5.5402" fill="#CBD5E0"/>
<rect x="1741.16" y="1014.45" width="13.1052" height="11.0804" rx="5.5402" fill="#CBD5E0"/>
<rect x="1479.05" y="556.095" width="13.1052" height="11.0804" rx="5.5402" fill="#CBD5E0"/>
<rect x="1758.63" y="556.465" width="13.1052" height="11.0804" rx="5.5402" fill="#CBD5E0"/>
<rect x="1548.95" y="555.726" width="13.1052" height="11.0804" rx="5.5402" fill="#CBD5E0"/>
<rect x="1409.16" y="555.726" width="13.1052" height="11.0804" rx="5.5402" fill="#CBD5E0"/>
<rect x="1514" y="556.465" width="13.1052" height="11.0804" rx="5.5402" fill="#CBD5E0"/>
<rect x="1583.89" y="556.095" width="13.1052" height="11.0804" rx="5.5402" fill="#CBD5E0"/>
<rect x="1444.11" y="556.095" width="13.1052" height="11.0804" rx="5.5402" fill="#CBD5E0"/>
<rect x="1723.68" y="556.465" width="13.1052" height="11.0804" rx="5.5402" fill="#CBD5E0"/>
<rect x="1496.53" y="556.095" width="13.1052" height="11.0804" rx="5.5402" fill="#CBD5E0"/>
<rect x="1566.42" y="555.726" width="13.1052" height="11.0804" rx="5.5402" fill="#CBD5E0"/>
<rect x="1426.63" y="555.726" width="13.1052" height="11.0804" rx="5.5402" fill="#CBD5E0"/>
<rect x="1706.21" y="556.095" width="13.1052" height="11.0804" rx="5.5402" fill="#CBD5E0"/>
<rect x="1531.47" y="556.465" width="13.1052" height="11.0804" rx="5.5402" fill="#CBD5E0"/>
<rect x="1741.16" y="556.465" width="13.1052" height="11.0804" rx="5.5402" fill="#CBD5E0"/>
<rect x="1758.63" y="851.942" width="13.1052" height="11.0804" rx="5.5402" fill="#CBD5E0"/>
<rect x="1339.26" y="851.573" width="13.1052" height="11.0804" rx="5.5402" fill="#CBD5E0"/>
<rect x="1898.42" y="851.942" width="13.1052" height="11.0804" rx="5.5402" fill="#CBD5E0"/>
<rect x="1618.84" y="851.942" width="13.1052" height="11.0804" rx="5.5402" fill="#CBD5E0"/>
<rect x="1548.95" y="851.204" width="13.1052" height="11.0804" rx="5.5402" fill="#CBD5E0"/>
<rect x="1269.37" y="851.204" width="13.1052" height="11.0804" rx="5.5402" fill="#CBD5E0"/>
<rect x="1828.53" y="851.573" width="13.1052" height="11.0804" rx="5.5402" fill="#CBD5E0"/>
<rect x="1409.16" y="851.204" width="13.1052" height="11.0804" rx="5.5402" fill="#CBD5E0"/>
<rect x="1688.74" y="851.573" width="13.1052" height="11.0804" rx="5.5402" fill="#CBD5E0"/>
<rect x="1514" y="851.942" width="13.1052" height="11.0804" rx="5.5402" fill="#CBD5E0"/>
<rect x="1234.42" y="851.942" width="13.1052" height="11.0804" rx="5.5402" fill="#CBD5E0"/>
<rect x="1216.95" y="851.942" width="13.1052" height="11.0804" rx="5.5402" fill="#4299E1"/>
<rect x="1793.58" y="852.312" width="13.1052" height="11.0804" rx="5.5402" fill="#CBD5E0"/>
<rect x="1374.21" y="851.942" width="13.1052" height="11.0804" rx="5.5402" fill="#CBD5E0"/>
<rect x="1653.79" y="852.312" width="13.1052" height="11.0804" rx="5.5402" fill="#CBD5E0"/>
<rect x="1583.89" y="851.573" width="13.1052" height="11.0804" rx="5.5402" fill="#CBD5E0"/>
<rect x="1304.32" y="851.573" width="13.1052" height="11.0804" rx="5.5402" fill="#CBD5E0"/>
<rect x="1863.47" y="851.942" width="13.1052" height="11.0804" rx="5.5402" fill="#CBD5E0"/>
<rect x="1444.11" y="851.573" width="13.1052" height="11.0804" rx="5.5402" fill="#CBD5E0"/>
<rect x="1723.68" y="851.942" width="13.1052" height="11.0804" rx="5.5402" fill="#CBD5E0"/>
<rect x="1776.1" y="851.942" width="13.1052" height="11.0804" rx="5.5402" fill="#CBD5E0"/>
<rect x="1356.74" y="851.573" width="13.1052" height="11.0804" rx="5.5402" fill="#CBD5E0"/>
<rect x="1636.32" y="851.942" width="13.1052" height="11.0804" rx="5.5402" fill="#CBD5E0"/>
<rect x="1566.42" y="851.204" width="13.1052" height="11.0804" rx="5.5402" fill="#CBD5E0"/>
<rect x="1286.84" y="851.204" width="13.1052" height="11.0804" rx="5.5402" fill="#CBD5E0"/>
<rect x="1846" y="851.573" width="13.1052" height="11.0804" rx="5.5402" fill="#CBD5E0"/>
<rect x="1426.63" y="851.204" width="13.1052" height="11.0804" rx="5.5402" fill="#CBD5E0"/>
<rect x="1706.21" y="851.573" width="13.1052" height="11.0804" rx="5.5402" fill="#CBD5E0"/>
<rect x="1531.47" y="851.942" width="13.1052" height="11.0804" rx="5.5402" fill="#CBD5E0"/>
<rect x="1251.89" y="851.942" width="13.1052" height="11.0804" rx="5.5402" fill="#CBD5E0"/>
<rect x="1811.05" y="852.312" width="13.1052" height="11.0804" rx="5.5402" fill="#CBD5E0"/>
<rect x="1391.68" y="851.942" width="13.1052" height="11.0804" rx="5.5402" fill="#CBD5E0"/>
<rect x="1671.26" y="852.312" width="13.1052" height="11.0804" rx="5.5402" fill="#CBD5E0"/>
<rect x="1601.37" y="851.573" width="13.1052" height="11.0804" rx="5.5402" fill="#CBD5E0"/>
<rect x="1321.79" y="851.573" width="13.1052" height="11.0804" rx="5.5402" fill="#CBD5E0"/>
<rect x="1880.95" y="851.942" width="13.1052" height="11.0804" rx="5.5402" fill="#CBD5E0"/>
<rect x="1461.58" y="851.573" width="13.1052" height="11.0804" rx="5.5402" fill="#CBD5E0"/>
<rect x="1741.16" y="851.942" width="13.1052" height="11.0804" rx="5.5402" fill="#CBD5E0"/>
<rect x="1706.21" y="497" width="13.1052" height="11.0804" rx="5.5402" fill="#CBD5E0"/>
<rect x="1479.05" y="792.477" width="13.1052" height="11.0804" rx="5.5402" fill="#CBD5E0"/>
<rect x="1199.47" y="792.477" width="13.1052" height="11.0804" rx="5.5402" fill="#CBD5E0"/>
<rect x="1758.63" y="792.847" width="13.1052" height="11.0804" rx="5.5402" fill="#CBD5E0"/>
<rect x="1339.26" y="792.477" width="13.1052" height="11.0804" rx="5.5402" fill="#CBD5E0"/>
<rect x="1898.42" y="792.847" width="13.1052" height="11.0804" rx="5.5402" fill="#CBD5E0"/>
<rect x="1618.84" y="792.847" width="13.1052" height="11.0804" rx="5.5402" fill="#CBD5E0"/>
<rect x="1548.95" y="792.108" width="13.1052" height="11.0804" rx="5.5402" fill="#CBD5E0"/>
<rect x="1269.37" y="792.108" width="13.1052" height="11.0804" rx="5.5402" fill="#CBD5E0"/>
<rect x="1828.53" y="792.477" width="13.1052" height="11.0804" rx="5.5402" fill="#CBD5E0"/>
<rect x="1409.16" y="792.108" width="13.1052" height="11.0804" rx="5.5402" fill="#CBD5E0"/>
<rect x="1688.74" y="792.477" width="13.1052" height="11.0804" rx="5.5402" fill="#CBD5E0"/>
<rect x="1514" y="792.847" width="13.1052" height="11.0804" rx="5.5402" fill="#CBD5E0"/>
<rect x="1234.42" y="792.847" width="13.1052" height="11.0804" rx="5.5402" fill="#CBD5E0"/>
<rect x="1793.58" y="793.216" width="13.1052" height="11.0804" rx="5.5402" fill="#CBD5E0"/>
<rect x="1374.21" y="792.847" width="13.1052" height="11.0804" rx="5.5402" fill="#CBD5E0"/>
<rect x="1653.79" y="793.216" width="13.1052" height="11.0804" rx="5.5402" fill="#CBD5E0"/>
<rect x="1583.89" y="792.477" width="13.1052" height="11.0804" rx="5.5402" fill="#CBD5E0"/>
<rect x="1304.32" y="792.477" width="13.1052" height="11.0804" rx="5.5402" fill="#CBD5E0"/>
<rect x="1863.47" y="792.847" width="13.1052" height="11.0804" rx="5.5402" fill="#CBD5E0"/>
<rect x="1444.11" y="792.477" width="13.1052" height="11.0804" rx="5.5402" fill="#CBD5E0"/>
<rect x="1723.68" y="792.847" width="13.1052" height="11.0804" rx="5.5402" fill="#CBD5E0"/>
<rect x="1496.53" y="792.477" width="13.1052" height="11.0804" rx="5.5402" fill="#CBD5E0"/>
<rect x="1216.95" y="792.477" width="13.1052" height="11.0804" rx="5.5402" fill="#CBD5E0"/>
<rect x="1776.1" y="792.847" width="13.1052" height="11.0804" rx="5.5402" fill="#CBD5E0"/>
<rect x="1356.74" y="792.477" width="13.1052" height="11.0804" rx="5.5402" fill="#CBD5E0"/>
<rect x="1915.89" y="792.847" width="13.1052" height="11.0804" rx="5.5402" fill="#CBD5E0"/>
<rect x="1636.32" y="792.847" width="13.1052" height="11.0804" rx="5.5402" fill="#CBD5E0"/>
<rect x="1566.42" y="792.108" width="13.1052" height="11.0804" rx="5.5402" fill="#CBD5E0"/>
<rect x="1286.84" y="792.108" width="13.1052" height="11.0804" rx="5.5402" fill="#CBD5E0"/>
<rect x="1846" y="792.477" width="13.1052" height="11.0804" rx="5.5402" fill="#CBD5E0"/>
<rect x="1426.63" y="792.108" width="13.1052" height="11.0804" rx="5.5402" fill="#CBD5E0"/>
<rect x="1706.21" y="792.477" width="13.1052" height="11.0804" rx="5.5402" fill="#CBD5E0"/>
<rect x="1531.47" y="792.847" width="13.1052" height="11.0804" rx="5.5402" fill="#CBD5E0"/>
<rect x="1251.89" y="792.847" width="13.1052" height="11.0804" rx="5.5402" fill="#CBD5E0"/>
<rect x="1811.05" y="793.216" width="13.1052" height="11.0804" rx="5.5402" fill="#CBD5E0"/>
<rect x="1391.68" y="792.847" width="13.1052" height="11.0804" rx="5.5402" fill="#CBD5E0"/>
<rect x="1671.26" y="793.216" width="13.1052" height="11.0804" rx="5.5402" fill="#CBD5E0"/>
<rect x="1601.37" y="792.477" width="13.1052" height="11.0804" rx="5.5402" fill="#CBD5E0"/>
<rect x="1321.79" y="792.477" width="13.1052" height="11.0804" rx="5.5402" fill="#CBD5E0"/>
<rect x="1880.95" y="792.847" width="13.1052" height="11.0804" rx="5.5402" fill="#CBD5E0"/>
<rect x="1461.58" y="792.477" width="13.1052" height="11.0804" rx="5.5402" fill="#CBD5E0"/>
<rect x="1741.16" y="792.847" width="13.1052" height="11.0804" rx="5.5402" fill="#CBD5E0"/>
<rect x="1479.05" y="674.286" width="13.1052" height="11.0804" rx="5.5402" fill="#CBD5E0"/>
<rect x="1758.63" y="674.656" width="13.1052" height="11.0804" rx="5.5402" fill="#CBD5E0"/>
<rect x="1339.26" y="674.286" width="13.1052" height="11.0804" rx="5.5402" fill="#CBD5E0"/>
<rect x="1618.84" y="674.656" width="13.1052" height="11.0804" rx="5.5402" fill="#CBD5E0"/>
<rect x="1548.95" y="673.917" width="13.1052" height="11.0804" rx="5.5402" fill="#CBD5E0"/>
<rect x="1269.37" y="673.917" width="13.1052" height="11.0804" rx="5.5402" fill="#CBD5E0"/>
<rect x="1828.53" y="674.286" width="13.1052" height="11.0804" rx="5.5402" fill="#CBD5E0"/>
<rect x="1409.16" y="673.917" width="13.1052" height="11.0804" rx="5.5402" fill="#CBD5E0"/>
<rect x="1688.74" y="674.286" width="13.1052" height="11.0804" rx="5.5402" fill="#CBD5E0"/>
<rect x="1514" y="674.656" width="13.1052" height="11.0804" rx="5.5402" fill="#CBD5E0"/>
<rect x="1234.42" y="674.656" width="13.1052" height="11.0804" rx="5.5402" fill="#CBD5E0"/>
<rect x="1793.58" y="675.025" width="13.1052" height="11.0804" rx="5.5402" fill="#CBD5E0"/>
<rect x="1374.21" y="674.656" width="13.1052" height="11.0804" rx="5.5402" fill="#CBD5E0"/>
<rect x="1653.79" y="675.025" width="13.1052" height="11.0804" rx="5.5402" fill="#CBD5E0"/>
<rect x="1583.89" y="674.286" width="13.1052" height="11.0804" rx="5.5402" fill="#CBD5E0"/>
<rect x="1304.32" y="674.286" width="13.1052" height="11.0804" rx="5.5402" fill="#CBD5E0"/>
<rect x="1444.11" y="674.286" width="13.1052" height="11.0804" rx="5.5402" fill="#CBD5E0"/>
<rect x="1723.68" y="674.656" width="13.1052" height="11.0804" rx="5.5402" fill="#CBD5E0"/>
<rect x="1496.53" y="674.286" width="13.1052" height="11.0804" rx="5.5402" fill="#CBD5E0"/>
<rect x="1216.95" y="674.286" width="13.1052" height="11.0804" rx="5.5402" fill="#CBD5E0"/>
<rect x="1776.1" y="674.656" width="13.1052" height="11.0804" rx="5.5402" fill="#CBD5E0"/>
<rect x="1356.74" y="674.286" width="13.1052" height="11.0804" rx="5.5402" fill="#CBD5E0"/>
<rect x="1636.32" y="674.656" width="13.1052" height="11.0804" rx="5.5402" fill="#CBD5E0"/>
<rect x="1566.42" y="673.917" width="13.1052" height="11.0804" rx="5.5402" fill="#CBD5E0"/>
<rect x="1286.84" y="673.917" width="13.1052" height="11.0804" rx="5.5402" fill="#CBD5E0"/>
<rect x="1846" y="674.286" width="13.1052" height="11.0804" rx="5.5402" fill="#CBD5E0"/>
<rect x="1426.63" y="673.917" width="13.1052" height="11.0804" rx="5.5402" fill="#CBD5E0"/>
<rect x="1706.21" y="674.286" width="13.1052" height="11.0804" rx="5.5402" fill="#CBD5E0"/>
<rect x="1531.47" y="674.656" width="13.1052" height="11.0804" rx="5.5402" fill="#CBD5E0"/>
<rect x="1251.89" y="674.656" width="13.1052" height="11.0804" rx="5.5402" fill="#CBD5E0"/>
<rect x="1811.05" y="675.025" width="13.1052" height="11.0804" rx="5.5402" fill="#CBD5E0"/>
<rect x="1391.68" y="674.656" width="13.1052" height="11.0804" rx="5.5402" fill="#CBD5E0"/>
<rect x="1671.26" y="675.025" width="13.1052" height="11.0804" rx="5.5402" fill="#CBD5E0"/>
<rect x="1601.37" y="674.286" width="13.1052" height="11.0804" rx="5.5402" fill="#CBD5E0"/>
<rect x="1321.79" y="674.286" width="13.1052" height="11.0804" rx="5.5402" fill="#CBD5E0"/>
<rect x="1461.58" y="674.286" width="13.1052" height="11.0804" rx="5.5402" fill="#CBD5E0"/>
<rect x="1741.16" y="674.656" width="13.1052" height="11.0804" rx="5.5402" fill="#CBD5E0"/>
<rect x="1688.74" y="969.764" width="13.1052" height="11.0804" rx="5.5402" fill="#CBD5E0"/>
<rect x="1793.58" y="970.502" width="13.1052" height="11.0804" rx="5.5402" fill="#CBD5E0"/>
<rect x="1723.68" y="970.133" width="13.1052" height="11.0804" rx="5.5402" fill="#CBD5E0"/>
<rect x="1776.1" y="970.133" width="13.1052" height="11.0804" rx="5.5402" fill="#CBD5E0"/>
<rect x="1706.21" y="969.764" width="13.1052" height="11.0804" rx="5.5402" fill="#CBD5E0"/>
<rect x="1811.05" y="970.502" width="13.1052" height="11.0804" rx="5.5402" fill="#CBD5E0"/>
<rect x="1741.16" y="970.133" width="13.1052" height="11.0804" rx="5.5402" fill="#CBD5E0"/>
<rect x="1793.58" y="1073.92" width="13.1052" height="11.0804" rx="5.5402" fill="#4299E1"/>
<rect x="1776.1" y="1073.55" width="13.1052" height="11.0804" rx="5.5402" fill="#CBD5E0"/>
<rect x="1479.05" y="615.191" width="13.1052" height="11.0804" rx="5.5402" fill="#CBD5E0"/>
<rect x="1758.63" y="615.56" width="13.1052" height="11.0804" rx="5.5402" fill="#CBD5E0"/>
<rect x="1339.26" y="615.191" width="13.1052" height="11.0804" rx="5.5402" fill="#CBD5E0"/>
<rect x="1618.84" y="615.56" width="13.1052" height="11.0804" rx="5.5402" fill="#CBD5E0"/>
<rect x="1548.95" y="614.822" width="13.1052" height="11.0804" rx="5.5402" fill="#CBD5E0"/>
<rect x="1409.16" y="614.822" width="13.1052" height="11.0804" rx="5.5402" fill="#CBD5E0"/>
<rect x="1688.74" y="615.191" width="13.1052" height="11.0804" rx="5.5402" fill="#CBD5E0"/>
<rect x="1514" y="615.56" width="13.1052" height="11.0804" rx="5.5402" fill="#CBD5E0"/>
<rect x="1374.21" y="615.56" width="13.1052" height="11.0804" rx="5.5402" fill="#CBD5E0"/>
<rect x="1653.79" y="615.93" width="13.1052" height="11.0804" rx="5.5402" fill="#CBD5E0"/>
<rect x="1583.89" y="615.191" width="13.1052" height="11.0804" rx="5.5402" fill="#CBD5E0"/>
<rect x="1444.11" y="615.191" width="13.1052" height="11.0804" rx="5.5402" fill="#CBD5E0"/>
<rect x="1723.68" y="615.56" width="13.1052" height="11.0804" rx="5.5402" fill="#CBD5E0"/>
<rect x="1496.53" y="615.191" width="13.1052" height="11.0804" rx="5.5402" fill="#CBD5E0"/>
<rect x="1776.1" y="615.56" width="13.1052" height="11.0804" rx="5.5402" fill="#CBD5E0"/>
<rect x="1356.74" y="615.191" width="13.1052" height="11.0804" rx="5.5402" fill="#CBD5E0"/>
<rect x="1636.32" y="615.56" width="13.1052" height="11.0804" rx="5.5402" fill="#CBD5E0"/>
<rect x="1566.42" y="614.822" width="13.1052" height="11.0804" rx="5.5402" fill="#CBD5E0"/>
<rect x="1426.63" y="614.822" width="13.1052" height="11.0804" rx="5.5402" fill="#CBD5E0"/>
<rect x="1706.21" y="615.191" width="13.1052" height="11.0804" rx="5.5402" fill="#CBD5E0"/>
<rect x="1531.47" y="615.56" width="13.1052" height="11.0804" rx="5.5402" fill="#CBD5E0"/>
<rect x="1391.68" y="615.56" width="13.1052" height="11.0804" rx="5.5402" fill="#CBD5E0"/>
<rect x="1671.26" y="615.93" width="13.1052" height="11.0804" rx="5.5402" fill="#CBD5E0"/>
<rect x="1601.37" y="615.191" width="13.1052" height="11.0804" rx="5.5402" fill="#CBD5E0"/>
<rect x="1461.58" y="615.191" width="13.1052" height="11.0804" rx="5.5402" fill="#CBD5E0"/>
<rect x="1741.16" y="615.56" width="13.1052" height="11.0804" rx="5.5402" fill="#CBD5E0"/>
<rect x="1758.63" y="911.038" width="13.1052" height="11.0804" rx="5.5402" fill="#CBD5E0"/>
<rect x="1618.84" y="911.038" width="13.1052" height="11.0804" rx="5.5402" fill="#CBD5E0"/>
<rect x="1828.53" y="910.668" width="13.1052" height="11.0804" rx="5.5402" fill="#CBD5E0"/>
<rect x="1688.74" y="910.668" width="13.1052" height="11.0804" rx="5.5402" fill="#CBD5E0"/>
<rect x="1234.42" y="911.038" width="13.1052" height="11.0804" rx="5.5402" fill="#CBD5E0"/>
<rect x="1793.58" y="911.407" width="13.1052" height="11.0804" rx="5.5402" fill="#CBD5E0"/>
<rect x="1653.79" y="911.407" width="13.1052" height="11.0804" rx="5.5402" fill="#4299E1"/>
<rect x="1863.47" y="911.038" width="13.1052" height="11.0804" rx="5.5402" fill="#CBD5E0"/>
<rect x="1723.68" y="911.038" width="13.1052" height="11.0804" rx="5.5402" fill="#CBD5E0"/>
<rect x="1776.1" y="911.038" width="13.1052" height="11.0804" rx="5.5402" fill="#CBD5E0"/>
<rect x="1846" y="910.668" width="13.1052" height="11.0804" rx="5.5402" fill="#4299E1"/>
<rect x="1706.21" y="910.668" width="13.1052" height="11.0804" rx="5.5402" fill="#CBD5E0"/>
<rect x="1251.89" y="911.038" width="13.1052" height="11.0804" rx="5.5402" fill="#CBD5E0"/>
<rect x="1811.05" y="911.407" width="13.1052" height="11.0804" rx="5.5402" fill="#CBD5E0"/>
<rect x="1671.26" y="911.407" width="13.1052" height="11.0804" rx="5.5402" fill="#CBD5E0"/>
<rect x="1741.16" y="911.038" width="13.1052" height="11.0804" rx="5.5402" fill="#CBD5E0"/>
<rect x="1479.05" y="733.382" width="13.1052" height="11.0804" rx="5.5402" fill="#CBD5E0"/>
<rect x="1199.47" y="733.382" width="13.1052" height="11.0804" rx="5.5402" fill="#CBD5E0"/>
<rect x="1758.63" y="733.751" width="13.1052" height="11.0804" rx="5.5402" fill="#CBD5E0"/>
<rect x="1339.26" y="733.382" width="13.1052" height="11.0804" rx="5.5402" fill="#CBD5E0"/>
<rect x="1898.42" y="733.751" width="13.1052" height="11.0804" rx="5.5402" fill="#CBD5E0"/>
<rect x="1618.84" y="733.751" width="13.1052" height="11.0804" rx="5.5402" fill="#CBD5E0"/>
<rect x="1548.95" y="733.013" width="13.1052" height="11.0804" rx="5.5402" fill="#CBD5E0"/>
<rect x="1269.37" y="733.013" width="13.1052" height="11.0804" rx="5.5402" fill="#CBD5E0"/>
<rect x="1828.53" y="733.382" width="13.1052" height="11.0804" rx="5.5402" fill="#CBD5E0"/>
<rect x="1409.16" y="733.013" width="13.1052" height="11.0804" rx="5.5402" fill="#CBD5E0"/>
<rect x="1688.74" y="733.382" width="13.1052" height="11.0804" rx="5.5402" fill="#CBD5E0"/>
<rect x="1514" y="733.751" width="13.1052" height="11.0804" rx="5.5402" fill="#CBD5E0"/>
<rect x="1234.42" y="733.751" width="13.1052" height="11.0804" rx="5.5402" fill="#CBD5E0"/>
<rect x="1793.58" y="734.121" width="13.1052" height="11.0804" rx="5.5402" fill="#CBD5E0"/>
<rect x="1374.21" y="733.751" width="13.1052" height="11.0804" rx="5.5402" fill="#CBD5E0"/>
<rect x="1653.79" y="734.121" width="13.1052" height="11.0804" rx="5.5402" fill="#CBD5E0"/>
<rect x="1583.89" y="733.382" width="13.1052" height="11.0804" rx="5.5402" fill="#CBD5E0"/>
<rect x="1304.32" y="733.382" width="13.1052" height="11.0804" rx="5.5402" fill="#CBD5E0"/>
<rect x="1863.47" y="733.751" width="13.1052" height="11.0804" rx="5.5402" fill="#CBD5E0"/>
<rect x="1444.11" y="733.382" width="13.1052" height="11.0804" rx="5.5402" fill="#CBD5E0"/>
<rect x="1723.68" y="733.751" width="13.1052" height="11.0804" rx="5.5402" fill="#CBD5E0"/>
<rect x="1496.53" y="733.382" width="13.1052" height="11.0804" rx="5.5402" fill="#CBD5E0"/>
<rect x="1216.95" y="733.382" width="13.1052" height="11.0804" rx="5.5402" fill="#CBD5E0"/>
<rect x="1776.1" y="733.751" width="13.1052" height="11.0804" rx="5.5402" fill="#CBD5E0"/>
<rect x="1356.74" y="733.382" width="13.1052" height="11.0804" rx="5.5402" fill="#CBD5E0"/>
<rect x="1915.89" y="733.751" width="13.1052" height="11.0804" rx="5.5402" fill="#CBD5E0"/>
<rect x="1636.32" y="733.751" width="13.1052" height="11.0804" rx="5.5402" fill="#CBD5E0"/>
<rect x="1566.42" y="733.013" width="13.1052" height="11.0804" rx="5.5402" fill="#CBD5E0"/>
<rect x="1286.84" y="733.013" width="13.1052" height="11.0804" rx="5.5402" fill="#CBD5E0"/>
<rect x="1846" y="733.382" width="13.1052" height="11.0804" rx="5.5402" fill="#CBD5E0"/>
<rect x="1426.63" y="733.013" width="13.1052" height="11.0804" rx="5.5402" fill="#CBD5E0"/>
<rect x="1706.21" y="733.382" width="13.1052" height="11.0804" rx="5.5402" fill="#CBD5E0"/>
<rect x="1531.47" y="733.751" width="13.1052" height="11.0804" rx="5.5402" fill="#CBD5E0"/>
<rect x="1251.89" y="733.751" width="13.1052" height="11.0804" rx="5.5402" fill="#CBD5E0"/>
<rect x="1811.05" y="734.121" width="13.1052" height="11.0804" rx="5.5402" fill="#CBD5E0"/>
<rect x="1391.68" y="733.751" width="13.1052" height="11.0804" rx="5.5402" fill="#CBD5E0"/>
<rect x="1671.26" y="734.121" width="13.1052" height="11.0804" rx="5.5402" fill="#CBD5E0"/>
<rect x="1601.37" y="733.382" width="13.1052" height="11.0804" rx="5.5402" fill="#CBD5E0"/>
<rect x="1321.79" y="733.382" width="13.1052" height="11.0804" rx="5.5402" fill="#CBD5E0"/>
<rect x="1880.95" y="733.751" width="13.1052" height="11.0804" rx="5.5402" fill="#CBD5E0"/>
<rect x="1461.58" y="733.382" width="13.1052" height="11.0804" rx="5.5402" fill="#CBD5E0"/>
<rect x="1741.16" y="733.751" width="13.1052" height="11.0804" rx="5.5402" fill="#CBD5E0"/>
<rect x="1758.63" y="1029.23" width="13.1052" height="11.0804" rx="5.5402" fill="#CBD5E0"/>
<rect x="1811.05" y="1029.6" width="13.1052" height="11.0804" rx="5.5402" fill="#CBD5E0"/>
<rect x="515.999" y="568" width="591" height="100" rx="30" fill="#EDF2F7"/>
<rect x="515.999" y="715" width="1057" height="256" rx="10" fill="#E2E8F0"/>
<rect x="1032" y="1018" width="150" height="40" rx="20" fill="#EDF2F7"/>
<defs>
<filter id="filter0_d" x="96.999" y="110" width="2020" height="1180" filterUnits="userSpaceOnUse" color-interpolation-filters="sRGB">
<feFlood flood-opacity="0" result="BackgroundImageFix"/>
<feColorMatrix in="SourceAlpha" type="matrix" values="0 0 0 0 0 0 0 0 0 0 0 0 0 0 0 0 0 0 127 0"/>
<feOffset dy="25"/>
<feGaussianBlur stdDeviation="25"/>
<feColorMatrix type="matrix" values="0 0 0 0 0 0 0 0 0 0 0 0 0 0 0 0 0 0 0.25 0"/>
<feBlend mode="normal" in2="BackgroundImageFix" result="effect1_dropShadow"/>
<feBlend mode="normal" in="SourceGraphic" in2="effect1_dropShadow" result="shape"/>
</filter>
</defs>
</svg>
