<svg width="2215" height="1388" viewBox="0 0 2215 1388" fill="none" xmlns="http://www.w3.org/2000/svg">
<rect width="509" height="567" fill="#2D3748"/>
<circle cx="1747.09" cy="1370.08" r="15" transform="rotate(-89.6476 1747.09 1370.08)" fill="#A0AEC0"/>
<circle cx="1947.09" cy="1371.31" r="15" transform="rotate(-89.6476 1947.09 1371.31)" fill="#A0AEC0"/>
<circle cx="1847.09" cy="1370.7" r="15" transform="rotate(-89.6476 1847.09 1370.7)" fill="#A0AEC0"/>
<circle cx="2047.09" cy="1371.93" r="15" transform="rotate(-89.6476 2047.09 1371.93)" fill="#A0AEC0"/>
<circle cx="2147.08" cy="1372.54" r="15" transform="rotate(-89.6476 2147.08 1372.54)" fill="#A0AEC0"/>
<circle cx="1797.09" cy="1370.39" r="15" transform="rotate(-89.6476 1797.09 1370.39)" fill="#A0AEC0"/>
<circle cx="1997.09" cy="1371.62" r="15" transform="rotate(-89.6476 1997.09 1371.62)" fill="#A0AEC0"/>
<circle cx="1897.09" cy="1371.01" r="15" transform="rotate(-89.6476 1897.09 1371.01)" fill="#A0AEC0"/>
<circle cx="2097.08" cy="1372.24" r="15" transform="rotate(-89.6476 2097.08 1372.24)" fill="#A0AEC0"/>
<circle cx="2197.08" cy="1372.85" r="15" transform="rotate(-89.6476 2197.08 1372.85)" fill="#A0AEC0"/>
<circle cx="1948.01" cy="1221.32" r="15" transform="rotate(-89.6476 1948.01 1221.32)" fill="#A0AEC0"/>
<circle cx="2048.01" cy="1221.93" r="15" transform="rotate(-89.6476 2048.01 1221.93)" fill="#A0AEC0"/>
<circle cx="2148.01" cy="1222.55" r="15" transform="rotate(-89.6476 2148.01 1222.55)" fill="#A0AEC0"/>
<circle cx="1998.01" cy="1221.62" r="15" transform="rotate(-89.6476 1998.01 1221.62)" fill="#A0AEC0"/>
<circle cx="1898.01" cy="1221.01" r="15" transform="rotate(-89.6476 1898.01 1221.01)" fill="#A0AEC0"/>
<circle cx="2098.01" cy="1222.24" r="15" transform="rotate(-89.6476 2098.01 1222.24)" fill="#A0AEC0"/>
<circle cx="2198.01" cy="1222.85" r="15" transform="rotate(-89.6476 2198.01 1222.85)" fill="#A0AEC0"/>
<circle cx="2149.24" cy="1022.55" r="15" transform="rotate(-89.6476 2149.24 1022.55)" fill="#A0AEC0"/>
<circle cx="2099.24" cy="1022.24" r="15" transform="rotate(-89.6476 2099.24 1022.24)" fill="#A0AEC0"/>
<circle cx="2199.24" cy="1022.86" r="15" transform="rotate(-89.6476 2199.24 1022.86)" fill="#A0AEC0"/>
<circle cx="1947.7" cy="1271.32" r="15" transform="rotate(-89.6476 1947.7 1271.32)" fill="#A0AEC0"/>
<circle cx="1847.7" cy="1270.7" r="15" transform="rotate(-89.6476 1847.7 1270.7)" fill="#A0AEC0"/>
<circle cx="2047.7" cy="1271.93" r="15" transform="rotate(-89.6476 2047.7 1271.93)" fill="#A0AEC0"/>
<circle cx="2147.7" cy="1272.55" r="15" transform="rotate(-89.6476 2147.7 1272.55)" fill="#A0AEC0"/>
<circle cx="1997.7" cy="1271.62" r="15" transform="rotate(-89.6476 1997.7 1271.62)" fill="#A0AEC0"/>
<circle cx="1897.7" cy="1271.01" r="15" transform="rotate(-89.6476 1897.7 1271.01)" fill="#A0AEC0"/>
<circle cx="2097.7" cy="1272.24" r="15" transform="rotate(-89.6476 2097.7 1272.24)" fill="#A0AEC0"/>
<circle cx="2197.7" cy="1272.85" r="15" transform="rotate(-89.6476 2197.7 1272.85)" fill="#A0AEC0"/>
<circle cx="2048.93" cy="1071.93" r="15" transform="rotate(-89.6476 2048.93 1071.93)" fill="#A0AEC0"/>
<circle cx="2148.93" cy="1072.55" r="15" transform="rotate(-89.6476 2148.93 1072.55)" fill="#A0AEC0"/>
<circle cx="2098.93" cy="1072.24" r="15" transform="rotate(-89.6476 2098.93 1072.24)" fill="#A0AEC0"/>
<circle cx="2198.93" cy="1072.86" r="15" transform="rotate(-89.6476 2198.93 1072.86)" fill="#A0AEC0"/>
<circle cx="2048.62" cy="1121.93" r="15" transform="rotate(-89.6476 2048.62 1121.93)" fill="#A0AEC0"/>
<circle cx="2148.62" cy="1122.55" r="15" transform="rotate(-89.6476 2148.62 1122.55)" fill="#A0AEC0"/>
<circle cx="1998.62" cy="1121.63" r="15" transform="rotate(-89.6476 1998.62 1121.63)" fill="#A0AEC0"/>
<circle cx="2098.62" cy="1122.24" r="15" transform="rotate(-89.6476 2098.62 1122.24)" fill="#A0AEC0"/>
<circle cx="2198.62" cy="1122.86" r="15" transform="rotate(-89.6476 2198.62 1122.86)" fill="#A0AEC0"/>
<circle cx="2199.85" cy="922.86" r="15" transform="rotate(-89.6476 2199.85 922.86)" fill="#A0AEC0"/>
<circle cx="1947.39" cy="1321.31" r="15" transform="rotate(-89.6476 1947.39 1321.31)" fill="#A0AEC0"/>
<circle cx="1847.4" cy="1320.7" r="15" transform="rotate(-89.6476 1847.4 1320.7)" fill="#A0AEC0"/>
<circle cx="2047.39" cy="1321.93" r="15" transform="rotate(-89.6476 2047.39 1321.93)" fill="#A0AEC0"/>
<circle cx="2147.39" cy="1322.54" r="15" transform="rotate(-89.6476 2147.39 1322.54)" fill="#A0AEC0"/>
<circle cx="1797.4" cy="1320.39" r="15" transform="rotate(-89.6476 1797.4 1320.39)" fill="#A0AEC0"/>
<circle cx="1997.39" cy="1321.62" r="15" transform="rotate(-89.6476 1997.39 1321.62)" fill="#A0AEC0"/>
<circle cx="1897.4" cy="1321.01" r="15" transform="rotate(-89.6476 1897.4 1321.01)" fill="#A0AEC0"/>
<circle cx="2097.39" cy="1322.24" r="15" transform="rotate(-89.6476 2097.39 1322.24)" fill="#A0AEC0"/>
<circle cx="2197.39" cy="1322.85" r="15" transform="rotate(-89.6476 2197.39 1322.85)" fill="#A0AEC0"/>
<circle cx="1948.32" cy="1171.32" r="15" transform="rotate(-89.6476 1948.32 1171.32)" fill="#A0AEC0"/>
<circle cx="2048.32" cy="1171.93" r="15" transform="rotate(-89.6476 2048.32 1171.93)" fill="#A0AEC0"/>
<circle cx="2148.31" cy="1172.55" r="15" transform="rotate(-89.6476 2148.31 1172.55)" fill="#A0AEC0"/>
<circle cx="1998.32" cy="1171.62" r="15" transform="rotate(-89.6476 1998.32 1171.62)" fill="#A0AEC0"/>
<circle cx="2098.31" cy="1172.24" r="15" transform="rotate(-89.6476 2098.31 1172.24)" fill="#A0AEC0"/>
<circle cx="2198.31" cy="1172.86" r="15" transform="rotate(-89.6476 2198.31 1172.86)" fill="#A0AEC0"/>
<circle cx="2149.54" cy="972.551" r="15" transform="rotate(-89.6476 2149.54 972.551)" fill="#A0AEC0"/>
<circle cx="2199.54" cy="972.859" r="15" transform="rotate(-89.6476 2199.54 972.859)" fill="#A0AEC0"/>
<circle cx="475" cy="30" r="15" transform="rotate(90 475 30)" fill="#CBD5E0"/>
<circle cx="275" cy="30" r="15" transform="rotate(90 275 30)" fill="#CBD5E0"/>
<circle cx="375" cy="30" r="15" transform="rotate(90 375 30)" fill="#CBD5E0"/>
<circle cx="175" cy="30" r="15" transform="rotate(90 175 30)" fill="#CBD5E0"/>
<circle cx="75" cy="30" r="15" transform="rotate(90 75 30)" fill="#CBD5E0"/>
<circle cx="425" cy="30" r="15" transform="rotate(90 425 30)" fill="#CBD5E0"/>
<circle cx="225" cy="30" r="15" transform="rotate(90 225 30)" fill="#CBD5E0"/>
<circle cx="325" cy="30" r="15" transform="rotate(90 325 30)" fill="#CBD5E0"/>
<circle cx="125" cy="30" r="15" transform="rotate(90 125 30)" fill="#CBD5E0"/>
<circle cx="25" cy="30" r="15" transform="rotate(90 25 30)" fill="#CBD5E0"/>
<circle cx="275" cy="180" r="15" transform="rotate(90 275 180)" fill="#CBD5E0"/>
<circle cx="175" cy="180" r="15" transform="rotate(90 175 180)" fill="#CBD5E0"/>
<circle cx="75" cy="180" r="15" transform="rotate(90 75 180)" fill="#CBD5E0"/>
<circle cx="225" cy="180" r="15" transform="rotate(90 225 180)" fill="#CBD5E0"/>
<circle cx="325" cy="180" r="15" transform="rotate(90 325 180)" fill="#CBD5E0"/>
<circle cx="125" cy="180" r="15" transform="rotate(90 125 180)" fill="#CBD5E0"/>
<circle cx="25" cy="180" r="15" transform="rotate(90 25 180)" fill="#CBD5E0"/>
<circle cx="75" cy="380" r="15" transform="rotate(90 75 380)" fill="#CBD5E0"/>
<circle cx="125" cy="380" r="15" transform="rotate(90 125 380)" fill="#CBD5E0"/>
<circle cx="25" cy="380" r="15" transform="rotate(90 25 380)" fill="#CBD5E0"/>
<circle cx="275" cy="130" r="15" transform="rotate(90 275 130)" fill="#CBD5E0"/>
<circle cx="375" cy="130" r="15" transform="rotate(90 375 130)" fill="#CBD5E0"/>
<circle cx="175" cy="130" r="15" transform="rotate(90 175 130)" fill="#CBD5E0"/>
<circle cx="75" cy="130" r="15" transform="rotate(90 75 130)" fill="#CBD5E0"/>
<circle cx="225" cy="130" r="15" transform="rotate(90 225 130)" fill="#CBD5E0"/>
<circle cx="325" cy="130" r="15" transform="rotate(90 325 130)" fill="#CBD5E0"/>
<circle cx="125" cy="130" r="15" transform="rotate(90 125 130)" fill="#CBD5E0"/>
<circle cx="25" cy="130" r="15" transform="rotate(90 25 130)" fill="#CBD5E0"/>
<circle cx="175" cy="330" r="15" transform="rotate(90 175 330)" fill="#CBD5E0"/>
<circle cx="75" cy="330" r="15" transform="rotate(90 75 330)" fill="#CBD5E0"/>
<circle cx="125" cy="330" r="15" transform="rotate(90 125 330)" fill="#CBD5E0"/>
<circle cx="25" cy="330" r="15" transform="rotate(90 25 330)" fill="#CBD5E0"/>
<circle cx="175" cy="280" r="15" transform="rotate(90 175 280)" fill="#CBD5E0"/>
<circle cx="75" cy="280" r="15" transform="rotate(90 75 280)" fill="#CBD5E0"/>
<circle cx="225" cy="280" r="15" transform="rotate(90 225 280)" fill="#CBD5E0"/>
<circle cx="125" cy="280" r="15" transform="rotate(90 125 280)" fill="#CBD5E0"/>
<circle cx="25" cy="280" r="15" transform="rotate(90 25 280)" fill="#CBD5E0"/>
<circle cx="25" cy="480" r="15" transform="rotate(90 25 480)" fill="#CBD5E0"/>
<circle cx="275" cy="80" r="15" transform="rotate(90 275 80)" fill="#CBD5E0"/>
<circle cx="375" cy="80" r="15" transform="rotate(90 375 80)" fill="#CBD5E0"/>
<circle cx="175" cy="80" r="15" transform="rotate(90 175 80)" fill="#CBD5E0"/>
<circle cx="75" cy="80" r="15" transform="rotate(90 75 80)" fill="#CBD5E0"/>
<circle cx="425" cy="80" r="15" transform="rotate(90 425 80)" fill="#CBD5E0"/>
<circle cx="225" cy="80" r="15" transform="rotate(90 225 80)" fill="#CBD5E0"/>
<circle cx="325" cy="80" r="15" transform="rotate(90 325 80)" fill="#CBD5E0"/>
<circle cx="125" cy="80" r="15" transform="rotate(90 125 80)" fill="#CBD5E0"/>
<circle cx="25" cy="80" r="15" transform="rotate(90 25 80)" fill="#CBD5E0"/>
<circle cx="275" cy="230" r="15" transform="rotate(90 275 230)" fill="#CBD5E0"/>
<circle cx="175" cy="230" r="15" transform="rotate(90 175 230)" fill="#CBD5E0"/>
<circle cx="75" cy="230" r="15" transform="rotate(90 75 230)" fill="#CBD5E0"/>
<circle cx="225" cy="230" r="15" transform="rotate(90 225 230)" fill="#CBD5E0"/>
<circle cx="125" cy="230" r="15" transform="rotate(90 125 230)" fill="#CBD5E0"/>
<circle cx="25" cy="230" r="15" transform="rotate(90 25 230)" fill="#CBD5E0"/>
<circle cx="75" cy="430" r="15" transform="rotate(90 75 430)" fill="#CBD5E0"/>
<circle cx="25" cy="430" r="15" transform="rotate(90 25 430)" fill="#CBD5E0"/>
<circle cx="25" cy="532" r="15" transform="rotate(-90 25 532)" fill="#CBD5E0"/>
<circle cx="225" cy="532" r="15" transform="rotate(-90 225 532)" fill="#CBD5E0"/>
<circle cx="125" cy="532" r="15" transform="rotate(-90 125 532)" fill="#CBD5E0"/>
<circle cx="325" cy="532" r="15" transform="rotate(-90 325 532)" fill="#CBD5E0"/>
<circle cx="425" cy="532" r="15" transform="rotate(-90 425 532)" fill="#CBD5E0"/>
<circle cx="75" cy="532" r="15" transform="rotate(-90 75 532)" fill="#CBD5E0"/>
<circle cx="275" cy="532" r="15" transform="rotate(-90 275 532)" fill="#CBD5E0"/>
<circle cx="175" cy="532" r="15" transform="rotate(-90 175 532)" fill="#CBD5E0"/>
<circle cx="375" cy="532" r="15" transform="rotate(-90 375 532)" fill="#CBD5E0"/>
<circle cx="475" cy="532" r="15" transform="rotate(-90 475 532)" fill="#CBD5E0"/>
<circle cx="225" cy="382" r="15" transform="rotate(-90 225 382)" fill="#CBD5E0"/>
<circle cx="325" cy="382" r="15" transform="rotate(-90 325 382)" fill="#CBD5E0"/>
<circle cx="425" cy="382" r="15" transform="rotate(-90 425 382)" fill="#CBD5E0"/>
<circle cx="275" cy="382" r="15" transform="rotate(-90 275 382)" fill="#CBD5E0"/>
<circle cx="175" cy="382" r="15" transform="rotate(-90 175 382)" fill="#CBD5E0"/>
<circle cx="375" cy="382" r="15" transform="rotate(-90 375 382)" fill="#CBD5E0"/>
<circle cx="475" cy="382" r="15" transform="rotate(-90 475 382)" fill="#CBD5E0"/>
<circle cx="425" cy="182" r="15" transform="rotate(-90 425 182)" fill="#CBD5E0"/>
<circle cx="375" cy="182" r="15" transform="rotate(-90 375 182)" fill="#CBD5E0"/>
<circle cx="475" cy="182" r="15" transform="rotate(-90 475 182)" fill="#CBD5E0"/>
<circle cx="225" cy="432" r="15" transform="rotate(-90 225 432)" fill="#CBD5E0"/>
<circle cx="125" cy="432" r="15" transform="rotate(-90 125 432)" fill="#CBD5E0"/>
<circle cx="325" cy="432" r="15" transform="rotate(-90 325 432)" fill="#CBD5E0"/>
<circle cx="425" cy="432" r="15" transform="rotate(-90 425 432)" fill="#CBD5E0"/>
<circle cx="275" cy="432" r="15" transform="rotate(-90 275 432)" fill="#CBD5E0"/>
<circle cx="175" cy="432" r="15" transform="rotate(-90 175 432)" fill="#CBD5E0"/>
<circle cx="375" cy="432" r="15" transform="rotate(-90 375 432)" fill="#CBD5E0"/>
<circle cx="475" cy="432" r="15" transform="rotate(-90 475 432)" fill="#CBD5E0"/>
<circle cx="325" cy="232" r="15" transform="rotate(-90 325 232)" fill="#CBD5E0"/>
<circle cx="425" cy="232" r="15" transform="rotate(-90 425 232)" fill="#CBD5E0"/>
<circle cx="375" cy="232" r="15" transform="rotate(-90 375 232)" fill="#CBD5E0"/>
<circle cx="475" cy="232" r="15" transform="rotate(-90 475 232)" fill="#CBD5E0"/>
<circle cx="325" cy="282" r="15" transform="rotate(-90 325 282)" fill="#CBD5E0"/>
<circle cx="425" cy="282" r="15" transform="rotate(-90 425 282)" fill="#CBD5E0"/>
<circle cx="275" cy="282" r="15" transform="rotate(-90 275 282)" fill="#CBD5E0"/>
<circle cx="375" cy="282" r="15" transform="rotate(-90 375 282)" fill="#CBD5E0"/>
<circle cx="475" cy="282" r="15" transform="rotate(-90 475 282)" fill="#CBD5E0"/>
<circle cx="475" cy="82.0001" r="15" transform="rotate(-90 475 82.0001)" fill="#CBD5E0"/>
<circle cx="225" cy="482" r="15" transform="rotate(-90 225 482)" fill="#CBD5E0"/>
<circle cx="125" cy="482" r="15" transform="rotate(-90 125 482)" fill="#CBD5E0"/>
<circle cx="325" cy="482" r="15" transform="rotate(-90 325 482)" fill="#CBD5E0"/>
<circle cx="425" cy="482" r="15" transform="rotate(-90 425 482)" fill="#CBD5E0"/>
<circle cx="75" cy="482" r="15" transform="rotate(-90 75 482)" fill="#CBD5E0"/>
<circle cx="275" cy="482" r="15" transform="rotate(-90 275 482)" fill="#CBD5E0"/>
<circle cx="175" cy="482" r="15" transform="rotate(-90 175 482)" fill="#CBD5E0"/>
<circle cx="375" cy="482" r="15" transform="rotate(-90 375 482)" fill="#CBD5E0"/>
<circle cx="475" cy="482" r="15" transform="rotate(-90 475 482)" fill="#CBD5E0"/>
<circle cx="225" cy="332" r="15" transform="rotate(-90 225 332)" fill="#CBD5E0"/>
<circle cx="325" cy="332" r="15" transform="rotate(-90 325 332)" fill="#CBD5E0"/>
<circle cx="425" cy="332" r="15" transform="rotate(-90 425 332)" fill="#CBD5E0"/>
<circle cx="275" cy="332" r="15" transform="rotate(-90 275 332)" fill="#CBD5E0"/>
<circle cx="375" cy="332" r="15" transform="rotate(-90 375 332)" fill="#CBD5E0"/>
<circle cx="475" cy="332" r="15" transform="rotate(-90 475 332)" fill="#CBD5E0"/>
<circle cx="425" cy="132" r="15" transform="rotate(-90 425 132)" fill="#CBD5E0"/>
<circle cx="475" cy="132" r="15" transform="rotate(-90 475 132)" fill="#CBD5E0"/>
<g filter="url(#filter0_d)">
<rect x="156.999" y="150" width="1920" height="1080" rx="20" fill="#4A5568"/>
</g>
<rect x="261.999" y="195" width="400" height="97" rx="48.5" fill="white"/>
<rect x="1850.5" y="214.5" width="153" height="75" rx="7.5" stroke="#CBD5E0" stroke-width="5"/>
<rect x="1026.5" y="1006.5" width="181" height="96" rx="7.5" stroke="#CBD5E0" stroke-width="5"/>
<rect x="1877" y="237" width="100" height="30" rx="15" fill="#CBD5E0"/>
<rect x="1711" y="235" width="100" height="30" rx="15" fill="#CBD5E0"/>
<rect x="1583" y="235" width="100" height="30" rx="15" fill="#CBD5E0"/>
<rect x="1455" y="235" width="100" height="30" rx="15" fill="#CBD5E0"/>
<rect x="1489.05" y="526.774" width="13.1052" height="11.0804" rx="5.5402" fill="#CBD5E0"/>
<rect x="1558.95" y="526.405" width="13.1052" height="11.0804" rx="5.5402" fill="#CBD5E0"/>
<rect x="1733.68" y="527.143" width="13.1052" height="11.0804" rx="5.5402" fill="#CBD5E0"/>
<rect x="1506.53" y="526.774" width="13.1052" height="11.0804" rx="5.5402" fill="#CBD5E0"/>
<rect x="1716.21" y="526.774" width="13.1052" height="11.0804" rx="5.5402" fill="#CBD5E0"/>
<rect x="1541.47" y="527.143" width="13.1052" height="11.0804" rx="5.5402" fill="#CBD5E0"/>
<rect x="1489.05" y="822.251" width="13.1052" height="11.0804" rx="5.5402" fill="#CBD5E0"/>
<rect x="1768.63" y="822.621" width="13.1052" height="11.0804" rx="5.5402" fill="#CBD5E0"/>
<rect x="1349.26" y="822.251" width="13.1052" height="11.0804" rx="5.5402" fill="#CBD5E0"/>
<rect x="1908.42" y="822.621" width="13.1052" height="11.0804" rx="5.5402" fill="#CBD5E0"/>
<rect x="1628.84" y="822.621" width="13.1052" height="11.0804" rx="5.5402" fill="#CBD5E0"/>
<rect x="1558.95" y="821.882" width="13.1052" height="11.0804" rx="5.5402" fill="#CBD5E0"/>
<rect x="1279.37" y="821.882" width="13.1052" height="11.0804" rx="5.5402" fill="#CBD5E0"/>
<rect x="1838.53" y="822.251" width="13.1052" height="11.0804" rx="5.5402" fill="#CBD5E0"/>
<rect x="1419.16" y="821.882" width="13.1052" height="11.0804" rx="5.5402" fill="#CBD5E0"/>
<rect x="1698.74" y="822.251" width="13.1052" height="11.0804" rx="5.5402" fill="#CBD5E0"/>
<rect x="1524" y="822.621" width="13.1052" height="11.0804" rx="5.5402" fill="#CBD5E0"/>
<rect x="1244.42" y="822.621" width="13.1052" height="11.0804" rx="5.5402" fill="#CBD5E0"/>
<rect x="1803.58" y="822.99" width="13.1052" height="11.0804" rx="5.5402" fill="#CBD5E0"/>
<rect x="1384.21" y="822.621" width="13.1052" height="11.0804" rx="5.5402" fill="#CBD5E0"/>
<rect x="1663.79" y="822.99" width="13.1052" height="11.0804" rx="5.5402" fill="#CBD5E0"/>
<rect x="1593.89" y="822.251" width="13.1052" height="11.0804" rx="5.5402" fill="#CBD5E0"/>
<rect x="1314.32" y="822.251" width="13.1052" height="11.0804" rx="5.5402" fill="#CBD5E0"/>
<rect x="1873.47" y="822.621" width="13.1052" height="11.0804" rx="5.5402" fill="#CBD5E0"/>
<rect x="1454.11" y="822.251" width="13.1052" height="11.0804" rx="5.5402" fill="#CBD5E0"/>
<rect x="1733.68" y="822.621" width="13.1052" height="11.0804" rx="5.5402" fill="#CBD5E0"/>
<rect x="1506.53" y="822.251" width="13.1052" height="11.0804" rx="5.5402" fill="#CBD5E0"/>
<rect x="1226.95" y="822.251" width="13.1052" height="11.0804" rx="5.5402" fill="#CBD5E0"/>
<rect x="1786.1" y="822.621" width="13.1052" height="11.0804" rx="5.5402" fill="#CBD5E0"/>
<rect x="1366.74" y="822.251" width="13.1052" height="11.0804" rx="5.5402" fill="#CBD5E0"/>
<rect x="1925.89" y="822.621" width="13.1052" height="11.0804" rx="5.5402" fill="#CBD5E0"/>
<rect x="1646.32" y="822.621" width="13.1052" height="11.0804" rx="5.5402" fill="#CBD5E0"/>
<rect x="1576.42" y="821.882" width="13.1052" height="11.0804" rx="5.5402" fill="#CBD5E0"/>
<rect x="1296.84" y="821.882" width="13.1052" height="11.0804" rx="5.5402" fill="#CBD5E0"/>
<rect x="1856" y="822.251" width="13.1052" height="11.0804" rx="5.5402" fill="#CBD5E0"/>
<rect x="1436.63" y="821.882" width="13.1052" height="11.0804" rx="5.5402" fill="#CBD5E0"/>
<rect x="1716.21" y="822.251" width="13.1052" height="11.0804" rx="5.5402" fill="#CBD5E0"/>
<rect x="1541.47" y="822.621" width="13.1052" height="11.0804" rx="5.5402" fill="#CBD5E0"/>
<rect x="1261.89" y="822.621" width="13.1052" height="11.0804" rx="5.5402" fill="#CBD5E0"/>
<rect x="1821.05" y="822.99" width="13.1052" height="11.0804" rx="5.5402" fill="#CBD5E0"/>
<rect x="1401.68" y="822.621" width="13.1052" height="11.0804" rx="5.5402" fill="#CBD5E0"/>
<rect x="1681.26" y="822.99" width="13.1052" height="11.0804" rx="5.5402" fill="#CBD5E0"/>
<rect x="1611.37" y="822.251" width="13.1052" height="11.0804" rx="5.5402" fill="#CBD5E0"/>
<rect x="1331.79" y="822.251" width="13.1052" height="11.0804" rx="5.5402" fill="#CBD5E0"/>
<rect x="1890.95" y="822.621" width="13.1052" height="11.0804" rx="5.5402" fill="#CBD5E0"/>
<rect x="1471.58" y="822.251" width="13.1052" height="11.0804" rx="5.5402" fill="#CBD5E0"/>
<rect x="1751.16" y="822.621" width="13.1052" height="11.0804" rx="5.5402" fill="#CBD5E0"/>
<rect x="1489.05" y="763.156" width="13.1052" height="11.0804" rx="5.5402" fill="#CBD5E0"/>
<rect x="1209.47" y="763.156" width="13.1052" height="11.0804" rx="5.5402" fill="#CBD5E0"/>
<rect x="1192" y="763.525" width="13.1052" height="11.0804" rx="5.5402" fill="#CBD5E0"/>
<rect x="1768.63" y="763.525" width="13.1052" height="11.0804" rx="5.5402" fill="#CBD5E0"/>
<rect x="1349.26" y="763.156" width="13.1052" height="11.0804" rx="5.5402" fill="#CBD5E0"/>
<rect x="1908.42" y="763.525" width="13.1052" height="11.0804" rx="5.5402" fill="#CBD5E0"/>
<rect x="1628.84" y="763.525" width="13.1052" height="11.0804" rx="5.5402" fill="#CBD5E0"/>
<rect x="1558.95" y="762.786" width="13.1052" height="11.0804" rx="5.5402" fill="#CBD5E0"/>
<rect x="1279.37" y="762.786" width="13.1052" height="11.0804" rx="5.5402" fill="#CBD5E0"/>
<rect x="1838.53" y="763.156" width="13.1052" height="11.0804" rx="5.5402" fill="#CBD5E0"/>
<rect x="1419.16" y="762.786" width="13.1052" height="11.0804" rx="5.5402" fill="#CBD5E0"/>
<rect x="1698.74" y="763.156" width="13.1052" height="11.0804" rx="5.5402" fill="#CBD5E0"/>
<rect x="1524" y="763.525" width="13.1052" height="11.0804" rx="5.5402" fill="#CBD5E0"/>
<rect x="1244.42" y="763.525" width="13.1052" height="11.0804" rx="5.5402" fill="#CBD5E0"/>
<rect x="1803.58" y="763.894" width="13.1052" height="11.0804" rx="5.5402" fill="#CBD5E0"/>
<rect x="1384.21" y="763.525" width="13.1052" height="11.0804" rx="5.5402" fill="#CBD5E0"/>
<rect x="1663.79" y="763.894" width="13.1052" height="11.0804" rx="5.5402" fill="#CBD5E0"/>
<rect x="1593.89" y="763.156" width="13.1052" height="11.0804" rx="5.5402" fill="#CBD5E0"/>
<rect x="1314.32" y="763.156" width="13.1052" height="11.0804" rx="5.5402" fill="#CBD5E0"/>
<rect x="1873.47" y="763.525" width="13.1052" height="11.0804" rx="5.5402" fill="#CBD5E0"/>
<rect x="1454.11" y="763.156" width="13.1052" height="11.0804" rx="5.5402" fill="#CBD5E0"/>
<rect x="1733.68" y="763.525" width="13.1052" height="11.0804" rx="5.5402" fill="#CBD5E0"/>
<rect x="1506.53" y="763.156" width="13.1052" height="11.0804" rx="5.5402" fill="#CBD5E0"/>
<rect x="1226.95" y="763.156" width="13.1052" height="11.0804" rx="5.5402" fill="#CBD5E0"/>
<rect x="1786.1" y="763.525" width="13.1052" height="11.0804" rx="5.5402" fill="#CBD5E0"/>
<rect x="1366.74" y="763.156" width="13.1052" height="11.0804" rx="5.5402" fill="#CBD5E0"/>
<rect x="1646.32" y="763.525" width="13.1052" height="11.0804" rx="5.5402" fill="#CBD5E0"/>
<rect x="1576.42" y="762.786" width="13.1052" height="11.0804" rx="5.5402" fill="#CBD5E0"/>
<rect x="1296.84" y="762.786" width="13.1052" height="11.0804" rx="5.5402" fill="#CBD5E0"/>
<rect x="1856" y="763.156" width="13.1052" height="11.0804" rx="5.5402" fill="#CBD5E0"/>
<rect x="1436.63" y="762.786" width="13.1052" height="11.0804" rx="5.5402" fill="#CBD5E0"/>
<rect x="1716.21" y="763.156" width="13.1052" height="11.0804" rx="5.5402" fill="#CBD5E0"/>
<rect x="1541.47" y="763.525" width="13.1052" height="11.0804" rx="5.5402" fill="#CBD5E0"/>
<rect x="1261.89" y="763.525" width="13.1052" height="11.0804" rx="5.5402" fill="#CBD5E0"/>
<rect x="1821.05" y="763.894" width="13.1052" height="11.0804" rx="5.5402" fill="#CBD5E0"/>
<rect x="1401.68" y="763.525" width="13.1052" height="11.0804" rx="5.5402" fill="#CBD5E0"/>
<rect x="1681.26" y="763.894" width="13.1052" height="11.0804" rx="5.5402" fill="#CBD5E0"/>
<rect x="1611.37" y="763.156" width="13.1052" height="11.0804" rx="5.5402" fill="#CBD5E0"/>
<rect x="1331.79" y="763.156" width="13.1052" height="11.0804" rx="5.5402" fill="#CBD5E0"/>
<rect x="1890.95" y="763.525" width="13.1052" height="11.0804" rx="5.5402" fill="#CBD5E0"/>
<rect x="1471.58" y="763.156" width="13.1052" height="11.0804" rx="5.5402" fill="#CBD5E0"/>
<rect x="1751.16" y="763.525" width="13.1052" height="11.0804" rx="5.5402" fill="#CBD5E0"/>
<rect x="1489.05" y="644.965" width="13.1052" height="11.0804" rx="5.5402" fill="#CBD5E0"/>
<rect x="1768.63" y="645.334" width="13.1052" height="11.0804" rx="5.5402" fill="#CBD5E0"/>
<rect x="1349.26" y="644.965" width="13.1052" height="11.0804" rx="5.5402" fill="#CBD5E0"/>
<rect x="1628.84" y="645.334" width="13.1052" height="11.0804" rx="5.5402" fill="#CBD5E0"/>
<rect x="1558.95" y="644.595" width="13.1052" height="11.0804" rx="5.5402" fill="#CBD5E0"/>
<rect x="1419.16" y="644.595" width="13.1052" height="11.0804" rx="5.5402" fill="#CBD5E0"/>
<rect x="1698.74" y="644.965" width="13.1052" height="11.0804" rx="5.5402" fill="#CBD5E0"/>
<rect x="1524" y="645.334" width="13.1052" height="11.0804" rx="5.5402" fill="#CBD5E0"/>
<rect x="1803.58" y="645.704" width="13.1052" height="11.0804" rx="5.5402" fill="#CBD5E0"/>
<rect x="1384.21" y="645.334" width="13.1052" height="11.0804" rx="5.5402" fill="#CBD5E0"/>
<rect x="1663.79" y="645.704" width="13.1052" height="11.0804" rx="5.5402" fill="#CBD5E0"/>
<rect x="1593.89" y="644.965" width="13.1052" height="11.0804" rx="5.5402" fill="#CBD5E0"/>
<rect x="1454.11" y="644.965" width="13.1052" height="11.0804" rx="5.5402" fill="#CBD5E0"/>
<rect x="1733.68" y="645.334" width="13.1052" height="11.0804" rx="5.5402" fill="#CBD5E0"/>
<rect x="1506.53" y="644.965" width="13.1052" height="11.0804" rx="5.5402" fill="#CBD5E0"/>
<rect x="1786.1" y="645.334" width="13.1052" height="11.0804" rx="5.5402" fill="#CBD5E0"/>
<rect x="1366.74" y="644.965" width="13.1052" height="11.0804" rx="5.5402" fill="#CBD5E0"/>
<rect x="1646.32" y="645.334" width="13.1052" height="11.0804" rx="5.5402" fill="#CBD5E0"/>
<rect x="1576.42" y="644.595" width="13.1052" height="11.0804" rx="5.5402" fill="#CBD5E0"/>
<rect x="1436.63" y="644.595" width="13.1052" height="11.0804" rx="5.5402" fill="#CBD5E0"/>
<rect x="1716.21" y="644.965" width="13.1052" height="11.0804" rx="5.5402" fill="#CBD5E0"/>
<rect x="1541.47" y="645.334" width="13.1052" height="11.0804" rx="5.5402" fill="#CBD5E0"/>
<rect x="1401.68" y="645.334" width="13.1052" height="11.0804" rx="5.5402" fill="#CBD5E0"/>
<rect x="1681.26" y="645.704" width="13.1052" height="11.0804" rx="5.5402" fill="#CBD5E0"/>
<rect x="1611.37" y="644.965" width="13.1052" height="11.0804" rx="5.5402" fill="#CBD5E0"/>
<rect x="1471.58" y="644.965" width="13.1052" height="11.0804" rx="5.5402" fill="#CBD5E0"/>
<rect x="1751.16" y="645.334" width="13.1052" height="11.0804" rx="5.5402" fill="#CBD5E0"/>
<rect x="1768.63" y="940.812" width="13.1052" height="11.0804" rx="5.5402" fill="#CBD5E0"/>
<rect x="1628.84" y="940.812" width="13.1052" height="11.0804" rx="5.5402" fill="#CBD5E0"/>
<rect x="1838.53" y="940.442" width="13.1052" height="11.0804" rx="5.5402" fill="#CBD5E0"/>
<rect x="1698.74" y="940.442" width="13.1052" height="11.0804" rx="5.5402" fill="#CBD5E0"/>
<rect x="1803.58" y="941.181" width="13.1052" height="11.0804" rx="5.5402" fill="#CBD5E0"/>
<rect x="1663.79" y="941.181" width="13.1052" height="11.0804" rx="5.5402" fill="#CBD5E0"/>
<rect x="1873.47" y="940.812" width="13.1052" height="11.0804" rx="5.5402" fill="#CBD5E0"/>
<rect x="1733.68" y="940.812" width="13.1052" height="11.0804" rx="5.5402" fill="#CBD5E0"/>
<rect x="1786.1" y="940.812" width="13.1052" height="11.0804" rx="5.5402" fill="#CBD5E0"/>
<rect x="1856" y="940.442" width="13.1052" height="11.0804" rx="5.5402" fill="#CBD5E0"/>
<rect x="1716.21" y="940.442" width="13.1052" height="11.0804" rx="5.5402" fill="#CBD5E0"/>
<rect x="1821.05" y="941.181" width="13.1052" height="11.0804" rx="5.5402" fill="#CBD5E0"/>
<rect x="1681.26" y="941.181" width="13.1052" height="11.0804" rx="5.5402" fill="#CBD5E0"/>
<rect x="1751.16" y="940.812" width="13.1052" height="11.0804" rx="5.5402" fill="#CBD5E0"/>
<rect x="1489.05" y="585.869" width="13.1052" height="11.0804" rx="5.5402" fill="#CBD5E0"/>
<rect x="1768.63" y="586.239" width="13.1052" height="11.0804" rx="5.5402" fill="#CBD5E0"/>
<rect x="1558.95" y="585.5" width="13.1052" height="11.0804" rx="5.5402" fill="#CBD5E0"/>
<rect x="1419.16" y="585.5" width="13.1052" height="11.0804" rx="5.5402" fill="#CBD5E0"/>
<rect x="1524" y="586.239" width="13.1052" height="11.0804" rx="5.5402" fill="#CBD5E0"/>
<rect x="1593.89" y="585.869" width="13.1052" height="11.0804" rx="5.5402" fill="#CBD5E0"/>
<rect x="1454.11" y="585.869" width="13.1052" height="11.0804" rx="5.5402" fill="#CBD5E0"/>
<rect x="1733.68" y="586.239" width="13.1052" height="11.0804" rx="5.5402" fill="#CBD5E0"/>
<rect x="1506.53" y="585.869" width="13.1052" height="11.0804" rx="5.5402" fill="#CBD5E0"/>
<rect x="1576.42" y="585.5" width="13.1052" height="11.0804" rx="5.5402" fill="#CBD5E0"/>
<rect x="1436.63" y="585.5" width="13.1052" height="11.0804" rx="5.5402" fill="#CBD5E0"/>
<rect x="1716.21" y="585.869" width="13.1052" height="11.0804" rx="5.5402" fill="#CBD5E0"/>
<rect x="1541.47" y="586.239" width="13.1052" height="11.0804" rx="5.5402" fill="#CBD5E0"/>
<rect x="1401.68" y="586.239" width="13.1052" height="11.0804" rx="5.5402" fill="#CBD5E0"/>
<rect x="1611.37" y="585.869" width="13.1052" height="11.0804" rx="5.5402" fill="#CBD5E0"/>
<rect x="1471.58" y="585.869" width="13.1052" height="11.0804" rx="5.5402" fill="#CBD5E0"/>
<rect x="1751.16" y="586.239" width="13.1052" height="11.0804" rx="5.5402" fill="#CBD5E0"/>
<rect x="1768.63" y="881.716" width="13.1052" height="11.0804" rx="5.5402" fill="#CBD5E0"/>
<rect x="1349.26" y="881.347" width="13.1052" height="11.0804" rx="5.5402" fill="#CBD5E0"/>
<rect x="1908.42" y="881.716" width="13.1052" height="11.0804" rx="5.5402" fill="#CBD5E0"/>
<rect x="1628.84" y="881.716" width="13.1052" height="11.0804" rx="5.5402" fill="#CBD5E0"/>
<rect x="1279.37" y="880.977" width="13.1052" height="11.0804" rx="5.5402" fill="#CBD5E0"/>
<rect x="1838.53" y="881.347" width="13.1052" height="11.0804" rx="5.5402" fill="#CBD5E0"/>
<rect x="1698.74" y="881.347" width="13.1052" height="11.0804" rx="5.5402" fill="#CBD5E0"/>
<rect x="1244.42" y="881.716" width="13.1052" height="11.0804" rx="5.5402" fill="#CBD5E0"/>
<rect x="1803.58" y="882.085" width="13.1052" height="11.0804" rx="5.5402" fill="#CBD5E0"/>
<rect x="1384.21" y="881.716" width="13.1052" height="11.0804" rx="5.5402" fill="#CBD5E0"/>
<rect x="1663.79" y="882.085" width="13.1052" height="11.0804" rx="5.5402" fill="#CBD5E0"/>
<rect x="1593.89" y="881.347" width="13.1052" height="11.0804" rx="5.5402" fill="#CBD5E0"/>
<rect x="1314.32" y="881.347" width="13.1052" height="11.0804" rx="5.5402" fill="#CBD5E0"/>
<rect x="1873.47" y="881.716" width="13.1052" height="11.0804" rx="5.5402" fill="#CBD5E0"/>
<rect x="1733.68" y="881.716" width="13.1052" height="11.0804" rx="5.5402" fill="#CBD5E0"/>
<rect x="1786.1" y="881.716" width="13.1052" height="11.0804" rx="5.5402" fill="#CBD5E0"/>
<rect x="1366.74" y="881.347" width="13.1052" height="11.0804" rx="5.5402" fill="#CBD5E0"/>
<rect x="1646.32" y="881.716" width="13.1052" height="11.0804" rx="5.5402" fill="#CBD5E0"/>
<rect x="1576.42" y="880.977" width="13.1052" height="11.0804" rx="5.5402" fill="#CBD5E0"/>
<rect x="1296.84" y="880.977" width="13.1052" height="11.0804" rx="5.5402" fill="#CBD5E0"/>
<rect x="1856" y="881.347" width="13.1052" height="11.0804" rx="5.5402" fill="#CBD5E0"/>
<rect x="1716.21" y="881.347" width="13.1052" height="11.0804" rx="5.5402" fill="#CBD5E0"/>
<rect x="1261.89" y="881.716" width="13.1052" height="11.0804" rx="5.5402" fill="#CBD5E0"/>
<rect x="1821.05" y="882.085" width="13.1052" height="11.0804" rx="5.5402" fill="#CBD5E0"/>
<rect x="1401.68" y="881.716" width="13.1052" height="11.0804" rx="5.5402" fill="#CBD5E0"/>
<rect x="1681.26" y="882.085" width="13.1052" height="11.0804" rx="5.5402" fill="#CBD5E0"/>
<rect x="1611.37" y="881.347" width="13.1052" height="11.0804" rx="5.5402" fill="#CBD5E0"/>
<rect x="1331.79" y="881.347" width="13.1052" height="11.0804" rx="5.5402" fill="#CBD5E0"/>
<rect x="1890.95" y="881.716" width="13.1052" height="11.0804" rx="5.5402" fill="#CBD5E0"/>
<rect x="1751.16" y="881.716" width="13.1052" height="11.0804" rx="5.5402" fill="#CBD5E0"/>
<rect x="1489.05" y="704.06" width="13.1052" height="11.0804" rx="5.5402" fill="#CBD5E0"/>
<rect x="1209.47" y="704.06" width="13.1052" height="11.0804" rx="5.5402" fill="#CBD5E0"/>
<rect x="1209.47" y="689.286" width="13.1052" height="11.0804" rx="5.5402" fill="#CBD5E0"/>
<rect x="1768.63" y="704.43" width="13.1052" height="11.0804" rx="5.5402" fill="#CBD5E0"/>
<rect x="1349.26" y="704.06" width="13.1052" height="11.0804" rx="5.5402" fill="#CBD5E0"/>
<rect x="1628.84" y="704.43" width="13.1052" height="11.0804" rx="5.5402" fill="#CBD5E0"/>
<rect x="1558.95" y="703.691" width="13.1052" height="11.0804" rx="5.5402" fill="#CBD5E0"/>
<rect x="1279.37" y="703.691" width="13.1052" height="11.0804" rx="5.5402" fill="#CBD5E0"/>
<rect x="1838.53" y="704.06" width="13.1052" height="11.0804" rx="5.5402" fill="#CBD5E0"/>
<rect x="1419.16" y="703.691" width="13.1052" height="11.0804" rx="5.5402" fill="#CBD5E0"/>
<rect x="1698.74" y="704.06" width="13.1052" height="11.0804" rx="5.5402" fill="#CBD5E0"/>
<rect x="1524" y="704.43" width="13.1052" height="11.0804" rx="5.5402" fill="#CBD5E0"/>
<rect x="1244.42" y="704.43" width="13.1052" height="11.0804" rx="5.5402" fill="#CBD5E0"/>
<rect x="1803.58" y="704.799" width="13.1052" height="11.0804" rx="5.5402" fill="#CBD5E0"/>
<rect x="1384.21" y="704.43" width="13.1052" height="11.0804" rx="5.5402" fill="#CBD5E0"/>
<rect x="1663.79" y="704.799" width="13.1052" height="11.0804" rx="5.5402" fill="#CBD5E0"/>
<rect x="1593.89" y="704.06" width="13.1052" height="11.0804" rx="5.5402" fill="#CBD5E0"/>
<rect x="1314.32" y="704.06" width="13.1052" height="11.0804" rx="5.5402" fill="#CBD5E0"/>
<rect x="1873.47" y="704.43" width="13.1052" height="11.0804" rx="5.5402" fill="#CBD5E0"/>
<rect x="1454.11" y="704.06" width="13.1052" height="11.0804" rx="5.5402" fill="#CBD5E0"/>
<rect x="1733.68" y="704.43" width="13.1052" height="11.0804" rx="5.5402" fill="#CBD5E0"/>
<rect x="1506.53" y="704.06" width="13.1052" height="11.0804" rx="5.5402" fill="#CBD5E0"/>
<rect x="1226.95" y="704.06" width="13.1052" height="11.0804" rx="5.5402" fill="#CBD5E0"/>
<rect x="1786.1" y="704.43" width="13.1052" height="11.0804" rx="5.5402" fill="#CBD5E0"/>
<rect x="1366.74" y="704.06" width="13.1052" height="11.0804" rx="5.5402" fill="#CBD5E0"/>
<rect x="1646.32" y="704.43" width="13.1052" height="11.0804" rx="5.5402" fill="#CBD5E0"/>
<rect x="1576.42" y="703.691" width="13.1052" height="11.0804" rx="5.5402" fill="#CBD5E0"/>
<rect x="1296.84" y="703.691" width="13.1052" height="11.0804" rx="5.5402" fill="#CBD5E0"/>
<rect x="1856" y="704.06" width="13.1052" height="11.0804" rx="5.5402" fill="#CBD5E0"/>
<rect x="1436.63" y="703.691" width="13.1052" height="11.0804" rx="5.5402" fill="#CBD5E0"/>
<rect x="1716.21" y="704.06" width="13.1052" height="11.0804" rx="5.5402" fill="#CBD5E0"/>
<rect x="1541.47" y="704.43" width="13.1052" height="11.0804" rx="5.5402" fill="#CBD5E0"/>
<rect x="1261.89" y="704.43" width="13.1052" height="11.0804" rx="5.5402" fill="#CBD5E0"/>
<rect x="1821.05" y="704.799" width="13.1052" height="11.0804" rx="5.5402" fill="#CBD5E0"/>
<rect x="1401.68" y="704.43" width="13.1052" height="11.0804" rx="5.5402" fill="#CBD5E0"/>
<rect x="1681.26" y="704.799" width="13.1052" height="11.0804" rx="5.5402" fill="#CBD5E0"/>
<rect x="1611.37" y="704.06" width="13.1052" height="11.0804" rx="5.5402" fill="#CBD5E0"/>
<rect x="1331.79" y="704.06" width="13.1052" height="11.0804" rx="5.5402" fill="#CBD5E0"/>
<rect x="1471.58" y="704.06" width="13.1052" height="11.0804" rx="5.5402" fill="#CBD5E0"/>
<rect x="1192" y="704.06" width="13.1052" height="11.0804" rx="5.5402" fill="#CBD5E0"/>
<rect x="1751.16" y="704.43" width="13.1052" height="11.0804" rx="5.5402" fill="#CBD5E0"/>
<rect x="1733.68" y="999.907" width="13.1052" height="11.0804" rx="5.5402" fill="#CBD5E0"/>
<rect x="1786.1" y="999.907" width="13.1052" height="11.0804" rx="5.5402" fill="#CBD5E0"/>
<rect x="1751.16" y="999.907" width="13.1052" height="11.0804" rx="5.5402" fill="#CBD5E0"/>
<rect x="1489.05" y="556.322" width="13.1052" height="11.0804" rx="5.5402" fill="#CBD5E0"/>
<rect x="1558.95" y="555.952" width="13.1052" height="11.0804" rx="5.5402" fill="#CBD5E0"/>
<rect x="1524" y="556.691" width="13.1052" height="11.0804" rx="5.5402" fill="#CBD5E0"/>
<rect x="1593.89" y="556.322" width="13.1052" height="11.0804" rx="5.5402" fill="#CBD5E0"/>
<rect x="1733.68" y="556.691" width="13.1052" height="11.0804" rx="5.5402" fill="#CBD5E0"/>
<rect x="1506.53" y="556.322" width="13.1052" height="11.0804" rx="5.5402" fill="#CBD5E0"/>
<rect x="1576.42" y="555.952" width="13.1052" height="11.0804" rx="5.5402" fill="#CBD5E0"/>
<rect x="1716.21" y="556.322" width="13.1052" height="11.0804" rx="5.5402" fill="#CBD5E0"/>
<rect x="1541.47" y="556.691" width="13.1052" height="11.0804" rx="5.5402" fill="#CBD5E0"/>
<rect x="1611.37" y="556.322" width="13.1052" height="11.0804" rx="5.5402" fill="#CBD5E0"/>
<rect x="1489.05" y="851.799" width="13.1052" height="11.0804" rx="5.5402" fill="#CBD5E0"/>
<rect x="1768.63" y="852.168" width="13.1052" height="11.0804" rx="5.5402" fill="#CBD5E0"/>
<rect x="1349.26" y="851.799" width="13.1052" height="11.0804" rx="5.5402" fill="#CBD5E0"/>
<rect x="1908.42" y="852.168" width="13.1052" height="11.0804" rx="5.5402" fill="#CBD5E0"/>
<rect x="1628.84" y="852.168" width="13.1052" height="11.0804" rx="5.5402" fill="#CBD5E0"/>
<rect x="1558.95" y="851.43" width="13.1052" height="11.0804" rx="5.5402" fill="#CBD5E0"/>
<rect x="1279.37" y="851.43" width="13.1052" height="11.0804" rx="5.5402" fill="#CBD5E0"/>
<rect x="1838.53" y="851.799" width="13.1052" height="11.0804" rx="5.5402" fill="#CBD5E0"/>
<rect x="1419.16" y="851.43" width="13.1052" height="11.0804" rx="5.5402" fill="#CBD5E0"/>
<rect x="1698.74" y="851.799" width="13.1052" height="11.0804" rx="5.5402" fill="#CBD5E0"/>
<rect x="1524" y="852.168" width="13.1052" height="11.0804" rx="5.5402" fill="#CBD5E0"/>
<rect x="1244.42" y="852.168" width="13.1052" height="11.0804" rx="5.5402" fill="#CBD5E0"/>
<rect x="1803.58" y="852.538" width="13.1052" height="11.0804" rx="5.5402" fill="#CBD5E0"/>
<rect x="1384.21" y="852.168" width="13.1052" height="11.0804" rx="5.5402" fill="#CBD5E0"/>
<rect x="1663.79" y="852.538" width="13.1052" height="11.0804" rx="5.5402" fill="#CBD5E0"/>
<rect x="1593.89" y="851.799" width="13.1052" height="11.0804" rx="5.5402" fill="#CBD5E0"/>
<rect x="1314.32" y="851.799" width="13.1052" height="11.0804" rx="5.5402" fill="#CBD5E0"/>
<rect x="1873.47" y="852.168" width="13.1052" height="11.0804" rx="5.5402" fill="#CBD5E0"/>
<rect x="1454.11" y="851.799" width="13.1052" height="11.0804" rx="5.5402" fill="#CBD5E0"/>
<rect x="1733.68" y="852.168" width="13.1052" height="11.0804" rx="5.5402" fill="#CBD5E0"/>
<rect x="1506.53" y="851.799" width="13.1052" height="11.0804" rx="5.5402" fill="#CBD5E0"/>
<rect x="1226.95" y="851.799" width="13.1052" height="11.0804" rx="5.5402" fill="#CBD5E0"/>
<rect x="1786.1" y="852.168" width="13.1052" height="11.0804" rx="5.5402" fill="#CBD5E0"/>
<rect x="1366.74" y="851.799" width="13.1052" height="11.0804" rx="5.5402" fill="#CBD5E0"/>
<rect x="1646.32" y="852.168" width="13.1052" height="11.0804" rx="5.5402" fill="#CBD5E0"/>
<rect x="1576.42" y="851.43" width="13.1052" height="11.0804" rx="5.5402" fill="#CBD5E0"/>
<rect x="1296.84" y="851.43" width="13.1052" height="11.0804" rx="5.5402" fill="#CBD5E0"/>
<rect x="1856" y="851.799" width="13.1052" height="11.0804" rx="5.5402" fill="#CBD5E0"/>
<rect x="1436.63" y="851.43" width="13.1052" height="11.0804" rx="5.5402" fill="#CBD5E0"/>
<rect x="1716.21" y="851.799" width="13.1052" height="11.0804" rx="5.5402" fill="#CBD5E0"/>
<rect x="1541.47" y="852.168" width="13.1052" height="11.0804" rx="5.5402" fill="#CBD5E0"/>
<rect x="1261.89" y="852.168" width="13.1052" height="11.0804" rx="5.5402" fill="#CBD5E0"/>
<rect x="1821.05" y="852.538" width="13.1052" height="11.0804" rx="5.5402" fill="#CBD5E0"/>
<rect x="1401.68" y="852.168" width="13.1052" height="11.0804" rx="5.5402" fill="#CBD5E0"/>
<rect x="1681.26" y="852.538" width="13.1052" height="11.0804" rx="5.5402" fill="#CBD5E0"/>
<rect x="1611.37" y="851.799" width="13.1052" height="11.0804" rx="5.5402" fill="#CBD5E0"/>
<rect x="1331.79" y="851.799" width="13.1052" height="11.0804" rx="5.5402" fill="#CBD5E0"/>
<rect x="1890.95" y="852.168" width="13.1052" height="11.0804" rx="5.5402" fill="#CBD5E0"/>
<rect x="1471.58" y="851.799" width="13.1052" height="11.0804" rx="5.5402" fill="#CBD5E0"/>
<rect x="1751.16" y="852.168" width="13.1052" height="11.0804" rx="5.5402" fill="#CBD5E0"/>
<rect x="1489.05" y="792.704" width="13.1052" height="11.0804" rx="5.5402" fill="#CBD5E0"/>
<rect x="1209.47" y="792.704" width="13.1052" height="11.0804" rx="5.5402" fill="#CBD5E0"/>
<rect x="1768.63" y="793.073" width="13.1052" height="11.0804" rx="5.5402" fill="#CBD5E0"/>
<rect x="1349.26" y="792.704" width="13.1052" height="11.0804" rx="5.5402" fill="#CBD5E0"/>
<rect x="1908.42" y="793.073" width="13.1052" height="11.0804" rx="5.5402" fill="#CBD5E0"/>
<rect x="1628.84" y="793.073" width="13.1052" height="11.0804" rx="5.5402" fill="#CBD5E0"/>
<rect x="1558.95" y="792.334" width="13.1052" height="11.0804" rx="5.5402" fill="#CBD5E0"/>
<rect x="1279.37" y="792.334" width="13.1052" height="11.0804" rx="5.5402" fill="#CBD5E0"/>
<rect x="1838.53" y="792.704" width="13.1052" height="11.0804" rx="5.5402" fill="#CBD5E0"/>
<rect x="1419.16" y="792.334" width="13.1052" height="11.0804" rx="5.5402" fill="#CBD5E0"/>
<rect x="1698.74" y="792.704" width="13.1052" height="11.0804" rx="5.5402" fill="#CBD5E0"/>
<rect x="1524" y="793.073" width="13.1052" height="11.0804" rx="5.5402" fill="#CBD5E0"/>
<rect x="1244.42" y="793.073" width="13.1052" height="11.0804" rx="5.5402" fill="#CBD5E0"/>
<rect x="1803.58" y="793.442" width="13.1052" height="11.0804" rx="5.5402" fill="#CBD5E0"/>
<rect x="1384.21" y="793.073" width="13.1052" height="11.0804" rx="5.5402" fill="#CBD5E0"/>
<rect x="1663.79" y="793.442" width="13.1052" height="11.0804" rx="5.5402" fill="#CBD5E0"/>
<rect x="1593.89" y="792.704" width="13.1052" height="11.0804" rx="5.5402" fill="#CBD5E0"/>
<rect x="1314.32" y="792.704" width="13.1052" height="11.0804" rx="5.5402" fill="#CBD5E0"/>
<rect x="1873.47" y="793.073" width="13.1052" height="11.0804" rx="5.5402" fill="#CBD5E0"/>
<rect x="1454.11" y="792.704" width="13.1052" height="11.0804" rx="5.5402" fill="#CBD5E0"/>
<rect x="1733.68" y="793.073" width="13.1052" height="11.0804" rx="5.5402" fill="#CBD5E0"/>
<rect x="1506.53" y="792.704" width="13.1052" height="11.0804" rx="5.5402" fill="#CBD5E0"/>
<rect x="1226.95" y="792.704" width="13.1052" height="11.0804" rx="5.5402" fill="#CBD5E0"/>
<rect x="1786.1" y="793.073" width="13.1052" height="11.0804" rx="5.5402" fill="#CBD5E0"/>
<rect x="1366.74" y="792.704" width="13.1052" height="11.0804" rx="5.5402" fill="#CBD5E0"/>
<rect x="1925.89" y="793.073" width="13.1052" height="11.0804" rx="5.5402" fill="#4299E1"/>
<rect x="1646.32" y="793.073" width="13.1052" height="11.0804" rx="5.5402" fill="#CBD5E0"/>
<rect x="1576.42" y="792.334" width="13.1052" height="11.0804" rx="5.5402" fill="#CBD5E0"/>
<rect x="1296.84" y="792.334" width="13.1052" height="11.0804" rx="5.5402" fill="#CBD5E0"/>
<rect x="1856" y="792.704" width="13.1052" height="11.0804" rx="5.5402" fill="#CBD5E0"/>
<rect x="1436.63" y="792.334" width="13.1052" height="11.0804" rx="5.5402" fill="#CBD5E0"/>
<rect x="1716.21" y="792.704" width="13.1052" height="11.0804" rx="5.5402" fill="#CBD5E0"/>
<rect x="1541.47" y="793.073" width="13.1052" height="11.0804" rx="5.5402" fill="#CBD5E0"/>
<rect x="1261.89" y="793.073" width="13.1052" height="11.0804" rx="5.5402" fill="#CBD5E0"/>
<rect x="1821.05" y="793.442" width="13.1052" height="11.0804" rx="5.5402" fill="#CBD5E0"/>
<rect x="1401.68" y="793.073" width="13.1052" height="11.0804" rx="5.5402" fill="#CBD5E0"/>
<rect x="1681.26" y="793.442" width="13.1052" height="11.0804" rx="5.5402" fill="#CBD5E0"/>
<rect x="1611.37" y="792.704" width="13.1052" height="11.0804" rx="5.5402" fill="#CBD5E0"/>
<rect x="1331.79" y="792.704" width="13.1052" height="11.0804" rx="5.5402" fill="#CBD5E0"/>
<rect x="1890.95" y="793.073" width="13.1052" height="11.0804" rx="5.5402" fill="#CBD5E0"/>
<rect x="1471.58" y="792.704" width="13.1052" height="11.0804" rx="5.5402" fill="#CBD5E0"/>
<rect x="1751.16" y="793.073" width="13.1052" height="11.0804" rx="5.5402" fill="#CBD5E0"/>
<rect x="1489.05" y="674.512" width="13.1052" height="11.0804" rx="5.5402" fill="#CBD5E0"/>
<rect x="1768.63" y="674.882" width="13.1052" height="11.0804" rx="5.5402" fill="#CBD5E0"/>
<rect x="1349.26" y="674.512" width="13.1052" height="11.0804" rx="5.5402" fill="#CBD5E0"/>
<rect x="1628.84" y="674.882" width="13.1052" height="11.0804" rx="5.5402" fill="#CBD5E0"/>
<rect x="1558.95" y="674.143" width="13.1052" height="11.0804" rx="5.5402" fill="#CBD5E0"/>
<rect x="1279.37" y="674.143" width="13.1052" height="11.0804" rx="5.5402" fill="#CBD5E0"/>
<rect x="1838.53" y="674.512" width="13.1052" height="11.0804" rx="5.5402" fill="#CBD5E0"/>
<rect x="1419.16" y="674.143" width="13.1052" height="11.0804" rx="5.5402" fill="#CBD5E0"/>
<rect x="1698.74" y="674.512" width="13.1052" height="11.0804" rx="5.5402" fill="#CBD5E0"/>
<rect x="1524" y="674.882" width="13.1052" height="11.0804" rx="5.5402" fill="#CBD5E0"/>
<rect x="1244.42" y="674.882" width="13.1052" height="11.0804" rx="5.5402" fill="#CBD5E0"/>
<rect x="1803.58" y="675.251" width="13.1052" height="11.0804" rx="5.5402" fill="#CBD5E0"/>
<rect x="1384.21" y="674.882" width="13.1052" height="11.0804" rx="5.5402" fill="#CBD5E0"/>
<rect x="1663.79" y="675.251" width="13.1052" height="11.0804" rx="5.5402" fill="#CBD5E0"/>
<rect x="1593.89" y="674.512" width="13.1052" height="11.0804" rx="5.5402" fill="#CBD5E0"/>
<rect x="1314.32" y="674.512" width="13.1052" height="11.0804" rx="5.5402" fill="#CBD5E0"/>
<rect x="1454.11" y="674.512" width="13.1052" height="11.0804" rx="5.5402" fill="#CBD5E0"/>
<rect x="1733.68" y="674.882" width="13.1052" height="11.0804" rx="5.5402" fill="#CBD5E0"/>
<rect x="1506.53" y="674.512" width="13.1052" height="11.0804" rx="5.5402" fill="#CBD5E0"/>
<rect x="1786.1" y="674.882" width="13.1052" height="11.0804" rx="5.5402" fill="#CBD5E0"/>
<rect x="1366.74" y="674.512" width="13.1052" height="11.0804" rx="5.5402" fill="#CBD5E0"/>
<rect x="1646.32" y="674.882" width="13.1052" height="11.0804" rx="5.5402" fill="#CBD5E0"/>
<rect x="1576.42" y="674.143" width="13.1052" height="11.0804" rx="5.5402" fill="#CBD5E0"/>
<rect x="1296.84" y="674.143" width="13.1052" height="11.0804" rx="5.5402" fill="#CBD5E0"/>
<rect x="1436.63" y="674.143" width="13.1052" height="11.0804" rx="5.5402" fill="#CBD5E0"/>
<rect x="1716.21" y="674.512" width="13.1052" height="11.0804" rx="5.5402" fill="#CBD5E0"/>
<rect x="1541.47" y="674.882" width="13.1052" height="11.0804" rx="5.5402" fill="#CBD5E0"/>
<rect x="1261.89" y="674.882" width="13.1052" height="11.0804" rx="5.5402" fill="#CBD5E0"/>
<rect x="1821.05" y="675.251" width="13.1052" height="11.0804" rx="5.5402" fill="#CBD5E0"/>
<rect x="1401.68" y="674.882" width="13.1052" height="11.0804" rx="5.5402" fill="#CBD5E0"/>
<rect x="1681.26" y="675.251" width="13.1052" height="11.0804" rx="5.5402" fill="#CBD5E0"/>
<rect x="1611.37" y="674.512" width="13.1052" height="11.0804" rx="5.5402" fill="#CBD5E0"/>
<rect x="1331.79" y="674.512" width="13.1052" height="11.0804" rx="5.5402" fill="#CBD5E0"/>
<rect x="1471.58" y="674.512" width="13.1052" height="11.0804" rx="5.5402" fill="#CBD5E0"/>
<rect x="1751.16" y="674.882" width="13.1052" height="11.0804" rx="5.5402" fill="#CBD5E0"/>
<rect x="1768.63" y="970.359" width="13.1052" height="11.0804" rx="5.5402" fill="#CBD5E0"/>
<rect x="1768.63" y="985.133" width="13.1052" height="11.0804" rx="5.5402" fill="#4299E1"/>
<rect x="1838.53" y="969.99" width="13.1052" height="11.0804" rx="5.5402" fill="#CBD5E0"/>
<rect x="1698.74" y="969.99" width="13.1052" height="11.0804" rx="5.5402" fill="#CBD5E0"/>
<rect x="1803.58" y="970.729" width="13.1052" height="11.0804" rx="5.5402" fill="#CBD5E0"/>
<rect x="1733.68" y="970.359" width="13.1052" height="11.0804" rx="5.5402" fill="#CBD5E0"/>
<rect x="1786.1" y="970.359" width="13.1052" height="11.0804" rx="5.5402" fill="#CBD5E0"/>
<rect x="1856" y="969.99" width="13.1052" height="11.0804" rx="5.5402" fill="#CBD5E0"/>
<rect x="1716.21" y="969.99" width="13.1052" height="11.0804" rx="5.5402" fill="#CBD5E0"/>
<rect x="1821.05" y="970.729" width="13.1052" height="11.0804" rx="5.5402" fill="#CBD5E0"/>
<rect x="1681.26" y="970.729" width="13.1052" height="11.0804" rx="5.5402" fill="#CBD5E0"/>
<rect x="1751.16" y="970.359" width="13.1052" height="11.0804" rx="5.5402" fill="#CBD5E0"/>
<rect x="1803.58" y="1074.15" width="13.1052" height="11.0804" rx="5.5402" fill="#CBD5E0"/>
<rect x="1786.1" y="1073.78" width="13.1052" height="11.0804" rx="5.5402" fill="#CBD5E0"/>
<rect x="1821.05" y="1074.15" width="13.1052" height="11.0804" rx="5.5402" fill="#CBD5E0"/>
<rect x="1489.05" y="615.417" width="13.1052" height="11.0804" rx="5.5402" fill="#CBD5E0"/>
<rect x="1768.63" y="615.786" width="13.1052" height="11.0804" rx="5.5402" fill="#CBD5E0"/>
<rect x="1349.26" y="615.417" width="13.1052" height="11.0804" rx="5.5402" fill="#CBD5E0"/>
<rect x="1628.84" y="615.786" width="13.1052" height="11.0804" rx="5.5402" fill="#CBD5E0"/>
<rect x="1558.95" y="615.048" width="13.1052" height="11.0804" rx="5.5402" fill="#CBD5E0"/>
<rect x="1419.16" y="615.048" width="13.1052" height="11.0804" rx="5.5402" fill="#CBD5E0"/>
<rect x="1698.74" y="615.417" width="13.1052" height="11.0804" rx="5.5402" fill="#CBD5E0"/>
<rect x="1524" y="615.786" width="13.1052" height="11.0804" rx="5.5402" fill="#CBD5E0"/>
<rect x="1384.21" y="615.786" width="13.1052" height="11.0804" rx="5.5402" fill="#CBD5E0"/>
<rect x="1663.79" y="616.156" width="13.1052" height="11.0804" rx="5.5402" fill="#CBD5E0"/>
<rect x="1593.89" y="615.417" width="13.1052" height="11.0804" rx="5.5402" fill="#CBD5E0"/>
<rect x="1454.11" y="615.417" width="13.1052" height="11.0804" rx="5.5402" fill="#CBD5E0"/>
<rect x="1733.68" y="615.786" width="13.1052" height="11.0804" rx="5.5402" fill="#CBD5E0"/>
<rect x="1506.53" y="615.417" width="13.1052" height="11.0804" rx="5.5402" fill="#CBD5E0"/>
<rect x="1786.1" y="615.786" width="13.1052" height="11.0804" rx="5.5402" fill="#CBD5E0"/>
<rect x="1366.74" y="615.417" width="13.1052" height="11.0804" rx="5.5402" fill="#CBD5E0"/>
<rect x="1646.32" y="615.786" width="13.1052" height="11.0804" rx="5.5402" fill="#CBD5E0"/>
<rect x="1576.42" y="615.048" width="13.1052" height="11.0804" rx="5.5402" fill="#CBD5E0"/>
<rect x="1436.63" y="615.048" width="13.1052" height="11.0804" rx="5.5402" fill="#CBD5E0"/>
<rect x="1716.21" y="615.417" width="13.1052" height="11.0804" rx="5.5402" fill="#CBD5E0"/>
<rect x="1541.47" y="615.786" width="13.1052" height="11.0804" rx="5.5402" fill="#CBD5E0"/>
<rect x="1401.68" y="615.786" width="13.1052" height="11.0804" rx="5.5402" fill="#CBD5E0"/>
<rect x="1611.37" y="615.417" width="13.1052" height="11.0804" rx="5.5402" fill="#CBD5E0"/>
<rect x="1471.58" y="615.417" width="13.1052" height="11.0804" rx="5.5402" fill="#CBD5E0"/>
<rect x="1751.16" y="615.786" width="13.1052" height="11.0804" rx="5.5402" fill="#CBD5E0"/>
<rect x="1768.63" y="911.264" width="13.1052" height="11.0804" rx="5.5402" fill="#CBD5E0"/>
<rect x="1279.37" y="910.525" width="13.1052" height="11.0804" rx="5.5402" fill="#CBD5E0"/>
<rect x="1279.37" y="925.299" width="13.1052" height="11.0804" rx="5.5402" fill="#CBD5E0"/>
<rect x="1838.53" y="910.894" width="13.1052" height="11.0804" rx="5.5402" fill="#CBD5E0"/>
<rect x="1698.74" y="910.894" width="13.1052" height="11.0804" rx="5.5402" fill="#CBD5E0"/>
<rect x="1244.42" y="911.264" width="13.1052" height="11.0804" rx="5.5402" fill="#CBD5E0"/>
<rect x="1803.58" y="911.633" width="13.1052" height="11.0804" rx="5.5402" fill="#CBD5E0"/>
<rect x="1663.79" y="911.633" width="13.1052" height="11.0804" rx="5.5402" fill="#CBD5E0"/>
<rect x="1593.89" y="910.894" width="13.1052" height="11.0804" rx="5.5402" fill="#CBD5E0"/>
<rect x="1593.89" y="925.668" width="13.1052" height="11.0804" rx="5.5402" fill="#CBD5E0"/>
<rect x="1873.47" y="911.264" width="13.1052" height="11.0804" rx="5.5402" fill="#CBD5E0"/>
<rect x="1733.68" y="911.264" width="13.1052" height="11.0804" rx="5.5402" fill="#CBD5E0"/>
<rect x="1226.95" y="910.894" width="13.1052" height="11.0804" rx="5.5402" fill="#CBD5E0"/>
<rect x="1786.1" y="911.264" width="13.1052" height="11.0804" rx="5.5402" fill="#CBD5E0"/>
<rect x="1646.32" y="911.264" width="13.1052" height="11.0804" rx="5.5402" fill="#CBD5E0"/>
<rect x="1628.84" y="911.633" width="13.1052" height="11.0804" rx="5.5402" fill="#CBD5E0"/>
<rect x="1296.84" y="910.525" width="13.1052" height="11.0804" rx="5.5402" fill="#CBD5E0"/>
<rect x="1856" y="910.894" width="13.1052" height="11.0804" rx="5.5402" fill="#CBD5E0"/>
<rect x="1716.21" y="910.894" width="13.1052" height="11.0804" rx="5.5402" fill="#CBD5E0"/>
<rect x="1261.89" y="911.264" width="13.1052" height="11.0804" rx="5.5402" fill="#CBD5E0"/>
<rect x="1821.05" y="911.633" width="13.1052" height="11.0804" rx="5.5402" fill="#CBD5E0"/>
<rect x="1681.26" y="911.633" width="13.1052" height="11.0804" rx="5.5402" fill="#CBD5E0"/>
<rect x="1751.16" y="911.264" width="13.1052" height="11.0804" rx="5.5402" fill="#CBD5E0"/>
<rect x="1489.05" y="733.608" width="13.1052" height="11.0804" rx="5.5402" fill="#CBD5E0"/>
<rect x="1209.47" y="733.608" width="13.1052" height="11.0804" rx="5.5402" fill="#CBD5E0"/>
<rect x="1768.63" y="733.977" width="13.1052" height="11.0804" rx="5.5402" fill="#CBD5E0"/>
<rect x="1349.26" y="733.608" width="13.1052" height="11.0804" rx="5.5402" fill="#CBD5E0"/>
<rect x="1628.84" y="733.977" width="13.1052" height="11.0804" rx="5.5402" fill="#CBD5E0"/>
<rect x="1558.95" y="733.239" width="13.1052" height="11.0804" rx="5.5402" fill="#CBD5E0"/>
<rect x="1279.37" y="733.239" width="13.1052" height="11.0804" rx="5.5402" fill="#CBD5E0"/>
<rect x="1838.53" y="733.608" width="13.1052" height="11.0804" rx="5.5402" fill="#CBD5E0"/>
<rect x="1419.16" y="733.239" width="13.1052" height="11.0804" rx="5.5402" fill="#CBD5E0"/>
<rect x="1698.74" y="733.608" width="13.1052" height="11.0804" rx="5.5402" fill="#CBD5E0"/>
<rect x="1524" y="733.977" width="13.1052" height="11.0804" rx="5.5402" fill="#CBD5E0"/>
<rect x="1244.42" y="733.977" width="13.1052" height="11.0804" rx="5.5402" fill="#CBD5E0"/>
<rect x="1803.58" y="734.347" width="13.1052" height="11.0804" rx="5.5402" fill="#CBD5E0"/>
<rect x="1384.21" y="733.977" width="13.1052" height="11.0804" rx="5.5402" fill="#CBD5E0"/>
<rect x="1663.79" y="734.347" width="13.1052" height="11.0804" rx="5.5402" fill="#CBD5E0"/>
<rect x="1593.89" y="733.608" width="13.1052" height="11.0804" rx="5.5402" fill="#CBD5E0"/>
<rect x="1314.32" y="733.608" width="13.1052" height="11.0804" rx="5.5402" fill="#CBD5E0"/>
<rect x="1873.47" y="733.977" width="13.1052" height="11.0804" rx="5.5402" fill="#CBD5E0"/>
<rect x="1454.11" y="733.608" width="13.1052" height="11.0804" rx="5.5402" fill="#CBD5E0"/>
<rect x="1733.68" y="733.977" width="13.1052" height="11.0804" rx="5.5402" fill="#CBD5E0"/>
<rect x="1506.53" y="733.608" width="13.1052" height="11.0804" rx="5.5402" fill="#CBD5E0"/>
<rect x="1226.95" y="733.608" width="13.1052" height="11.0804" rx="5.5402" fill="#CBD5E0"/>
<rect x="1786.1" y="733.977" width="13.1052" height="11.0804" rx="5.5402" fill="#CBD5E0"/>
<rect x="1366.74" y="733.608" width="13.1052" height="11.0804" rx="5.5402" fill="#CBD5E0"/>
<rect x="1646.32" y="733.977" width="13.1052" height="11.0804" rx="5.5402" fill="#CBD5E0"/>
<rect x="1576.42" y="733.239" width="13.1052" height="11.0804" rx="5.5402" fill="#CBD5E0"/>
<rect x="1296.84" y="733.239" width="13.1052" height="11.0804" rx="5.5402" fill="#CBD5E0"/>
<rect x="1856" y="733.608" width="13.1052" height="11.0804" rx="5.5402" fill="#CBD5E0"/>
<rect x="1436.63" y="733.239" width="13.1052" height="11.0804" rx="5.5402" fill="#CBD5E0"/>
<rect x="1716.21" y="733.608" width="13.1052" height="11.0804" rx="5.5402" fill="#CBD5E0"/>
<rect x="1541.47" y="733.977" width="13.1052" height="11.0804" rx="5.5402" fill="#CBD5E0"/>
<rect x="1261.89" y="733.977" width="13.1052" height="11.0804" rx="5.5402" fill="#CBD5E0"/>
<rect x="1821.05" y="734.347" width="13.1052" height="11.0804" rx="5.5402" fill="#CBD5E0"/>
<rect x="1401.68" y="733.977" width="13.1052" height="11.0804" rx="5.5402" fill="#CBD5E0"/>
<rect x="1681.26" y="734.347" width="13.1052" height="11.0804" rx="5.5402" fill="#CBD5E0"/>
<rect x="1611.37" y="733.608" width="13.1052" height="11.0804" rx="5.5402" fill="#CBD5E0"/>
<rect x="1331.79" y="733.608" width="13.1052" height="11.0804" rx="5.5402" fill="#CBD5E0"/>
<rect x="1890.95" y="733.977" width="13.1052" height="11.0804" rx="5.5402" fill="#CBD5E0"/>
<rect x="1471.58" y="733.608" width="13.1052" height="11.0804" rx="5.5402" fill="#CBD5E0"/>
<rect x="1192" y="733.608" width="13.1052" height="11.0804" rx="5.5402" fill="#CBD5E0"/>
<rect x="1751.16" y="733.977" width="13.1052" height="11.0804" rx="5.5402" fill="#CBD5E0"/>
<rect x="1558.95" y="541.178" width="13.1052" height="11.0804" rx="5.5402" fill="#CBD5E0"/>
<rect x="1524" y="541.917" width="13.1052" height="11.0804" rx="5.5402" fill="#CBD5E0"/>
<rect x="1593.89" y="541.548" width="13.1052" height="11.0804" rx="5.5402" fill="#CBD5E0"/>
<rect x="1733.68" y="541.917" width="13.1052" height="11.0804" rx="5.5402" fill="#CBD5E0"/>
<rect x="1506.53" y="541.548" width="13.1052" height="11.0804" rx="5.5402" fill="#4299E1"/>
<rect x="1576.42" y="541.178" width="13.1052" height="11.0804" rx="5.5402" fill="#CBD5E0"/>
<rect x="1716.21" y="541.548" width="13.1052" height="11.0804" rx="5.5402" fill="#CBD5E0"/>
<rect x="1541.47" y="541.917" width="13.1052" height="11.0804" rx="5.5402" fill="#CBD5E0"/>
<rect x="1611.37" y="541.548" width="13.1052" height="11.0804" rx="5.5402" fill="#CBD5E0"/>
<rect x="1489.05" y="837.025" width="13.1052" height="11.0804" rx="5.5402" fill="#CBD5E0"/>
<rect x="1768.63" y="837.394" width="13.1052" height="11.0804" rx="5.5402" fill="#CBD5E0"/>
<rect x="1349.26" y="837.025" width="13.1052" height="11.0804" rx="5.5402" fill="#CBD5E0"/>
<rect x="1908.42" y="837.394" width="13.1052" height="11.0804" rx="5.5402" fill="#CBD5E0"/>
<rect x="1628.84" y="837.394" width="13.1052" height="11.0804" rx="5.5402" fill="#CBD5E0"/>
<rect x="1558.95" y="836.656" width="13.1052" height="11.0804" rx="5.5402" fill="#CBD5E0"/>
<rect x="1279.37" y="836.656" width="13.1052" height="11.0804" rx="5.5402" fill="#CBD5E0"/>
<rect x="1838.53" y="837.025" width="13.1052" height="11.0804" rx="5.5402" fill="#CBD5E0"/>
<rect x="1419.16" y="836.656" width="13.1052" height="11.0804" rx="5.5402" fill="#CBD5E0"/>
<rect x="1698.74" y="837.025" width="13.1052" height="11.0804" rx="5.5402" fill="#CBD5E0"/>
<rect x="1524" y="837.394" width="13.1052" height="11.0804" rx="5.5402" fill="#CBD5E0"/>
<rect x="1244.42" y="837.394" width="13.1052" height="11.0804" rx="5.5402" fill="#CBD5E0"/>
<rect x="1803.58" y="837.764" width="13.1052" height="11.0804" rx="5.5402" fill="#CBD5E0"/>
<rect x="1384.21" y="837.394" width="13.1052" height="11.0804" rx="5.5402" fill="#CBD5E0"/>
<rect x="1663.79" y="837.764" width="13.1052" height="11.0804" rx="5.5402" fill="#CBD5E0"/>
<rect x="1593.89" y="837.025" width="13.1052" height="11.0804" rx="5.5402" fill="#CBD5E0"/>
<rect x="1314.32" y="837.025" width="13.1052" height="11.0804" rx="5.5402" fill="#CBD5E0"/>
<rect x="1873.47" y="837.394" width="13.1052" height="11.0804" rx="5.5402" fill="#CBD5E0"/>
<rect x="1454.11" y="837.025" width="13.1052" height="11.0804" rx="5.5402" fill="#CBD5E0"/>
<rect x="1733.68" y="837.394" width="13.1052" height="11.0804" rx="5.5402" fill="#CBD5E0"/>
<rect x="1506.53" y="837.025" width="13.1052" height="11.0804" rx="5.5402" fill="#CBD5E0"/>
<rect x="1226.95" y="837.025" width="13.1052" height="11.0804" rx="5.5402" fill="#CBD5E0"/>
<rect x="1786.1" y="837.394" width="13.1052" height="11.0804" rx="5.5402" fill="#CBD5E0"/>
<rect x="1366.74" y="837.025" width="13.1052" height="11.0804" rx="5.5402" fill="#CBD5E0"/>
<rect x="1646.32" y="837.394" width="13.1052" height="11.0804" rx="5.5402" fill="#CBD5E0"/>
<rect x="1576.42" y="836.656" width="13.1052" height="11.0804" rx="5.5402" fill="#CBD5E0"/>
<rect x="1296.84" y="836.656" width="13.1052" height="11.0804" rx="5.5402" fill="#CBD5E0"/>
<rect x="1856" y="837.025" width="13.1052" height="11.0804" rx="5.5402" fill="#CBD5E0"/>
<rect x="1436.63" y="836.656" width="13.1052" height="11.0804" rx="5.5402" fill="#CBD5E0"/>
<rect x="1716.21" y="837.025" width="13.1052" height="11.0804" rx="5.5402" fill="#CBD5E0"/>
<rect x="1541.47" y="837.394" width="13.1052" height="11.0804" rx="5.5402" fill="#CBD5E0"/>
<rect x="1261.89" y="837.394" width="13.1052" height="11.0804" rx="5.5402" fill="#CBD5E0"/>
<rect x="1821.05" y="837.764" width="13.1052" height="11.0804" rx="5.5402" fill="#CBD5E0"/>
<rect x="1401.68" y="837.394" width="13.1052" height="11.0804" rx="5.5402" fill="#CBD5E0"/>
<rect x="1681.26" y="837.764" width="13.1052" height="11.0804" rx="5.5402" fill="#CBD5E0"/>
<rect x="1611.37" y="837.025" width="13.1052" height="11.0804" rx="5.5402" fill="#CBD5E0"/>
<rect x="1331.79" y="837.025" width="13.1052" height="11.0804" rx="5.5402" fill="#CBD5E0"/>
<rect x="1890.95" y="837.394" width="13.1052" height="11.0804" rx="5.5402" fill="#CBD5E0"/>
<rect x="1471.58" y="837.025" width="13.1052" height="11.0804" rx="5.5402" fill="#CBD5E0"/>
<rect x="1751.16" y="837.394" width="13.1052" height="11.0804" rx="5.5402" fill="#CBD5E0"/>
<rect x="1489.05" y="777.93" width="13.1052" height="11.0804" rx="5.5402" fill="#CBD5E0"/>
<rect x="1209.47" y="777.93" width="13.1052" height="11.0804" rx="5.5402" fill="#CBD5E0"/>
<rect x="1768.63" y="778.299" width="13.1052" height="11.0804" rx="5.5402" fill="#CBD5E0"/>
<rect x="1349.26" y="777.93" width="13.1052" height="11.0804" rx="5.5402" fill="#CBD5E0"/>
<rect x="1908.42" y="778.299" width="13.1052" height="11.0804" rx="5.5402" fill="#CBD5E0"/>
<rect x="1628.84" y="778.299" width="13.1052" height="11.0804" rx="5.5402" fill="#CBD5E0"/>
<rect x="1558.95" y="777.56" width="13.1052" height="11.0804" rx="5.5402" fill="#CBD5E0"/>
<rect x="1279.37" y="777.56" width="13.1052" height="11.0804" rx="5.5402" fill="#CBD5E0"/>
<rect x="1838.53" y="777.93" width="13.1052" height="11.0804" rx="5.5402" fill="#CBD5E0"/>
<rect x="1419.16" y="777.56" width="13.1052" height="11.0804" rx="5.5402" fill="#CBD5E0"/>
<rect x="1698.74" y="777.93" width="13.1052" height="11.0804" rx="5.5402" fill="#CBD5E0"/>
<rect x="1524" y="778.299" width="13.1052" height="11.0804" rx="5.5402" fill="#CBD5E0"/>
<rect x="1244.42" y="778.299" width="13.1052" height="11.0804" rx="5.5402" fill="#CBD5E0"/>
<rect x="1803.58" y="778.668" width="13.1052" height="11.0804" rx="5.5402" fill="#CBD5E0"/>
<rect x="1384.21" y="778.299" width="13.1052" height="11.0804" rx="5.5402" fill="#CBD5E0"/>
<rect x="1663.79" y="778.668" width="13.1052" height="11.0804" rx="5.5402" fill="#CBD5E0"/>
<rect x="1593.89" y="777.93" width="13.1052" height="11.0804" rx="5.5402" fill="#CBD5E0"/>
<rect x="1314.32" y="777.93" width="13.1052" height="11.0804" rx="5.5402" fill="#CBD5E0"/>
<rect x="1873.47" y="778.299" width="13.1052" height="11.0804" rx="5.5402" fill="#CBD5E0"/>
<rect x="1454.11" y="777.93" width="13.1052" height="11.0804" rx="5.5402" fill="#CBD5E0"/>
<rect x="1733.68" y="778.299" width="13.1052" height="11.0804" rx="5.5402" fill="#CBD5E0"/>
<rect x="1506.53" y="777.93" width="13.1052" height="11.0804" rx="5.5402" fill="#CBD5E0"/>
<rect x="1226.95" y="777.93" width="13.1052" height="11.0804" rx="5.5402" fill="#CBD5E0"/>
<rect x="1786.1" y="778.299" width="13.1052" height="11.0804" rx="5.5402" fill="#CBD5E0"/>
<rect x="1366.74" y="777.93" width="13.1052" height="11.0804" rx="5.5402" fill="#CBD5E0"/>
<rect x="1925.89" y="778.299" width="13.1052" height="11.0804" rx="5.5402" fill="#CBD5E0"/>
<rect x="1646.32" y="778.299" width="13.1052" height="11.0804" rx="5.5402" fill="#CBD5E0"/>
<rect x="1576.42" y="777.56" width="13.1052" height="11.0804" rx="5.5402" fill="#CBD5E0"/>
<rect x="1296.84" y="777.56" width="13.1052" height="11.0804" rx="5.5402" fill="#CBD5E0"/>
<rect x="1856" y="777.93" width="13.1052" height="11.0804" rx="5.5402" fill="#CBD5E0"/>
<rect x="1436.63" y="777.56" width="13.1052" height="11.0804" rx="5.5402" fill="#CBD5E0"/>
<rect x="1716.21" y="777.93" width="13.1052" height="11.0804" rx="5.5402" fill="#CBD5E0"/>
<rect x="1541.47" y="778.299" width="13.1052" height="11.0804" rx="5.5402" fill="#CBD5E0"/>
<rect x="1261.89" y="778.299" width="13.1052" height="11.0804" rx="5.5402" fill="#CBD5E0"/>
<rect x="1821.05" y="778.668" width="13.1052" height="11.0804" rx="5.5402" fill="#CBD5E0"/>
<rect x="1401.68" y="778.299" width="13.1052" height="11.0804" rx="5.5402" fill="#CBD5E0"/>
<rect x="1681.26" y="778.668" width="13.1052" height="11.0804" rx="5.5402" fill="#CBD5E0"/>
<rect x="1611.37" y="777.93" width="13.1052" height="11.0804" rx="5.5402" fill="#CBD5E0"/>
<rect x="1331.79" y="777.93" width="13.1052" height="11.0804" rx="5.5402" fill="#CBD5E0"/>
<rect x="1890.95" y="778.299" width="13.1052" height="11.0804" rx="5.5402" fill="#CBD5E0"/>
<rect x="1471.58" y="777.93" width="13.1052" height="11.0804" rx="5.5402" fill="#CBD5E0"/>
<rect x="1192" y="777.93" width="13.1052" height="11.0804" rx="5.5402" fill="#CBD5E0"/>
<rect x="1751.16" y="778.299" width="13.1052" height="11.0804" rx="5.5402" fill="#CBD5E0"/>
<rect x="1489.05" y="659.739" width="13.1052" height="11.0804" rx="5.5402" fill="#CBD5E0"/>
<rect x="1768.63" y="660.108" width="13.1052" height="11.0804" rx="5.5402" fill="#CBD5E0"/>
<rect x="1349.26" y="659.739" width="13.1052" height="11.0804" rx="5.5402" fill="#CBD5E0"/>
<rect x="1628.84" y="660.108" width="13.1052" height="11.0804" rx="5.5402" fill="#CBD5E0"/>
<rect x="1558.95" y="659.369" width="13.1052" height="11.0804" rx="5.5402" fill="#CBD5E0"/>
<rect x="1419.16" y="659.369" width="13.1052" height="11.0804" rx="5.5402" fill="#CBD5E0"/>
<rect x="1698.74" y="659.739" width="13.1052" height="11.0804" rx="5.5402" fill="#CBD5E0"/>
<rect x="1524" y="660.108" width="13.1052" height="11.0804" rx="5.5402" fill="#CBD5E0"/>
<rect x="1803.58" y="660.477" width="13.1052" height="11.0804" rx="5.5402" fill="#CBD5E0"/>
<rect x="1384.21" y="660.108" width="13.1052" height="11.0804" rx="5.5402" fill="#CBD5E0"/>
<rect x="1663.79" y="660.477" width="13.1052" height="11.0804" rx="5.5402" fill="#CBD5E0"/>
<rect x="1593.89" y="659.739" width="13.1052" height="11.0804" rx="5.5402" fill="#CBD5E0"/>
<rect x="1314.32" y="659.739" width="13.1052" height="11.0804" rx="5.5402" fill="#CBD5E0"/>
<rect x="1454.11" y="659.739" width="13.1052" height="11.0804" rx="5.5402" fill="#CBD5E0"/>
<rect x="1733.68" y="660.108" width="13.1052" height="11.0804" rx="5.5402" fill="#CBD5E0"/>
<rect x="1506.53" y="659.739" width="13.1052" height="11.0804" rx="5.5402" fill="#CBD5E0"/>
<rect x="1786.1" y="660.108" width="13.1052" height="11.0804" rx="5.5402" fill="#CBD5E0"/>
<rect x="1366.74" y="659.739" width="13.1052" height="11.0804" rx="5.5402" fill="#CBD5E0"/>
<rect x="1646.32" y="660.108" width="13.1052" height="11.0804" rx="5.5402" fill="#CBD5E0"/>
<rect x="1576.42" y="659.369" width="13.1052" height="11.0804" rx="5.5402" fill="#CBD5E0"/>
<rect x="1436.63" y="659.369" width="13.1052" height="11.0804" rx="5.5402" fill="#CBD5E0"/>
<rect x="1716.21" y="659.739" width="13.1052" height="11.0804" rx="5.5402" fill="#CBD5E0"/>
<rect x="1541.47" y="660.108" width="13.1052" height="11.0804" rx="5.5402" fill="#CBD5E0"/>
<rect x="1821.05" y="660.477" width="13.1052" height="11.0804" rx="5.5402" fill="#CBD5E0"/>
<rect x="1401.68" y="660.108" width="13.1052" height="11.0804" rx="5.5402" fill="#CBD5E0"/>
<rect x="1681.26" y="660.477" width="13.1052" height="11.0804" rx="5.5402" fill="#CBD5E0"/>
<rect x="1611.37" y="659.739" width="13.1052" height="11.0804" rx="5.5402" fill="#CBD5E0"/>
<rect x="1331.79" y="659.739" width="13.1052" height="11.0804" rx="5.5402" fill="#CBD5E0"/>
<rect x="1471.58" y="659.739" width="13.1052" height="11.0804" rx="5.5402" fill="#CBD5E0"/>
<rect x="1751.16" y="660.108" width="13.1052" height="11.0804" rx="5.5402" fill="#CBD5E0"/>
<rect x="1768.63" y="955.585" width="13.1052" height="11.0804" rx="5.5402" fill="#CBD5E0"/>
<rect x="1838.53" y="955.216" width="13.1052" height="11.0804" rx="5.5402" fill="#CBD5E0"/>
<rect x="1698.74" y="955.216" width="13.1052" height="11.0804" rx="5.5402" fill="#CBD5E0"/>
<rect x="1803.58" y="955.955" width="13.1052" height="11.0804" rx="5.5402" fill="#CBD5E0"/>
<rect x="1733.68" y="955.585" width="13.1052" height="11.0804" rx="5.5402" fill="#CBD5E0"/>
<rect x="1786.1" y="955.585" width="13.1052" height="11.0804" rx="5.5402" fill="#CBD5E0"/>
<rect x="1856" y="955.216" width="13.1052" height="11.0804" rx="5.5402" fill="#CBD5E0"/>
<rect x="1716.21" y="955.216" width="13.1052" height="11.0804" rx="5.5402" fill="#CBD5E0"/>
<rect x="1821.05" y="955.955" width="13.1052" height="11.0804" rx="5.5402" fill="#CBD5E0"/>
<rect x="1681.26" y="955.955" width="13.1052" height="11.0804" rx="5.5402" fill="#CBD5E0"/>
<rect x="1751.16" y="955.585" width="13.1052" height="11.0804" rx="5.5402" fill="#CBD5E0"/>
<rect x="1768.63" y="1059" width="13.1052" height="11.0804" rx="5.5402" fill="#CBD5E0"/>
<rect x="1803.58" y="1059.37" width="13.1052" height="11.0804" rx="5.5402" fill="#CBD5E0"/>
<rect x="1786.1" y="1059" width="13.1052" height="11.0804" rx="5.5402" fill="#CBD5E0"/>
<rect x="1821.05" y="1059.37" width="13.1052" height="11.0804" rx="5.5402" fill="#CBD5E0"/>
<rect x="1489.05" y="600.643" width="13.1052" height="11.0804" rx="5.5402" fill="#CBD5E0"/>
<rect x="1768.63" y="601.012" width="13.1052" height="11.0804" rx="5.5402" fill="#CBD5E0"/>
<rect x="1628.84" y="601.012" width="13.1052" height="11.0804" rx="5.5402" fill="#CBD5E0"/>
<rect x="1558.95" y="600.274" width="13.1052" height="11.0804" rx="5.5402" fill="#CBD5E0"/>
<rect x="1419.16" y="600.274" width="13.1052" height="11.0804" rx="5.5402" fill="#CBD5E0"/>
<rect x="1524" y="601.012" width="13.1052" height="11.0804" rx="5.5402" fill="#CBD5E0"/>
<rect x="1384.21" y="601.012" width="13.1052" height="11.0804" rx="5.5402" fill="#CBD5E0"/>
<rect x="1593.89" y="600.643" width="13.1052" height="11.0804" rx="5.5402" fill="#CBD5E0"/>
<rect x="1454.11" y="600.643" width="13.1052" height="11.0804" rx="5.5402" fill="#CBD5E0"/>
<rect x="1733.68" y="601.012" width="13.1052" height="11.0804" rx="5.5402" fill="#CBD5E0"/>
<rect x="1506.53" y="600.643" width="13.1052" height="11.0804" rx="5.5402" fill="#CBD5E0"/>
<rect x="1786.1" y="601.012" width="13.1052" height="11.0804" rx="5.5402" fill="#CBD5E0"/>
<rect x="1576.42" y="600.274" width="13.1052" height="11.0804" rx="5.5402" fill="#CBD5E0"/>
<rect x="1436.63" y="600.274" width="13.1052" height="11.0804" rx="5.5402" fill="#CBD5E0"/>
<rect x="1716.21" y="600.643" width="13.1052" height="11.0804" rx="5.5402" fill="#CBD5E0"/>
<rect x="1541.47" y="601.012" width="13.1052" height="11.0804" rx="5.5402" fill="#CBD5E0"/>
<rect x="1401.68" y="601.012" width="13.1052" height="11.0804" rx="5.5402" fill="#CBD5E0"/>
<rect x="1611.37" y="600.643" width="13.1052" height="11.0804" rx="5.5402" fill="#CBD5E0"/>
<rect x="1471.58" y="600.643" width="13.1052" height="11.0804" rx="5.5402" fill="#CBD5E0"/>
<rect x="1751.16" y="601.012" width="13.1052" height="11.0804" rx="5.5402" fill="#CBD5E0"/>
<rect x="1768.63" y="896.49" width="13.1052" height="11.0804" rx="5.5402" fill="#CBD5E0"/>
<rect x="1349.26" y="896.121" width="13.1052" height="11.0804" rx="5.5402" fill="#CBD5E0"/>
<rect x="1628.84" y="896.49" width="13.1052" height="11.0804" rx="5.5402" fill="#CBD5E0"/>
<rect x="1279.37" y="895.751" width="13.1052" height="11.0804" rx="5.5402" fill="#CBD5E0"/>
<rect x="1838.53" y="896.121" width="13.1052" height="11.0804" rx="5.5402" fill="#CBD5E0"/>
<rect x="1698.74" y="896.121" width="13.1052" height="11.0804" rx="5.5402" fill="#CBD5E0"/>
<rect x="1244.42" y="896.49" width="13.1052" height="11.0804" rx="5.5402" fill="#CBD5E0"/>
<rect x="1803.58" y="896.859" width="13.1052" height="11.0804" rx="5.5402" fill="#CBD5E0"/>
<rect x="1384.21" y="896.49" width="13.1052" height="11.0804" rx="5.5402" fill="#CBD5E0"/>
<rect x="1663.79" y="896.859" width="13.1052" height="11.0804" rx="5.5402" fill="#CBD5E0"/>
<rect x="1593.89" y="896.121" width="13.1052" height="11.0804" rx="5.5402" fill="#CBD5E0"/>
<rect x="1314.32" y="896.121" width="13.1052" height="11.0804" rx="5.5402" fill="#CBD5E0"/>
<rect x="1873.47" y="896.49" width="13.1052" height="11.0804" rx="5.5402" fill="#CBD5E0"/>
<rect x="1733.68" y="896.49" width="13.1052" height="11.0804" rx="5.5402" fill="#CBD5E0"/>
<rect x="1226.95" y="896.121" width="13.1052" height="11.0804" rx="5.5402" fill="#CBD5E0"/>
<rect x="1786.1" y="896.49" width="13.1052" height="11.0804" rx="5.5402" fill="#CBD5E0"/>
<rect x="1366.74" y="896.121" width="13.1052" height="11.0804" rx="5.5402" fill="#CBD5E0"/>
<rect x="1646.32" y="896.49" width="13.1052" height="11.0804" rx="5.5402" fill="#CBD5E0"/>
<rect x="1576.42" y="895.751" width="13.1052" height="11.0804" rx="5.5402" fill="#CBD5E0"/>
<rect x="1296.84" y="895.751" width="13.1052" height="11.0804" rx="5.5402" fill="#CBD5E0"/>
<rect x="1856" y="896.121" width="13.1052" height="11.0804" rx="5.5402" fill="#CBD5E0"/>
<rect x="1716.21" y="896.121" width="13.1052" height="11.0804" rx="5.5402" fill="#CBD5E0"/>
<rect x="1261.89" y="896.49" width="13.1052" height="11.0804" rx="5.5402" fill="#CBD5E0"/>
<rect x="1821.05" y="896.859" width="13.1052" height="11.0804" rx="5.5402" fill="#CBD5E0"/>
<rect x="1681.26" y="896.859" width="13.1052" height="11.0804" rx="5.5402" fill="#CBD5E0"/>
<rect x="1611.37" y="896.121" width="13.1052" height="11.0804" rx="5.5402" fill="#CBD5E0"/>
<rect x="1611.37" y="910.894" width="13.1052" height="11.0804" rx="5.5402" fill="#CBD5E0"/>
<rect x="1331.79" y="896.121" width="13.1052" height="11.0804" rx="5.5402" fill="#CBD5E0"/>
<rect x="1890.95" y="896.49" width="13.1052" height="11.0804" rx="5.5402" fill="#4299E1"/>
<rect x="1751.16" y="896.49" width="13.1052" height="11.0804" rx="5.5402" fill="#CBD5E0"/>
<rect x="1489.05" y="718.834" width="13.1052" height="11.0804" rx="5.5402" fill="#CBD5E0"/>
<rect x="1209.47" y="718.834" width="13.1052" height="11.0804" rx="5.5402" fill="#CBD5E0"/>
<rect x="1768.63" y="719.204" width="13.1052" height="11.0804" rx="5.5402" fill="#CBD5E0"/>
<rect x="1349.26" y="718.834" width="13.1052" height="11.0804" rx="5.5402" fill="#CBD5E0"/>
<rect x="1628.84" y="719.204" width="13.1052" height="11.0804" rx="5.5402" fill="#CBD5E0"/>
<rect x="1558.95" y="718.465" width="13.1052" height="11.0804" rx="5.5402" fill="#CBD5E0"/>
<rect x="1279.37" y="718.465" width="13.1052" height="11.0804" rx="5.5402" fill="#CBD5E0"/>
<rect x="1838.53" y="718.834" width="13.1052" height="11.0804" rx="5.5402" fill="#CBD5E0"/>
<rect x="1419.16" y="718.465" width="13.1052" height="11.0804" rx="5.5402" fill="#CBD5E0"/>
<rect x="1698.74" y="718.834" width="13.1052" height="11.0804" rx="5.5402" fill="#CBD5E0"/>
<rect x="1524" y="719.204" width="13.1052" height="11.0804" rx="5.5402" fill="#CBD5E0"/>
<rect x="1244.42" y="719.204" width="13.1052" height="11.0804" rx="5.5402" fill="#CBD5E0"/>
<rect x="1803.58" y="719.573" width="13.1052" height="11.0804" rx="5.5402" fill="#CBD5E0"/>
<rect x="1384.21" y="719.204" width="13.1052" height="11.0804" rx="5.5402" fill="#CBD5E0"/>
<rect x="1663.79" y="719.573" width="13.1052" height="11.0804" rx="5.5402" fill="#CBD5E0"/>
<rect x="1593.89" y="718.834" width="13.1052" height="11.0804" rx="5.5402" fill="#CBD5E0"/>
<rect x="1314.32" y="718.834" width="13.1052" height="11.0804" rx="5.5402" fill="#CBD5E0"/>
<rect x="1873.47" y="719.204" width="13.1052" height="11.0804" rx="5.5402" fill="#CBD5E0"/>
<rect x="1454.11" y="718.834" width="13.1052" height="11.0804" rx="5.5402" fill="#CBD5E0"/>
<rect x="1733.68" y="719.204" width="13.1052" height="11.0804" rx="5.5402" fill="#CBD5E0"/>
<rect x="1506.53" y="718.834" width="13.1052" height="11.0804" rx="5.5402" fill="#CBD5E0"/>
<rect x="1226.95" y="718.834" width="13.1052" height="11.0804" rx="5.5402" fill="#CBD5E0"/>
<rect x="1786.1" y="719.204" width="13.1052" height="11.0804" rx="5.5402" fill="#CBD5E0"/>
<rect x="1366.74" y="718.834" width="13.1052" height="11.0804" rx="5.5402" fill="#CBD5E0"/>
<rect x="1646.32" y="719.204" width="13.1052" height="11.0804" rx="5.5402" fill="#CBD5E0"/>
<rect x="1576.42" y="718.465" width="13.1052" height="11.0804" rx="5.5402" fill="#CBD5E0"/>
<rect x="1296.84" y="718.465" width="13.1052" height="11.0804" rx="5.5402" fill="#CBD5E0"/>
<rect x="1856" y="718.834" width="13.1052" height="11.0804" rx="5.5402" fill="#CBD5E0"/>
<rect x="1436.63" y="718.465" width="13.1052" height="11.0804" rx="5.5402" fill="#CBD5E0"/>
<rect x="1716.21" y="718.834" width="13.1052" height="11.0804" rx="5.5402" fill="#CBD5E0"/>
<rect x="1541.47" y="719.204" width="13.1052" height="11.0804" rx="5.5402" fill="#CBD5E0"/>
<rect x="1261.89" y="719.204" width="13.1052" height="11.0804" rx="5.5402" fill="#CBD5E0"/>
<rect x="1821.05" y="719.573" width="13.1052" height="11.0804" rx="5.5402" fill="#CBD5E0"/>
<rect x="1401.68" y="719.204" width="13.1052" height="11.0804" rx="5.5402" fill="#CBD5E0"/>
<rect x="1681.26" y="719.573" width="13.1052" height="11.0804" rx="5.5402" fill="#CBD5E0"/>
<rect x="1611.37" y="718.834" width="13.1052" height="11.0804" rx="5.5402" fill="#CBD5E0"/>
<rect x="1331.79" y="718.834" width="13.1052" height="11.0804" rx="5.5402" fill="#CBD5E0"/>
<rect x="1471.58" y="718.834" width="13.1052" height="11.0804" rx="5.5402" fill="#CBD5E0"/>
<rect x="1192" y="718.834" width="13.1052" height="11.0804" rx="5.5402" fill="#CBD5E0"/>
<rect x="1751.16" y="719.204" width="13.1052" height="11.0804" rx="5.5402" fill="#CBD5E0"/>
<rect x="1821.05" y="1015.05" width="13.1052" height="11.0804" rx="5.5402" fill="#CBD5E0"/>
<rect x="1751.16" y="1029.45" width="13.1052" height="11.0804" rx="5.5402" fill="#CBD5E0"/>
<rect x="1489.05" y="571.095" width="13.1052" height="11.0804" rx="5.5402" fill="#CBD5E0"/>
<rect x="1768.63" y="571.465" width="13.1052" height="11.0804" rx="5.5402" fill="#CBD5E0"/>
<rect x="1558.95" y="570.726" width="13.1052" height="11.0804" rx="5.5402" fill="#CBD5E0"/>
<rect x="1419.16" y="570.726" width="13.1052" height="11.0804" rx="5.5402" fill="#CBD5E0"/>
<rect x="1524" y="571.465" width="13.1052" height="11.0804" rx="5.5402" fill="#CBD5E0"/>
<rect x="1593.89" y="571.095" width="13.1052" height="11.0804" rx="5.5402" fill="#CBD5E0"/>
<rect x="1454.11" y="571.095" width="13.1052" height="11.0804" rx="5.5402" fill="#CBD5E0"/>
<rect x="1733.68" y="571.465" width="13.1052" height="11.0804" rx="5.5402" fill="#CBD5E0"/>
<rect x="1506.53" y="571.095" width="13.1052" height="11.0804" rx="5.5402" fill="#CBD5E0"/>
<rect x="1576.42" y="570.726" width="13.1052" height="11.0804" rx="5.5402" fill="#CBD5E0"/>
<rect x="1436.63" y="570.726" width="13.1052" height="11.0804" rx="5.5402" fill="#CBD5E0"/>
<rect x="1716.21" y="571.095" width="13.1052" height="11.0804" rx="5.5402" fill="#CBD5E0"/>
<rect x="1541.47" y="571.465" width="13.1052" height="11.0804" rx="5.5402" fill="#CBD5E0"/>
<rect x="1751.16" y="571.465" width="13.1052" height="11.0804" rx="5.5402" fill="#CBD5E0"/>
<rect x="1768.63" y="866.942" width="13.1052" height="11.0804" rx="5.5402" fill="#CBD5E0"/>
<rect x="1349.26" y="866.573" width="13.1052" height="11.0804" rx="5.5402" fill="#CBD5E0"/>
<rect x="1908.42" y="866.942" width="13.1052" height="11.0804" rx="5.5402" fill="#CBD5E0"/>
<rect x="1628.84" y="866.942" width="13.1052" height="11.0804" rx="5.5402" fill="#CBD5E0"/>
<rect x="1558.95" y="866.204" width="13.1052" height="11.0804" rx="5.5402" fill="#CBD5E0"/>
<rect x="1279.37" y="866.204" width="13.1052" height="11.0804" rx="5.5402" fill="#CBD5E0"/>
<rect x="1838.53" y="866.573" width="13.1052" height="11.0804" rx="5.5402" fill="#CBD5E0"/>
<rect x="1419.16" y="866.204" width="13.1052" height="11.0804" rx="5.5402" fill="#CBD5E0"/>
<rect x="1698.74" y="866.573" width="13.1052" height="11.0804" rx="5.5402" fill="#CBD5E0"/>
<rect x="1524" y="866.942" width="13.1052" height="11.0804" rx="5.5402" fill="#CBD5E0"/>
<rect x="1244.42" y="866.942" width="13.1052" height="11.0804" rx="5.5402" fill="#CBD5E0"/>
<rect x="1226.95" y="866.942" width="13.1052" height="11.0804" rx="5.5402" fill="#4299E1"/>
<rect x="1803.58" y="867.312" width="13.1052" height="11.0804" rx="5.5402" fill="#CBD5E0"/>
<rect x="1384.21" y="866.942" width="13.1052" height="11.0804" rx="5.5402" fill="#CBD5E0"/>
<rect x="1663.79" y="867.312" width="13.1052" height="11.0804" rx="5.5402" fill="#CBD5E0"/>
<rect x="1593.89" y="866.573" width="13.1052" height="11.0804" rx="5.5402" fill="#CBD5E0"/>
<rect x="1314.32" y="866.573" width="13.1052" height="11.0804" rx="5.5402" fill="#CBD5E0"/>
<rect x="1873.47" y="866.942" width="13.1052" height="11.0804" rx="5.5402" fill="#CBD5E0"/>
<rect x="1454.11" y="866.573" width="13.1052" height="11.0804" rx="5.5402" fill="#CBD5E0"/>
<rect x="1733.68" y="866.942" width="13.1052" height="11.0804" rx="5.5402" fill="#CBD5E0"/>
<rect x="1786.1" y="866.942" width="13.1052" height="11.0804" rx="5.5402" fill="#CBD5E0"/>
<rect x="1366.74" y="866.573" width="13.1052" height="11.0804" rx="5.5402" fill="#CBD5E0"/>
<rect x="1646.32" y="866.942" width="13.1052" height="11.0804" rx="5.5402" fill="#CBD5E0"/>
<rect x="1576.42" y="866.204" width="13.1052" height="11.0804" rx="5.5402" fill="#CBD5E0"/>
<rect x="1296.84" y="866.204" width="13.1052" height="11.0804" rx="5.5402" fill="#CBD5E0"/>
<rect x="1856" y="866.573" width="13.1052" height="11.0804" rx="5.5402" fill="#CBD5E0"/>
<rect x="1436.63" y="866.204" width="13.1052" height="11.0804" rx="5.5402" fill="#CBD5E0"/>
<rect x="1716.21" y="866.573" width="13.1052" height="11.0804" rx="5.5402" fill="#CBD5E0"/>
<rect x="1541.47" y="866.942" width="13.1052" height="11.0804" rx="5.5402" fill="#CBD5E0"/>
<rect x="1261.89" y="866.942" width="13.1052" height="11.0804" rx="5.5402" fill="#CBD5E0"/>
<rect x="1821.05" y="867.312" width="13.1052" height="11.0804" rx="5.5402" fill="#CBD5E0"/>
<rect x="1401.68" y="866.942" width="13.1052" height="11.0804" rx="5.5402" fill="#CBD5E0"/>
<rect x="1681.26" y="867.312" width="13.1052" height="11.0804" rx="5.5402" fill="#CBD5E0"/>
<rect x="1611.37" y="866.573" width="13.1052" height="11.0804" rx="5.5402" fill="#CBD5E0"/>
<rect x="1331.79" y="866.573" width="13.1052" height="11.0804" rx="5.5402" fill="#CBD5E0"/>
<rect x="1890.95" y="866.942" width="13.1052" height="11.0804" rx="5.5402" fill="#CBD5E0"/>
<rect x="1471.58" y="866.573" width="13.1052" height="11.0804" rx="5.5402" fill="#CBD5E0"/>
<rect x="1751.16" y="866.942" width="13.1052" height="11.0804" rx="5.5402" fill="#CBD5E0"/>
<rect x="1716.21" y="512" width="13.1052" height="11.0804" rx="5.5402" fill="#CBD5E0"/>
<rect x="1489.05" y="807.477" width="13.1052" height="11.0804" rx="5.5402" fill="#CBD5E0"/>
<rect x="1209.47" y="807.477" width="13.1052" height="11.0804" rx="5.5402" fill="#CBD5E0"/>
<rect x="1768.63" y="807.847" width="13.1052" height="11.0804" rx="5.5402" fill="#CBD5E0"/>
<rect x="1349.26" y="807.477" width="13.1052" height="11.0804" rx="5.5402" fill="#CBD5E0"/>
<rect x="1908.42" y="807.847" width="13.1052" height="11.0804" rx="5.5402" fill="#CBD5E0"/>
<rect x="1628.84" y="807.847" width="13.1052" height="11.0804" rx="5.5402" fill="#CBD5E0"/>
<rect x="1558.95" y="807.108" width="13.1052" height="11.0804" rx="5.5402" fill="#CBD5E0"/>
<rect x="1279.37" y="807.108" width="13.1052" height="11.0804" rx="5.5402" fill="#CBD5E0"/>
<rect x="1838.53" y="807.477" width="13.1052" height="11.0804" rx="5.5402" fill="#CBD5E0"/>
<rect x="1419.16" y="807.108" width="13.1052" height="11.0804" rx="5.5402" fill="#CBD5E0"/>
<rect x="1698.74" y="807.477" width="13.1052" height="11.0804" rx="5.5402" fill="#CBD5E0"/>
<rect x="1524" y="807.847" width="13.1052" height="11.0804" rx="5.5402" fill="#CBD5E0"/>
<rect x="1244.42" y="807.847" width="13.1052" height="11.0804" rx="5.5402" fill="#CBD5E0"/>
<rect x="1803.58" y="808.216" width="13.1052" height="11.0804" rx="5.5402" fill="#CBD5E0"/>
<rect x="1384.21" y="807.847" width="13.1052" height="11.0804" rx="5.5402" fill="#CBD5E0"/>
<rect x="1663.79" y="808.216" width="13.1052" height="11.0804" rx="5.5402" fill="#CBD5E0"/>
<rect x="1593.89" y="807.477" width="13.1052" height="11.0804" rx="5.5402" fill="#CBD5E0"/>
<rect x="1314.32" y="807.477" width="13.1052" height="11.0804" rx="5.5402" fill="#CBD5E0"/>
<rect x="1873.47" y="807.847" width="13.1052" height="11.0804" rx="5.5402" fill="#CBD5E0"/>
<rect x="1454.11" y="807.477" width="13.1052" height="11.0804" rx="5.5402" fill="#CBD5E0"/>
<rect x="1733.68" y="807.847" width="13.1052" height="11.0804" rx="5.5402" fill="#CBD5E0"/>
<rect x="1506.53" y="807.477" width="13.1052" height="11.0804" rx="5.5402" fill="#CBD5E0"/>
<rect x="1226.95" y="807.477" width="13.1052" height="11.0804" rx="5.5402" fill="#CBD5E0"/>
<rect x="1786.1" y="807.847" width="13.1052" height="11.0804" rx="5.5402" fill="#CBD5E0"/>
<rect x="1366.74" y="807.477" width="13.1052" height="11.0804" rx="5.5402" fill="#CBD5E0"/>
<rect x="1925.89" y="807.847" width="13.1052" height="11.0804" rx="5.5402" fill="#CBD5E0"/>
<rect x="1646.32" y="807.847" width="13.1052" height="11.0804" rx="5.5402" fill="#CBD5E0"/>
<rect x="1576.42" y="807.108" width="13.1052" height="11.0804" rx="5.5402" fill="#CBD5E0"/>
<rect x="1296.84" y="807.108" width="13.1052" height="11.0804" rx="5.5402" fill="#CBD5E0"/>
<rect x="1856" y="807.477" width="13.1052" height="11.0804" rx="5.5402" fill="#CBD5E0"/>
<rect x="1436.63" y="807.108" width="13.1052" height="11.0804" rx="5.5402" fill="#CBD5E0"/>
<rect x="1716.21" y="807.477" width="13.1052" height="11.0804" rx="5.5402" fill="#CBD5E0"/>
<rect x="1541.47" y="807.847" width="13.1052" height="11.0804" rx="5.5402" fill="#CBD5E0"/>
<rect x="1261.89" y="807.847" width="13.1052" height="11.0804" rx="5.5402" fill="#CBD5E0"/>
<rect x="1821.05" y="808.216" width="13.1052" height="11.0804" rx="5.5402" fill="#CBD5E0"/>
<rect x="1401.68" y="807.847" width="13.1052" height="11.0804" rx="5.5402" fill="#CBD5E0"/>
<rect x="1681.26" y="808.216" width="13.1052" height="11.0804" rx="5.5402" fill="#CBD5E0"/>
<rect x="1611.37" y="807.477" width="13.1052" height="11.0804" rx="5.5402" fill="#CBD5E0"/>
<rect x="1331.79" y="807.477" width="13.1052" height="11.0804" rx="5.5402" fill="#CBD5E0"/>
<rect x="1890.95" y="807.847" width="13.1052" height="11.0804" rx="5.5402" fill="#CBD5E0"/>
<rect x="1471.58" y="807.477" width="13.1052" height="11.0804" rx="5.5402" fill="#CBD5E0"/>
<rect x="1751.16" y="807.847" width="13.1052" height="11.0804" rx="5.5402" fill="#CBD5E0"/>
<rect x="1489.05" y="689.286" width="13.1052" height="11.0804" rx="5.5402" fill="#CBD5E0"/>
<rect x="1768.63" y="689.656" width="13.1052" height="11.0804" rx="5.5402" fill="#CBD5E0"/>
<rect x="1349.26" y="689.286" width="13.1052" height="11.0804" rx="5.5402" fill="#CBD5E0"/>
<rect x="1628.84" y="689.656" width="13.1052" height="11.0804" rx="5.5402" fill="#CBD5E0"/>
<rect x="1558.95" y="688.917" width="13.1052" height="11.0804" rx="5.5402" fill="#CBD5E0"/>
<rect x="1279.37" y="688.917" width="13.1052" height="11.0804" rx="5.5402" fill="#CBD5E0"/>
<rect x="1838.53" y="689.286" width="13.1052" height="11.0804" rx="5.5402" fill="#CBD5E0"/>
<rect x="1419.16" y="688.917" width="13.1052" height="11.0804" rx="5.5402" fill="#CBD5E0"/>
<rect x="1698.74" y="689.286" width="13.1052" height="11.0804" rx="5.5402" fill="#CBD5E0"/>
<rect x="1524" y="689.656" width="13.1052" height="11.0804" rx="5.5402" fill="#CBD5E0"/>
<rect x="1244.42" y="689.656" width="13.1052" height="11.0804" rx="5.5402" fill="#CBD5E0"/>
<rect x="1803.58" y="690.025" width="13.1052" height="11.0804" rx="5.5402" fill="#CBD5E0"/>
<rect x="1384.21" y="689.656" width="13.1052" height="11.0804" rx="5.5402" fill="#CBD5E0"/>
<rect x="1663.79" y="690.025" width="13.1052" height="11.0804" rx="5.5402" fill="#CBD5E0"/>
<rect x="1593.89" y="689.286" width="13.1052" height="11.0804" rx="5.5402" fill="#CBD5E0"/>
<rect x="1314.32" y="689.286" width="13.1052" height="11.0804" rx="5.5402" fill="#CBD5E0"/>
<rect x="1454.11" y="689.286" width="13.1052" height="11.0804" rx="5.5402" fill="#CBD5E0"/>
<rect x="1733.68" y="689.656" width="13.1052" height="11.0804" rx="5.5402" fill="#CBD5E0"/>
<rect x="1506.53" y="689.286" width="13.1052" height="11.0804" rx="5.5402" fill="#CBD5E0"/>
<rect x="1226.95" y="689.286" width="13.1052" height="11.0804" rx="5.5402" fill="#CBD5E0"/>
<rect x="1786.1" y="689.656" width="13.1052" height="11.0804" rx="5.5402" fill="#CBD5E0"/>
<rect x="1366.74" y="689.286" width="13.1052" height="11.0804" rx="5.5402" fill="#CBD5E0"/>
<rect x="1646.32" y="689.656" width="13.1052" height="11.0804" rx="5.5402" fill="#CBD5E0"/>
<rect x="1576.42" y="688.917" width="13.1052" height="11.0804" rx="5.5402" fill="#CBD5E0"/>
<rect x="1296.84" y="688.917" width="13.1052" height="11.0804" rx="5.5402" fill="#CBD5E0"/>
<rect x="1856" y="689.286" width="13.1052" height="11.0804" rx="5.5402" fill="#CBD5E0"/>
<rect x="1436.63" y="688.917" width="13.1052" height="11.0804" rx="5.5402" fill="#CBD5E0"/>
<rect x="1716.21" y="689.286" width="13.1052" height="11.0804" rx="5.5402" fill="#CBD5E0"/>
<rect x="1541.47" y="689.656" width="13.1052" height="11.0804" rx="5.5402" fill="#CBD5E0"/>
<rect x="1261.89" y="689.656" width="13.1052" height="11.0804" rx="5.5402" fill="#CBD5E0"/>
<rect x="1821.05" y="690.025" width="13.1052" height="11.0804" rx="5.5402" fill="#CBD5E0"/>
<rect x="1401.68" y="689.656" width="13.1052" height="11.0804" rx="5.5402" fill="#CBD5E0"/>
<rect x="1681.26" y="690.025" width="13.1052" height="11.0804" rx="5.5402" fill="#CBD5E0"/>
<rect x="1611.37" y="689.286" width="13.1052" height="11.0804" rx="5.5402" fill="#CBD5E0"/>
<rect x="1331.79" y="689.286" width="13.1052" height="11.0804" rx="5.5402" fill="#CBD5E0"/>
<rect x="1471.58" y="689.286" width="13.1052" height="11.0804" rx="5.5402" fill="#CBD5E0"/>
<rect x="1751.16" y="689.656" width="13.1052" height="11.0804" rx="5.5402" fill="#CBD5E0"/>
<rect x="1698.74" y="984.764" width="13.1052" height="11.0804" rx="5.5402" fill="#CBD5E0"/>
<rect x="1803.58" y="985.502" width="13.1052" height="11.0804" rx="5.5402" fill="#CBD5E0"/>
<rect x="1733.68" y="985.133" width="13.1052" height="11.0804" rx="5.5402" fill="#CBD5E0"/>
<rect x="1786.1" y="985.133" width="13.1052" height="11.0804" rx="5.5402" fill="#CBD5E0"/>
<rect x="1716.21" y="984.764" width="13.1052" height="11.0804" rx="5.5402" fill="#CBD5E0"/>
<rect x="1821.05" y="985.502" width="13.1052" height="11.0804" rx="5.5402" fill="#CBD5E0"/>
<rect x="1751.16" y="985.133" width="13.1052" height="11.0804" rx="5.5402" fill="#CBD5E0"/>
<rect x="1803.58" y="1088.92" width="13.1052" height="11.0804" rx="5.5402" fill="#4299E1"/>
<rect x="1786.1" y="1088.55" width="13.1052" height="11.0804" rx="5.5402" fill="#CBD5E0"/>
<rect x="1489.05" y="630.191" width="13.1052" height="11.0804" rx="5.5402" fill="#CBD5E0"/>
<rect x="1768.63" y="630.56" width="13.1052" height="11.0804" rx="5.5402" fill="#CBD5E0"/>
<rect x="1349.26" y="630.191" width="13.1052" height="11.0804" rx="5.5402" fill="#CBD5E0"/>
<rect x="1628.84" y="630.56" width="13.1052" height="11.0804" rx="5.5402" fill="#CBD5E0"/>
<rect x="1558.95" y="629.822" width="13.1052" height="11.0804" rx="5.5402" fill="#CBD5E0"/>
<rect x="1419.16" y="629.822" width="13.1052" height="11.0804" rx="5.5402" fill="#CBD5E0"/>
<rect x="1698.74" y="630.191" width="13.1052" height="11.0804" rx="5.5402" fill="#CBD5E0"/>
<rect x="1524" y="630.56" width="13.1052" height="11.0804" rx="5.5402" fill="#CBD5E0"/>
<rect x="1384.21" y="630.56" width="13.1052" height="11.0804" rx="5.5402" fill="#CBD5E0"/>
<rect x="1663.79" y="630.93" width="13.1052" height="11.0804" rx="5.5402" fill="#CBD5E0"/>
<rect x="1593.89" y="630.191" width="13.1052" height="11.0804" rx="5.5402" fill="#CBD5E0"/>
<rect x="1454.11" y="630.191" width="13.1052" height="11.0804" rx="5.5402" fill="#CBD5E0"/>
<rect x="1733.68" y="630.56" width="13.1052" height="11.0804" rx="5.5402" fill="#CBD5E0"/>
<rect x="1506.53" y="630.191" width="13.1052" height="11.0804" rx="5.5402" fill="#CBD5E0"/>
<rect x="1786.1" y="630.56" width="13.1052" height="11.0804" rx="5.5402" fill="#CBD5E0"/>
<rect x="1366.74" y="630.191" width="13.1052" height="11.0804" rx="5.5402" fill="#CBD5E0"/>
<rect x="1646.32" y="630.56" width="13.1052" height="11.0804" rx="5.5402" fill="#CBD5E0"/>
<rect x="1576.42" y="629.822" width="13.1052" height="11.0804" rx="5.5402" fill="#CBD5E0"/>
<rect x="1436.63" y="629.822" width="13.1052" height="11.0804" rx="5.5402" fill="#CBD5E0"/>
<rect x="1716.21" y="630.191" width="13.1052" height="11.0804" rx="5.5402" fill="#CBD5E0"/>
<rect x="1541.47" y="630.56" width="13.1052" height="11.0804" rx="5.5402" fill="#CBD5E0"/>
<rect x="1401.68" y="630.56" width="13.1052" height="11.0804" rx="5.5402" fill="#CBD5E0"/>
<rect x="1681.26" y="630.93" width="13.1052" height="11.0804" rx="5.5402" fill="#CBD5E0"/>
<rect x="1611.37" y="630.191" width="13.1052" height="11.0804" rx="5.5402" fill="#CBD5E0"/>
<rect x="1471.58" y="630.191" width="13.1052" height="11.0804" rx="5.5402" fill="#CBD5E0"/>
<rect x="1751.16" y="630.56" width="13.1052" height="11.0804" rx="5.5402" fill="#CBD5E0"/>
<rect x="1768.63" y="926.038" width="13.1052" height="11.0804" rx="5.5402" fill="#CBD5E0"/>
<rect x="1628.84" y="926.038" width="13.1052" height="11.0804" rx="5.5402" fill="#CBD5E0"/>
<rect x="1838.53" y="925.668" width="13.1052" height="11.0804" rx="5.5402" fill="#CBD5E0"/>
<rect x="1698.74" y="925.668" width="13.1052" height="11.0804" rx="5.5402" fill="#CBD5E0"/>
<rect x="1244.42" y="926.038" width="13.1052" height="11.0804" rx="5.5402" fill="#CBD5E0"/>
<rect x="1803.58" y="926.407" width="13.1052" height="11.0804" rx="5.5402" fill="#CBD5E0"/>
<rect x="1663.79" y="926.407" width="13.1052" height="11.0804" rx="5.5402" fill="#4299E1"/>
<rect x="1873.47" y="926.038" width="13.1052" height="11.0804" rx="5.5402" fill="#CBD5E0"/>
<rect x="1733.68" y="926.038" width="13.1052" height="11.0804" rx="5.5402" fill="#CBD5E0"/>
<rect x="1786.1" y="926.038" width="13.1052" height="11.0804" rx="5.5402" fill="#CBD5E0"/>
<rect x="1856" y="925.668" width="13.1052" height="11.0804" rx="5.5402" fill="#4299E1"/>
<rect x="1716.21" y="925.668" width="13.1052" height="11.0804" rx="5.5402" fill="#CBD5E0"/>
<rect x="1261.89" y="926.038" width="13.1052" height="11.0804" rx="5.5402" fill="#CBD5E0"/>
<rect x="1821.05" y="926.407" width="13.1052" height="11.0804" rx="5.5402" fill="#CBD5E0"/>
<rect x="1681.26" y="926.407" width="13.1052" height="11.0804" rx="5.5402" fill="#CBD5E0"/>
<rect x="1751.16" y="926.038" width="13.1052" height="11.0804" rx="5.5402" fill="#CBD5E0"/>
<rect x="1489.05" y="748.382" width="13.1052" height="11.0804" rx="5.5402" fill="#CBD5E0"/>
<rect x="1209.47" y="748.382" width="13.1052" height="11.0804" rx="5.5402" fill="#CBD5E0"/>
<rect x="1768.63" y="748.751" width="13.1052" height="11.0804" rx="5.5402" fill="#CBD5E0"/>
<rect x="1349.26" y="748.382" width="13.1052" height="11.0804" rx="5.5402" fill="#CBD5E0"/>
<rect x="1908.42" y="748.751" width="13.1052" height="11.0804" rx="5.5402" fill="#CBD5E0"/>
<rect x="1628.84" y="748.751" width="13.1052" height="11.0804" rx="5.5402" fill="#CBD5E0"/>
<rect x="1558.95" y="748.013" width="13.1052" height="11.0804" rx="5.5402" fill="#CBD5E0"/>
<rect x="1279.37" y="748.013" width="13.1052" height="11.0804" rx="5.5402" fill="#CBD5E0"/>
<rect x="1838.53" y="748.382" width="13.1052" height="11.0804" rx="5.5402" fill="#CBD5E0"/>
<rect x="1419.16" y="748.013" width="13.1052" height="11.0804" rx="5.5402" fill="#CBD5E0"/>
<rect x="1698.74" y="748.382" width="13.1052" height="11.0804" rx="5.5402" fill="#CBD5E0"/>
<rect x="1524" y="748.751" width="13.1052" height="11.0804" rx="5.5402" fill="#CBD5E0"/>
<rect x="1244.42" y="748.751" width="13.1052" height="11.0804" rx="5.5402" fill="#CBD5E0"/>
<rect x="1803.58" y="749.121" width="13.1052" height="11.0804" rx="5.5402" fill="#CBD5E0"/>
<rect x="1384.21" y="748.751" width="13.1052" height="11.0804" rx="5.5402" fill="#CBD5E0"/>
<rect x="1663.79" y="749.121" width="13.1052" height="11.0804" rx="5.5402" fill="#CBD5E0"/>
<rect x="1593.89" y="748.382" width="13.1052" height="11.0804" rx="5.5402" fill="#CBD5E0"/>
<rect x="1314.32" y="748.382" width="13.1052" height="11.0804" rx="5.5402" fill="#CBD5E0"/>
<rect x="1873.47" y="748.751" width="13.1052" height="11.0804" rx="5.5402" fill="#CBD5E0"/>
<rect x="1454.11" y="748.382" width="13.1052" height="11.0804" rx="5.5402" fill="#CBD5E0"/>
<rect x="1733.68" y="748.751" width="13.1052" height="11.0804" rx="5.5402" fill="#CBD5E0"/>
<rect x="1506.53" y="748.382" width="13.1052" height="11.0804" rx="5.5402" fill="#CBD5E0"/>
<rect x="1226.95" y="748.382" width="13.1052" height="11.0804" rx="5.5402" fill="#CBD5E0"/>
<rect x="1786.1" y="748.751" width="13.1052" height="11.0804" rx="5.5402" fill="#CBD5E0"/>
<rect x="1366.74" y="748.382" width="13.1052" height="11.0804" rx="5.5402" fill="#CBD5E0"/>
<rect x="1925.89" y="748.751" width="13.1052" height="11.0804" rx="5.5402" fill="#CBD5E0"/>
<rect x="1646.32" y="748.751" width="13.1052" height="11.0804" rx="5.5402" fill="#CBD5E0"/>
<rect x="1576.42" y="748.013" width="13.1052" height="11.0804" rx="5.5402" fill="#CBD5E0"/>
<rect x="1296.84" y="748.013" width="13.1052" height="11.0804" rx="5.5402" fill="#CBD5E0"/>
<rect x="1856" y="748.382" width="13.1052" height="11.0804" rx="5.5402" fill="#CBD5E0"/>
<rect x="1436.63" y="748.013" width="13.1052" height="11.0804" rx="5.5402" fill="#CBD5E0"/>
<rect x="1716.21" y="748.382" width="13.1052" height="11.0804" rx="5.5402" fill="#CBD5E0"/>
<rect x="1541.47" y="748.751" width="13.1052" height="11.0804" rx="5.5402" fill="#CBD5E0"/>
<rect x="1261.89" y="748.751" width="13.1052" height="11.0804" rx="5.5402" fill="#CBD5E0"/>
<rect x="1821.05" y="749.121" width="13.1052" height="11.0804" rx="5.5402" fill="#CBD5E0"/>
<rect x="1401.68" y="748.751" width="13.1052" height="11.0804" rx="5.5402" fill="#CBD5E0"/>
<rect x="1681.26" y="749.121" width="13.1052" height="11.0804" rx="5.5402" fill="#CBD5E0"/>
<rect x="1611.37" y="748.382" width="13.1052" height="11.0804" rx="5.5402" fill="#CBD5E0"/>
<rect x="1331.79" y="748.382" width="13.1052" height="11.0804" rx="5.5402" fill="#CBD5E0"/>
<rect x="1890.95" y="748.751" width="13.1052" height="11.0804" rx="5.5402" fill="#CBD5E0"/>
<rect x="1471.58" y="748.382" width="13.1052" height="11.0804" rx="5.5402" fill="#CBD5E0"/>
<rect x="1751.16" y="748.751" width="13.1052" height="11.0804" rx="5.5402" fill="#CBD5E0"/>
<rect x="1768.63" y="1044.23" width="13.1052" height="11.0804" rx="5.5402" fill="#CBD5E0"/>
<rect x="1821.05" y="1044.6" width="13.1052" height="11.0804" rx="5.5402" fill="#CBD5E0"/>
<rect x="525.999" y="583" width="591" height="100" rx="30" fill="#EDF2F7"/>
<rect x="525.999" y="730" width="1057" height="256" rx="10" fill="#E2E8F0"/>
<rect x="1042" y="1033" width="150" height="40" rx="20" fill="#EDF2F7"/>
<defs>
<filter id="filter0_d" x="106.999" y="125" width="2020" height="1180" filterUnits="userSpaceOnUse" color-interpolation-filters="sRGB">
<feFlood flood-opacity="0" result="BackgroundImageFix"/>
<feColorMatrix in="SourceAlpha" type="matrix" values="0 0 0 0 0 0 0 0 0 0 0 0 0 0 0 0 0 0 127 0"/>
<feOffset dy="25"/>
<feGaussianBlur stdDeviation="25"/>
<feColorMatrix type="matrix" values="0 0 0 0 0 0 0 0 0 0 0 0 0 0 0 0 0 0 0.25 0"/>
<feBlend mode="normal" in2="BackgroundImageFix" result="effect1_dropShadow"/>
<feBlend mode="normal" in="SourceGraphic" in2="effect1_dropShadow" result="shape"/>
</filter>
</defs>
</svg>
