<svg width="463" height="102" viewBox="0 0 463 102" fill="none" xmlns="http://www.w3.org/2000/svg">
<path d="M462.956 54.1656C462.949 54.4304 462.832 54.6832 462.627 54.8741C462.423 55.065 462.146 55.1801 461.852 55.1966C460.484 55.1948 459.162 55.636 458.127 56.439C457.066 57.6626 456.565 59.2041 456.728 60.748V70.9784C456.8 72.3602 456.561 73.7408 456.025 75.0376C455.488 76.3344 454.666 77.5207 453.607 78.5256C451.527 80.4201 448.386 81.3674 444.185 81.3674H440.093C439.786 81.3639 439.492 81.2528 439.275 81.0578C439.057 80.8627 438.934 80.5991 438.93 80.3232V74.4546C438.93 74.3175 438.96 74.1817 439.018 74.055C439.077 73.9283 439.162 73.8132 439.27 73.7162C439.378 73.6193 439.507 73.5424 439.648 73.4899C439.789 73.4374 439.94 73.4104 440.093 73.4104H440.873C442.444 73.3861 443.942 72.8087 445.043 71.8024C446.145 70.7962 446.762 69.4417 446.762 68.0308V59.2015C446.762 55.7385 448.008 53.3946 450.501 52.1698C450.686 52.0822 450.841 51.951 450.949 51.7903C451.057 51.6296 451.114 51.4454 451.114 51.2577C451.114 51.07 451.057 50.8859 450.949 50.7252C450.841 50.5645 450.686 50.4333 450.501 50.3457C448.008 49.1209 446.762 46.7726 446.762 43.3008V34.4714C446.762 33.0447 446.131 31.6764 445.007 30.6675C443.883 29.6587 442.359 29.0919 440.77 29.0919H440.137C439.831 29.0919 439.537 28.9837 439.32 28.7907C439.102 28.5978 438.978 28.3355 438.974 28.0609V22.1791C438.978 21.9044 439.102 21.6422 439.32 21.4493C439.537 21.2563 439.831 21.1481 440.137 21.1481H444.23C448.44 21.1481 451.581 22.091 453.652 23.9767C454.71 24.982 455.531 26.1684 456.068 27.4651C456.604 28.7618 456.844 30.1422 456.773 31.5239V41.7543C456.601 43.2867 457.103 44.8185 458.171 46.0236C459.21 46.8171 460.532 47.2487 461.896 47.2396C462.19 47.2561 462.467 47.3712 462.671 47.5621C462.876 47.753 462.993 48.0058 463 48.2706L462.956 54.1656Z" fill="#2D3748"/>
<path d="M18.9174 48.3631C18.9245 48.0962 19.0438 47.8415 19.2513 47.6503C19.4589 47.4591 19.7393 47.3454 20.0363 47.3321C21.399 47.3354 22.7188 46.9045 23.7609 46.1161C24.8238 44.9091 25.3203 43.3774 25.1448 41.8468V31.6164C25.0737 30.2347 25.3134 28.8543 25.8496 27.5576C26.3859 26.2609 27.2076 25.0745 28.2658 24.0692C30.3416 22.1791 33.492 21.2407 37.6877 21.2407H41.7804C41.9324 21.2389 42.0833 21.2643 42.2243 21.3153C42.3654 21.3663 42.4937 21.442 42.6019 21.5379C42.7101 21.6338 42.796 21.7481 42.8546 21.874C42.9132 22 42.9434 22.1351 42.9434 22.2716V28.1534C42.9434 28.2899 42.9132 28.4251 42.8546 28.5511C42.796 28.677 42.7101 28.7913 42.6019 28.8872C42.4937 28.9831 42.3654 29.0587 42.2243 29.1098C42.0833 29.1608 41.9324 29.1862 41.7804 29.1844H41.2209C39.6318 29.1844 38.1078 29.7512 36.9841 30.76C35.8605 31.7689 35.2292 33.1372 35.2292 34.564V43.3933C35.2292 46.8563 33.9876 49.2046 31.5046 50.4383C31.3153 50.5225 31.1559 50.6524 31.0445 50.8136C30.9332 50.9747 30.8741 51.1606 30.8741 51.3503C30.8741 51.5399 30.9332 51.7258 31.0445 51.887C31.1559 52.0481 31.3153 52.1781 31.5046 52.2623C33.9876 53.4959 35.2292 55.8399 35.2292 59.294V68.1234C35.2292 69.5501 35.8605 70.9184 36.9841 71.9273C38.1078 72.9362 39.6318 73.5029 41.2209 73.5029H41.854C42.1624 73.5029 42.4583 73.6129 42.6764 73.8088C42.8945 74.0046 43.017 74.2702 43.017 74.5471V80.4157C43.017 80.6927 42.8945 80.9583 42.6764 81.1541C42.4583 81.3499 42.1624 81.4599 41.854 81.4599H37.6877C33.492 81.4599 30.3268 80.5083 28.2658 78.6181C27.2069 77.6133 26.3847 76.4269 25.8485 75.1301C25.3122 73.8333 25.0728 72.4527 25.1448 71.0709V60.8008C25.3119 59.2587 24.8169 57.7175 23.7609 56.4919C22.723 55.694 21.4027 55.2536 20.0363 55.2495C19.7393 55.2362 19.4589 55.1225 19.2513 54.9313C19.0438 54.7401 18.9245 54.4854 18.9174 54.2185V48.3631Z" fill="#2D3748"/>
<path d="M51.806 70.0531C51.8153 69.7091 51.9738 69.3819 52.2476 69.1411C52.3752 69.0168 52.5299 68.9174 52.7021 68.8492C52.8744 68.7809 53.0604 68.7453 53.2487 68.7446H59.7705C59.9587 68.7453 60.1448 68.7809 60.317 68.8492C60.4893 68.9174 60.644 69.0168 60.7715 69.1411C61.0454 69.3819 61.2038 69.7091 61.2132 70.0531C61.185 70.5264 61.2856 70.9988 61.5062 71.4294C61.7267 71.86 62.0607 72.236 62.4793 72.5248C63.3937 73.0754 64.4698 73.3695 65.5708 73.3695C66.6719 73.3695 67.748 73.0754 68.6624 72.5248C69.08 72.2352 69.4133 71.8591 69.6338 71.4287C69.8543 70.9982 69.9554 70.5263 69.9285 70.0531V44.6886C69.9399 44.5987 69.9288 44.5077 69.896 44.4222C69.8633 44.3367 69.8097 44.2588 69.7392 44.1942C69.6687 44.1296 69.583 44.08 69.4884 44.0489C69.3938 44.0178 69.2927 44.0061 69.1924 44.0145H60.4771C60.2876 44.0165 60.0996 43.9835 59.9249 43.9175C59.7501 43.8516 59.5924 43.7541 59.4613 43.6312C59.3184 43.5142 59.205 43.3711 59.1288 43.2115C59.0527 43.0519 59.0154 42.8796 59.0196 42.706V36.877C59.029 36.533 59.1875 36.2058 59.4613 35.965C59.7295 35.7191 60.0939 35.5769 60.4771 35.5685H78.1432C78.4505 35.5719 78.7441 35.683 78.9614 35.8781C79.1787 36.0732 79.3024 36.3368 79.3063 36.6127V70.2117C79.325 71.7829 78.9726 73.3397 78.2722 74.7796C77.5718 76.2195 76.5394 77.5098 75.243 78.5652C73.9498 79.6029 72.4519 80.4143 70.8265 80.9576C67.4055 82.1384 63.6184 82.1384 60.1974 80.9576C58.5561 80.4068 57.0544 79.5664 55.7809 78.4859C54.5442 77.4128 53.5451 76.1391 52.8365 74.7321C52.1159 73.2589 51.7641 71.6617 51.806 70.0531V70.0531ZM69.634 29.9774V22.9457C69.6436 22.6781 69.7644 22.4235 69.9726 22.2319C70.0786 22.1268 70.2082 22.043 70.3528 21.9861C70.4974 21.9291 70.6539 21.9003 70.8118 21.9015H78.5996C78.7542 21.8988 78.9077 21.9257 79.0499 21.9804C79.192 22.0351 79.3196 22.1163 79.424 22.2187C79.637 22.4128 79.7583 22.6733 79.7626 22.9457V29.9774C79.7847 30.1192 79.7698 30.2636 79.7191 30.3993C79.6684 30.535 79.5834 30.6583 79.4707 30.7595C79.358 30.8607 79.2206 30.9371 79.0695 30.9825C78.9183 31.028 78.7575 31.0414 78.5996 31.0216H70.8118C70.6528 31.0437 70.4903 31.032 70.3372 30.9876C70.1841 30.9431 70.0448 30.8671 69.9303 30.7656C69.8158 30.6641 69.7294 30.54 69.678 30.4031C69.6265 30.2662 69.6115 30.1205 69.634 29.9774V29.9774Z" fill="#3182CE"/>
<path d="M88.1835 54.4828C88.1835 53.6369 88.1835 52.7513 88.1835 51.8393C88.1835 50.9273 88.1835 50.0417 88.1835 49.1958C88.1835 48.3499 88.3013 47.5965 88.4043 46.9356C88.621 45.2955 89.1176 43.695 89.8765 42.1905C90.602 40.7344 91.6429 39.4224 92.9386 38.331C94.2444 37.2 95.7783 36.3028 97.4582 35.6874C99.3356 35.0363 101.334 34.7133 103.347 34.7358C105.393 34.708 107.427 35.031 109.339 35.6874C111.024 36.293 112.56 37.1913 113.858 38.331C115.129 39.4286 116.162 40.7282 116.906 42.1641C117.665 43.6639 118.161 45.26 118.378 46.8959C118.466 47.5568 118.54 48.3102 118.584 49.1561C118.628 50.0021 118.658 50.8876 118.658 51.7997C118.658 52.7117 118.658 53.5972 118.584 54.4432C118.51 55.2891 118.466 56.0425 118.378 56.6902C118.154 58.3333 117.658 59.9372 116.906 61.4485C116.169 62.8839 115.135 64.1803 113.858 65.2684C112.547 66.3995 111.008 67.2965 109.324 67.9119C107.447 68.564 105.448 68.887 103.435 68.8635C101.393 68.8926 99.3644 68.5695 97.4582 67.9119C95.7612 67.3033 94.2115 66.4056 92.8944 65.2684C91.6043 64.1858 90.5682 62.8825 89.847 61.4353C89.0918 59.9295 88.5954 58.3296 88.3749 56.6902C88.3307 56.0822 88.2424 55.3288 88.1835 54.4828ZM97.576 49.1958C97.576 50.0417 97.4582 50.9273 97.4582 51.8393C97.4582 52.7513 97.4582 53.6369 97.576 54.4828C97.6937 55.3288 97.7232 56.0954 97.8115 56.7562C97.9543 57.7791 98.5094 58.7195 99.372 59.3998C100.549 60.1372 101.975 60.4831 103.406 60.3779C104.847 60.4777 106.282 60.1275 107.469 59.3865C108.341 58.7098 108.907 57.7692 109.059 56.743C109.147 56.0822 109.221 55.3288 109.265 54.4696C109.309 53.6105 109.265 52.7381 109.265 51.8261C109.265 50.9141 109.265 50.0285 109.265 49.1826C109.265 48.3367 109.147 47.57 109.059 46.9092C108.907 45.883 108.341 44.9424 107.469 44.2656C106.283 43.5109 104.84 43.1553 103.391 43.2611C101.993 43.1507 100.594 43.4623 99.4162 44.1467C98.5239 44.8572 97.9486 45.8339 97.7968 46.8959C97.7232 47.5833 97.6349 48.3367 97.576 49.1958Z" fill="#3182CE"/>
<path d="M124.119 66.8016V36.877C124.119 36.5265 124.274 36.1903 124.551 35.9424C124.827 35.6945 125.201 35.5553 125.592 35.5553H129.228C129.579 35.5406 129.927 35.6188 130.229 35.78C130.488 35.9302 130.712 36.1231 130.891 36.3483C131.098 36.547 131.325 36.7284 131.569 36.8902C131.833 37.0505 132.148 37.1294 132.467 37.1149C132.983 37.1082 133.489 36.9855 133.939 36.7581L135.573 35.9782C136.234 35.6812 136.912 35.4164 137.605 35.1852C138.508 34.9264 139.454 34.8057 140.402 34.8283C142.217 34.817 144.016 35.1409 145.687 35.78C147.294 36.4071 148.753 37.3044 149.986 38.4235C151.207 39.5159 152.169 40.8201 152.812 42.2566C153.493 43.7634 153.838 45.3756 153.828 47.0017V66.828C153.828 67.1786 153.673 67.5148 153.397 67.7627C153.121 68.0105 152.746 68.1498 152.356 68.1498H145.893C145.502 68.1498 145.128 68.0105 144.852 67.7627C144.576 67.5148 144.421 67.1786 144.421 66.828V46.8827C144.421 46.3584 144.288 45.8409 144.033 45.3693C143.778 44.8976 143.407 44.4841 142.949 44.1599C141.789 43.37 140.352 42.9806 138.9 43.0628C137.471 42.9841 136.056 43.3532 134.896 44.107C134.444 44.3918 134.074 44.7696 133.818 45.2088C133.562 45.648 133.427 46.1358 133.424 46.6316V66.8016C133.424 67.1522 133.268 67.4883 132.992 67.7362C132.716 67.9841 132.342 68.1234 131.951 68.1234H125.562C125.172 68.1234 124.797 67.9841 124.521 67.7362C124.245 67.4883 124.09 67.1522 124.09 66.8016H124.119Z" fill="#3182CE"/>
<path d="M192.855 54.3771C192.855 53.5312 192.855 52.6588 192.855 51.7336C192.855 50.8083 192.855 49.936 192.855 49.0901C192.855 48.2441 192.855 47.4907 192.958 46.8431C193.088 45.1983 193.542 43.5873 194.298 42.0847C195.014 40.6618 196.011 39.3675 197.242 38.2649C198.449 37.1426 199.89 36.2444 201.482 35.6213C203.147 34.9797 204.941 34.6557 206.753 34.6697C207.837 34.6389 208.919 34.7593 209.962 35.0266C210.662 35.2408 211.346 35.4969 212.008 35.7932C212.568 36.0575 213.039 36.3087 213.481 36.5334C213.889 36.7791 214.373 36.9039 214.864 36.8902C215.241 36.8924 215.605 36.7647 215.88 36.5334C216.159 36.3177 216.425 36.0882 216.675 35.846C216.803 35.7146 216.959 35.6073 217.133 35.5301C217.307 35.453 217.497 35.4076 217.691 35.3966H221.313C221.703 35.3966 222.077 35.5359 222.354 35.7838C222.63 36.0317 222.785 36.3679 222.785 36.7184V69.9606C222.798 71.5624 222.432 73.1483 221.71 74.6132C221.005 76.0492 220.006 77.3539 218.766 78.4595C217.468 79.6056 215.925 80.5047 214.231 81.103C212.415 81.7347 210.482 82.0531 208.534 82.0415C206.669 82.049 204.814 81.7857 203.043 81.2616C201.394 80.781 199.857 80.0328 198.508 79.0543C197.224 78.1171 196.162 76.9573 195.387 75.6442C194.605 74.3081 194.205 72.8182 194.224 71.3088C194.234 70.9648 194.392 70.6376 194.666 70.3968C194.794 70.2724 194.948 70.173 195.121 70.1048C195.293 70.0366 195.479 70.001 195.667 70.0002H201.114C201.998 70.0002 202.498 70.1324 202.586 70.3968C202.751 70.7627 202.87 71.1439 202.94 71.5335C203.159 72.3597 203.73 73.076 204.53 73.5293C205.574 74.113 206.79 74.3988 208.019 74.3488C209.34 74.3604 210.629 73.9794 211.684 73.265C212.237 72.8777 212.674 72.3726 212.954 71.7956C213.234 71.2185 213.349 70.5878 213.289 69.9606V69.3262C213.289 68.282 212.877 67.7665 212.082 67.7665C211.738 67.7715 211.399 67.8343 211.081 67.9515L209.344 68.4802C208.499 68.6791 207.626 68.7681 206.753 68.7446C204.942 68.7574 203.147 68.4334 201.482 67.7929C198.272 66.5494 195.713 64.2514 194.328 61.3692C193.582 59.8718 193.124 58.2719 192.973 56.6373C192.914 55.9764 192.885 55.2362 192.855 54.3771ZM202.277 49.0901C202.277 49.936 202.277 50.8216 202.277 51.7336C202.277 52.6456 202.277 53.5179 202.277 54.3771C202.277 55.2362 202.277 55.9764 202.38 56.6373C202.46 57.6893 202.987 58.6736 203.853 59.3865C204.961 60.1978 206.372 60.5995 207.798 60.51C209.25 60.6108 210.693 60.2246 211.846 59.4262C212.284 59.0709 212.639 58.6418 212.892 58.1632C213.144 57.6847 213.289 57.1662 213.319 56.6373C213.319 55.9764 213.407 55.2362 213.436 54.3771C213.466 53.5179 213.436 52.6588 213.436 51.7336C213.436 50.8083 213.436 49.936 213.436 49.0901C213.436 48.2441 213.436 47.4907 213.319 46.8431C213.313 46.2967 213.18 45.7575 212.926 45.2609C212.672 44.7643 212.304 44.3215 211.846 43.9616C210.665 43.2199 209.236 42.8653 207.798 42.9571C206.364 42.8638 204.945 43.271 203.838 44.0938C202.976 44.8092 202.45 45.7921 202.366 46.8431C202.38 47.4907 202.38 48.2573 202.277 49.1033V49.0901Z" fill="#3182CE"/>
<path d="M228.335 58.0648C228.351 56.8669 228.621 55.6828 229.13 54.5753C229.69 53.3483 230.51 52.2306 231.544 51.2842C232.72 50.2275 234.116 49.3878 235.651 48.8125C237.469 48.1497 239.417 47.8259 241.378 47.8608H248.739C248.836 47.8733 248.936 47.8657 249.029 47.8387C249.123 47.8116 249.208 47.7658 249.279 47.7046C249.35 47.6435 249.405 47.5686 249.439 47.4858C249.473 47.4029 249.485 47.3142 249.475 47.2264V46.169C249.519 45.5921 249.396 45.0149 249.117 44.4937C248.838 43.9725 248.414 43.525 247.885 43.195C246.7 42.5059 245.306 42.1641 243.896 42.2169C243.433 42.2205 242.97 42.2514 242.512 42.3094C241.955 42.3706 241.407 42.4858 240.878 42.6531C240.368 42.8095 239.901 43.0618 239.509 43.3933C239.31 43.5625 239.155 43.7682 239.053 43.9963C238.952 44.2245 238.906 44.4696 238.92 44.715C238.92 45.2834 238.758 45.627 238.419 45.746C237.923 45.9005 237.398 45.9679 236.873 45.9443H231.353C231.153 45.9471 230.955 45.9134 230.77 45.8452C230.585 45.777 230.418 45.6758 230.278 45.5477C230.135 45.436 230.02 45.2979 229.941 45.1429C229.862 44.9878 229.822 44.8194 229.822 44.6489C229.82 43.3595 230.169 42.0892 230.837 40.948C231.545 39.7417 232.516 38.6761 233.693 37.8155C235.026 36.834 236.548 36.0812 238.184 35.5949C240.138 35.0287 242.181 34.752 244.234 34.7754C248.154 34.5973 252.018 35.6694 255.143 37.8022C256.529 38.8828 257.619 40.2354 258.328 41.755C259.038 43.2747 259.349 44.9207 259.236 46.5655V66.7091C259.236 66.8814 259.195 67.0519 259.117 67.2091C259.038 67.3664 258.923 67.5068 258.779 67.6211C258.64 67.7492 258.472 67.8504 258.287 67.9186C258.103 67.9867 257.904 68.0204 257.705 68.0176H253.906C253.7 68.0155 253.496 67.9744 253.309 67.897C253.121 67.8196 252.953 67.7075 252.817 67.5682C252.575 67.3241 252.385 67.0417 252.258 66.7355C252.14 66.4183 251.816 66.2729 251.286 66.2729C250.856 66.2963 250.442 66.4293 250.094 66.6562C249.637 66.9073 249.078 67.1849 248.401 67.4889C247.627 67.8409 246.818 68.1284 245.986 68.348C244.861 68.6336 243.695 68.7673 242.527 68.7446C238.8 68.961 235.108 67.9872 232.104 65.9953C230.836 65.0244 229.836 63.8031 229.182 62.4272C228.529 61.0513 228.238 59.5582 228.335 58.0648V58.0648ZM237.713 58.0648C237.674 58.5831 237.79 59.1014 238.049 59.566C238.308 60.0307 238.7 60.425 239.185 60.7083C240.188 61.2742 241.357 61.5594 242.541 61.5278C244.341 61.5846 246.129 61.249 247.753 60.5497C248.452 60.2074 249.024 59.6875 249.395 59.055C249.767 58.4226 249.923 57.7057 249.843 56.9941V55.4213C249.857 55.3333 249.848 55.2438 249.818 55.1592C249.788 55.0747 249.737 54.9972 249.669 54.9326C249.602 54.8679 249.519 54.8177 249.426 54.7857C249.334 54.7536 249.235 54.7404 249.137 54.7472H241.481C240.828 54.7198 240.178 54.8475 239.597 55.1173C239.146 55.3336 238.758 55.6413 238.463 56.016C238.207 56.3433 238.022 56.711 237.919 57.0999C237.813 57.4143 237.744 57.7376 237.713 58.0648V58.0648Z" fill="#3182CE"/>
<path d="M264.874 42.2037V36.9167C264.884 36.5726 265.042 36.2454 265.316 36.0046C265.584 35.7588 265.948 35.6165 266.332 35.6081H274.326C274.422 35.6217 274.52 35.6146 274.613 35.5875C274.705 35.5604 274.79 35.5141 274.859 35.4522C274.927 35.3904 274.979 35.3148 275.009 35.2316C275.039 35.1485 275.047 35.0601 275.032 34.9737V33.6519C275.017 32.0274 275.389 30.4187 276.122 28.9332C276.822 27.5144 277.822 26.2307 279.066 25.153C280.343 24.0666 281.843 23.2136 283.483 22.6417C285.176 22.0289 286.986 21.7191 288.812 21.7297H295.363C295.744 21.7346 296.108 21.872 296.379 22.113C296.522 22.2299 296.635 22.373 296.711 22.5326C296.787 22.6922 296.825 22.8646 296.82 23.0382V28.9861C296.82 29.3367 296.665 29.6729 296.389 29.9207C296.113 30.1686 295.739 30.3079 295.348 30.3079H288.797C287.672 30.2784 286.574 30.6272 285.72 31.286C285.296 31.6098 284.961 32.0164 284.739 32.4745C284.517 32.9327 284.414 33.4304 284.439 33.9295V35.1058C284.439 35.5288 284.69 35.7403 285.19 35.7403H296.055C296.438 35.7487 296.803 35.891 297.071 36.1368C297.345 36.3776 297.503 36.7048 297.512 37.0488V42.2037C297.512 42.5542 297.357 42.8904 297.081 43.1383C296.805 43.3862 296.431 43.5254 296.04 43.5254H285.176C285.078 43.5134 284.978 43.5211 284.884 43.5481C284.789 43.5751 284.703 43.6207 284.631 43.6816C284.559 43.7424 284.503 43.8169 284.468 43.8997C284.432 43.9825 284.417 44.0714 284.425 44.1599V66.7091C284.423 67.0494 284.276 67.3761 284.012 67.6211C283.741 67.8701 283.37 68.0126 282.982 68.0176H276.475C276.085 68.0176 275.71 67.8783 275.434 67.6305C275.158 67.3826 275.003 67.0464 275.003 66.6958V44.1202C275.018 44.0338 275.01 43.9454 274.98 43.8623C274.95 43.7791 274.898 43.7035 274.829 43.6417C274.76 43.5798 274.676 43.5335 274.583 43.5064C274.491 43.4793 274.392 43.4722 274.296 43.4858H266.302C265.912 43.4858 265.537 43.3465 265.261 43.0987C264.985 42.8508 264.83 42.5146 264.83 42.164L264.874 42.2037Z" fill="#3182CE"/>
<path d="M292.728 42.2037V36.9167C292.737 36.5726 292.896 36.2454 293.169 36.0047C293.438 35.7588 293.802 35.6165 294.185 35.6081H302.179C302.275 35.6217 302.374 35.6146 302.467 35.5875C302.559 35.5604 302.643 35.5141 302.712 35.4522C302.781 35.3904 302.833 35.3148 302.863 35.2316C302.893 35.1485 302.901 35.0601 302.886 34.9737V33.6519C302.868 32.0455 303.234 30.4544 303.961 28.9861C304.66 27.5668 305.66 26.283 306.905 25.2059C308.182 24.1195 309.682 23.2665 311.321 22.6946C313.015 22.0818 314.825 21.772 316.651 21.7825H323.202C323.578 21.7908 323.936 21.928 324.203 22.1659C324.348 22.2822 324.463 22.4248 324.542 22.5844C324.621 22.7439 324.661 22.9166 324.659 23.0911V28.9861C324.646 29.3321 324.482 29.6595 324.203 29.8981C324.075 30.0225 323.921 30.1219 323.748 30.1901C323.576 30.2583 323.39 30.2939 323.202 30.2947H316.651C315.525 30.2652 314.428 30.614 313.574 31.2728C313.152 31.5973 312.818 32.0043 312.599 32.4625C312.379 32.9208 312.28 33.4181 312.308 33.9163V35.0926C312.308 35.5156 312.543 35.7271 313.044 35.7271H323.909C324.299 35.7271 324.673 35.8663 324.95 36.1142C325.226 36.3621 325.381 36.6983 325.381 37.0488V42.2037C325.371 42.5477 325.213 42.8749 324.939 43.1157C324.671 43.3616 324.306 43.5038 323.923 43.5122H313.059C312.961 43.4998 312.862 43.5073 312.768 43.5344C312.675 43.5614 312.589 43.6073 312.518 43.6684C312.447 43.7296 312.393 43.8044 312.359 43.8873C312.325 43.9701 312.313 44.0588 312.323 44.1467V66.7091C312.317 67.0512 312.164 67.3782 311.896 67.6211C311.624 67.8701 311.253 68.0127 310.865 68.0176H304.358C303.968 68.0176 303.593 67.8784 303.317 67.6305C303.041 67.3826 302.886 67.0464 302.886 66.6959V44.1202C302.901 44.0338 302.893 43.9455 302.863 43.8623C302.833 43.7791 302.781 43.7035 302.712 43.6417C302.643 43.5799 302.559 43.5335 302.467 43.5064C302.374 43.4793 302.275 43.4723 302.179 43.4858H294.185C293.795 43.4858 293.42 43.3465 293.144 43.0987C292.868 42.8508 292.713 42.5146 292.713 42.164L292.728 42.2037Z" fill="#3182CE"/>
<path d="M332.094 66.7091V36.7845C332.094 36.4339 332.249 36.0977 332.525 35.8499C332.801 35.602 333.176 35.4627 333.566 35.4627H337.188C337.539 35.4465 337.887 35.5247 338.189 35.6874C338.447 35.8377 338.672 36.0305 338.851 36.2558C339.063 36.4549 339.295 36.6362 339.543 36.7977C339.807 36.958 340.123 37.0368 340.441 37.0224C340.958 37.018 341.464 36.8951 341.913 36.6655L343.547 35.8857C344.209 35.591 344.887 35.3263 345.579 35.0926C346.483 34.8338 347.428 34.7132 348.376 34.7358C350.197 34.7227 352.001 35.0466 353.676 35.6874C355.277 36.318 356.731 37.215 357.96 38.3309C359.186 39.4201 360.149 40.7251 360.787 42.164C361.467 43.6709 361.813 45.283 361.802 46.9091V66.7355C361.802 67.0861 361.647 67.4223 361.371 67.6701C361.095 67.918 360.721 68.0573 360.33 68.0573H353.867C353.477 68.0573 353.102 67.918 352.826 67.6701C352.55 67.4223 352.395 67.0861 352.395 66.7355V46.7902C352.395 46.2659 352.263 45.7484 352.008 45.2767C351.753 44.8051 351.382 44.3916 350.923 44.0674C349.764 43.2764 348.327 42.8869 346.874 42.9703C345.45 42.8914 344.039 43.2606 342.885 44.0145C342.434 44.3001 342.065 44.678 341.809 45.117C341.553 45.556 341.417 46.0435 341.413 46.5391V66.7091C341.413 67.0596 341.258 67.3958 340.982 67.6437C340.705 67.8916 340.331 68.0308 339.941 68.0308H333.551C333.161 68.0308 332.786 67.8916 332.51 67.6437C332.234 67.3958 332.079 67.0596 332.079 66.7091H332.094Z" fill="#3182CE"/>
<path d="M367.47 54.3771C367.47 53.5312 367.47 52.6588 367.47 51.7336C367.47 50.8083 367.47 49.936 367.47 49.0901C367.47 48.2441 367.588 47.4907 367.676 46.8431C367.911 45.194 368.432 43.5883 369.222 42.0847C369.972 40.6247 371.044 39.3162 372.373 38.2384C373.735 37.1084 375.317 36.2124 377.039 35.5949C378.996 34.9342 381.074 34.6113 383.164 34.6432C385.297 34.6185 387.421 34.9088 389.45 35.5024C391.267 36.0238 392.945 36.874 394.382 38.0005C395.786 39.1674 396.878 40.6043 397.576 42.2037C398.37 43.9474 398.756 45.819 398.71 47.7022V53.0421C398.71 53.2145 398.67 53.3849 398.591 53.5422C398.512 53.6994 398.397 53.8398 398.254 53.9541C398.106 54.0834 397.93 54.185 397.738 54.2531C397.546 54.3211 397.341 54.3543 397.135 54.3506H377.908C377.758 54.3306 377.605 54.3424 377.46 54.3851C377.316 54.4278 377.185 54.5003 377.078 54.5966C376.971 54.693 376.89 54.8106 376.842 54.9401C376.795 55.0695 376.782 55.2071 376.804 55.342C376.743 56.121 376.881 56.9023 377.208 57.6261C377.534 58.35 378.041 58.9973 378.688 59.5187C379.928 60.4443 381.493 60.9453 383.105 60.933C384.321 60.9616 385.53 60.7589 386.653 60.3382C387.663 59.8916 388.439 59.1093 388.817 58.1573C388.917 57.8303 389.134 57.5419 389.435 57.3365C389.735 57.1311 390.103 57.0201 390.48 57.0206H396.502C396.866 57.0192 397.22 57.1313 397.503 57.3378C397.797 57.5493 397.871 57.9194 397.738 58.4481C397.016 61.3258 395.3 63.9254 392.836 65.8764C390.1 67.8821 386.632 68.9042 383.105 68.7446C381.015 68.7766 378.937 68.4537 376.981 67.7929C375.258 67.1754 373.676 66.2794 372.314 65.1494C370.985 64.0744 369.918 62.765 369.178 61.3031C368.407 59.8014 367.881 58.2077 367.618 56.5712C367.588 55.9764 367.515 55.2362 367.47 54.3771ZM376.878 46.5391C376.878 46.9092 377.128 47.1206 377.614 47.1339H388.596C389.067 47.1339 389.303 46.9356 389.303 46.5391C389.321 45.8976 389.148 45.2634 388.802 44.7018C388.488 44.162 388.021 43.706 387.448 43.3801C386.828 43.0501 386.159 42.8009 385.46 42.6399C384.712 42.456 383.94 42.3626 383.164 42.3623C381.503 42.261 379.852 42.656 378.468 43.4858C377.944 43.8385 377.525 44.3016 377.248 44.834C376.97 45.3665 376.843 45.9521 376.878 46.5391V46.5391Z" fill="#3182CE"/>
<path d="M401.227 36.9167C401.207 36.7896 401.207 36.6604 401.227 36.5334C401.225 36.3165 401.297 36.1042 401.433 35.9253C401.572 35.7514 401.76 35.6133 401.977 35.5251C402.194 35.4369 402.433 35.4017 402.67 35.4231H410.134C410.456 35.4139 410.771 35.5069 411.024 35.6858C411.278 35.8647 411.452 36.118 411.518 36.4012L417.892 54.9058C417.981 55.1701 418.128 55.3023 418.334 55.3023C418.54 55.3023 418.687 55.1701 418.776 54.9058L424.664 36.4012C424.715 36.1164 424.882 35.8587 425.132 35.6779C425.382 35.4972 425.698 35.4064 426.019 35.4231H433.38C433.617 35.4017 433.856 35.4369 434.073 35.5251C434.29 35.6133 434.478 35.7514 434.616 35.9253C434.757 36.1031 434.834 36.3152 434.837 36.5334C434.834 36.6637 434.809 36.7929 434.764 36.9167L417.745 80.0059C417.68 80.2903 417.506 80.5452 417.253 80.7263C417 80.9074 416.685 81.0032 416.361 80.9973H409.707C409.47 81.0186 409.231 80.9834 409.014 80.8952C408.797 80.8071 408.609 80.669 408.47 80.495C408.354 80.347 408.28 80.1756 408.254 79.9959C408.229 79.8162 408.252 79.6336 408.323 79.464L413.388 67.3303C413.476 67.0263 413.535 66.8016 413.564 66.643C413.557 66.3757 413.497 66.1117 413.388 65.8632L401.227 36.9167Z" fill="#3182CE"/>
<path d="M161.949 66.2336V59.2019C161.959 58.9343 162.08 58.6796 162.288 58.4881C162.39 58.3819 162.517 58.2973 162.659 58.2401C162.802 58.183 162.956 58.1549 163.112 58.1577H170.9C171.057 58.1539 171.213 58.1803 171.358 58.235C171.503 58.2897 171.633 58.3715 171.739 58.4749C171.955 58.6674 172.077 58.9288 172.078 59.2019V66.2336C172.101 66.3766 172.086 66.5224 172.034 66.6593C171.983 66.7961 171.896 66.9203 171.782 67.0218C171.667 67.1232 171.528 67.1993 171.375 67.2437C171.222 67.2882 171.059 67.2999 170.9 67.2778H163.112C162.955 67.2976 162.794 67.2842 162.643 67.2387C162.491 67.1932 162.354 67.1169 162.241 67.0157C162.129 66.9145 162.044 66.7912 161.993 66.6555C161.942 66.5198 161.927 66.3754 161.949 66.2336Z" fill="#2D3748"/>
<path d="M161.949 49.0508V42.019C161.959 41.7515 162.08 41.4968 162.288 41.3053C162.39 41.1991 162.517 41.1144 162.659 41.0573C162.802 41.0002 162.956 40.972 163.112 40.9748H170.9C171.057 40.9711 171.213 40.9975 171.358 41.0522C171.503 41.1069 171.633 41.1886 171.739 41.292C171.955 41.4845 172.077 41.746 172.078 42.019V49.0508C172.101 49.1938 172.086 49.3395 172.034 49.4764C171.983 49.6133 171.896 49.7374 171.782 49.8389C171.667 49.9404 171.528 50.0164 171.375 50.0609C171.222 50.1053 171.059 50.117 170.9 50.0949H163.112C162.955 50.1147 162.794 50.1013 162.643 50.0559C162.491 50.0104 162.354 49.934 162.241 49.8328C162.129 49.7316 162.044 49.6083 161.993 49.4726C161.942 49.3369 161.927 49.1925 161.949 49.0508Z" fill="#2D3748"/>
</svg>
