<svg width="356" height="71" viewBox="0 0 356 71" fill="none" xmlns="http://www.w3.org/2000/svg">
<path d="M31.6699 58.0527L2.57812 45.2207V41.0312L31.6699 26.5V33.5312L11.6309 42.8184L31.6699 51.0508V58.0527ZM308.145 21.168L292.178 64H284.062L300.029 21.168H308.145ZM311.016 51.0508L331.055 42.8184L311.016 33.5312V26.5L340.107 41.0312V45.2207L311.016 58.0527V51.0508Z" fill="#718096"/>
<path d="M58 45.9413C58 45.3013 58 44.6313 58 43.9413C58 43.2513 58 42.5813 58 41.9413C58 41.3013 58.08 40.7312 58.15 40.2312C58.2972 38.9904 58.6345 37.7795 59.15 36.6413C59.6428 35.5396 60.3499 34.547 61.23 33.7213C62.117 32.8656 63.1589 32.1868 64.3 31.7213C65.5753 31.2286 66.933 30.9842 68.3 31.0013C69.6901 30.9802 71.0715 31.2246 72.37 31.7213C73.515 32.1794 74.5582 32.8591 75.44 33.7213C76.3033 34.5517 77.0052 35.5349 77.51 36.6212C78.0256 37.756 78.3629 38.9636 78.51 40.2013C78.57 40.7013 78.62 41.2712 78.65 41.9112C78.68 42.5512 78.7 43.2212 78.7 43.9112C78.7 44.6012 78.7 45.2712 78.65 45.9112C78.6 46.5512 78.57 47.1212 78.51 47.6112C78.3582 48.8544 78.0211 50.0679 77.51 51.2113C77.0097 52.2972 76.3072 53.278 75.44 54.1013C74.5493 54.957 73.5041 55.6357 72.36 56.1013C71.0849 56.5946 69.7271 56.839 68.36 56.8212C66.9731 56.8432 65.5948 56.5988 64.3 56.1013C63.1473 55.6408 62.0946 54.9617 61.2 54.1013C60.3236 53.2822 59.6198 52.2962 59.13 51.2013C58.617 50.0621 58.2798 48.8516 58.13 47.6112C58.1 47.1512 58.04 46.5813 58 45.9413ZM64.38 41.9413C64.38 42.5813 64.3 43.2513 64.3 43.9413C64.3 44.6313 64.3 45.3013 64.38 45.9413C64.46 46.5813 64.48 47.1612 64.54 47.6612C64.637 48.4351 65.0141 49.1466 65.6 49.6612C66.3994 50.2192 67.3684 50.4808 68.34 50.4013C69.3189 50.4768 70.2939 50.2118 71.1 49.6513C71.6926 49.1392 72.0769 48.4276 72.18 47.6513C72.24 47.1513 72.29 46.5812 72.32 45.9312C72.35 45.2812 72.32 44.6212 72.32 43.9312C72.32 43.2412 72.32 42.5712 72.32 41.9312C72.32 41.2912 72.24 40.7113 72.18 40.2113C72.0769 39.4349 71.6926 38.7233 71.1 38.2113C70.2947 37.6402 69.314 37.3712 68.33 37.4512C67.3805 37.3677 66.4303 37.6035 65.63 38.1213C65.0239 38.6588 64.6331 39.3977 64.53 40.2013C64.48 40.7213 64.42 41.2913 64.38 41.9413Z" fill="#3182CE"/>
<path d="M82.41 55.2614V32.6214C82.41 32.3561 82.5154 32.1018 82.7029 31.9142C82.8904 31.7267 83.1448 31.6214 83.41 31.6214H85.88C86.1184 31.6103 86.3549 31.6694 86.56 31.7914C86.7358 31.905 86.8885 32.0509 87.01 32.2214C87.1506 32.3717 87.3046 32.5089 87.47 32.6314C87.6496 32.7526 87.8636 32.8123 88.08 32.8014C88.4307 32.7963 88.7745 32.7034 89.08 32.5314L90.19 31.9414C90.6388 31.7166 91.0995 31.5163 91.57 31.3414C92.1838 31.1456 92.826 31.0543 93.47 31.0714C94.7034 31.0628 95.9253 31.3079 97.06 31.7914C98.1519 32.2658 99.143 32.9447 99.98 33.7914C100.81 34.6179 101.463 35.6045 101.9 36.6914C102.362 37.8314 102.597 39.0511 102.59 40.2814V55.2814C102.59 55.5466 102.485 55.8009 102.297 55.9885C102.11 56.176 101.855 56.2814 101.59 56.2814H97.2C96.9348 56.2814 96.6804 56.176 96.4929 55.9885C96.3054 55.8009 96.2 55.5466 96.2 55.2814V40.1914C96.2001 39.7947 96.1102 39.4032 95.937 39.0463C95.7638 38.6895 95.5118 38.3766 95.2 38.1314C94.4126 37.5337 93.4366 37.2392 92.45 37.3014C91.4792 37.2418 90.5179 37.521 89.73 38.0914C89.423 38.3068 89.172 38.5926 88.9981 38.9249C88.8241 39.2572 88.7322 39.6263 88.73 40.0014V55.2614C88.73 55.5266 88.6247 55.7809 88.4371 55.9685C88.2496 56.156 87.9952 56.2614 87.73 56.2614H83.39C83.1248 56.2614 82.8704 56.156 82.6829 55.9685C82.4954 55.7809 82.39 55.5266 82.39 55.2614H82.41Z" fill="#3182CE"/>
<path d="M36.0023 48.4301C36.0086 48.1699 36.1163 47.9223 36.3023 47.7401C36.3889 47.6461 36.494 47.5709 36.611 47.5193C36.728 47.4676 36.8544 47.4407 36.9823 47.4401H41.4123C41.5402 47.4407 41.6665 47.4676 41.7835 47.5193C41.9005 47.5709 42.0056 47.6461 42.0923 47.7401C42.2783 47.9223 42.3859 48.1699 42.3923 48.4301C42.3732 48.7882 42.4415 49.1456 42.5913 49.4714C42.7411 49.7972 42.968 50.0816 43.2523 50.3001C43.8734 50.7167 44.6044 50.9392 45.3523 50.9392C46.1002 50.9392 46.8312 50.7167 47.4523 50.3001C47.7359 50.081 47.9623 49.7965 48.1121 49.4708C48.2619 49.1452 48.3305 48.7881 48.3123 48.4301V27.9C48.32 27.832 48.3125 27.7632 48.2902 27.6985C48.268 27.6337 48.2316 27.5748 48.1837 27.526C48.1358 27.4771 48.0776 27.4395 48.0133 27.416C47.9491 27.3925 47.8804 27.3836 47.8123 27.39H41.8923C41.7635 27.3915 41.6359 27.3665 41.5172 27.3166C41.3985 27.2667 41.2913 27.193 41.2023 27.1C41.1052 27.0115 41.0282 26.9032 40.9764 26.7825C40.9247 26.6618 40.8994 26.5313 40.9023 26.4V21.99C40.9086 21.7297 41.0163 21.4822 41.2023 21.3C41.3844 21.114 41.632 21.0064 41.8923 21H53.8923C54.101 21.0026 54.3004 21.0867 54.448 21.2343C54.5956 21.3818 54.6797 21.5813 54.6823 21.79V48.5501C54.695 49.7388 54.4556 50.9167 53.9799 52.0061C53.5041 53.0954 52.8029 54.0716 51.9223 54.8701C51.0438 55.6552 50.0264 56.2691 48.9223 56.6801C46.5985 57.5735 44.026 57.5735 41.7023 56.6801C40.5874 56.2634 39.5673 55.6276 38.7023 54.8101C37.8622 53.9983 37.1836 53.0346 36.7023 51.9701C36.2128 50.8556 35.9738 49.6471 36.0023 48.4301Z" fill="#3182CE"/>
<path d="M142.012 49.4902C142.024 48.5839 142.207 47.6881 142.552 46.8502C142.933 45.9218 143.49 45.0762 144.192 44.3602C144.991 43.5607 145.939 42.9255 146.982 42.4902C148.217 41.9888 149.54 41.7438 150.872 41.7702H155.872C155.938 41.7796 156.006 41.7739 156.069 41.7534C156.133 41.7329 156.191 41.6983 156.239 41.652C156.287 41.6057 156.324 41.5491 156.347 41.4864C156.371 41.4237 156.379 41.3566 156.372 41.2902V40.4902C156.402 40.0538 156.318 39.6171 156.129 39.2227C155.94 38.8284 155.651 38.4898 155.292 38.2402C154.487 37.7188 153.54 37.4602 152.582 37.5002C152.268 37.5029 151.954 37.5262 151.642 37.5702C151.264 37.6164 150.892 37.7036 150.532 37.8302C150.186 37.9485 149.869 38.1394 149.602 38.3902C149.467 38.5182 149.362 38.6738 149.293 38.8464C149.224 39.019 149.193 39.2045 149.202 39.3902C149.202 39.8202 149.092 40.0802 148.862 40.1702C148.525 40.2871 148.169 40.338 147.812 40.3202H144.062C143.927 40.3223 143.792 40.2968 143.666 40.2452C143.541 40.1937 143.427 40.1171 143.332 40.0202C143.235 39.9356 143.157 39.8312 143.103 39.7139C143.05 39.5965 143.022 39.4691 143.022 39.3402C143.021 38.3646 143.258 37.4035 143.712 36.5402C144.193 35.6275 144.852 34.8213 145.652 34.1702C146.557 33.4276 147.591 32.8581 148.702 32.4902C150.03 32.0618 151.418 31.8524 152.812 31.8702C155.475 31.7354 158.1 32.5465 160.222 34.1602C161.164 34.9777 161.904 36.001 162.386 37.1507C162.868 38.3005 163.079 39.5458 163.002 40.7902V56.0302C163.002 56.1606 162.975 56.2895 162.921 56.4085C162.868 56.5275 162.79 56.6337 162.692 56.7202C162.597 56.8171 162.484 56.8937 162.358 56.9452C162.233 56.9968 162.098 57.0223 161.962 57.0202H159.382C159.242 57.0186 159.104 56.9875 158.976 56.9289C158.849 56.8703 158.735 56.7856 158.642 56.6802C158.478 56.4955 158.349 56.2819 158.262 56.0502C158.182 55.8102 157.962 55.7002 157.602 55.7002C157.31 55.7179 157.029 55.8185 156.792 55.9902C156.482 56.1802 156.102 56.3902 155.642 56.6202C155.117 56.8865 154.568 57.104 154.002 57.2702C153.238 57.4862 152.446 57.5874 151.652 57.5702C149.121 57.7339 146.613 56.9972 144.572 55.4902C143.711 54.7556 143.032 53.8316 142.588 52.7906C142.144 51.7497 141.947 50.62 142.012 49.4902V49.4902ZM148.382 49.4902C148.356 49.8823 148.435 50.2744 148.611 50.626C148.786 50.9775 149.053 51.2758 149.382 51.4902C150.064 51.9183 150.858 52.1341 151.662 52.1102C152.885 52.1531 154.099 51.8992 155.202 51.3702C155.677 51.1112 156.065 50.7179 156.318 50.2394C156.571 49.7609 156.676 49.2185 156.622 48.6802V47.4902C156.631 47.4236 156.626 47.3559 156.605 47.2919C156.585 47.2279 156.55 47.1694 156.504 47.1204C156.458 47.0715 156.402 47.0336 156.339 47.0093C156.276 46.985 156.209 46.9751 156.142 46.9802H150.942C150.498 46.9595 150.057 47.0561 149.662 47.2602C149.356 47.4238 149.093 47.6567 148.892 47.9402C148.718 48.1877 148.593 48.466 148.522 48.7602C148.451 48.998 148.404 49.2427 148.382 49.4902V49.4902Z" fill="#3182CE"/>
<path d="M166.832 37.4902V33.4902C166.839 33.2299 166.946 32.9824 167.132 32.8002C167.314 32.6142 167.562 32.5066 167.822 32.5002H173.252C173.318 32.5104 173.384 32.5051 173.447 32.4846C173.51 32.4641 173.568 32.429 173.614 32.3823C173.661 32.3355 173.696 32.2783 173.717 32.2154C173.737 32.1524 173.743 32.0856 173.732 32.0202V31.0202C173.722 29.7911 173.974 28.574 174.472 27.4502C174.948 26.3768 175.627 25.4056 176.472 24.5902C177.34 23.7683 178.358 23.1229 179.472 22.6902C180.622 22.2266 181.852 21.9922 183.092 22.0002H187.542C187.801 22.0039 188.048 22.1079 188.232 22.2902C188.329 22.3787 188.406 22.487 188.458 22.6077C188.51 22.7284 188.535 22.8589 188.532 22.9902V27.4902C188.532 27.7554 188.427 28.0098 188.239 28.1973C188.052 28.3848 187.797 28.4902 187.532 28.4902H183.082C182.318 28.4679 181.572 28.7318 180.992 29.2302C180.704 29.4752 180.476 29.7828 180.326 30.1294C180.175 30.4761 180.105 30.8526 180.122 31.2302V32.1202C180.122 32.4402 180.292 32.6002 180.632 32.6002H188.012C188.273 32.6066 188.52 32.7142 188.702 32.9002C188.888 33.0824 188.996 33.3299 189.002 33.5902V37.4902C189.002 37.7554 188.897 38.0098 188.709 38.1973C188.522 38.3848 188.267 38.4902 188.002 38.4902H180.622C180.556 38.481 180.488 38.4869 180.424 38.5073C180.36 38.5278 180.301 38.5623 180.253 38.6083C180.204 38.6543 180.166 38.7107 180.141 38.7734C180.117 38.836 180.107 38.9032 180.112 38.9702V56.0302C180.111 56.2877 180.011 56.5348 179.832 56.7202C179.648 56.9086 179.396 57.0164 179.132 57.0202H174.712C174.447 57.0202 174.193 56.9148 174.005 56.7273C173.818 56.5398 173.712 56.2854 173.712 56.0202V38.9402C173.723 38.8748 173.717 38.808 173.697 38.745C173.676 38.6821 173.641 38.6249 173.594 38.5781C173.548 38.5313 173.49 38.4963 173.427 38.4758C173.364 38.4553 173.298 38.4499 173.232 38.4602H167.802C167.537 38.4602 167.283 38.3548 167.095 38.1673C166.908 37.9798 166.802 37.7254 166.802 37.4602L166.832 37.4902Z" fill="#3182CE"/>
<path d="M185.752 37.4902V33.4902C185.759 33.23 185.866 32.9824 186.052 32.8002C186.234 32.6142 186.482 32.5066 186.742 32.5002H192.172C192.238 32.5105 192.304 32.5051 192.367 32.4847C192.43 32.4642 192.487 32.4291 192.534 32.3823C192.581 32.3355 192.616 32.2783 192.637 32.2154C192.657 32.1525 192.662 32.0856 192.652 32.0202V31.0202C192.64 29.8049 192.889 28.6011 193.382 27.4902C193.857 26.4164 194.537 25.4451 195.382 24.6302C196.249 23.8083 197.268 23.163 198.382 22.7302C199.532 22.2667 200.762 22.0323 202.002 22.0402H206.452C206.708 22.0465 206.951 22.1503 207.132 22.3302C207.231 22.4182 207.309 22.5262 207.363 22.6469C207.416 22.7676 207.443 22.8982 207.442 23.0302V27.4902C207.433 27.752 207.322 27.9997 207.132 28.1802C207.046 28.2743 206.94 28.3495 206.823 28.4011C206.706 28.4527 206.58 28.4797 206.452 28.4802H202.002C201.238 28.4579 200.492 28.7218 199.912 29.2202C199.626 29.4658 199.399 29.7737 199.25 30.1204C199.101 30.4671 199.033 30.8433 199.052 31.2202V32.1102C199.052 32.4302 199.212 32.5902 199.552 32.5902H206.932C207.197 32.5902 207.452 32.6956 207.639 32.8831C207.827 33.0707 207.932 33.325 207.932 33.5902V37.4902C207.926 37.7505 207.818 37.9981 207.632 38.1802C207.45 38.3662 207.202 38.4739 206.942 38.4802H199.562C199.496 38.4708 199.429 38.4765 199.365 38.497C199.302 38.5175 199.243 38.5521 199.195 38.5984C199.147 38.6447 199.11 38.7013 199.087 38.764C199.064 38.8267 199.055 38.8938 199.062 38.9602V56.0302C199.058 56.2891 198.955 56.5364 198.772 56.7202C198.588 56.9087 198.336 57.0165 198.072 57.0202H193.652C193.387 57.0202 193.133 56.9149 192.945 56.7273C192.758 56.5398 192.652 56.2855 192.652 56.0202V38.9402C192.662 38.8749 192.657 38.808 192.637 38.7451C192.616 38.6822 192.581 38.625 192.534 38.5782C192.487 38.5314 192.43 38.4963 192.367 38.4758C192.304 38.4553 192.238 38.45 192.172 38.4602H186.742C186.477 38.4602 186.223 38.3549 186.035 38.1673C185.848 37.9798 185.742 37.7255 185.742 37.4602L185.752 37.4902Z" fill="#3182CE"/>
<path d="M212.492 56.0302V33.3902C212.492 33.1249 212.598 32.8706 212.785 32.683C212.973 32.4955 213.227 32.3902 213.492 32.3902H215.952C216.191 32.3779 216.427 32.4371 216.632 32.5602C216.808 32.6738 216.961 32.8197 217.082 32.9902C217.226 33.1408 217.383 33.278 217.552 33.4002C217.732 33.5214 217.946 33.5811 218.162 33.5702C218.513 33.5668 218.857 33.4739 219.162 33.3002L220.272 32.7102C220.722 32.4872 221.182 32.2869 221.652 32.1102C222.266 31.9144 222.908 31.8231 223.552 31.8402C224.789 31.8303 226.014 32.0753 227.152 32.5602C228.24 33.0372 229.227 33.7158 230.062 34.5602C230.895 35.3842 231.549 36.3715 231.982 37.4602C232.445 38.6002 232.679 39.8199 232.672 41.0502V56.0502C232.672 56.3154 232.567 56.5697 232.379 56.7573C232.192 56.9448 231.937 57.0502 231.672 57.0502H227.282C227.017 57.0502 226.763 56.9448 226.575 56.7573C226.388 56.5697 226.282 56.3154 226.282 56.0502V40.9602C226.282 40.5635 226.192 40.172 226.019 39.8151C225.846 39.4583 225.594 39.1454 225.282 38.9002C224.495 38.3017 223.519 38.0071 222.532 38.0702C221.564 38.0104 220.606 38.2898 219.822 38.8602C219.516 39.0762 219.265 39.3621 219.091 39.6943C218.917 40.0264 218.825 40.3952 218.822 40.7702V56.0302C218.822 56.2954 218.717 56.5497 218.529 56.7373C218.342 56.9248 218.087 57.0302 217.822 57.0302H213.482C213.217 57.0302 212.963 56.9248 212.775 56.7373C212.588 56.5497 212.482 56.2954 212.482 56.0302H212.492Z" fill="#3182CE"/>
<path d="M236.522 46.7002C236.522 46.0602 236.522 45.4002 236.522 44.7002C236.522 44.0002 236.522 43.3402 236.522 42.7002C236.522 42.0602 236.602 41.4902 236.662 41.0002C236.821 39.7526 237.176 38.5377 237.712 37.4002C238.222 36.2955 238.95 35.3056 239.852 34.4902C240.778 33.6353 241.852 32.9574 243.022 32.4902C244.351 31.9903 245.763 31.746 247.182 31.7702C248.632 31.7515 250.074 31.9711 251.452 32.4202C252.686 32.8147 253.826 33.4579 254.802 34.3102C255.756 35.193 256.498 36.2802 256.972 37.4902C257.511 38.8095 257.773 40.2254 257.742 41.6502V45.6902C257.742 45.8206 257.715 45.9496 257.661 46.0685C257.608 46.1875 257.53 46.2937 257.432 46.3802C257.332 46.478 257.213 46.5549 257.082 46.6064C256.952 46.6579 256.812 46.6829 256.672 46.6802H243.612C243.51 46.665 243.406 46.6739 243.308 46.7063C243.21 46.7386 243.121 46.7934 243.048 46.8663C242.975 46.9392 242.921 47.0282 242.888 47.1261C242.856 47.2241 242.847 47.3282 242.862 47.4302C242.821 48.0196 242.915 48.6107 243.137 49.1583C243.358 49.706 243.702 50.1957 244.142 50.5902C244.984 51.2904 246.047 51.6695 247.142 51.6602C247.968 51.6818 248.79 51.5284 249.552 51.2102C250.238 50.8723 250.765 50.2804 251.022 49.5602C251.09 49.3128 251.238 49.0946 251.442 48.9392C251.646 48.7838 251.896 48.6998 252.152 48.7002H256.242C256.49 48.6991 256.73 48.7839 256.922 48.9402C257.122 49.1002 257.172 49.3802 257.082 49.7802C256.592 51.9574 255.426 53.9241 253.752 55.4002C251.894 56.9177 249.538 57.691 247.142 57.5702C245.723 57.5944 244.311 57.3501 242.982 56.8502C241.812 56.383 240.738 55.7051 239.812 54.8502C238.91 54.0369 238.185 53.0462 237.682 51.9402C237.158 50.8041 236.801 49.5983 236.622 48.3602C236.602 47.9102 236.552 47.3502 236.522 46.7002ZM242.912 40.7702C242.912 41.0502 243.082 41.2102 243.412 41.2202H250.872C251.192 41.2202 251.352 41.0702 251.352 40.7702C251.364 40.2849 251.247 39.805 251.012 39.3802C250.799 38.9717 250.481 38.6268 250.092 38.3802C249.671 38.1305 249.216 37.942 248.742 37.8202C248.234 37.6811 247.709 37.6104 247.182 37.6102C246.054 37.5335 244.933 37.8324 243.992 38.4602C243.636 38.7271 243.352 39.0774 243.164 39.4802C242.975 39.8831 242.889 40.3261 242.912 40.7702V40.7702Z" fill="#3182CE"/>
<path d="M259.452 33.4903C259.438 33.3942 259.438 33.2965 259.452 33.2003C259.451 33.0362 259.499 32.8757 259.592 32.7403C259.686 32.6087 259.814 32.5042 259.961 32.4375C260.109 32.3708 260.271 32.3441 260.432 32.3603H265.502C265.721 32.3534 265.935 32.4238 266.107 32.5591C266.279 32.6945 266.398 32.8861 266.442 33.1003L270.772 47.1003C270.832 47.3003 270.932 47.4003 271.072 47.4003C271.212 47.4003 271.312 47.3003 271.372 47.1003L275.372 33.1003C275.407 32.8849 275.52 32.6899 275.69 32.5531C275.86 32.4164 276.074 32.3477 276.292 32.3603H281.292C281.453 32.3441 281.616 32.3708 281.763 32.4375C281.911 32.5042 282.038 32.6087 282.132 32.7403C282.228 32.8748 282.28 33.0353 282.282 33.2003C282.28 33.2989 282.263 33.3966 282.232 33.4903L270.672 66.0903C270.628 66.3055 270.51 66.4983 270.338 66.6353C270.166 66.7723 269.952 66.8448 269.732 66.8403H265.212C265.051 66.8565 264.889 66.8298 264.741 66.7631C264.594 66.6964 264.466 66.5919 264.372 66.4603C264.293 66.3483 264.243 66.2187 264.225 66.0827C264.208 65.9468 264.224 65.8086 264.272 65.6803L267.712 56.5003C267.772 56.2703 267.812 56.1003 267.832 55.9803C267.827 55.7781 267.787 55.5783 267.712 55.3903L259.452 33.4903Z" fill="#3182CE"/>
<path d="M139.047 53.6875C137.781 55.2031 135.992 56.3828 133.68 57.2266C131.367 58.0547 128.805 58.4688 125.992 58.4688C123.039 58.4688 120.445 57.8281 118.211 56.5469C115.992 55.25 114.273 53.375 113.055 50.9219C111.852 48.4688 111.234 45.5859 111.203 42.2734V39.9531C111.203 36.5469 111.773 33.6016 112.914 31.1172C114.07 28.6172 115.727 26.7109 117.883 25.3984C120.055 24.0703 122.594 23.4062 125.5 23.4062C129.547 23.4062 132.711 24.375 134.992 26.3125C137.273 28.2344 138.625 31.0391 139.047 34.7266H132.203C131.891 32.7734 131.195 31.3438 130.117 30.4375C129.055 29.5312 127.586 29.0781 125.711 29.0781C123.32 29.0781 121.5 29.9766 120.25 31.7734C119 33.5703 118.367 36.2422 118.352 39.7891V41.9688C118.352 45.5469 119.031 48.25 120.391 50.0781C121.75 51.9062 123.742 52.8203 126.367 52.8203C129.008 52.8203 130.891 52.2578 132.016 51.1328V45.25H125.617V40.0703H139.047V53.6875Z" fill="#3182CE"/>
</svg>
