<svg width="445" height="61" viewBox="0 0 445 61" fill="none" xmlns="http://www.w3.org/2000/svg">
<path d="M444.038 33.0175C444.031 33.2823 443.914 33.5351 443.71 33.726C443.505 33.9169 443.229 34.032 442.934 34.0485C441.567 34.0467 440.244 34.4879 439.21 35.2909C438.148 36.5145 437.648 38.056 437.811 39.5998V49.8303C437.883 51.2121 437.644 52.5927 437.107 53.8895C436.571 55.1863 435.749 56.3726 434.69 57.3775C432.609 59.272 429.469 60.2193 425.268 60.2193H421.175C420.868 60.2158 420.575 60.1047 420.357 59.9096C420.14 59.7146 420.016 59.451 420.012 59.1751V53.3065C420.012 53.1694 420.042 53.0336 420.101 52.9069C420.159 52.7802 420.245 52.6651 420.353 52.5681C420.461 52.4712 420.589 52.3942 420.73 52.3418C420.871 52.2893 421.023 52.2623 421.175 52.2623H421.956C423.527 52.238 425.024 51.6606 426.126 50.6543C427.227 49.6481 427.845 48.2936 427.844 46.8827V38.0534C427.844 34.5904 429.091 32.2465 431.584 31.0216C431.769 30.9341 431.923 30.8029 432.031 30.6422C432.139 30.4815 432.197 30.2973 432.197 30.1096C432.197 29.9219 432.139 29.7378 432.031 29.5771C431.923 29.4163 431.769 29.2851 431.584 29.1976C429.091 27.9728 427.844 25.6245 427.844 22.1527V13.3233C427.844 11.8966 427.213 10.5283 426.089 9.51939C424.966 8.51053 423.442 7.94376 421.853 7.94376H421.22C420.914 7.94378 420.62 7.83558 420.402 7.64261C420.185 7.44964 420.06 7.18742 420.057 6.91279V1.03097C420.06 0.756327 420.185 0.494115 420.402 0.301142C420.62 0.108168 420.914 -2.77241e-05 421.22 -5.71869e-06H425.312C429.523 -5.71869e-06 432.663 0.942847 434.734 2.82855C435.792 3.83385 436.614 5.02026 437.15 6.31696C437.686 7.61366 437.926 8.99407 437.855 10.3758V20.6062C437.684 22.1386 438.186 23.6704 439.254 24.8755C440.292 25.669 441.614 26.1006 442.978 26.0915C443.273 26.108 443.55 26.223 443.754 26.4139C443.958 26.6049 444.076 26.8577 444.082 27.1225L444.038 33.0175Z" fill="#2D3748"/>
<path d="M0 27.215C0.00706685 26.9481 0.126342 26.6934 0.333876 26.5022C0.54141 26.311 0.821837 26.1973 1.11885 26.184C2.48157 26.1873 3.80139 25.7564 4.84346 24.968C5.90633 23.761 6.40281 22.2293 6.22731 20.6987V10.4683C6.15624 9.08661 6.39597 7.70619 6.9322 6.40949C7.46843 5.11279 8.29016 3.92638 9.34833 2.92109C11.4241 1.03098 14.5746 0.0925282 18.7703 0.0925282H22.8629C23.015 0.0907781 23.1659 0.116152 23.3069 0.167179C23.4479 0.218206 23.5762 0.293871 23.6844 0.38978C23.7926 0.48569 23.8785 0.599935 23.9372 0.725887C23.9958 0.85184 24.026 0.986992 24.0259 1.1235V7.00532C24.026 7.14183 23.9958 7.27698 23.9372 7.40293C23.8785 7.52889 23.7926 7.64313 23.6844 7.73904C23.5762 7.83495 23.4479 7.91061 23.3069 7.96164C23.1659 8.01267 23.015 8.03804 22.8629 8.03629H22.3035C20.7144 8.03629 19.1904 8.60307 18.0667 9.61193C16.943 10.6208 16.3117 11.9891 16.3117 13.4158V22.2452C16.3117 25.7082 15.0702 28.0565 12.5871 29.2902C12.3978 29.3743 12.2385 29.5043 12.1271 29.6655C12.0157 29.8266 11.9567 30.0125 11.9567 30.2022C11.9567 30.3918 12.0157 30.5777 12.1271 30.7389C12.2385 30.9 12.3978 31.03 12.5871 31.1142C15.0702 32.3478 16.3117 34.6917 16.3117 38.1459V46.9753C16.3117 48.402 16.943 49.7703 18.0667 50.7792C19.1904 51.7881 20.7144 52.3548 22.3035 52.3548H22.9365C23.245 52.3548 23.5408 52.4648 23.7589 52.6607C23.977 52.8565 24.0996 53.1221 24.0996 53.399V59.2676C24.0996 59.5446 23.977 59.8101 23.7589 60.006C23.5408 60.2018 23.245 60.3118 22.9365 60.3118H18.7703C14.5746 60.3118 11.4094 59.3601 9.34833 57.47C8.28946 56.4652 7.46728 55.2788 6.931 53.982C6.39473 52.6852 6.15539 51.3046 6.22731 49.9228V39.6527C6.3944 38.1106 5.89942 36.5693 4.84346 35.3438C3.80553 34.5459 2.48529 34.1055 1.11885 34.1014C0.821837 34.0881 0.54141 33.9744 0.333876 33.7832C0.126342 33.5919 0.00706685 33.3373 0 33.0704V27.215Z" fill="#2D3748"/>
<path d="M32.8885 48.905C32.8979 48.561 33.0564 48.2338 33.3302 47.993C33.4577 47.8687 33.6125 47.7693 33.7847 47.7011C33.9569 47.6328 34.143 47.5972 34.3313 47.5965H40.853C41.0413 47.5972 41.2274 47.6328 41.3996 47.7011C41.5718 47.7693 41.7266 47.8687 41.8541 47.993C42.1279 48.2338 42.2864 48.561 42.2958 48.905C42.2676 49.3783 42.3682 49.8506 42.5887 50.2813C42.8093 50.7119 43.1433 51.0878 43.5618 51.3767C44.4762 51.9273 45.5524 52.2214 46.6534 52.2214C47.7544 52.2214 48.8306 51.9273 49.745 51.3767C50.1626 51.0871 50.4959 50.711 50.7163 50.2806C50.9368 49.8501 51.0379 49.3782 51.011 48.905V23.5405C51.0224 23.4506 51.0113 23.3596 50.9786 23.2741C50.9459 23.1886 50.8923 23.1107 50.8218 23.0461C50.7512 22.9815 50.6656 22.9319 50.571 22.9008C50.4764 22.8697 50.3752 22.8579 50.275 22.8664H41.5597C41.3701 22.8684 41.1822 22.8354 41.0074 22.7694C40.8327 22.7035 40.6749 22.606 40.5439 22.4831C40.4009 22.3661 40.2876 22.223 40.2114 22.0634C40.1352 21.9038 40.098 21.7314 40.1022 21.5579V15.7289C40.1116 15.3849 40.27 15.0577 40.5439 14.8169C40.8121 14.571 41.1765 14.4288 41.5597 14.4204H59.2258C59.5331 14.4238 59.8267 14.5349 60.0439 14.73C60.2612 14.9251 60.385 15.1887 60.3888 15.4646V49.0636C60.4076 50.6348 60.0551 52.1916 59.3548 53.6315C58.6544 55.0714 57.622 56.3616 56.3256 57.4171C55.0324 58.4548 53.5345 59.2662 51.9091 59.8095C48.4881 60.9903 44.7009 60.9903 41.28 59.8095C39.6387 59.2587 38.1369 58.4183 36.8634 57.3378C35.6268 56.2647 34.6277 54.991 33.9191 53.584C33.1984 52.1108 32.8467 50.5136 32.8885 48.905V48.905ZM50.7166 8.82933V1.79758C50.7261 1.53002 50.8469 1.27537 51.0552 1.08383C51.1612 0.978696 51.2907 0.8949 51.4354 0.837947C51.58 0.780994 51.7364 0.752175 51.8943 0.753388H59.6822C59.8368 0.750696 59.9903 0.777594 60.1324 0.83229C60.2746 0.886985 60.4021 0.968226 60.5066 1.07061C60.7196 1.26471 60.8409 1.52514 60.8452 1.79758V8.82933C60.8672 8.97108 60.8523 9.11548 60.8016 9.25119C60.751 9.38689 60.666 9.51019 60.5532 9.6114C60.4405 9.7126 60.3032 9.78894 60.152 9.83443C60.0009 9.87991 59.84 9.89329 59.6822 9.87352H51.8943C51.7354 9.89558 51.5728 9.88392 51.4197 9.83946C51.2667 9.795 51.1273 9.71898 51.0128 9.61748C50.8984 9.51599 50.812 9.39184 50.7605 9.25498C50.7091 9.11812 50.694 8.97234 50.7166 8.82933V8.82933Z" fill="#3182CE"/>
<path d="M69.266 33.3347C69.266 32.4888 69.266 31.6032 69.266 30.6912C69.266 29.7792 69.266 28.8936 69.266 28.0477C69.266 27.2018 69.3838 26.4483 69.4869 25.7875C69.7036 24.1473 70.2001 22.5469 70.959 21.0424C71.6846 19.5863 72.7255 18.2743 74.0212 17.1828C75.327 16.0519 76.8609 15.1547 78.5408 14.5393C80.4182 13.8882 82.417 13.5652 84.4295 13.5877C86.476 13.5599 88.5096 13.8829 90.4212 14.5393C92.1069 15.1449 93.6427 16.0432 94.9408 17.1828C96.2118 18.2804 97.2451 19.5801 97.9882 21.0159C98.7473 22.5158 99.2438 24.1119 99.4604 25.7478C99.5488 26.4087 99.6224 27.1621 99.6665 28.008C99.7107 28.8539 99.7401 29.7395 99.7401 30.6515C99.7401 31.5635 99.7401 32.4491 99.6665 33.295C99.5929 34.141 99.5488 34.8944 99.4604 35.542C99.2369 37.1852 98.7407 38.7891 97.9882 40.3004C97.2517 41.7358 96.2174 43.0321 94.9408 44.1202C93.6295 45.2513 92.0908 46.1484 90.4065 46.7638C88.5294 47.4158 86.5304 47.7389 84.5178 47.7154C82.476 47.7445 80.4469 47.4214 78.5408 46.7638C76.8438 46.1552 75.2941 45.2575 73.977 44.1202C72.6868 43.0376 71.6507 41.7344 70.9296 40.2871C70.1744 38.7814 69.678 37.1815 69.4574 35.542C69.4133 34.934 69.3249 34.1806 69.266 33.3347ZM78.6585 28.0477C78.6585 28.8936 78.5408 29.7792 78.5408 30.6912C78.5408 31.6032 78.5408 32.4888 78.6585 33.3347C78.7763 34.1806 78.8058 34.9472 78.8941 35.6081C79.0369 36.6309 79.592 37.5714 80.4546 38.2516C81.6315 38.9891 83.058 39.3349 84.4884 39.2297C85.9295 39.3296 87.3649 38.9794 88.5516 38.2384C89.424 37.5616 89.9897 36.6211 90.1415 35.5949C90.2299 34.934 90.3035 34.1806 90.3476 33.3215C90.3918 32.4623 90.3476 31.59 90.3476 30.678C90.3476 29.766 90.3476 28.8804 90.3476 28.0345C90.3476 27.1885 90.2299 26.4219 90.1415 25.761C89.9897 24.7349 89.424 23.7943 88.5516 23.1175C87.366 22.3628 85.9222 22.0071 84.4736 22.113C83.0758 22.0026 81.6769 22.3142 80.4988 22.9986C79.6065 23.709 79.0312 24.6857 78.8794 25.7478C78.8058 26.4351 78.7174 27.1885 78.6585 28.0477Z" fill="#3182CE"/>
<path d="M105.202 45.6535V15.7289C105.202 15.3783 105.357 15.0421 105.633 14.7943C105.909 14.5464 106.284 14.4071 106.674 14.4071H110.31C110.661 14.3925 111.009 14.4706 111.311 14.6318C111.57 14.7821 111.795 14.9749 111.974 15.2002C112.181 15.3989 112.408 15.5803 112.651 15.7421C112.915 15.9024 113.231 15.9812 113.549 15.9668C114.065 15.9601 114.571 15.8374 115.021 15.6099L116.655 14.8301C117.316 14.533 117.994 14.2683 118.687 14.037C119.591 13.7782 120.536 13.6576 121.484 13.6802C123.3 13.6689 125.099 13.9928 126.769 14.6318C128.377 15.259 129.836 16.1563 131.068 17.2753C132.29 18.3678 133.252 19.6719 133.895 21.1084C134.575 22.6153 134.921 24.2274 134.91 25.8536V45.6799C134.91 46.0305 134.755 46.3667 134.479 46.6145C134.203 46.8624 133.829 47.0017 133.438 47.0017H126.975C126.585 47.0017 126.211 46.8624 125.934 46.6145C125.658 46.3667 125.503 46.0305 125.503 45.6799V25.7346C125.503 25.2103 125.371 24.6928 125.116 24.2211C124.861 23.7495 124.49 23.336 124.031 23.0118C122.872 22.2219 121.435 21.8325 119.983 21.9147C118.553 21.836 117.138 22.2051 115.978 22.9589C115.526 23.2437 115.157 23.6215 114.901 24.0607C114.645 24.4999 114.509 24.9877 114.506 25.4835V45.6535C114.506 46.004 114.351 46.3402 114.075 46.5881C113.799 46.836 113.424 46.9752 113.034 46.9752H106.645C106.254 46.9752 105.88 46.836 105.604 46.5881C105.328 46.3402 105.172 46.004 105.172 45.6535H105.202Z" fill="#3182CE"/>
<path d="M173.938 33.229C173.938 32.383 173.938 31.5107 173.938 30.5855C173.938 29.6602 173.938 28.7879 173.938 27.9419C173.938 27.096 173.938 26.3426 174.041 25.695C174.171 24.0502 174.624 22.4392 175.381 20.9366C176.096 19.5137 177.094 18.2194 178.325 17.1168C179.532 15.9945 180.972 15.0963 182.565 14.4732C184.229 13.8316 186.024 13.5076 187.835 13.5216C188.919 13.4908 190.002 13.6112 191.045 13.8784C191.745 14.0927 192.429 14.3488 193.091 14.6451C193.65 14.9094 194.121 15.1606 194.563 15.3853C194.972 15.631 195.455 15.7558 195.947 15.7421C196.324 15.7443 196.688 15.6166 196.963 15.3853C197.242 15.1695 197.507 14.9401 197.758 14.6979C197.886 14.5665 198.041 14.4592 198.216 14.382C198.39 14.3049 198.58 14.2595 198.773 14.2485H202.395C202.786 14.2485 203.16 14.3878 203.436 14.6357C203.712 14.8836 203.867 15.2197 203.867 15.5703V48.8125C203.881 50.4142 203.514 52.0002 202.793 53.4651C202.087 54.9011 201.089 56.2057 199.848 57.3114C198.55 58.4575 197.008 59.3566 195.314 59.9549C193.497 60.5866 191.564 60.905 189.617 60.8933C187.751 60.9009 185.897 60.6376 184.125 60.1135C182.476 59.6329 180.939 58.8847 179.591 57.9062C178.306 56.969 177.245 55.8092 176.47 54.496C175.688 53.16 175.288 51.6701 175.307 50.1607C175.316 49.8166 175.475 49.4895 175.749 49.2487C175.876 49.1243 176.031 49.0249 176.203 48.9567C176.375 48.8885 176.561 48.8529 176.75 48.8521H182.197C183.08 48.8521 183.581 48.9843 183.669 49.2487C183.834 49.6145 183.952 49.9958 184.022 50.3854C184.242 51.2116 184.812 51.9279 185.612 52.3812C186.656 52.9649 187.873 53.2507 189.101 53.2007C190.423 53.2123 191.712 52.8313 192.767 52.1169C193.32 51.7296 193.756 51.2245 194.036 50.6475C194.317 50.0704 194.432 49.4397 194.372 48.8125V48.178C194.372 47.1339 193.959 46.6184 193.165 46.6184C192.821 46.6234 192.481 46.6862 192.163 46.8034L190.426 47.3321C189.581 47.5309 188.709 47.62 187.835 47.5965C186.024 47.6093 184.23 47.2853 182.565 46.6448C179.355 45.4012 176.795 43.1033 175.41 40.2211C174.665 38.7237 174.207 37.1238 174.056 35.4892C173.997 34.8283 173.967 34.0881 173.938 33.229ZM183.36 27.9419C183.36 28.7879 183.36 29.6734 183.36 30.5855C183.36 31.4975 183.36 32.3698 183.36 33.229C183.36 34.0881 183.36 34.8283 183.463 35.4892C183.543 36.5412 184.07 37.5255 184.935 38.2384C186.043 39.0496 187.454 39.4514 188.88 39.3619C190.333 39.4626 191.775 39.0765 192.929 38.2781C193.366 37.9228 193.721 37.4937 193.974 37.0151C194.227 36.5366 194.372 36.0181 194.401 35.4892C194.401 34.8283 194.489 34.0881 194.519 33.229C194.548 32.3698 194.519 31.5107 194.519 30.5855C194.519 29.6602 194.519 28.7879 194.519 27.9419C194.519 27.096 194.519 26.3426 194.401 25.695C194.396 25.1486 194.262 24.6094 194.008 24.1128C193.755 23.6162 193.387 23.1734 192.929 22.8135C191.748 22.0718 190.318 21.7172 188.88 21.809C187.447 21.7157 186.028 22.1229 184.92 22.9457C184.059 23.6611 183.532 24.644 183.448 25.695C183.463 26.3426 183.463 27.1092 183.36 27.9552V27.9419Z" fill="#3182CE"/>
<path d="M209.417 36.9167C209.434 35.7188 209.704 34.5347 210.212 33.4272C210.772 32.2002 211.592 31.0825 212.627 30.136C213.803 29.0794 215.198 28.2397 216.734 27.6644C218.551 27.0016 220.5 26.6778 222.461 26.7127H229.822C229.919 26.7252 230.018 26.7176 230.112 26.6905C230.206 26.6635 230.291 26.6176 230.362 26.5565C230.433 26.4954 230.487 26.4205 230.521 26.3377C230.555 26.2548 230.568 26.1661 230.558 26.0782V25.0208C230.602 24.444 230.478 23.8668 230.2 23.3456C229.921 22.8244 229.497 22.3769 228.968 22.0469C227.783 21.3578 226.389 21.016 224.978 21.0688C224.515 21.0723 224.053 21.1033 223.594 21.1613C223.037 21.2225 222.49 21.3377 221.96 21.505C221.45 21.6614 220.984 21.9137 220.591 22.2452C220.393 22.4144 220.237 22.6201 220.136 22.8482C220.034 23.0763 219.989 23.3215 220.002 23.5669C220.002 24.1353 219.84 24.4789 219.502 24.5979C219.005 24.7524 218.481 24.8197 217.956 24.7961H212.435C212.236 24.799 212.037 24.7653 211.852 24.6971C211.668 24.6289 211.5 24.5277 211.361 24.3996C211.217 24.2879 211.102 24.1498 211.024 23.9948C210.945 23.8397 210.904 23.6712 210.904 23.5008C210.903 22.2114 211.251 20.9411 211.92 19.7999C212.627 18.5935 213.599 17.528 214.776 16.6673C216.108 15.6859 217.63 14.9331 219.266 14.4468C221.22 13.8806 223.264 13.6038 225.317 13.6273C229.237 13.4492 233.101 14.5213 236.226 16.6541C237.611 17.7347 238.701 19.0872 239.411 20.6069C240.121 22.1266 240.431 23.7726 240.318 25.4174V45.5609C240.319 45.7333 240.278 45.9038 240.199 46.061C240.121 46.2182 240.006 46.3587 239.862 46.473C239.722 46.6011 239.555 46.7023 239.37 46.7704C239.185 46.8386 238.987 46.8723 238.787 46.8695H234.989C234.783 46.8674 234.579 46.8263 234.391 46.7489C234.203 46.6714 234.036 46.5594 233.9 46.4201C233.657 46.176 233.468 45.8936 233.34 45.5874C233.222 45.2702 232.899 45.1248 232.369 45.1248C231.939 45.1482 231.525 45.2812 231.176 45.5081C230.72 45.7592 230.16 46.0368 229.483 46.3408C228.709 46.6927 227.901 46.9803 227.069 47.1999C225.944 47.4855 224.778 47.6192 223.609 47.5965C219.882 47.8129 216.19 46.8391 213.186 44.8472C211.919 43.8762 210.919 42.655 210.265 41.2791C209.611 39.9032 209.321 38.41 209.417 36.9167V36.9167ZM218.795 36.9167C218.756 37.435 218.873 37.9532 219.131 38.4179C219.39 38.8826 219.782 39.2769 220.267 39.5602C221.271 40.1261 222.439 40.4113 223.624 40.3797C225.424 40.4364 227.212 40.1008 228.835 39.4016C229.535 39.0593 230.106 38.5394 230.478 37.9069C230.85 37.2745 231.006 36.5576 230.926 35.846V34.2731C230.939 34.1852 230.931 34.0957 230.901 34.0111C230.871 33.9265 230.82 33.8491 230.752 33.7845C230.684 33.7198 230.601 33.6696 230.509 33.6375C230.417 33.6055 230.318 33.5923 230.219 33.599H222.564C221.91 33.5717 221.26 33.6993 220.679 33.9691C220.229 34.1854 219.841 34.4932 219.546 34.8679C219.29 35.1952 219.105 35.5629 219.001 35.9518C218.896 36.2662 218.827 36.5895 218.795 36.9167V36.9167Z" fill="#3182CE"/>
<path d="M245.957 21.0556V15.7685C245.966 15.4245 246.125 15.0973 246.398 14.8565C246.667 14.6107 247.031 14.4684 247.414 14.46H255.408C255.504 14.4736 255.603 14.4665 255.695 14.4394C255.788 14.4123 255.872 14.366 255.941 14.3041C256.01 14.2423 256.062 14.1667 256.092 14.0835C256.122 14.0004 256.13 13.912 256.115 13.8256V12.5038C256.1 10.8792 256.471 9.27054 257.204 7.78513C257.905 6.3663 258.905 5.08263 260.149 4.0049C261.425 2.91849 262.925 2.06553 264.565 1.49356C266.258 0.88082 268.069 0.571012 269.894 0.581551H276.446C276.827 0.586446 277.191 0.723849 277.461 0.96486C277.604 1.08183 277.718 1.22493 277.794 1.38452C277.87 1.54411 277.907 1.7165 277.903 1.89009V7.838C277.903 8.18855 277.748 8.52474 277.472 8.77262C277.196 9.0205 276.821 9.15975 276.431 9.15975H269.88C268.754 9.13029 267.657 9.47909 266.803 10.1379C266.379 10.4617 266.043 10.8682 265.821 11.3264C265.599 11.7846 265.497 12.2822 265.522 12.7814V13.9577C265.522 14.3807 265.772 14.5922 266.273 14.5922H277.137C277.521 14.6006 277.885 14.7428 278.153 14.9887C278.427 15.2295 278.586 15.5567 278.595 15.9007V21.0556C278.595 21.4061 278.44 21.7423 278.164 21.9902C277.888 22.2381 277.513 22.3773 277.123 22.3773H266.258C266.16 22.3652 266.06 22.373 265.966 22.4C265.872 22.427 265.786 22.4726 265.714 22.5334C265.642 22.5943 265.586 22.6688 265.55 22.7516C265.514 22.8344 265.5 22.9233 265.507 23.0118V45.5609C265.506 45.9013 265.358 46.2279 265.095 46.473C264.823 46.722 264.453 46.8645 264.065 46.8695H257.558C257.167 46.8695 256.793 46.7302 256.517 46.4823C256.24 46.2345 256.085 45.8983 256.085 45.5477V22.9721C256.1 22.8857 256.093 22.7973 256.062 22.7142C256.032 22.631 255.981 22.5554 255.912 22.4936C255.843 22.4317 255.759 22.3854 255.666 22.3583C255.573 22.3312 255.475 22.3241 255.379 22.3377H247.385C246.994 22.3377 246.62 22.1984 246.344 21.9505C246.068 21.7027 245.913 21.3665 245.913 21.0159L245.957 21.0556Z" fill="#3182CE"/>
<path d="M273.81 21.0556V15.7686C273.82 15.4245 273.978 15.0973 274.252 14.8565C274.52 14.6107 274.885 14.4684 275.268 14.46H283.262C283.358 14.4736 283.456 14.4665 283.549 14.4394C283.642 14.4123 283.726 14.366 283.795 14.3041C283.864 14.2423 283.915 14.1667 283.945 14.0835C283.976 14.0004 283.984 13.912 283.968 13.8256V12.5038C283.951 10.8974 284.317 9.30628 285.043 7.83801C285.743 6.41869 286.743 5.13485 287.987 4.05778C289.264 2.97137 290.764 2.11841 292.404 1.54644C294.097 0.9337 295.908 0.623891 297.733 0.634431H304.284C304.66 0.642705 305.019 0.779857 305.286 1.01774C305.43 1.13405 305.546 1.27671 305.625 1.43624C305.703 1.59577 305.743 1.76851 305.742 1.94297V7.83801C305.729 8.18394 305.565 8.5114 305.286 8.75002C305.158 8.87436 305.003 8.97375 304.831 9.04198C304.659 9.1102 304.473 9.1458 304.284 9.14655H297.733C296.608 9.11709 295.511 9.46588 294.656 10.1247C294.234 10.4492 293.901 10.8562 293.682 11.3144C293.462 11.7727 293.362 12.27 293.39 12.7682V13.9445C293.39 14.3675 293.626 14.579 294.126 14.579H304.991C305.382 14.579 305.756 14.7182 306.032 14.9661C306.308 15.214 306.463 15.5502 306.463 15.9007V21.0556C306.454 21.3996 306.295 21.7268 306.022 21.9676C305.753 22.2135 305.389 22.3557 305.006 22.3641H294.141C294.044 22.3516 293.945 22.3592 293.851 22.3863C293.757 22.4133 293.672 22.4592 293.601 22.5203C293.53 22.5815 293.475 22.6563 293.442 22.7392C293.408 22.822 293.395 22.9107 293.405 22.9986V45.561C293.4 45.9031 293.247 46.2301 292.978 46.473C292.706 46.722 292.336 46.8645 291.948 46.8695H285.441C285.05 46.8695 284.676 46.7303 284.4 46.4824C284.124 46.2345 283.968 45.8983 283.968 45.5478V22.9721C283.984 22.8857 283.976 22.7973 283.945 22.7142C283.915 22.631 283.864 22.5554 283.795 22.4936C283.726 22.4317 283.642 22.3854 283.549 22.3583C283.456 22.3312 283.358 22.3241 283.262 22.3377H275.268C274.877 22.3377 274.503 22.1984 274.227 21.9506C273.951 21.7027 273.796 21.3665 273.796 21.0159L273.81 21.0556Z" fill="#3182CE"/>
<path d="M313.176 45.561V15.6364C313.176 15.2858 313.331 14.9496 313.608 14.7017C313.884 14.4539 314.258 14.3146 314.649 14.3146H318.27C318.621 14.2984 318.97 14.3766 319.271 14.5393C319.53 14.6896 319.755 14.8824 319.934 15.1077C320.146 15.3067 320.377 15.4881 320.626 15.6496C320.89 15.8098 321.205 15.8887 321.524 15.8743C322.04 15.8698 322.547 15.747 322.996 15.5174L324.63 14.7376C325.292 14.4429 325.97 14.1782 326.662 13.9445C327.565 13.6857 328.511 13.5651 329.459 13.5876C331.279 13.5746 333.083 13.8985 334.759 14.5393C336.36 15.1699 337.813 16.0668 339.043 17.1828C340.269 18.272 341.231 19.577 341.869 21.0159C342.55 22.5228 342.895 24.1349 342.885 25.761V45.5874C342.885 45.9379 342.73 46.2741 342.454 46.522C342.178 46.7699 341.803 46.9091 341.413 46.9091H334.95C334.559 46.9091 334.185 46.7699 333.909 46.522C333.633 46.2741 333.478 45.9379 333.478 45.5874V25.6421C333.478 25.1178 333.345 24.6003 333.09 24.1286C332.835 23.657 332.464 23.2434 332.006 22.9193C330.847 22.1283 329.41 21.7388 327.957 21.8222C326.532 21.7433 325.122 22.1125 323.967 22.8664C323.516 23.1519 323.148 23.5299 322.892 23.9689C322.636 24.4079 322.5 24.8954 322.495 25.3909V45.561C322.495 45.9115 322.34 46.2477 322.064 46.4956C321.788 46.7435 321.414 46.8827 321.023 46.8827H314.634C314.243 46.8827 313.869 46.7435 313.593 46.4956C313.317 46.2477 313.162 45.9115 313.162 45.561H313.176Z" fill="#3182CE"/>
<path d="M348.553 33.229C348.553 32.383 348.553 31.5107 348.553 30.5855C348.553 29.6602 348.553 28.7879 348.553 27.9419C348.553 27.096 348.671 26.3426 348.759 25.695C348.993 24.0459 349.515 22.4402 350.305 20.9366C351.055 19.4765 352.126 18.1681 353.455 17.0903C354.818 15.9603 356.399 15.0643 358.122 14.4468C360.078 13.786 362.156 13.4632 364.246 13.4951C366.38 13.4704 368.504 13.7607 370.533 14.3543C372.349 14.8757 374.028 15.7259 375.464 16.8524C376.869 18.0193 377.961 19.4562 378.659 21.0556C379.452 22.7993 379.838 24.6709 379.792 26.5541V31.894C379.793 32.0664 379.752 32.2368 379.674 32.3941C379.595 32.5513 379.48 32.6917 379.336 32.806C379.188 32.9353 379.013 33.0369 378.821 33.1049C378.629 33.173 378.424 33.2062 378.217 33.2025H358.991C358.84 33.1825 358.687 33.1943 358.543 33.237C358.399 33.2797 358.268 33.3522 358.16 33.4485C358.053 33.5449 357.972 33.6625 357.925 33.792C357.877 33.9214 357.864 34.059 357.886 34.1939C357.826 34.9729 357.964 35.7542 358.29 36.478C358.617 37.2019 359.123 37.8492 359.771 38.3706C361.01 39.2961 362.575 39.7972 364.187 39.7849C365.404 39.8134 366.613 39.6107 367.735 39.1901C368.745 38.7435 369.521 37.9612 369.899 37.0092C370 36.6822 370.217 36.3937 370.517 36.1883C370.818 35.9829 371.185 35.872 371.563 35.8725H377.584C377.949 35.871 378.303 35.9832 378.585 36.1897C378.88 36.4012 378.953 36.7713 378.821 37.3C378.098 40.1777 376.383 42.7773 373.918 44.7283C371.183 46.734 367.715 47.7561 364.187 47.5965C362.097 47.6285 360.02 47.3056 358.063 46.6448C356.341 46.0273 354.759 45.1313 353.396 44.0013C352.068 42.9263 351 41.6169 350.261 40.155C349.49 38.6533 348.964 37.0596 348.7 35.4231C348.671 34.8283 348.597 34.0881 348.553 33.229ZM357.96 25.3909C357.96 25.761 358.21 25.9725 358.696 25.9857H369.679C370.15 25.9857 370.385 25.7875 370.385 25.3909C370.403 24.7495 370.231 24.1153 369.885 23.5537C369.571 23.0138 369.103 22.5579 368.53 22.2319C367.91 21.902 367.241 21.6528 366.543 21.4918C365.795 21.3079 365.022 21.2145 364.246 21.2142C362.586 21.1129 360.934 21.5079 359.55 22.3377C359.026 22.6904 358.607 23.1535 358.33 23.6859C358.053 24.2184 357.926 24.804 357.96 25.3909V25.3909Z" fill="#3182CE"/>
<path d="M382.31 15.7685C382.289 15.6415 382.289 15.5123 382.31 15.3852C382.308 15.1684 382.379 14.9561 382.516 14.7772C382.655 14.6032 382.842 14.4652 383.059 14.377C383.276 14.2888 383.516 14.2536 383.753 14.275H391.217C391.539 14.2658 391.854 14.3588 392.107 14.5377C392.36 14.7166 392.535 14.9699 392.6 15.2531L398.975 33.7577C399.063 34.022 399.211 34.1542 399.417 34.1542C399.623 34.1542 399.77 34.022 399.858 33.7577L405.747 15.2531C405.798 14.9683 405.964 14.7105 406.214 14.5298C406.465 14.3491 406.781 14.2583 407.101 14.275H414.462C414.699 14.2536 414.939 14.2888 415.156 14.377C415.373 14.4652 415.56 14.6032 415.699 14.7772C415.84 14.955 415.917 15.1671 415.92 15.3852C415.916 15.5156 415.892 15.6447 415.846 15.7685L398.828 58.8578C398.762 59.1422 398.588 59.3971 398.336 59.5782C398.083 59.7593 397.767 59.8551 397.444 59.8491H390.79C390.553 59.8705 390.313 59.8353 390.096 59.7471C389.879 59.6589 389.692 59.5209 389.553 59.3469C389.437 59.1989 389.362 59.0275 389.337 58.8478C389.311 58.6681 389.335 58.4855 389.406 58.3159L394.47 46.1822C394.558 45.8782 394.617 45.6535 394.647 45.4949C394.64 45.2276 394.58 44.9636 394.47 44.715L382.31 15.7685Z" fill="#3182CE"/>
<path d="M143.032 45.0855V38.0537C143.042 37.7862 143.162 37.5315 143.371 37.34C143.472 37.2338 143.599 37.1491 143.742 37.092C143.884 37.0349 144.039 37.0067 144.195 37.0095H151.983C152.14 37.0058 152.296 37.0322 152.441 37.0869C152.585 37.1416 152.715 37.2234 152.822 37.3268C153.038 37.5193 153.159 37.7807 153.161 38.0537V45.0855C153.183 45.2285 153.168 45.3743 153.117 45.5111C153.065 45.648 152.979 45.7721 152.864 45.8736C152.75 45.9751 152.611 46.0511 152.458 46.0956C152.304 46.1401 152.142 46.1517 151.983 46.1297H144.195C144.037 46.1494 143.876 46.1361 143.725 46.0906C143.574 46.0451 143.437 45.9687 143.324 45.8675C143.211 45.7663 143.126 45.643 143.076 45.5073C143.025 45.3716 143.01 45.2272 143.032 45.0855V45.0855Z" fill="#2D3748"/>
<path d="M143.032 27.9026V20.8709C143.042 20.6033 143.162 20.3487 143.371 20.1571C143.472 20.051 143.599 19.9663 143.742 19.9092C143.884 19.8521 144.039 19.8239 144.195 19.8267H151.983C152.14 19.823 152.296 19.8493 152.441 19.904C152.585 19.9587 152.715 20.0405 152.822 20.1439C153.038 20.3364 153.159 20.5979 153.161 20.8709V27.9026C153.183 28.0457 153.168 28.1914 153.117 28.3283C153.065 28.4651 152.979 28.5893 152.864 28.6908C152.75 28.7923 152.611 28.8683 152.458 28.9128C152.304 28.9572 152.142 28.9689 151.983 28.9468H144.195C144.037 28.9666 143.876 28.9532 143.725 28.9077C143.574 28.8623 143.437 28.7859 143.324 28.6847C143.211 28.5835 143.126 28.4602 143.076 28.3245C143.025 28.1888 143.01 28.0444 143.032 27.9026V27.9026Z" fill="#2D3748"/>
</svg>
